<?xml version="1.0" encoding="utf-8"?>
<!-- Generator: Adobe Illustrator 16.0.0, SVG Export Plug-In . SVG Version: 6.00 Build 0)  -->
<!DOCTYPE svg PUBLIC "-//W3C//DTD SVG 1.1//EN" "http://www.w3.org/Graphics/SVG/1.1/DTD/svg11.dtd">
<svg version="1.1" xmlns="http://www.w3.org/2000/svg" xmlns:xlink="http://www.w3.org/1999/xlink" x="0px" y="0px"
	 width="96.191px" height="83.052px" viewBox="178.5 368.448 96.191 83.052" enable-background="new 178.5 368.448 96.191 83.052"
	 xml:space="preserve">
<g id="Layer_2">
</g>
<g id="Layer_1">
	<polygon fill="none" points="206.548,426.416 206.548,405.566 202.318,403.02 202.318,430.646 248.198,430.646 241.175,426.416 	
		"/>
	<path fill="none" d="M202.318,392.581v0.82l50.753,30.561v-31.381H202.318z M240.383,413.728c-2.312,0-4.299-0.831-5.963-2.495
		c-1.665-1.664-2.496-3.649-2.496-5.964c0-2.312,0.831-4.299,2.496-5.963c1.664-1.663,3.651-2.495,5.963-2.495
		s4.299,0.83,5.963,2.495c1.665,1.664,2.496,3.651,2.496,5.963c0,2.314-0.831,4.3-2.496,5.964
		C244.682,412.896,242.694,413.728,240.383,413.728z"/>
	<polygon fill="#AAAAAA" points="202.318,392.581 253.071,392.581 253.071,423.962 257.301,426.508 257.301,388.352 
		198.089,388.352 198.089,390.854 202.318,393.401 	"/>
	<polygon fill="#AAAAAA" points="241.175,426.416 206.548,405.566 206.548,426.416 	"/>
	<path fill="#AAAAAA" d="M246.346,399.306c-1.664-1.665-3.651-2.495-5.963-2.495s-4.299,0.832-5.963,2.495
		c-1.665,1.664-2.496,3.651-2.496,5.963c0,2.314,0.831,4.3,2.496,5.964c1.664,1.664,3.651,2.495,5.963,2.495
		s4.299-0.831,5.963-2.495c1.665-1.664,2.496-3.649,2.496-5.964C248.842,402.957,248.011,400.97,246.346,399.306z"/>
	<polygon fill="#AAAAAA" points="202.318,430.646 202.318,403.02 198.089,400.473 198.089,401.04 198.089,434.875 244.612,434.875 
		248.842,434.875 255.223,434.875 248.198,430.646 	"/>
	<path fill="#AAAAAA" d="M266.745,434.095c-0.552,0.917-1.743,1.214-2.66,0.661l-77.229-46.503c-0.917-0.553-1.213-1.744-0.66-2.661
		l1.844-3.104c0.553-0.917,1.744-1.213,2.661-0.661l77.229,46.504c0.917,0.553,1.212,1.743,0.66,2.661L266.745,434.095z"/>
</g>
</svg>
