<svg width="250" height="250" viewBox="0 0 250 250" fill="none" xmlns="http://www.w3.org/2000/svg">
<rect width="250" height="250" fill="#EBECEF"/>
<path fill-rule="evenodd" clip-rule="evenodd" d="M61 78H187C188.105 78 189 78.8954 189 80V150.24C188.946 150.191 188.889 150.144 188.831 150.099L161.588 129.109C160.394 128.189 158.702 128.298 157.636 129.364L138.121 148.879C136.95 150.05 135.05 150.05 133.879 148.879L99.6079 114.608C98.4416 113.442 96.5525 113.436 95.3788 114.594L59 150.513V80C59 78.8954 59.8954 78 61 78ZM57 80C57 77.7909 58.7909 76 61 76H187C189.209 76 191 77.7909 191 80V168C191 170.209 189.209 172 187 172H61C58.7909 172 57 170.209 57 168V80Z" fill="#6F7B81"/>
<path d="M148 110C148 114.418 144.418 118 140 118C135.582 118 132 114.418 132 110C132 105.582 135.582 102 140 102C144.418 102 148 105.582 148 110Z" fill="#6F7B81"/>
</svg>
