<svg version="1.1" id="Layer_1" xmlns="http://www.w3.org/2000/svg" xmlns:xlink="http://www.w3.org/1999/xlink" x="0px" y="0px"
	 viewBox="0 195.188 573.75 446.946" enable-background="new 0 195.188 573.75 446.946" xml:space="preserve">
<path d="M535.5,482.062h-20.655c-12.967,90.468-90.574,160.071-184.618,160.071c-94.068,0-171.65-69.604-184.646-160.071H38.25
	c-21.133,0-38.25-17.117-38.25-38.25V233.438c0-21.133,17.117-38.25,38.25-38.25H535.5c21.114,0,38.25,17.117,38.25,38.25v210.375
	C573.75,464.945,556.614,482.062,535.5,482.062z M463.889,382.016c0-11.045-9.259-20.009-20.703-20.009
	c-11.419,0-19.677,8.964-19.677,20.009v43.34c0,3.682-4.095,6.67-7.884,6.67c-3.814,0-7.909-2.988-7.909-6.67v-50.01
	c0-11.045-8.258-20.009-19.676-20.009s-18.677,8.964-18.677,20.009v50.01c0,3.682-5.097,6.67-8.909,6.67
	c-3.815,0-9.671-2.988-9.671-6.67v-56.681c0-11.046-8.258-20.01-19.703-20.01c-11.418,0-18.702,8.964-18.702,20.01v56.681
	c0,3.682-6.27,6.67-10.084,6.67c-3.815,0-11.458-2.988-11.458-6.67V288.64c0-11.046-8.258-20.01-19.677-20.01
	s-17.715,8.964-17.715,20.01v173.413c0,3.685-11.419,6.67-15.233,6.67c-3.815,0-3.335-2.985-3.335-6.67v-85.532
	c-2.16-0.747-15.794-2.269-18.222-2.269c-11.419,0-20.09,10.085-20.09,21.131v73.34c0,66.297,74.622,120.058,143.187,120.058
	s124.138-53.761,124.138-120.058V382.016L463.889,382.016z"/>
</svg>
