<svg version="1.1" id="Layer_1" xmlns="http://www.w3.org/2000/svg" xmlns:xlink="http://www.w3.org/1999/xlink" x="0px" y="0px"
	 viewBox="38.25 185.625 535.5 420.75" enable-background="new 38.25 185.625 535.5 420.75" xml:space="preserve">
<path d="M459,606.375H38.25v-306v-38.25v-76.5h535.5v420.75h-76.5H459z M535.5,223.875h-459v344.25h459V223.875z M114.75,529.875
	v-229.5l382.5,229.5H114.75z M420.75,415.125c-20.903,0-38.881-7.516-53.933-22.567c-15.052-15.051-22.567-33.01-22.567-53.933
	c0-20.904,7.516-38.881,22.567-53.933s33.029-22.567,53.933-22.567s38.881,7.516,53.933,22.567s22.567,33.029,22.567,53.933
	c0,20.923-7.516,38.881-22.567,53.933C459.631,407.609,441.653,415.125,420.75,415.125z"/>
</svg>
