<svg width="517" height="160" viewBox="0 0 517 160" fill="none" xmlns="http://www.w3.org/2000/svg">
<rect width="517" height="160" fill="#F7EDF7"/>
<g clip-path="url(#clip0_3682_60429)">
<path d="M170.925 81.0513C173.197 80.6136 175.21 79.6822 176.842 78.0041C177.009 77.83 177.159 77.6454 177.245 77.4128C177.479 76.783 177.245 76.0701 176.683 75.7051C176.104 75.3241 175.373 75.385 174.866 75.902C174.182 76.599 173.42 77.1646 172.529 77.5673C170.84 78.3356 169.069 78.5363 167.239 78.3867C163.895 78.1094 161.78 76.4712 160.605 73.0522C160.493 72.7264 160.521 72.5966 160.916 72.5315C163.273 72.1409 165.292 71.0806 166.956 69.3566C167.727 68.5612 168.263 67.6348 168.507 66.5515C169.048 64.1144 167.817 62.0234 165.455 61.4071C163.857 60.9915 162.429 61.4088 161.209 62.4559C159.139 64.2343 157.96 66.5219 157.541 69.2007C157.477 69.6003 157.356 69.6552 157.006 69.5564C153.574 68.5886 151.244 66.4438 150.038 63.082C149.907 62.7232 149.947 62.5763 150.363 62.4991C152.063 62.1724 153.585 61.4496 154.956 60.3967C155.88 59.6851 156.712 58.8875 157.271 57.8427C158.693 55.1767 157.404 51.997 154.574 51.2584C152.642 50.7547 151.002 51.3532 149.657 52.7632C148.047 54.446 147.127 56.4721 146.8 58.7726C146.755 59.0875 146.896 59.5522 146.616 59.6914C146.347 59.8246 145.953 59.61 145.624 59.4992C143.419 58.7316 141.545 57.5375 140.813 55.1873C139.757 51.7863 140.022 48.5539 142.359 45.6913C142.883 45.0507 142.812 44.1918 142.21 43.6661C141.615 43.1458 140.755 43.1948 140.185 43.798C140.039 43.9489 139.9 44.1108 139.777 44.2776C136.898 48.3522 136.598 52.7328 138.578 57.1901C140.039 60.4864 142.976 61.993 146.401 62.6198C146.784 62.6893 146.967 62.7944 147.089 63.1982C148.536 68.2126 151.818 71.3119 156.902 72.4583C157.415 72.5733 157.569 72.7857 157.698 73.2564C158.692 76.9227 160.736 79.6657 164.543 80.7872C165.941 81.1991 167.377 81.3243 168.892 81.2954C169.529 81.2547 170.231 81.1892 170.925 81.0513ZM149.634 59.4551C149.819 57.546 150.557 55.8903 151.951 54.5569C152.329 54.1959 152.791 53.9827 153.327 53.9682C154.244 53.9394 154.94 54.6014 154.957 55.5183C154.972 56.0604 154.76 56.5215 154.428 56.92C153.223 58.347 151.684 59.2271 149.882 59.664C149.682 59.7106 149.609 59.691 149.634 59.4551ZM160.419 69.4284C160.793 67.473 161.665 65.8011 163.229 64.5341C163.766 64.0999 164.389 64.0038 165.05 64.3091C165.528 64.5317 165.754 64.8925 165.748 65.1892C165.746 66.0229 165.531 66.5624 165.146 67.0244C163.962 68.4339 162.445 69.2853 160.646 69.6492C160.418 69.6969 160.382 69.6312 160.419 69.4284Z" fill="#E5CFE8"/>
</g>
<path d="M288.311 55.275C287.858 52.216 286.234 49.5346 283.779 47.7218C281.286 45.9091 278.265 45.1537 275.206 45.6069C271.127 46.2112 263.801 51.9516 259.458 55.5771C258.211 50.0255 255.87 40.9995 253 38.0537C250.847 35.8633 247.977 34.617 244.918 34.5415C244.842 34.5415 244.767 34.5415 244.691 34.5415C241.708 34.5415 238.875 35.6745 236.722 37.7894C232.153 42.208 232.039 49.5346 236.496 54.0665C240.084 57.7676 253.151 60.9777 257.154 61.8841C259.609 63.017 271.656 68.4176 277.547 68.4176C277.963 68.4176 278.34 68.3798 278.643 68.342C281.702 67.8888 284.383 66.2649 286.196 63.8101C288.009 61.3553 288.764 58.2963 288.311 55.275ZM282.835 61.3553C281.664 62.9415 279.964 63.9612 278.001 64.2633C275.281 64.6787 267.539 61.9218 261.497 59.316C266.482 55.0484 273.091 50.1388 275.81 49.7234C277.736 49.4213 279.7 49.9122 281.286 51.083C282.872 52.2537 283.892 53.9532 284.194 55.917C284.496 57.8431 284.005 59.7692 282.835 61.3553ZM244.729 38.6958H244.842C246.806 38.7335 248.656 39.5266 250.016 40.924C251.942 42.9255 254.208 50.8564 255.605 57.2766C249.223 55.6904 241.405 53.1979 239.479 51.2341C236.647 48.3261 236.722 43.6431 239.63 40.8107C240.99 39.4511 242.803 38.6958 244.729 38.6958Z" fill="#533582"/>
<path d="M322.451 98.0259V160H275.659L275.357 98.0259H322.451Z" fill="#784DAD"/>
<path d="M275.659 160H185.852V98.0259H275.357L275.659 160Z" fill="#9A69C7"/>
<path d="M230.114 98.0259H226.337V160H230.114V98.0259Z" fill="#533582"/>
<path d="M301.642 98.0259H297.865V160H301.642V98.0259Z" fill="#533582"/>
<path d="M314.105 80.3514L311.121 89.6796L307.534 88.5089L310.517 79.1807L314.105 80.3514Z" fill="#260206"/>
<path d="M236.949 54.8597L233.928 64.4145L230.34 63.2438L233.361 53.689L236.949 54.8597Z" fill="#260206"/>
<path d="M335.593 87.4516L332.723 96.742L311.121 89.6798L314.105 80.3516L335.593 87.4516Z" fill="#9A69C7"/>
<path d="M310.517 79.181L307.533 88.5091L281.173 79.8985L284.496 70.5703L310.517 79.181Z" fill="#9A69C7"/>
<path d="M284.496 70.57L281.173 79.8982L233.928 64.4142L236.949 54.8594L284.496 70.57Z" fill="#C792E0"/>
<path d="M233.361 53.6888L230.34 63.2436L190.119 50.101L193.367 40.4707L233.361 53.6888Z" fill="#C792E0"/>
<path d="M236.949 54.8597L233.928 64.4145L230.34 63.2438L233.361 53.689L236.949 54.8597Z" fill="#7B4EB1"/>
<path d="M314.105 80.3514L311.121 89.6796L307.534 88.5089L310.517 79.1807L314.105 80.3514Z" fill="#623F8D"/>
<path d="M315.5 35C317.985 35 320 32.9853 320 30.5C320 28.0147 317.985 26 315.5 26C313.015 26 311 28.0147 311 30.5C311 32.9853 313.015 35 315.5 35Z" fill="white"/>
<path d="M199 79C200.657 79 202 77.6569 202 76C202 74.3431 200.657 73 199 73C197.343 73 196 74.3431 196 76C196 77.6569 197.343 79 199 79Z" fill="#9A69C7"/>
<path d="M343.569 57.5554C344.168 58.2783 344.097 59.3523 343.389 60.0017C343.048 60.3107 342.694 60.6134 342.323 60.8855C342.041 61.0928 341.982 61.2576 342.248 61.5356C342.532 61.825 342.775 62.1494 343.027 62.4651C343.708 63.3075 343.641 64.3868 342.875 65.0308C342.088 65.6923 341.006 65.5572 340.282 64.7059C340.006 64.3831 339.724 64.0647 339.474 63.7201C339.292 63.4792 339.155 63.4859 338.942 63.6802C338.601 63.9892 338.244 64.277 337.876 64.564C337.067 65.1991 335.977 65.0876 335.358 64.3191C334.756 63.5717 334.866 62.5013 335.619 61.8414C335.963 61.5377 336.322 61.2402 336.684 60.9576C336.909 60.7888 336.947 60.6511 336.744 60.4277C336.456 60.1137 336.196 59.7778 335.924 59.4507C335.236 58.5881 335.309 57.4948 336.099 56.8482C336.879 56.2103 337.947 56.349 338.649 57.1739C338.925 57.4966 339.207 57.815 339.457 58.1596C339.647 58.4208 339.799 58.4106 340.028 58.2032C340.384 57.8811 340.753 57.5748 341.136 57.2844C341.901 56.7036 342.965 56.8273 343.569 57.5554Z" fill="#9A69C7"/>
<path d="M149.962 120.578C150.646 120.268 151.459 120.549 151.811 121.232C151.978 121.559 152.137 121.896 152.269 122.24C152.369 122.501 152.484 122.582 152.754 122.435C153.037 122.276 153.338 122.158 153.635 122.029C154.428 121.681 155.247 121.96 155.582 122.686C155.927 123.432 155.595 124.239 154.786 124.618C154.479 124.763 154.174 124.914 153.855 125.034C153.631 125.124 153.607 125.231 153.713 125.436C153.879 125.763 154.026 126.1 154.17 126.444C154.49 127.202 154.174 128.019 153.451 128.335C152.748 128.642 151.945 128.332 151.595 127.612C151.433 127.282 151.279 126.943 151.138 126.604C151.055 126.395 150.956 126.337 150.741 126.447C150.439 126.602 150.125 126.733 149.815 126.873C149.005 127.223 148.177 126.936 147.845 126.191C147.517 125.455 147.849 124.66 148.633 124.293C148.94 124.147 149.245 123.997 149.563 123.877C149.804 123.785 149.829 123.666 149.717 123.446C149.543 123.103 149.385 122.754 149.241 122.398C148.954 121.686 149.274 120.891 149.962 120.578Z" fill="#9A69C7"/>
<path d="M152.5 102C154.985 102 157 99.9853 157 97.5C157 95.0147 154.985 93 152.5 93C150.015 93 148 95.0147 148 97.5C148 99.9853 150.015 102 152.5 102Z" fill="white"/>
<defs>
<clipPath id="clip0_3682_60429">
<rect width="39" height="39.0559" fill="white" transform="translate(176.028 42) rotate(87.8517)"/>
</clipPath>
</defs>
</svg>
