<svg width="63" height="56" viewBox="0 0 63 56" fill="none" xmlns="http://www.w3.org/2000/svg">
<g clip-path="url(#clip0_3655_60366)">
<path d="M26.9949 55.4499C38.1366 55.4499 47.1687 54.7317 47.1687 53.8458C47.1687 52.9599 38.1366 52.2417 26.9949 52.2417C15.8532 52.2417 6.82104 52.9599 6.82104 53.8458C6.82104 54.7317 15.8532 55.4499 26.9949 55.4499Z" fill="#E6E6E6"/>
<path d="M4.19092 33.4118C6.30079 32.6459 8.42511 31.8655 10.5205 31.0996C12.3703 33.195 14.9859 33.5419 17.1536 32.2702C17.0091 32.8771 16.879 33.4262 16.7345 33.9898C16.5178 34.8858 16.301 35.7818 16.0842 36.6778C15.853 37.6604 16.3588 38.5275 17.2548 38.7298C18.1507 38.9466 18.9889 38.4119 19.2346 37.4292C19.6826 35.6373 20.1017 33.8598 20.5352 32.0678C20.5785 31.8944 20.6219 31.721 20.6942 31.4609C22.8618 37.4148 25.0151 43.2964 27.1827 49.2503C27.0238 49.3081 26.8504 49.3803 26.6625 49.4381C23.411 50.6231 20.1595 51.8081 16.9079 52.9931C14.3067 53.9325 12.2113 53.2677 10.665 50.9844C10.6217 50.9266 10.5639 50.8833 10.5205 50.8255C8.42511 45.0161 6.31524 39.2212 4.19092 33.4118Z" fill="#7F54B3"/>
<path d="M0.0722335 22.1109C0.0577823 21.8363 0.0288799 21.5762 0.0144288 21.3017C-0.101181 19.2496 1.11272 17.2698 3.02027 16.5472C6.54636 15.2177 10.1013 13.946 13.6274 12.6599C13.6852 12.631 13.7575 12.631 13.8442 12.6021C15.1593 16.2004 16.4599 19.7698 17.7894 23.426C17.2691 23.3104 16.7922 23.2092 16.3153 23.0791C15.1448 22.7612 13.9743 22.6312 12.8182 23.0936C10.795 23.874 9.68226 25.3624 9.46549 27.5301C9.45104 27.6746 9.45104 27.8191 9.43659 27.9636C9.43659 27.9781 9.42214 27.9925 9.40769 28.0504C7.31227 28.8163 5.2024 29.5822 3.07808 30.3625C2.08095 27.6024 1.06936 24.8566 0.0722335 22.1109Z" fill="#7F54B3"/>
<path d="M16.9513 11.446C17.1681 11.3593 17.3559 11.3015 17.5438 11.2293C26.9371 7.80434 36.3303 4.36496 45.738 0.940034C48.7439 -0.158255 51.3595 1.05564 52.4578 4.06149C53.3393 6.47483 54.2209 8.87373 55.1168 11.3593C54.929 11.4316 54.77 11.4894 54.611 11.5472C46.6484 14.4519 38.7003 17.3566 30.7377 20.2612C30.3909 20.3913 30.1886 20.3624 29.914 20.0734C27.7319 17.8046 24.148 18.0213 22.2404 20.5069C21.8069 21.0705 21.3878 21.663 20.9254 22.2989C19.5814 18.6716 18.2808 15.0877 16.9513 11.446Z" fill="#7F54B3"/>
<path d="M17.6304 26.808C17.0379 27.6028 16.5177 28.3542 15.9541 29.0768C15.3616 29.8138 14.3789 29.9872 13.5841 29.5103C12.8037 29.0479 12.4713 28.1086 12.7893 27.2704C13.1072 26.4322 13.9598 25.9264 14.8558 26.1143C15.694 26.2877 16.5321 26.5045 17.3703 26.7213C17.4425 26.7213 17.5003 26.7502 17.6304 26.808Z" fill="#7F54B3"/>
<path d="M23.1509 24.7555C23.7867 23.9029 24.3214 23.1225 24.9284 22.3855C25.492 21.6919 26.4746 21.5763 27.2406 22.0387C27.9776 22.4867 28.3244 23.3682 28.0498 24.1919C27.7753 25.0301 26.966 25.5648 26.0845 25.4636C25.9255 25.4492 25.7665 25.4058 25.6076 25.3625C24.8128 25.1746 24.0324 24.9723 23.1509 24.7555Z" fill="#7F54B3"/>
<path d="M31.388 23.5129C31.0267 26.591 29.9718 27.8627 27.1104 28.672C27.2694 28.8021 27.4139 28.9032 27.544 29.0188C28.5844 29.7847 29.6394 30.5507 30.6799 31.331C31.518 31.9524 31.6914 32.9496 31.1278 33.701C30.5642 34.438 29.596 34.5536 28.7723 33.9611C27.5006 33.0363 26.2433 32.0969 24.9716 31.1721C24.6104 30.9119 24.2491 30.6518 23.8156 30.3339C25.9977 36.3311 28.1509 42.2128 30.3041 48.1377C30.5209 48.051 30.7088 47.9932 30.8966 47.921C40.2899 44.496 49.6976 41.0567 59.0909 37.6317C62.0967 36.5334 63.3106 33.9178 62.2123 30.9119C60.2903 25.6373 58.3683 20.3626 56.4318 15.0879C56.3596 14.9 56.3018 14.7122 56.2151 14.481C47.9057 17.4868 39.6396 20.4926 31.388 23.5129Z" fill="#7F54B3"/>
<path d="M37.1684 40.1459L37.0383 39.7846C36.1568 40.0592 35.3909 39.8569 34.9429 39.221C34.8706 39.1199 34.8995 39.0187 35.0007 38.9609L35.5787 38.5852C35.6799 38.5274 35.7666 38.5418 35.8533 38.643C36.0556 38.8598 36.3447 38.9465 36.6915 38.8598L36.3591 37.9349L36.0845 37.9204C35.6799 37.9349 34.6539 37.9204 34.3504 37.0967C34.0614 36.3019 34.5094 35.536 35.3475 35.1603L35.203 34.7701C35.1741 34.6834 35.203 34.6256 35.2897 34.5967L35.4053 34.5533C35.492 34.5244 35.5498 34.5533 35.5787 34.64L35.7233 35.0302C36.388 34.8568 36.9516 35.0447 37.3851 35.5071C37.4718 35.6083 37.4574 35.7094 37.3562 35.7817L36.7926 36.1863C36.6915 36.2586 36.6192 36.2441 36.5181 36.1574C36.388 36.0418 36.229 35.9695 36.0556 35.984L36.3591 36.8222H36.6337C37.6886 36.8077 38.18 37.1256 38.4112 37.7181C38.7146 38.5563 38.2089 39.2644 37.3707 39.6401L37.5007 40.0159C37.5297 40.1026 37.5007 40.1604 37.414 40.1893L37.2984 40.2326C37.2551 40.2615 37.1973 40.2326 37.1684 40.1459ZM35.6944 36.0996C35.5209 36.2152 35.4198 36.3742 35.4776 36.562C35.5209 36.6921 35.6076 36.7932 35.8967 36.8077H35.94L35.6944 36.0996ZM37.284 38.1806C37.2262 38.036 37.0961 37.9349 36.8215 37.9204H36.7782L37.0528 38.6864C37.2695 38.5563 37.3562 38.3829 37.284 38.1806Z" fill="#7F54B3"/>
<path d="M42.3997 40.1607L40.5933 35.2039L39.7551 35.9843C39.4516 36.2733 39.1193 36.23 38.8736 35.912L38.6135 35.5797C38.3678 35.2617 38.3967 34.9583 38.6713 34.6981L40.3765 33.0796C40.6077 32.8484 40.81 32.7472 41.2291 32.6027C41.6049 32.4727 41.8794 32.6027 42.0095 32.9784L44.365 39.4526C44.5095 39.8283 44.3795 40.1173 43.9893 40.2618L43.2089 40.5509C42.8188 40.6809 42.5297 40.5509 42.3997 40.1607Z" fill="#7F54B3"/>
<path d="M44.2929 35.7963C43.498 33.6142 44.1483 31.3743 46.3016 30.5939C48.4403 29.8135 50.4346 31.0852 51.2294 33.2674C52.0242 35.435 51.3306 37.7039 49.1773 38.4842C47.0386 39.2646 45.0877 37.9785 44.2929 35.7963ZM49.3074 33.9755C48.8161 32.6315 47.8478 31.8367 46.8796 32.1835C45.9258 32.5304 45.7235 33.7587 46.2149 35.1027C46.7062 36.4322 47.66 37.2559 48.5993 36.9091C49.5675 36.5478 49.7988 35.305 49.3074 33.9755Z" fill="#7F54B3"/>
<path d="M52.0964 32.9638C51.3016 30.7817 51.9519 28.5418 54.1052 27.7614C56.2439 26.981 58.2382 28.2527 59.033 30.4349C59.8278 32.6025 59.1342 34.8714 56.9809 35.6517C54.8277 36.4321 52.8913 35.1315 52.0964 32.9638ZM57.111 31.1285C56.6197 29.7846 55.6514 28.9897 54.6832 29.3366C53.7294 29.6834 53.5271 30.9117 54.0184 32.2557C54.5098 33.5852 55.4636 34.4089 56.4029 34.0621C57.3711 33.7008 57.5879 32.458 57.111 31.1285Z" fill="#7F54B3"/>
</g>
<defs>
<clipPath id="clip0_3655_60366">
<rect width="62.6314" height="54.9" fill="white" transform="translate(0 0.549805)"/>
</clipPath>
</defs>
</svg>
