<svg width="117" height="100" viewBox="0 0 117 100" fill="none" xmlns="http://www.w3.org/2000/svg">
<circle cx="57.8334" cy="50" r="50" fill="#F6F7F7"/>
<path d="M49.7407 41.9682C50.563 42.1762 51.3181 42.5155 51.9886 42.959C52.6593 43.4025 53.681 43.1392 53.8762 42.3592L57.5083 27.8462C57.6421 27.3114 57.3179 26.7691 56.7833 26.6339L42.4122 23.0004C41.6378 22.8046 41.3744 21.7947 41.813 21.1271C42.2628 20.4424 42.6072 19.6698 42.8181 18.8278C43.8196 14.8394 41.421 10.7951 37.4716 9.79313C33.5222 8.79115 29.5099 11.2213 28.5083 15.2098C28.2977 16.0508 28.2378 16.8952 28.3118 17.7123C28.3841 18.5093 27.6715 19.2758 26.8957 19.0796L14.1274 15.8504C12.7111 15.4919 11.2763 16.3612 10.9179 17.7916L0.541534 59.2507C0.183124 60.681 1.0412 62.1272 2.45752 62.4857L43.5253 72.8676C44.9416 73.2262 46.3764 72.3569 46.7348 70.9265L49.9641 58.0265C50.1589 57.248 49.385 56.5352 48.5857 56.608C47.7839 56.681 46.9563 56.6214 46.1323 56.4129C42.1829 55.411 39.7842 51.3667 40.7858 47.3782C41.7799 43.3889 45.7913 40.9662 49.7407 41.9682Z" fill="#7F54B3"/>
<path d="M109.354 37.6466L96.0928 38.8676C95.2966 38.9409 94.713 38.0751 94.9088 37.2999C95.1101 36.5032 95.1826 35.6583 95.1038 34.7893C94.7224 30.6951 91.1001 27.6739 86.9989 28.0551C82.8979 28.4289 79.8842 32.0594 80.2657 36.1536C80.3446 37.0181 80.5698 37.8342 80.9134 38.5806C81.2479 39.3072 80.832 40.2656 80.0354 40.3387L65.1164 41.7078C64.5664 41.7583 64.1615 42.2451 64.212 42.795L65.5811 57.7184C65.6541 58.5145 64.7884 59.0978 64.0133 58.902C63.2165 58.7007 62.3717 58.6281 61.5027 58.7069C57.4087 59.0959 54.3878 62.7186 54.769 66.8204C55.1426 70.9219 58.7727 73.9359 62.8664 73.5543C63.7309 73.4754 64.547 73.2501 65.2933 72.9064C66.0198 72.5719 66.9782 72.9875 67.0515 73.784L68.2721 87.0453C68.406 88.5134 69.7068 89.5889 71.1747 89.4549L113.76 85.5417C115.227 85.4077 116.303 84.1068 116.169 82.6387L112.256 40.0487C112.115 38.5879 110.822 37.5127 109.354 37.6466Z" fill="#C498D9"/>
</svg>
