<svg width="104" height="100" viewBox="0 0 104 100" fill="none" xmlns="http://www.w3.org/2000/svg">
<circle cx="53.1409" cy="50" r="50" fill="#F6F7F7"/>
<path d="M29.3335 75.4242C29.3335 74.6312 28.444 74 27.3265 74H18.3405C17.223 74 16.3335 74.6312 16.3335 75.4242V93H29.3335V75.4242Z" fill="#E5CFE8"/>
<path d="M49.3335 51.4098C49.3335 50.6248 48.444 50 47.3265 50H38.3405C37.223 50 36.3335 50.6248 36.3335 51.4098V93H49.3335V51.4098Z" fill="#7F54B3"/>
<path d="M69.3335 63.4403C69.3335 62.6383 68.444 62 67.3265 62H58.3405C57.223 62 56.3335 62.6383 56.3335 63.4403V93H69.3335V63.4403Z" fill="#C498D9"/>
<path d="M90.3335 27.4262C90.3335 26.6321 89.444 26 88.3265 26H79.3405C78.223 26 77.3335 26.6321 77.3335 27.4262V93H90.3335V27.4262Z" fill="#7F54B3"/>
<path d="M9.7113 61.1378L34.2418 33.7769L58.7724 47.5517L83.3029 5.28369" stroke="#E5CFE8" stroke-width="1.32088" stroke-miterlimit="10" stroke-linecap="round"/>
<path d="M9.617 66.421C12.535 66.421 14.9005 64.0555 14.9005 61.1375C14.9005 58.2195 12.535 55.854 9.617 55.854C6.699 55.854 4.3335 58.2195 4.3335 61.1375C4.3335 64.0555 6.699 66.421 9.617 66.421Z" fill="#7F54B3"/>
<path d="M34.1475 39.0602C37.0655 39.0602 39.431 36.6947 39.431 33.7767C39.431 30.8587 37.0655 28.4932 34.1475 28.4932C31.2295 28.4932 28.864 30.8587 28.864 33.7767C28.864 36.6947 31.2295 39.0602 34.1475 39.0602Z" fill="#7F54B3"/>
<path d="M58.678 52.8351C61.596 52.8351 63.9615 50.4696 63.9615 47.5516C63.9615 44.6336 61.596 42.2681 58.678 42.2681C55.76 42.2681 53.3945 44.6336 53.3945 47.5516C53.3945 50.4696 55.76 52.8351 58.678 52.8351Z" fill="#7F54B3"/>
<path d="M83.2085 10.567C86.1265 10.567 88.4921 8.2015 88.4921 5.2835C88.4921 2.3655 86.1265 0 83.2085 0C80.2906 0 77.925 2.3655 77.925 5.2835C77.925 8.2015 80.2906 10.567 83.2085 10.567Z" fill="#7F54B3"/>
</svg>
