<svg width="101" height="100" viewBox="0 0 101 100" fill="none" xmlns="http://www.w3.org/2000/svg">
<circle cx="51.0001" cy="50" r="50" fill="#F6F7F7"/>
<path d="M43.3355 44H11.998C10.8496 43.9985 9.74874 43.4673 8.93676 42.523C8.12478 41.5787 7.66804 40.2984 7.66675 38.963V9.03704C7.66804 7.70159 8.12478 6.42128 8.93676 5.47698C9.74874 4.53268 10.8496 4.0015 11.998 4H43.3355C44.4838 4.0015 45.5848 4.53268 46.3967 5.47698C47.2087 6.42128 47.6655 7.70159 47.6667 9.03704V38.963C47.6655 40.2984 47.2087 41.5787 46.3967 42.523C45.5848 43.4673 44.4838 43.9985 43.3355 44Z" fill="#E6E6E6"/>
<path d="M19.9742 36.8172C19.9685 36.8172 19.9628 36.8171 19.9572 36.8168L16.3928 36.6633C16.2816 36.6594 16.1755 36.6088 16.0939 36.521C16.0123 36.4332 15.9607 36.314 15.9488 36.1854C15.7035 33.6398 14.6939 20.668 18.9233 15.2765C19.522 14.4981 20.2621 13.8843 21.09 13.4799C21.918 13.0754 22.8129 12.8903 23.71 12.9381C23.7465 12.9408 23.7829 12.9319 23.8153 12.9122C23.8476 12.8926 23.8748 12.863 23.8938 12.8267L24.7566 11.2498C24.8039 11.1643 24.8707 11.096 24.9497 11.0525C25.0286 11.0089 25.1164 10.992 25.2032 11.0035C25.895 11.1007 29.4214 11.5597 30.9042 11.0604C30.9916 11.0304 31.0848 11.031 31.1719 11.0622C31.2591 11.0934 31.3364 11.1537 31.3942 11.2357L32.5273 12.8463C32.5468 12.8754 32.5719 12.8987 32.6007 12.9142C32.6295 12.9297 32.661 12.937 32.6927 12.9354C33.269 12.9219 35.2898 13.0517 37.0583 15.3522C38.9734 17.8432 40.9498 23.4636 39.4898 36.0918C39.4745 36.2215 39.4195 36.3404 39.3348 36.4267C39.2501 36.513 39.1415 36.5608 39.0289 36.5613H36.2216C36.1102 36.5607 36.0026 36.5137 35.9183 36.4289C35.834 36.3441 35.7786 36.227 35.7621 36.0989L34.8451 28.7401C34.8376 28.6796 34.8107 28.6246 34.77 28.586C34.7292 28.5475 34.6774 28.5281 34.625 28.5319C34.5725 28.5356 34.5232 28.5622 34.4868 28.6063C34.4503 28.6504 34.4295 28.7088 34.4284 28.7699L34.3652 32.2249C34.3632 32.3274 34.3363 32.4271 34.2874 32.5125C34.2386 32.5978 34.1699 32.6653 34.0893 32.7069C33.0885 33.2187 27.8007 35.6187 21.9563 32.6128C21.8772 32.5714 21.8096 32.5054 21.7609 32.4221C21.7122 32.3387 21.6843 32.2412 21.6804 32.1405L21.5655 29.0014C21.5633 28.9401 21.5412 28.882 21.5038 28.8388C21.4663 28.7956 21.4163 28.7704 21.3635 28.7683C21.3108 28.7661 21.2594 28.7872 21.2194 28.8273C21.1795 28.8674 21.154 28.9235 21.1481 28.9844L20.4356 36.3377C20.4224 36.4694 20.3681 36.5909 20.2831 36.6793C20.1981 36.7676 20.0882 36.8167 19.9742 36.8172Z" fill="#7F54B3"/>
<path d="M43.3355 90H11.998C10.8496 89.9985 9.74874 89.4673 8.93676 88.523C8.12478 87.5787 7.66804 86.2984 7.66675 84.963V55.037C7.66804 53.7016 8.12478 52.4213 8.93676 51.477C9.74874 50.5327 10.8496 50.0015 11.998 50H43.3355C44.4838 50.0015 45.5848 50.5327 46.3967 51.477C47.2087 52.4213 47.6655 53.7016 47.6667 55.037V84.963C47.6655 86.2984 47.2087 87.5787 46.3967 88.523C45.5848 89.4673 44.4838 89.9985 43.3355 90Z" fill="#E6E6E6"/>
<path d="M34.3275 80.5397H34.3248L20.2396 80.4505C20.1372 80.4498 20.0385 80.4116 19.9622 80.3434C19.8859 80.2751 19.8371 80.1813 19.825 80.0796L18.4082 68.0364C18.3995 67.9587 18.3631 67.8868 18.3056 67.8338C18.2481 67.7808 18.1734 67.7504 18.0953 67.7482C16.9771 67.7117 14.3167 67.4568 13.7654 65.882C13.2744 64.4796 14.6174 62.411 17.7569 59.7334C17.8103 59.6878 17.8743 59.6562 17.9431 59.6416C18.0118 59.627 18.0831 59.6299 18.1505 59.65C18.2178 59.67 18.279 59.7067 18.3286 59.7565C18.3781 59.8063 18.4144 59.8678 18.4341 59.9353L20.0639 65.5582C20.0838 65.6257 20.1248 65.685 20.1809 65.7274C20.237 65.7699 20.3052 65.7932 20.3755 65.794L33.7304 65.8836C33.8004 65.8844 33.8687 65.8625 33.9253 65.8213C33.9818 65.78 34.0236 65.7217 34.0443 65.6548L35.8578 59.8847C35.878 59.8203 35.9134 59.7617 35.961 59.7139C36.0086 59.6661 36.0671 59.6304 36.1314 59.61C36.1957 59.5896 36.264 59.585 36.3305 59.5966C36.3969 59.6081 36.4596 59.6356 36.5133 59.6765C37.7507 60.6216 41.7371 63.8664 41.081 65.9415C40.7373 67.0284 39.1874 67.6342 36.4741 67.7422C36.3962 67.7449 36.3219 67.7755 36.2646 67.8284C36.2074 67.8813 36.1711 67.953 36.1623 68.0305L34.7447 80.1683C34.7329 80.2706 34.6838 80.365 34.6069 80.4335C34.5299 80.502 34.4305 80.5398 34.3275 80.5397Z" fill="#7F54B3"/>
<path d="M89.5377 10H57.7958C55.5154 10 53.6667 12.1544 53.6667 14.812V45.188C53.6667 47.8456 55.5154 50 57.7958 50H89.5377C91.8181 50 93.6667 47.8456 93.6667 45.188V14.812C93.6667 12.1544 91.8181 10 89.5377 10Z" fill="#E5CFE8"/>
<path d="M87.7129 33.7761C83.2869 34.6282 79.1129 36.4767 75.5075 39.1816C75.325 38.6963 74.9815 38.2883 74.5343 38.0258C74.2289 37.8364 73.8956 37.6963 73.5465 37.6108C73.2291 37.5299 72.924 37.7228 72.6439 38.0009C72.3216 38.3575 72.0513 38.7578 71.8409 39.1899C67.0039 35.8698 59.6665 33.7512 59.6665 33.7512V33.0872C59.6724 32.9307 59.6884 32.7747 59.7142 32.6203C59.7391 32.4418 59.7703 32.2841 59.8097 32.0912C60.4322 28.9246 62.8932 21.6889 62.8932 21.6889H65.6759L71.071 22.8094L77.1405 22.438L83.2536 21.166L84.0463 21C85.3681 22.0375 86.8684 29.3002 87.4577 32.392C87.5324 32.7842 87.5905 33.1079 87.6341 33.3466C87.686 33.6163 87.7129 33.7761 87.7129 33.7761Z" fill="white"/>
<path d="M89.5377 55.9546H57.7958C55.5154 55.9546 53.6667 58.109 53.6667 60.7666V91.1426C53.6667 93.8002 55.5154 95.9546 57.7958 95.9546H89.5377C91.8181 95.9546 93.6667 93.8002 93.6667 91.1426V60.7666C93.6667 58.109 91.8181 55.9546 89.5377 55.9546Z" fill="#E5CFE8"/>
<path d="M70.0823 65.0562C70.0823 65.0562 68.7898 65.3793 66.7853 70.8086C64.7808 76.2378 64.0707 83.2526 64.0707 83.2526C64.0707 83.2526 62.9435 85.1613 67.7547 85.2891C67.7547 85.2891 67.3677 86.5496 70.0823 86.3561C72.7969 86.1626 72.4061 86.1645 72.4061 86.1645C72.4061 86.1645 74.1514 85.0655 74.9273 85.259C75.7031 85.4525 76.1878 85.5183 77.0276 86.2284C77.8673 86.9385 80.5519 86.6492 80.5838 86.1006C80.6054 85.8312 80.6054 85.5604 80.5838 85.291C80.5838 85.291 84.6886 85.5502 83.9127 82.5763C83.1369 79.6025 82.4906 74.7218 82.4906 74.7218C82.4906 74.7218 80.3903 65.1877 77.997 65.0581C75.6036 64.9285 70.0823 65.0562 70.0823 65.0562Z" fill="white"/>
</svg>
