<svg width="517" height="160" viewBox="0 0 517 160" fill="none" xmlns="http://www.w3.org/2000/svg">
<g clip-path="url(#clip0_1_10)">
<g clip-path="url(#clip1_1_10)">
<rect width="695" height="250" transform="translate(-89)" fill="#EEEEEE"/>
<path opacity="0.5" d="M221.991 94.0124V101H220.786V94.0124H221.991ZM228.848 100.045V101H225.34V100.045H228.848ZM225.676 94.0124V101H224.471V94.0124H225.676ZM235.139 100.045V101H231.63V100.045H235.139ZM231.966 94.0124V101H230.762V94.0124H231.966ZM240.772 94.0124H241.972V98.682C241.972 99.2131 241.856 99.6578 241.626 100.016C241.396 100.375 241.082 100.645 240.685 100.827C240.292 101.006 239.852 101.096 239.366 101.096C238.863 101.096 238.415 101.006 238.022 100.827C237.628 100.645 237.318 100.375 237.091 100.016C236.867 99.6578 236.755 99.2131 236.755 98.682V94.0124H237.955V98.682C237.955 99.0179 238.012 99.2947 238.128 99.5123C238.243 99.7266 238.406 99.885 238.617 99.9874C238.828 100.09 239.078 100.141 239.366 100.141C239.654 100.141 239.902 100.09 240.11 99.9874C240.321 99.885 240.484 99.7266 240.599 99.5123C240.714 99.2947 240.772 99.0179 240.772 98.682V94.0124ZM247.941 99.2003C247.941 99.0563 247.918 98.9284 247.874 98.8164C247.832 98.7044 247.757 98.602 247.648 98.5092C247.539 98.4164 247.386 98.3269 247.187 98.2405C246.992 98.1509 246.743 98.0597 246.439 97.9669C246.106 97.8645 245.799 97.751 245.517 97.6262C245.239 97.4982 244.996 97.351 244.788 97.1847C244.58 97.0151 244.418 96.8215 244.303 96.604C244.188 96.3832 244.13 96.1288 244.13 95.8409C244.13 95.5561 244.19 95.297 244.308 95.0634C244.429 94.8299 244.601 94.6283 244.821 94.4587C245.045 94.286 245.309 94.1532 245.613 94.0604C245.917 93.9644 246.253 93.9164 246.621 93.9164C247.139 93.9164 247.586 94.0124 247.96 94.2044C248.338 94.3963 248.627 94.6539 248.829 94.977C249.033 95.3002 249.136 95.6569 249.136 96.0473H247.941C247.941 95.8169 247.891 95.6137 247.792 95.4378C247.696 95.2586 247.549 95.1178 247.351 95.0154C247.155 94.9131 246.907 94.8619 246.607 94.8619C246.322 94.8619 246.085 94.9051 245.896 94.9914C245.708 95.0778 245.567 95.1946 245.474 95.3418C245.381 95.489 245.335 95.6553 245.335 95.8409C245.335 95.9721 245.365 96.092 245.426 96.2008C245.487 96.3064 245.58 96.4056 245.704 96.4984C245.829 96.588 245.986 96.6727 246.175 96.7527C246.364 96.8327 246.586 96.9095 246.842 96.9831C247.229 97.0983 247.567 97.2263 247.854 97.367C248.142 97.5046 248.382 97.6614 248.574 97.8373C248.766 98.0133 248.91 98.2133 249.006 98.4372C249.102 98.658 249.15 98.9092 249.15 99.1907C249.15 99.4851 249.091 99.7506 248.973 99.9874C248.854 100.221 248.685 100.421 248.464 100.587C248.246 100.75 247.984 100.877 247.677 100.966C247.373 101.053 247.034 101.096 246.659 101.096C246.324 101.096 245.992 101.051 245.666 100.962C245.343 100.872 245.049 100.736 244.783 100.554C244.517 100.368 244.306 100.138 244.15 99.8626C243.993 99.5842 243.914 99.2595 243.914 98.8884H245.119C245.119 99.1155 245.157 99.3091 245.234 99.4691C245.314 99.629 245.424 99.7602 245.565 99.8626C245.706 99.9618 245.869 100.035 246.055 100.083C246.244 100.131 246.445 100.155 246.659 100.155C246.941 100.155 247.176 100.115 247.365 100.035C247.557 99.9554 247.701 99.8434 247.797 99.6994C247.893 99.5554 247.941 99.3891 247.941 99.2003ZM254.073 94.0124V101H252.878V94.0124H254.073ZM256.266 94.0124V94.9722H250.704V94.0124H256.266ZM258.171 94.0124H260.642C261.173 94.0124 261.626 94.0924 262.001 94.2524C262.375 94.4123 262.661 94.6491 262.86 94.9626C263.061 95.273 263.162 95.6569 263.162 96.1144C263.162 96.4632 263.098 96.7703 262.97 97.0359C262.842 97.3014 262.661 97.5254 262.428 97.7078C262.194 97.8869 261.916 98.0261 261.593 98.1253L261.228 98.3029H259.006L258.996 97.3478H260.662C260.949 97.3478 261.189 97.2966 261.381 97.1943C261.573 97.0919 261.717 96.9527 261.813 96.7767C261.913 96.5976 261.962 96.396 261.962 96.172C261.962 95.9289 261.914 95.7177 261.818 95.5385C261.725 95.3562 261.581 95.217 261.386 95.121C261.191 95.0218 260.943 94.9722 260.642 94.9722H259.375V101H258.171V94.0124ZM262.159 101L260.518 97.8613L261.78 97.8565L263.445 100.938V101H262.159ZM268.066 94.9434L265.978 101H264.716L267.346 94.0124H268.152L268.066 94.9434ZM269.813 101L267.72 94.9434L267.629 94.0124H268.44L271.08 101H269.813ZM269.712 98.4084V99.3635H265.911V98.4084H269.712ZM275.115 94.0124V101H273.92V94.0124H275.115ZM277.308 94.0124V94.9722H271.746V94.0124H277.308ZM280.498 94.0124V101H279.294V94.0124H280.498ZM288.55 97.3142V97.6982C288.55 98.2261 288.482 98.6996 288.344 99.1187C288.207 99.5379 288.01 99.8946 287.754 100.189C287.501 100.483 287.197 100.709 286.842 100.866C286.487 101.019 286.093 101.096 285.661 101.096C285.233 101.096 284.841 101.019 284.486 100.866C284.134 100.709 283.828 100.483 283.569 100.189C283.31 99.8946 283.108 99.5379 282.964 99.1187C282.823 98.6996 282.753 98.2261 282.753 97.6982V97.3142C282.753 96.7863 282.823 96.3144 282.964 95.8985C283.105 95.4794 283.303 95.1226 283.559 94.8283C283.819 94.5307 284.124 94.3052 284.476 94.1516C284.831 93.9948 285.223 93.9164 285.652 93.9164C286.084 93.9164 286.477 93.9948 286.832 94.1516C287.188 94.3052 287.493 94.5307 287.749 94.8283C288.005 95.1226 288.202 95.4794 288.339 95.8985C288.48 96.3144 288.55 96.7863 288.55 97.3142ZM287.346 97.6982V97.3046C287.346 96.9143 287.308 96.5704 287.231 96.2728C287.157 95.9721 287.047 95.7209 286.9 95.5193C286.756 95.3146 286.578 95.161 286.367 95.0586C286.156 94.953 285.917 94.9003 285.652 94.9003C285.386 94.9003 285.149 94.953 284.942 95.0586C284.734 95.161 284.556 95.3146 284.409 95.5193C284.265 95.7209 284.154 95.9721 284.078 96.2728C284.001 96.5704 283.962 96.9143 283.962 97.3046V97.6982C283.962 98.0885 284.001 98.434 284.078 98.7348C284.154 99.0355 284.266 99.2899 284.414 99.4979C284.564 99.7026 284.743 99.8578 284.951 99.9634C285.159 100.066 285.396 100.117 285.661 100.117C285.93 100.117 286.169 100.066 286.376 99.9634C286.584 99.8578 286.76 99.7026 286.904 99.4979C287.048 99.2899 287.157 99.0355 287.231 98.7348C287.308 98.434 287.346 98.0885 287.346 97.6982ZM296.281 94.0124V101H295.076L291.943 95.9945V101H290.738V94.0124H291.943L295.086 99.0275V94.0124H296.281Z" fill="#787878"/>
<g clip-path="url(#clip2_1_10)">
<rect x="57.9523" y="-88.614" width="137.451" height="191.267" rx="4.36351" fill="white"/>
</g>
<rect x="63.453" y="-53.9435" width="114.682" height="114.516" rx="2.54538" fill="#DCDCDE"/>
<mask id="mask0_1_10" style="mask-type:alpha" maskUnits="userSpaceOnUse" x="63" y="-54" width="116" height="115">
<rect x="63.453" y="-53.9435" width="114.682" height="114.516" rx="2.54538" fill="white"/>
</mask>
<g mask="url(#mask0_1_10)">
</g>
<rect x="133.153" y="67.4063" width="45.3395" height="12.0016" rx="1.99994" fill="#F5F5F5"/>
<circle cx="72.6209" cy="73.4071" r="6.00082" fill="#F5F5F5"/>
<mask id="mask1_1_10" style="mask-type:alpha" maskUnits="userSpaceOnUse" x="66" y="67" width="13" height="13">
<circle cx="72.6209" cy="73.4071" r="6.00082" fill="white"/>
</mask>
<g mask="url(#mask1_1_10)">
</g>
<rect x="81.2887" y="70.7405" width="40.0055" height="1.33352" fill="#F5F5F5"/>
<rect x="81.2887" y="74.7407" width="24.67" height="1.33352" fill="#F5F5F5"/>
<g clip-path="url(#clip3_1_10)">
<rect x="332.655" y="-88.614" width="137.451" height="191.267" rx="4.36351" fill="white"/>
</g>
<rect x="338.156" y="-53.9435" width="114.682" height="114.516" rx="2.54538" fill="#F5F5F5"/>
<mask id="mask2_1_10" style="mask-type:alpha" maskUnits="userSpaceOnUse" x="338" y="-54" width="115" height="115">
<rect x="338.156" y="-53.9435" width="114.682" height="114.516" rx="2.54538" fill="white"/>
</mask>
<g mask="url(#mask2_1_10)">
</g>
<rect x="407.855" y="67.4063" width="45.3395" height="12.0016" rx="1.99994" fill="#F5F5F5"/>
<circle cx="347.323" cy="73.4071" r="6.00082" fill="#F5F5F5"/>
<mask id="mask3_1_10" style="mask-type:alpha" maskUnits="userSpaceOnUse" x="341" y="67" width="13" height="13">
<circle cx="347.323" cy="73.4071" r="6.00082" fill="white"/>
</mask>
<g mask="url(#mask3_1_10)">
</g>
<rect x="355.991" y="70.7405" width="40.0055" height="1.33352" fill="#F5F5F5"/>
<rect x="355.991" y="74.7407" width="24.67" height="1.33352" fill="#F5F5F5"/>
<g clip-path="url(#clip4_1_10)">
<rect x="195.304" y="12.1469" width="137.451" height="191.267" rx="4.36351" fill="white"/>
<rect x="282.483" y="17.964" width="32.7263" height="15.9995" rx="2.39993" fill="#DCDCDE"/>
<path d="M297.376 26.8793H296.448C296.444 27.1481 296.492 27.3802 296.594 27.5757C296.696 27.7712 296.833 27.9321 297.004 28.0583C297.179 28.1846 297.378 28.2762 297.602 28.3332C297.83 28.3943 298.065 28.4249 298.305 28.4249C298.602 28.4249 298.863 28.3903 299.087 28.321C299.315 28.2518 299.504 28.1561 299.655 28.0339C299.81 27.9076 299.926 27.759 300.003 27.5879C300.08 27.4169 300.119 27.2316 300.119 27.032C300.119 26.7877 300.066 26.5881 299.96 26.4334C299.858 26.2745 299.736 26.1483 299.594 26.0546C299.451 25.9609 299.307 25.8937 299.16 25.853C299.017 25.8082 298.906 25.7777 298.824 25.7614C298.551 25.6921 298.329 25.6351 298.158 25.5903C297.991 25.5455 297.859 25.5007 297.761 25.4559C297.667 25.4111 297.604 25.3623 297.572 25.3093C297.539 25.2564 297.523 25.1871 297.523 25.1016C297.523 25.008 297.543 24.9306 297.584 24.8695C297.625 24.8084 297.676 24.7575 297.737 24.7168C297.802 24.676 297.873 24.6475 297.95 24.6312C298.028 24.6149 298.105 24.6068 298.183 24.6068C298.301 24.6068 298.409 24.617 298.506 24.6373C298.608 24.6577 298.698 24.6923 298.775 24.7412C298.853 24.7901 298.914 24.8573 298.958 24.9428C299.007 25.0283 299.036 25.1362 299.044 25.2666H299.973C299.973 25.0141 299.924 24.8002 299.826 24.6251C299.732 24.4459 299.604 24.2993 299.441 24.1853C299.278 24.0713 299.091 23.9898 298.879 23.9409C298.671 23.888 298.453 23.8615 298.225 23.8615C298.03 23.8615 297.834 23.888 297.639 23.9409C297.443 23.9939 297.268 24.0753 297.114 24.1853C296.959 24.2952 296.833 24.4337 296.735 24.6007C296.641 24.7636 296.594 24.957 296.594 25.181C296.594 25.3806 296.631 25.5516 296.704 25.6942C296.782 25.8327 296.881 25.9487 297.004 26.0424C297.126 26.1361 297.264 26.2134 297.419 26.2745C297.574 26.3315 297.733 26.3804 297.895 26.4211C298.054 26.4659 298.211 26.5067 298.366 26.5433C298.521 26.58 298.659 26.6227 298.781 26.6716C298.903 26.7205 299.001 26.7816 299.075 26.8549C299.152 26.9282 299.191 27.0239 299.191 27.142C299.191 27.252 299.162 27.3436 299.105 27.4169C299.048 27.4861 298.977 27.5411 298.891 27.5818C298.806 27.6226 298.714 27.6511 298.616 27.6674C298.519 27.6796 298.427 27.6857 298.341 27.6857C298.215 27.6857 298.093 27.6714 297.975 27.6429C297.857 27.6103 297.753 27.5635 297.663 27.5024C297.578 27.4373 297.509 27.3538 297.456 27.252C297.403 27.1501 297.376 27.0259 297.376 26.8793Z" fill="white"/>
<path d="M300.485 26.1401C300.497 25.9365 300.548 25.7675 300.638 25.6331C300.727 25.4987 300.842 25.3908 300.98 25.3093C301.118 25.2279 301.273 25.1709 301.444 25.1383C301.619 25.1016 301.794 25.0833 301.97 25.0833C302.128 25.0833 302.289 25.0955 302.452 25.1199C302.615 25.1403 302.764 25.1831 302.898 25.2482C303.033 25.3134 303.143 25.405 303.228 25.5231C303.314 25.6372 303.356 25.7899 303.356 25.9813V27.6246C303.356 27.7671 303.364 27.9036 303.381 28.0339C303.397 28.1642 303.426 28.262 303.466 28.3271H302.587C302.57 28.2783 302.556 28.2294 302.544 28.1805C302.536 28.1276 302.53 28.0746 302.526 28.0217C302.387 28.1642 302.224 28.264 302.037 28.321C301.849 28.378 301.658 28.4065 301.463 28.4065C301.312 28.4065 301.171 28.3882 301.041 28.3516C300.911 28.3149 300.797 28.2579 300.699 28.1805C300.601 28.1031 300.524 28.0054 300.467 27.8873C300.414 27.7692 300.387 27.6287 300.387 27.4658C300.387 27.2866 300.418 27.14 300.479 27.0259C300.544 26.9078 300.626 26.8142 300.723 26.7449C300.825 26.6757 300.939 26.6248 301.065 26.5922C301.196 26.5555 301.326 26.527 301.456 26.5067C301.587 26.4863 301.715 26.47 301.841 26.4578C301.968 26.4456 302.08 26.4273 302.177 26.4028C302.275 26.3784 302.352 26.3438 302.409 26.299C302.466 26.2501 302.493 26.1809 302.489 26.0913C302.489 25.9976 302.473 25.9243 302.44 25.8713C302.411 25.8143 302.371 25.7716 302.318 25.7431C302.269 25.7105 302.21 25.6901 302.141 25.682C302.076 25.6697 302.004 25.6636 301.927 25.6636C301.756 25.6636 301.621 25.7003 301.524 25.7736C301.426 25.8469 301.369 25.9691 301.353 26.1401H300.485ZM302.489 26.7816C302.452 26.8142 302.405 26.8406 302.348 26.861C302.295 26.8773 302.236 26.8915 302.171 26.9037C302.11 26.916 302.045 26.9261 301.976 26.9343C301.906 26.9424 301.837 26.9526 301.768 26.9648C301.703 26.9771 301.638 26.9933 301.573 27.0137C301.511 27.0341 301.456 27.0626 301.408 27.0992C301.363 27.1318 301.326 27.1746 301.298 27.2275C301.269 27.2805 301.255 27.3477 301.255 27.4291C301.255 27.5065 301.269 27.5717 301.298 27.6246C301.326 27.6775 301.365 27.7203 301.414 27.7529C301.463 27.7814 301.52 27.8018 301.585 27.814C301.65 27.8262 301.717 27.8323 301.786 27.8323C301.957 27.8323 302.09 27.8038 302.183 27.7468C302.277 27.6898 302.346 27.6226 302.391 27.5452C302.436 27.4637 302.462 27.3823 302.471 27.3008C302.483 27.2194 302.489 27.1542 302.489 27.1053V26.7816Z" fill="white"/>
<path d="M305.7 28.3271L306.77 25.1688H305.908L305.242 27.3253H305.23L304.564 25.1688H303.654L304.735 28.3271H305.7Z" fill="white"/>
<path d="M309.177 26.4089H307.765C307.77 26.3478 307.782 26.2786 307.802 26.2012C307.827 26.1238 307.865 26.0505 307.918 25.9813C307.975 25.9121 308.048 25.8551 308.138 25.8103C308.232 25.7614 308.348 25.7369 308.486 25.7369C308.698 25.7369 308.855 25.794 308.957 25.908C309.063 26.022 309.136 26.189 309.177 26.4089ZM307.765 26.9587H310.044C310.06 26.7144 310.04 26.4802 309.983 26.2562C309.926 26.0322 309.832 25.8327 309.702 25.6575C309.576 25.4824 309.413 25.3439 309.213 25.2421C309.014 25.1362 308.78 25.0833 308.511 25.0833C308.27 25.0833 308.051 25.1261 307.851 25.2116C307.655 25.2971 307.486 25.4152 307.344 25.5659C307.201 25.7125 307.091 25.8876 307.014 26.0913C306.937 26.2949 306.898 26.5148 306.898 26.751C306.898 26.9954 306.935 27.2194 307.008 27.423C307.085 27.6266 307.193 27.8018 307.332 27.9484C307.47 28.095 307.639 28.209 307.839 28.2905C308.038 28.3679 308.262 28.4065 308.511 28.4065C308.869 28.4065 309.175 28.3251 309.427 28.1622C309.68 27.9993 309.867 27.7285 309.989 27.3497H309.225C309.197 27.4474 309.12 27.5411 308.993 27.6307C308.867 27.7162 308.716 27.759 308.541 27.759C308.297 27.759 308.11 27.6959 307.979 27.5696C307.849 27.4434 307.778 27.2397 307.765 26.9587Z" fill="white"/>
<path fill-rule="evenodd" clip-rule="evenodd" d="M291.637 21.6008H287.891L288.578 22.3191V24.8037L287.574 25.8502V26.5542H289.267L289.457 30.3276H289.875L290.066 26.5542H291.938V25.8646L290.868 24.7493V22.4021L291.637 21.6008Z" fill="white"/>
<path fill-rule="evenodd" clip-rule="evenodd" d="M215.304 24.5096C215.304 25.1121 214.816 25.6005 214.213 25.6005C213.611 25.6005 213.122 25.1121 213.122 24.5096C213.122 23.9071 213.611 23.4187 214.213 23.4187C214.816 23.4187 215.304 23.9071 215.304 24.5096ZM212.031 24.5096C212.031 25.1121 211.543 25.6005 210.94 25.6005C210.338 25.6005 209.849 25.1121 209.849 24.5096C209.849 23.9072 210.338 23.4188 210.94 23.4188C211.543 23.4188 212.031 23.9072 212.031 24.5096ZM217.486 25.6005C218.088 25.6005 218.576 25.1121 218.576 24.5096C218.576 23.9071 218.088 23.4187 217.486 23.4187C216.883 23.4187 216.395 23.9071 216.395 24.5096C216.395 25.1121 216.883 25.6005 217.486 25.6005Z" fill="#F5F5F5"/>
<path fill-rule="evenodd" clip-rule="evenodd" d="M205.184 21.461C205.483 21.7601 205.483 22.245 205.184 22.5442L203.28 24.4486L205.184 26.353C205.483 26.6521 205.483 27.1371 205.184 27.4362C204.885 27.7353 204.4 27.7353 204.101 27.4362L201.122 24.4575L201.131 24.4486L201.122 24.4397L204.101 21.461C204.4 21.1619 204.885 21.1619 205.184 21.461Z" fill="#F5F5F5"/>
</g>
<rect x="200.805" y="46.8173" width="114.682" height="114.516" rx="2.54538" fill="#F5F5F5"/>
<mask id="mask4_1_10" style="mask-type:alpha" maskUnits="userSpaceOnUse" x="200" y="46" width="116" height="116">
<rect x="200.805" y="46.8173" width="114.682" height="114.516" rx="2.54538" fill="white"/>
</mask>
<g mask="url(#mask4_1_10)">
</g>
<rect x="201.305" y="34.4829" width="48.0065" height="1.33352" fill="#F5F5F5"/>
<rect x="201.305" y="38.4831" width="57.3412" height="1.33352" fill="#F5F5F5"/>
<g clip-path="url(#clip5_1_10)">
<rect x="332.655" y="99.8007" width="137.451" height="191.267" rx="4.36351" fill="white"/>
<rect x="419.834" y="105.618" width="32.7263" height="15.9995" rx="2.39993" fill="#DCDCDE"/>
<path d="M434.727 114.533H433.798C433.794 114.802 433.843 115.034 433.945 115.229C434.047 115.425 434.183 115.586 434.354 115.712C434.529 115.838 434.729 115.93 434.953 115.987C435.181 116.048 435.415 116.079 435.655 116.079C435.953 116.079 436.213 116.044 436.437 115.975C436.665 115.906 436.855 115.81 437.005 115.688C437.16 115.561 437.276 115.413 437.354 115.242C437.431 115.071 437.47 114.885 437.47 114.686C437.47 114.441 437.417 114.242 437.311 114.087C437.209 113.928 437.087 113.802 436.944 113.708C436.802 113.615 436.657 113.547 436.511 113.507C436.368 113.462 436.256 113.431 436.175 113.415C435.902 113.346 435.68 113.289 435.509 113.244C435.342 113.199 435.209 113.154 435.112 113.11C435.018 113.065 434.955 113.016 434.922 112.963C434.89 112.91 434.873 112.841 434.873 112.755C434.873 112.662 434.894 112.584 434.934 112.523C434.975 112.462 435.026 112.411 435.087 112.371C435.152 112.33 435.224 112.301 435.301 112.285C435.378 112.269 435.456 112.261 435.533 112.261C435.651 112.261 435.759 112.271 435.857 112.291C435.959 112.311 436.048 112.346 436.126 112.395C436.203 112.444 436.264 112.511 436.309 112.597C436.358 112.682 436.386 112.79 436.394 112.92H437.323C437.323 112.668 437.274 112.454 437.176 112.279C437.083 112.1 436.954 111.953 436.792 111.839C436.629 111.725 436.441 111.644 436.23 111.595C436.022 111.542 435.804 111.515 435.576 111.515C435.38 111.515 435.185 111.542 434.989 111.595C434.794 111.648 434.619 111.729 434.464 111.839C434.309 111.949 434.183 112.087 434.085 112.254C433.992 112.417 433.945 112.611 433.945 112.835C433.945 113.034 433.981 113.205 434.055 113.348C434.132 113.486 434.232 113.602 434.354 113.696C434.476 113.79 434.615 113.867 434.77 113.928C434.924 113.985 435.083 114.034 435.246 114.075C435.405 114.12 435.562 114.16 435.716 114.197C435.871 114.234 436.01 114.276 436.132 114.325C436.254 114.374 436.352 114.435 436.425 114.509C436.502 114.582 436.541 114.678 436.541 114.796C436.541 114.906 436.513 114.997 436.456 115.071C436.399 115.14 436.327 115.195 436.242 115.236C436.156 115.276 436.065 115.305 435.967 115.321C435.869 115.333 435.777 115.339 435.692 115.339C435.566 115.339 435.444 115.325 435.325 115.297C435.207 115.264 435.103 115.217 435.014 115.156C434.928 115.091 434.859 115.008 434.806 114.906C434.753 114.804 434.727 114.68 434.727 114.533Z" fill="white"/>
<path d="M437.836 113.794C437.848 113.59 437.899 113.421 437.988 113.287C438.078 113.152 438.192 113.045 438.33 112.963C438.469 112.882 438.624 112.825 438.795 112.792C438.97 112.755 439.145 112.737 439.32 112.737C439.479 112.737 439.64 112.749 439.803 112.774C439.966 112.794 440.114 112.837 440.249 112.902C440.383 112.967 440.493 113.059 440.579 113.177C440.664 113.291 440.707 113.444 440.707 113.635V115.278C440.707 115.421 440.715 115.557 440.731 115.688C440.748 115.818 440.776 115.916 440.817 115.981H439.937C439.921 115.932 439.907 115.883 439.894 115.834C439.886 115.781 439.88 115.728 439.876 115.675C439.738 115.818 439.575 115.918 439.387 115.975C439.2 116.032 439.009 116.06 438.813 116.06C438.662 116.06 438.522 116.042 438.392 116.005C438.261 115.969 438.147 115.912 438.049 115.834C437.952 115.757 437.874 115.659 437.817 115.541C437.764 115.423 437.738 115.282 437.738 115.12C437.738 114.94 437.768 114.794 437.83 114.68C437.895 114.562 437.976 114.468 438.074 114.399C438.176 114.329 438.29 114.279 438.416 114.246C438.546 114.209 438.677 114.181 438.807 114.16C438.937 114.14 439.066 114.124 439.192 114.112C439.318 114.099 439.43 114.081 439.528 114.057C439.626 114.032 439.703 113.998 439.76 113.953C439.817 113.904 439.843 113.835 439.839 113.745C439.839 113.651 439.823 113.578 439.791 113.525C439.762 113.468 439.721 113.425 439.668 113.397C439.619 113.364 439.56 113.344 439.491 113.336C439.426 113.323 439.355 113.317 439.277 113.317C439.106 113.317 438.972 113.354 438.874 113.427C438.776 113.501 438.719 113.623 438.703 113.794H437.836ZM439.839 114.435C439.803 114.468 439.756 114.494 439.699 114.515C439.646 114.531 439.587 114.545 439.522 114.557C439.461 114.57 439.395 114.58 439.326 114.588C439.257 114.596 439.188 114.606 439.119 114.619C439.053 114.631 438.988 114.647 438.923 114.667C438.862 114.688 438.807 114.716 438.758 114.753C438.713 114.786 438.677 114.828 438.648 114.881C438.62 114.934 438.605 115.001 438.605 115.083C438.605 115.16 438.62 115.225 438.648 115.278C438.677 115.331 438.715 115.374 438.764 115.407C438.813 115.435 438.87 115.456 438.935 115.468C439 115.48 439.068 115.486 439.137 115.486C439.308 115.486 439.44 115.458 439.534 115.401C439.628 115.344 439.697 115.276 439.742 115.199C439.786 115.117 439.813 115.036 439.821 114.955C439.833 114.873 439.839 114.808 439.839 114.759V114.435Z" fill="white"/>
<path d="M443.051 115.981L444.12 112.823H443.259L442.593 114.979H442.581L441.915 112.823H441.004L442.086 115.981H443.051Z" fill="white"/>
<path d="M446.527 114.063H445.116C445.12 114.002 445.132 113.932 445.153 113.855C445.177 113.778 445.216 113.704 445.269 113.635C445.326 113.566 445.399 113.509 445.489 113.464C445.582 113.415 445.698 113.391 445.837 113.391C446.049 113.391 446.205 113.448 446.307 113.562C446.413 113.676 446.486 113.843 446.527 114.063ZM445.116 114.612H447.395C447.411 114.368 447.391 114.134 447.334 113.91C447.276 113.686 447.183 113.486 447.052 113.311C446.926 113.136 446.763 112.998 446.564 112.896C446.364 112.79 446.13 112.737 445.861 112.737C445.621 112.737 445.401 112.78 445.201 112.865C445.006 112.951 444.837 113.069 444.694 113.22C444.552 113.366 444.442 113.541 444.365 113.745C444.287 113.949 444.249 114.169 444.249 114.405C444.249 114.649 444.285 114.873 444.358 115.077C444.436 115.28 444.544 115.456 444.682 115.602C444.821 115.749 444.99 115.863 445.189 115.944C445.389 116.022 445.613 116.06 445.861 116.06C446.22 116.06 446.525 115.979 446.778 115.816C447.03 115.653 447.217 115.382 447.34 115.003H446.576C446.547 115.101 446.47 115.195 446.344 115.284C446.218 115.37 446.067 115.413 445.892 115.413C445.647 115.413 445.46 115.35 445.33 115.223C445.199 115.097 445.128 114.893 445.116 114.612Z" fill="white"/>
<path fill-rule="evenodd" clip-rule="evenodd" d="M428.987 109.255H425.241L425.928 109.973V112.457L424.924 113.504V114.208H426.617L426.807 117.981H427.226L427.416 114.208H429.288V113.518L428.219 112.403V110.056L428.987 109.255Z" fill="white"/>
<path fill-rule="evenodd" clip-rule="evenodd" d="M352.654 112.163C352.654 112.766 352.166 113.254 351.563 113.254C350.961 113.254 350.472 112.766 350.472 112.163C350.472 111.561 350.961 111.073 351.563 111.073C352.166 111.073 352.654 111.561 352.654 112.163ZM349.382 112.163C349.382 112.766 348.893 113.254 348.291 113.254C347.688 113.254 347.2 112.766 347.2 112.163C347.2 111.561 347.688 111.073 348.291 111.073C348.893 111.073 349.382 111.561 349.382 112.163ZM354.836 113.254C355.438 113.254 355.927 112.766 355.927 112.163C355.927 111.561 355.438 111.073 354.836 111.073C354.233 111.073 353.745 111.561 353.745 112.163C353.745 112.766 354.233 113.254 354.836 113.254Z" fill="#F5F5F5"/>
<path fill-rule="evenodd" clip-rule="evenodd" d="M342.535 109.115C342.834 109.414 342.834 109.899 342.535 110.198L340.63 112.102L342.535 114.007C342.834 114.306 342.834 114.791 342.535 115.09C342.236 115.389 341.751 115.389 341.452 115.09L338.473 112.111L338.482 112.102L338.473 112.094L341.452 109.115C341.751 108.816 342.236 108.816 342.535 109.115Z" fill="#F5F5F5"/>
</g>
<rect x="338.156" y="134.471" width="114.682" height="114.516" rx="2.54538" fill="#DCDCDE"/>
<mask id="mask5_1_10" style="mask-type:alpha" maskUnits="userSpaceOnUse" x="338" y="134" width="115" height="115">
<rect x="338.156" y="134.471" width="114.682" height="114.516" rx="2.54538" fill="white"/>
</mask>
<g mask="url(#mask5_1_10)">
</g>
<rect x="338.656" y="122.137" width="48.0065" height="1.33352" fill="#F5F5F5"/>
<rect x="338.656" y="126.137" width="57.3412" height="1.33352" fill="#F5F5F5"/>
<g clip-path="url(#clip6_1_10)">
<rect x="58.2247" y="99.8007" width="137.451" height="191.267" rx="4.36351" fill="white"/>
<rect x="145.404" y="105.618" width="32.7263" height="15.9995" rx="2.39993" fill="#DCDCDE"/>
<path d="M160.297 114.533H159.368C159.364 114.802 159.413 115.034 159.515 115.229C159.617 115.425 159.753 115.586 159.924 115.712C160.099 115.838 160.299 115.93 160.523 115.987C160.751 116.048 160.985 116.079 161.225 116.079C161.523 116.079 161.783 116.044 162.007 115.975C162.235 115.906 162.425 115.81 162.575 115.688C162.73 115.561 162.846 115.413 162.924 115.242C163.001 115.071 163.04 114.885 163.04 114.686C163.04 114.441 162.987 114.242 162.881 114.087C162.779 113.928 162.657 113.802 162.514 113.708C162.372 113.615 162.227 113.547 162.081 113.507C161.938 113.462 161.826 113.431 161.745 113.415C161.472 113.346 161.25 113.289 161.079 113.244C160.912 113.199 160.779 113.154 160.682 113.11C160.588 113.065 160.525 113.016 160.492 112.963C160.46 112.91 160.443 112.841 160.443 112.755C160.443 112.662 160.464 112.584 160.504 112.523C160.545 112.462 160.596 112.411 160.657 112.371C160.722 112.33 160.794 112.301 160.871 112.285C160.948 112.269 161.026 112.261 161.103 112.261C161.221 112.261 161.329 112.271 161.427 112.291C161.529 112.311 161.618 112.346 161.696 112.395C161.773 112.444 161.834 112.511 161.879 112.597C161.928 112.682 161.956 112.79 161.964 112.92H162.893C162.893 112.668 162.844 112.454 162.746 112.279C162.653 112.1 162.524 111.953 162.362 111.839C162.199 111.725 162.011 111.644 161.8 111.595C161.592 111.542 161.374 111.515 161.146 111.515C160.95 111.515 160.755 111.542 160.559 111.595C160.364 111.648 160.189 111.729 160.034 111.839C159.879 111.949 159.753 112.087 159.655 112.254C159.562 112.417 159.515 112.611 159.515 112.835C159.515 113.034 159.551 113.205 159.625 113.348C159.702 113.486 159.802 113.602 159.924 113.696C160.046 113.79 160.185 113.867 160.339 113.928C160.494 113.985 160.653 114.034 160.816 114.075C160.975 114.12 161.132 114.16 161.286 114.197C161.441 114.234 161.58 114.276 161.702 114.325C161.824 114.374 161.922 114.435 161.995 114.509C162.072 114.582 162.111 114.678 162.111 114.796C162.111 114.906 162.083 114.997 162.026 115.071C161.969 115.14 161.897 115.195 161.812 115.236C161.726 115.276 161.635 115.305 161.537 115.321C161.439 115.333 161.347 115.339 161.262 115.339C161.136 115.339 161.013 115.325 160.895 115.297C160.777 115.264 160.673 115.217 160.584 115.156C160.498 115.091 160.429 115.008 160.376 114.906C160.323 114.804 160.297 114.68 160.297 114.533Z" fill="white"/>
<path d="M163.406 113.794C163.418 113.59 163.469 113.421 163.558 113.287C163.648 113.152 163.762 113.045 163.9 112.963C164.039 112.882 164.194 112.825 164.365 112.792C164.54 112.755 164.715 112.737 164.89 112.737C165.049 112.737 165.21 112.749 165.373 112.774C165.536 112.794 165.684 112.837 165.819 112.902C165.953 112.967 166.063 113.059 166.149 113.177C166.234 113.291 166.277 113.444 166.277 113.635V115.278C166.277 115.421 166.285 115.557 166.301 115.688C166.318 115.818 166.346 115.916 166.387 115.981H165.507C165.491 115.932 165.477 115.883 165.464 115.834C165.456 115.781 165.45 115.728 165.446 115.675C165.308 115.818 165.145 115.918 164.957 115.975C164.77 116.032 164.579 116.06 164.383 116.06C164.232 116.06 164.092 116.042 163.962 116.005C163.831 115.969 163.717 115.912 163.619 115.834C163.522 115.757 163.444 115.659 163.387 115.541C163.334 115.423 163.308 115.282 163.308 115.12C163.308 114.94 163.338 114.794 163.4 114.68C163.465 114.562 163.546 114.468 163.644 114.399C163.746 114.329 163.86 114.279 163.986 114.246C164.116 114.209 164.247 114.181 164.377 114.16C164.507 114.14 164.636 114.124 164.762 114.112C164.888 114.099 165 114.081 165.098 114.057C165.196 114.032 165.273 113.998 165.33 113.953C165.387 113.904 165.413 113.835 165.409 113.745C165.409 113.651 165.393 113.578 165.36 113.525C165.332 113.468 165.291 113.425 165.238 113.397C165.189 113.364 165.13 113.344 165.061 113.336C164.996 113.323 164.925 113.317 164.847 113.317C164.676 113.317 164.542 113.354 164.444 113.427C164.346 113.501 164.289 113.623 164.273 113.794H163.406ZM165.409 114.435C165.373 114.468 165.326 114.494 165.269 114.515C165.216 114.531 165.157 114.545 165.092 114.557C165.031 114.57 164.965 114.58 164.896 114.588C164.827 114.596 164.758 114.606 164.688 114.619C164.623 114.631 164.558 114.647 164.493 114.667C164.432 114.688 164.377 114.716 164.328 114.753C164.283 114.786 164.247 114.828 164.218 114.881C164.19 114.934 164.175 115.001 164.175 115.083C164.175 115.16 164.19 115.225 164.218 115.278C164.247 115.331 164.285 115.374 164.334 115.407C164.383 115.435 164.44 115.456 164.505 115.468C164.57 115.48 164.638 115.486 164.707 115.486C164.878 115.486 165.01 115.458 165.104 115.401C165.198 115.344 165.267 115.276 165.312 115.199C165.356 115.117 165.383 115.036 165.391 114.955C165.403 114.873 165.409 114.808 165.409 114.759V114.435Z" fill="white"/>
<path d="M168.621 115.981L169.69 112.823H168.829L168.163 114.979H168.151L167.485 112.823H166.574L167.656 115.981H168.621Z" fill="white"/>
<path d="M172.097 114.063H170.686C170.69 114.002 170.702 113.932 170.723 113.855C170.747 113.778 170.786 113.704 170.839 113.635C170.896 113.566 170.969 113.509 171.059 113.464C171.152 113.415 171.268 113.391 171.407 113.391C171.619 113.391 171.775 113.448 171.877 113.562C171.983 113.676 172.056 113.843 172.097 114.063ZM170.686 114.612H172.965C172.981 114.368 172.96 114.134 172.903 113.91C172.846 113.686 172.753 113.486 172.622 113.311C172.496 113.136 172.333 112.998 172.134 112.896C171.934 112.79 171.7 112.737 171.431 112.737C171.191 112.737 170.971 112.78 170.771 112.865C170.576 112.951 170.407 113.069 170.264 113.22C170.122 113.366 170.012 113.541 169.935 113.745C169.857 113.949 169.818 114.169 169.818 114.405C169.818 114.649 169.855 114.873 169.928 115.077C170.006 115.28 170.114 115.456 170.252 115.602C170.391 115.749 170.56 115.863 170.759 115.944C170.959 116.022 171.183 116.06 171.431 116.06C171.79 116.06 172.095 115.979 172.348 115.816C172.6 115.653 172.787 115.382 172.91 115.003H172.146C172.117 115.101 172.04 115.195 171.914 115.284C171.788 115.37 171.637 115.413 171.462 115.413C171.217 115.413 171.03 115.35 170.9 115.223C170.769 115.097 170.698 114.893 170.686 114.612Z" fill="white"/>
<path fill-rule="evenodd" clip-rule="evenodd" d="M154.557 109.255H150.811L151.498 109.973V112.457L150.494 113.504V114.208H152.187L152.377 117.981H152.796L152.986 114.208H154.858V113.518L153.789 112.403V110.056L154.557 109.255Z" fill="white"/>
<path fill-rule="evenodd" clip-rule="evenodd" d="M78.2241 112.163C78.2241 112.766 77.7357 113.254 77.1333 113.254C76.5308 113.254 76.0424 112.766 76.0424 112.163C76.0424 111.561 76.5308 111.073 77.1333 111.073C77.7357 111.073 78.2241 111.561 78.2241 112.163ZM74.9515 112.163C74.9515 112.766 74.4631 113.254 73.8606 113.254C73.2581 113.254 72.7697 112.766 72.7697 112.163C72.7697 111.561 73.2581 111.073 73.8606 111.073C74.4631 111.073 74.9515 111.561 74.9515 112.163ZM80.4058 113.254C81.0083 113.254 81.4967 112.766 81.4967 112.163C81.4967 111.561 81.0083 111.073 80.4058 111.073C79.8034 111.073 79.315 111.561 79.315 112.163C79.315 112.766 79.8034 113.254 80.4058 113.254Z" fill="#F5F5F5"/>
<path fill-rule="evenodd" clip-rule="evenodd" d="M68.1045 109.115C68.4036 109.414 68.4036 109.899 68.1045 110.198L66.2001 112.102L68.1045 114.007C68.4036 114.306 68.4036 114.791 68.1045 115.09C67.8054 115.389 67.3205 115.389 67.0214 115.09L64.0427 112.111L64.0516 112.102L64.0427 112.094L67.0214 109.115C67.3205 108.816 67.8054 108.816 68.1045 109.115Z" fill="#F5F5F5"/>
</g>
<rect x="63.7255" y="134.471" width="114.682" height="114.516" rx="2.54538" fill="#F5F5F5"/>
<mask id="mask6_1_10" style="mask-type:alpha" maskUnits="userSpaceOnUse" x="63" y="134" width="116" height="115">
<rect x="63.7255" y="134.471" width="114.682" height="114.516" rx="2.54538" fill="white"/>
</mask>
<g mask="url(#mask6_1_10)">
</g>
<rect x="64.2255" y="122.137" width="48.0065" height="1.33352" fill="#F5F5F5"/>
<rect x="64.2255" y="126.137" width="57.3412" height="1.33352" fill="#F5F5F5"/>
<rect x="-79" y="12" width="126" height="176" rx="4.36351" fill="#F6F7F7"/>
<rect x="469" y="12" width="126" height="176" rx="4.36351" fill="#F6F7F7"/>
<rect x="195" y="-174" width="126" height="176" rx="4.36351" fill="#DCDCDE"/>
<rect x="-79" y="-174" width="126" height="176" rx="4.36351" fill="#F6F7F7"/>
<rect x="469" y="-174" width="126" height="176" rx="4.36351" fill="#DCDCDE"/>
<ellipse cx="258.202" cy="99.9359" rx="35.7827" ry="35.3382" fill="white"/>
<path d="M258.231 64.5978C238.454 64.5978 222.419 80.5064 222.419 100.129C222.419 115.189 231.851 128.057 245.174 133.233C244.85 130.425 244.584 126.097 245.292 123.027C245.94 120.249 249.477 105.364 249.477 105.364C249.477 105.364 248.416 103.229 248.416 100.1C248.416 95.1575 251.305 91.4728 254.901 91.4728C257.966 91.4728 259.44 93.7538 259.44 96.4735C259.44 99.5148 257.494 104.077 256.463 108.317C255.608 111.856 258.261 114.751 261.768 114.751C268.135 114.751 273.028 108.083 273.028 98.4913C273.028 89.9814 266.867 84.0449 258.054 84.0449C247.856 84.0449 241.873 91.619 241.873 99.4563C241.873 102.498 243.052 105.773 244.525 107.557C244.82 107.908 244.85 108.229 244.761 108.58C244.496 109.692 243.877 112.119 243.759 112.616C243.612 113.259 243.228 113.406 242.551 113.084C238.07 111.008 235.27 104.545 235.27 99.3101C235.27 88.1098 243.464 77.816 258.939 77.816C271.348 77.816 281.015 86.5891 281.015 98.3451C281.015 110.598 273.234 120.453 262.446 120.453C258.821 120.453 255.402 118.582 254.252 116.359C254.252 116.359 252.454 123.144 252.012 124.811C251.216 127.911 249.035 131.771 247.561 134.139C250.921 135.163 254.458 135.719 258.172 135.719C277.95 135.719 293.984 119.81 293.984 100.187C294.043 80.5064 278.009 64.5978 258.231 64.5978Z" fill="#E60019"/>
<rect x="12" y="17" width="30" height="15" rx="2.39993" fill="#DCDCDE"/>
</g>
</g>
<defs>
<clipPath id="clip0_1_10">
<rect width="517" height="160" fill="white"/>
</clipPath>
<clipPath id="clip1_1_10">
<rect width="695" height="250" fill="white" transform="translate(-89)"/>
</clipPath>
<clipPath id="clip2_1_10">
<rect width="126.239" height="175.579" fill="white" transform="translate(57.9523 -88.614)"/>
</clipPath>
<clipPath id="clip3_1_10">
<rect width="126.239" height="175.579" fill="white" transform="translate(332.655 -88.614)"/>
</clipPath>
<clipPath id="clip4_1_10">
<rect width="126.239" height="175.579" fill="white" transform="translate(195.304 12.1469)"/>
</clipPath>
<clipPath id="clip5_1_10">
<rect width="126.239" height="175.579" fill="white" transform="translate(332.655 99.8007)"/>
</clipPath>
<clipPath id="clip6_1_10">
<rect width="126.239" height="175.579" fill="white" transform="translate(58.2247 99.8007)"/>
</clipPath>
</defs>
</svg>
