<svg width="24" height="24" fill="none" xmlns="http://www.w3.org/2000/svg"><g clip-path="url(#a)"><path d="M0 12c0 4.914 2.955 9.135 7.183 10.991-.034-.838-.006-1.843.209-2.755l1.544-6.54s-.383-.765-.383-1.898c0-1.778 1.03-3.106 2.314-3.106 1.091 0 1.619.82 1.619 1.801 0 1.098-.7 2.739-1.06 4.259-.3 1.273.638 2.311 1.894 2.311 2.274 0 3.805-2.92 3.805-6.38 0-2.63-1.771-4.599-4.993-4.599-3.64 0-5.908 2.715-5.908 5.747 0 1.046.308 1.783.79 2.354.223.262.254.368.173.669-.057.22-.19.752-.244.963-.08.304-.326.412-.6.3-1.678-.684-2.458-2.52-2.458-4.584 0-3.41 2.875-7.497 8.576-7.497 4.582 0 7.597 3.316 7.597 6.875 0 4.707-2.617 8.224-6.475 8.224-1.295 0-2.514-.7-2.931-1.496 0 0-.697 2.765-.845 3.299-.254.925-.752 1.85-1.207 2.57 1.079.32 2.219.493 3.4.493 6.627 0 12-5.373 12-12C24 5.372 18.627 0 12 0S0 5.373 0 12Z" fill="#CB1F27"/></g><defs><clipPath id="a"><path fill="#fff" d="M0 0h24v24H0z"/></clipPath></defs></svg>