<?xml version="1.0" encoding="utf-8"?>
<!-- Generator: Adobe Illustrator 25.0.1, SVG Export Plug-In . SVG Version: 6.00 Build 0)  -->
<svg version="1.1" id="Layer_1" xmlns="http://www.w3.org/2000/svg" xmlns:xlink="http://www.w3.org/1999/xlink" x="0px" y="0px"
	 viewBox="0 0 100 100" style="enable-background:new 0 0 100 100;" xml:space="preserve">
<style type="text/css">
	.st0{opacity:0.5;}
	.st1{fill:#FFFFFF;}
	.st2{opacity:0.8;}
</style>
<g>
	<g class="st0">
		<path class="st1" d="M68.02,6.1l-6.81,2.16l6.14,6.64l10.29,2.99l-2.82-8.47C73.99,6.76,71.01,5.1,68.02,6.1z"/>
		<path class="st1" d="M5.94,32.16l2.32,6.81l6.64-6.14l2.99-10.46l-8.47,2.82C6.6,26.18,4.94,29.34,5.94,32.16z"/>
		<path class="st1" d="M22.37,82.45l2.82,8.47c0.83,2.99,3.98,4.48,6.97,3.65l7.14-2.32l-5.98-6.47L22.37,82.45z"/>
		<path class="st1" d="M94.08,68.18l-2.32-7.14l-6.31,5.98l-3.32,10.95l8.47-2.82C93.41,74.32,95.24,71.16,94.08,68.18z"/>
	</g>
	<g class="st2">
		<path class="st1" d="M55.73,2.45c-2.16-2.32-5.48-2.49-7.8-0.33l-5.98,5.48l11.29,3.32l13.94,4.15l-6.14-6.64L55.73,2.45z"/>
		<path class="st1" d="M2.62,44.27c-2.32,2.16-2.49,5.48-0.33,7.8l5.15,5.64l3.15-10.95l4.15-13.94L8.1,38.96L2.62,44.27z"/>
		<path class="st1" d="M97.73,47.93l-5.15-5.48l-3.32,11.12l-3.98,13.28l6.31-5.98l5.64-5.31C99.72,53.73,99.89,50.25,97.73,47.93z"
			/>
		<path class="st1" d="M33.16,85.6l5.98,6.47l5.15,5.48c2.16,2.32,5.64,2.49,7.8,0.33l5.64-5.15l-10.79-3.15L33.16,85.6z"/>
	</g>
	<path class="st1" d="M92.42,22.36l-14.77-4.32l-10.29-2.99l-13.94-4.15L42.12,7.59L29.51,3.94c-3.15-0.83-6.47,0.83-7.3,3.98
		L17.89,22.7L14.9,33.15L10.75,47.1L7.6,58.05L3.78,71.16c-0.83,3.15,0.83,6.47,3.98,7.3l14.77,4.32l10.79,3.15l13.61,3.98
		l10.79,3.15l12.95,3.82c3.15,0.83,6.47-0.83,7.3-3.98l4.32-14.61l3.32-10.95l3.98-13.28l3.32-11.12l3.82-12.78
		C97.23,26.51,95.57,23.19,92.42,22.36z M67.69,26.68V38.3H52.25l0,0H31.5c0.17-0.83,0.5-1.83,0.83-2.66
		c0.66-1.66,1.66-3.32,3.15-4.65c1.33-1.16,2.99-2.49,4.65-3.15c1.66-0.83,3.65-1.16,5.64-1.16H67.69z M33.33,74.15V62.53h21.41
		c0.33,0,0.83,0,1.16-0.17c0.33-0.17,0.66-0.33,1-0.66c0.33-0.33,0.5-0.66,0.66-1c0.17-0.33,0.17-0.66,0.17-1.16
		c0-0.33,0-0.83-0.17-1.16c-0.17-0.33-0.33-0.66-0.66-1c-0.33-0.33-0.66-0.5-1-0.66c-0.33-0.17-0.66-0.17-1.16-0.17h-8.96
		c-1.83,0-3.98-0.33-5.64-1.16c-1.66-0.66-3.32-1.66-4.65-3.15c-1.16-1.16-2.49-2.99-3.15-4.65c-0.5-1-0.66-1.83-0.83-2.82h14.44
		h6.47h2.49c1.83,0,3.98,0.5,5.64,1.16c1.66,0.66,3.32,1.66,4.65,3.15c1.16,1.16,2.49,2.99,3.15,4.65c0.83,1.66,1.16,3.65,1.16,5.81
		c0,1.83-0.5,3.98-1.16,5.64c-0.66,1.66-1.66,3.32-3.15,4.65c-1.16,1.16-2.99,2.49-4.65,3.15c-1.83,0.83-3.82,1.16-5.81,1.16
		L33.33,74.15L33.33,74.15z"/>
</g>
</svg>
