<svg xmlns="http://www.w3.org/2000/svg" width="41" height="40" viewBox="0 0 41 40" fill="none">
  <g clip-path="url(#clip0_1845_9901)">
    <path d="M34.394 9.73248C35.0538 6.04667 31.1929 2.27175 25.7702 1.30095C20.3476 0.330152 15.4168 2.5311 14.7569 6.21691C14.0971 9.90272 17.9581 13.6776 23.3807 14.6484C28.8033 15.6192 33.7341 13.4183 34.394 9.73248Z" fill="#5C64F7"/>
    <path d="M31.7004 12.6459C31.978 11.0956 28.7706 9.22424 24.5365 8.46623C20.3024 7.70821 16.645 8.35054 16.3675 9.90091C16.0899 11.4513 19.2973 13.3226 23.5314 14.0806C27.7655 14.8386 31.4229 14.1963 31.7004 12.6459Z" fill="#0A0851"/>
    <path d="M16.2483 10.5634L22.0851 22.7468L31.5814 13.3069" stroke="#0A0851" stroke-width="0.121834" stroke-miterlimit="10"/>
    <path d="M13.0532 22.0519L7.20963 20.1364C7.20963 20.1364 9.43649 26.4741 15.0003 26.7967" fill="#F86937"/>
    <path d="M13.4777 19.4596C13.4777 19.4596 13.6176 16.2174 16.6048 17.0883C19.1926 17.8419 18.509 20.1206 19.1926 22.0519C20.3794 25.3956 27.712 29.3846 27.712 29.3846C27.712 29.3846 21.9046 31.9972 16.7965 29.9915C14.3982 29.0439 13.9786 27.3833 13.1979 25.9619C13.1979 25.9619 12.2909 22.3723 13.4777 19.4596Z" fill="#F86937"/>
    <path d="M13.9783 17.8239C13.9783 17.8239 13.8925 18.5955 15.0071 18.2525C16.1217 17.9096 17.4054 17.4809 18.0891 18.8504C18.7727 20.2199 17.6536 22.1106 15.332 21.506C13.0104 20.9013 13.0623 21.506 13.0623 21.506C13.0623 21.506 13.1142 19.3648 13.9783 17.8239Z" fill="#0A0851"/>
    <path d="M18.3623 21.3096L27.6759 17.7381C27.6759 17.7381 25.704 27.2457 20.1628 26.1469C20.1628 26.1469 18.0668 25.6957 17.1891 24.1502C17.0455 23.892 16.9621 23.6047 16.945 23.3098C16.9279 23.0149 16.9776 22.7199 17.0903 22.4468C17.2031 22.1738 17.3761 21.9297 17.5963 21.7328C17.8166 21.5359 18.0784 21.3913 18.3623 21.3096Z" fill="#F86937"/>
    <path opacity="0.4" d="M21.049 21.6594L25.2275 20.2853C25.2275 20.2853 24.6341 23.9359 21.3243 25.5468C21.0414 25.5245 20.7696 25.4271 20.5369 25.2648C19.1268 24.3375 19.4494 22.1738 21.049 21.6594Z" fill="#0A0851"/>
    <path d="M14.1226 19.0602L9.94644 18.7263L13.4751 20.3463C13.4751 20.3463 14.0144 20.247 14.1226 19.0602Z" fill="#3539FA"/>
    <path d="M16.6135 19.6807C16.93 19.6807 17.1866 19.4241 17.1866 19.1076C17.1866 18.7911 16.93 18.5345 16.6135 18.5345C16.297 18.5345 16.0404 18.7911 16.0404 19.1076C16.0404 19.4241 16.297 19.6807 16.6135 19.6807Z" fill="#3539FA"/>
    <path d="M16.6202 19.3378C16.7423 19.3378 16.8413 19.2388 16.8413 19.1166C16.8413 18.9945 16.7423 18.8955 16.6202 18.8955C16.4981 18.8955 16.3991 18.9945 16.3991 19.1166C16.3991 19.2388 16.4981 19.3378 16.6202 19.3378Z" fill="white"/>
    <path d="M13.2048 24.2833C13.1739 24.0555 13.1977 23.8236 13.2741 23.6067C13.3504 23.3899 13.4773 23.1943 13.6441 23.0361C13.8109 22.8779 14.0129 22.7616 14.2335 22.6968C14.454 22.632 14.6869 22.6205 14.9127 22.6633C14.9711 22.6723 15.0285 22.6867 15.0842 22.7062C17.566 23.7328 17.4825 30.3299 21.3361 30.5871C21.3361 30.5871 14.1795 32.0017 13.2048 24.2833Z" fill="url(#paint0_linear_1845_9901)"/>
    <path opacity="0.4" d="M12.771 22.0203C12.3842 23.4918 12.5671 25.055 13.2832 26.3974C12.6762 25.7812 12.209 25.0415 11.9135 24.2285C11.618 23.4156 11.5011 22.5486 11.5707 21.6864L12.771 22.0203Z" fill="#0A0851"/>
    <path d="M27.1747 29.1612L31.1659 31.1083L29.9972 32.7621L25.2299 28.7731" fill="#FF5502"/>
    <path opacity="0.55" d="M26.2297 34.8265C26.2297 34.8265 19.4047 33.651 16.4671 35.5033C16.2821 35.5214 14.3553 35.7447 13.6604 36.8209H15.497C17.0312 36.5953 16.1197 37.6354 16.1197 37.6354C16.1197 37.6354 14.9352 38.7049 17.0222 38.9553C17.7148 39.0388 18.9151 37.9806 20.526 36.9653L24.3051 38.7049C24.3051 38.7049 26.0559 36.5998 24.4405 35.7289C23.881 35.1017 23.6531 35.553 24.1607 35.4875C25.1886 35.3082 26.2397 35.3082 27.2675 35.4875L29.9253 36.2073L30.7398 35.4853C30.7398 35.4853 29.6974 35.1604 26.2297 34.8265Z" fill="#F5A278"/>
    <path d="M23.382 9.76474L22.1027 19.9108" stroke="#0A0851" stroke-width="0.121834" stroke-miterlimit="10"/>
    <path opacity="0.7" d="M20.6949 1.43488C20.6949 1.43488 16.3314 3.60984 18.7546 9.06757L16.2118 10.6469C16.2118 10.6469 11.722 3.60984 20.6949 1.43488Z" fill="#0A0851"/>
    <path opacity="0.5" d="M20.8077 1.59506C20.8077 1.59506 18.3259 3.62563 19.7044 8.83969L22.8856 8.59602C22.8856 8.59602 22.3126 2.29448 23.7881 1.32432C23.7994 1.32432 21.1529 0.505322 20.8077 1.59506Z" fill="#0A0851"/>
    <path d="M18.1679 8.38619L19.3117 8.01843C19.3117 8.01843 18.4612 3.15859 20.7264 1.84549C20.3744 1.89738 16.4599 2.86303 18.1679 8.38619Z" fill="#7E9FFC"/>
    <path d="M16.5119 9.30671L15.7403 9.85722C15.7403 9.85722 13.0938 7.94397 15.8463 3.86703C15.8463 3.86703 13.9782 7.32352 16.5119 9.30671Z" fill="#7E9FFC"/>
    <path d="M22.2517 8.41327H23.0729C23.0729 8.41327 22.7638 3.44965 23.9957 2.05758C23.9957 2.05758 22.1479 1.46195 22.2517 8.41327Z" fill="#7E9FFC"/>
    <path d="M16.3608 10.5544C16.3608 10.5544 15.2327 7.72738 24.7809 8.57796C25.4162 8.6343 26.0429 8.76299 26.649 8.96151C27.8493 9.34958 29.8348 10.0535 30.4214 10.6401C30.4214 10.6401 28.7067 7.72512 18.7614 7.89659C18.7614 7.89659 13.8767 9.01115 16.1036 10.6401" fill="#7E9FFC"/>
  </g>
  <defs>
    <linearGradient id="paint0_linear_1845_9901" x1="13.1935" y1="26.6613" x2="21.3361" y2="26.6613" gradientUnits="userSpaceOnUse">
      <stop stop-color="#FFF3E9"/>
      <stop offset="1" stop-color="#FCC9B2"/>
    </linearGradient>
    <clipPath id="clip0_1845_9901">
      <rect width="40.3362" height="40" fill="white" transform="translate(0.666656)"/>
    </clipPath>
  </defs>
</svg>
