<svg xmlns="http://www.w3.org/2000/svg" width="20" height="20" viewBox="0 0 20 20" fill="none">
  <rect width="20" height="20" rx="4" fill="white"/>
  <path d="M15 6.77568C15 7.20144 14.7778 7.61621 14.3341 8.02053L14.2655 8.08068L10.3806 11.6353C9.55579 12.3885 8.85201 12.9717 8.27225 13.3828C7.69249 13.7939 7.28251 14 7.0435 14C6.79245 14 6.47999 13.897 6.10673 13.6914C5.73347 13.4853 5.49265 13.2735 5.38429 13.0554C5.29278 12.8728 5.20488 12.4873 5.123 11.8974C5.03786 11.2613 4.99684 10.6213 5.00019 9.98091C5.00019 9.60588 5.1802 9.2591 5.54022 8.94109C5.90144 8.62256 6.29938 8.46303 6.73405 8.46303C7.14885 8.46303 7.39629 8.79255 7.47576 9.45159L7.49382 9.62105C7.56065 10.1268 7.63831 10.4804 7.72681 10.6797C7.81591 10.88 7.93571 10.9794 8.08622 10.9794C8.14884 10.9794 8.26623 10.9208 8.43781 10.8021C8.65214 10.6504 8.85743 10.4893 9.05309 10.3193L13.0446 6.885C13.3799 6.59366 13.6797 6.37346 13.9422 6.22439C14.2065 6.0748 14.4311 6 14.6147 6C14.7532 6 14.8519 6.04551 14.9097 6.13652C14.9687 6.22805 14.9976 6.38078 14.9976 6.59523V6.77568H15Z" fill="#071C6D"/>
</svg>
