<svg xmlns="http://www.w3.org/2000/svg" width="20" height="20" viewBox="0 0 20 20" fill="none">
  <path fill-rule="evenodd" clip-rule="evenodd" d="M11.2077 5.79976C11.2859 5.41451 10.9685 5.01964 10.4987 4.91781C10.0289 4.81597 9.06235 5.52706 8.98412 5.91231L8.36414 9.00906L4.91241 9.28534C4.45065 9.29349 4.06768 9.76456 4.07499 10.2062C4.08229 10.6478 4.86613 11.2633 5.3279 11.2552L7.92656 11.1947L7.40007 13.8245C7.32184 14.2097 7.91749 15.2137 8.38729 15.3155C8.85709 15.4173 9.53695 13.8026 9.61518 13.4173L10.0903 11.1444L13.3113 11.0695C13.7731 11.0613 14.7655 10.3237 14.7582 9.88212C14.7509 9.44051 12.6846 8.69207 12.2228 8.70022L10.5737 8.83221L11.2077 5.79976Z" fill="#FE5301"/>
</svg>
