<svg xmlns="http://www.w3.org/2000/svg" width="21" height="20" viewBox="0 0 21 20" fill="none">
  <rect x="0.666504" width="19.3574" height="20" rx="4" fill="white"/>
  <path fill-rule="evenodd" clip-rule="evenodd" d="M11.5407 5.79976C11.6189 5.41451 11.3015 5.01964 10.8317 4.91781C10.3619 4.81597 9.39536 5.52706 9.31713 5.91231L8.69714 9.00906L5.24542 9.28534C4.78365 9.29349 4.40069 9.76456 4.408 10.2062C4.4153 10.6478 5.19914 11.2633 5.66091 11.2552L8.25956 11.1947L7.73307 13.8245C7.65484 14.2097 8.2505 15.2137 8.7203 15.3155C9.1901 15.4173 9.86996 13.8026 9.94819 13.4173L10.4234 11.1444L13.6443 11.0695C14.1061 11.0613 15.0985 10.3237 15.0912 9.88212C15.0839 9.44051 13.0176 8.69207 12.5558 8.70022L10.9067 8.83221L11.5407 5.79976Z" fill="#071C6D"/>
</svg>
