<svg width="48" height="48" viewBox="0 0 48 48" fill="none" xmlns="http://www.w3.org/2000/svg">
<circle cx="16" cy="16" r="16" fill="#5F06DE" fill-opacity="0.16"/>
<path d="M38 42V10C38 7.79086 36.2091 6 34 6H14C11.7909 6 10 7.79086 10 10V42M38 42L42 41.9999M38 42H28M10 42L6 41.9999M10 42H20M18 14H20M18 22H20M28 14H30M28 22H30M20 42V32C20 30.8954 20.8954 30 22 30H26C27.1046 30 28 30.8954 28 32V42M20 42H28" stroke="url(#paint0_radial_128_645)" stroke-width="2.4" stroke-linecap="round" stroke-linejoin="round"/>
<defs>
<radialGradient id="paint0_radial_128_645" cx="0" cy="0" r="1" gradientUnits="userSpaceOnUse" gradientTransform="translate(5.475 42) rotate(-44.7252) scale(63.4025 227.834)">
<stop stop-color="#0800B5"/>
<stop offset="0.500518" stop-color="#7807E9"/>
<stop offset="1" stop-color="#CB37FF"/>
</radialGradient>
</defs>
</svg>
