<svg width="512" height="444" viewBox="0 0 512 444" fill="none" xmlns="http://www.w3.org/2000/svg">
<g clip-path="url(#clip0_128_546)">
<path opacity="0.2" d="M455.651 54.1804C505.133 118.027 486.943 216.595 450.308 282.476C422.45 332.587 380.981 362.475 333.152 374.685C293.591 384.732 249.579 386.767 209.382 381.807C171.475 377.101 133.822 364.255 101.639 338.437C87.5194 327.118 74.5445 313.382 63.4777 297.865C53.1741 283.366 39.1815 263.144 36.2558 243.685C35.2382 236.817 36.5102 228.804 40.9624 224.48C46.5594 219.011 54.5733 220.664 61.4424 223.081C70.2195 226.261 78.8695 230.33 87.265 235.036C103.42 244.448 116.395 250.426 132.804 237.453C156.592 218.757 174.909 190.522 190.301 161.778C206.456 131.763 218.922 98.4405 236.731 69.6968C275.528 7.12222 350.452 -18.3146 408.966 14.2445C426.648 24.1649 442.803 37.5192 455.651 54.1804Z" fill="#300B8D"/>
<path d="M468.752 38.9185V346.323C468.752 351.537 464.555 355.734 459.339 355.734H73.5264C68.311 355.734 64.1133 351.537 64.1133 346.323V38.9185C64.1133 33.7039 68.311 29.5068 73.5264 29.5068H459.339C464.555 29.5068 468.752 33.7039 468.752 38.9185Z" fill="#240E8C" stroke="#751DFF" stroke-width="0.5" stroke-miterlimit="10"/>
<path d="M64.1133 60.0312H468.752V355.735H67.9294C65.7669 355.735 64.1133 354.081 64.1133 351.919V60.0312Z" fill="#6900FF"/>
<g opacity="0.5">
<path d="M86 44.999C86 47.6776 83.6429 49.999 80.5 49.999C77.3571 49.999 75 47.8562 75 44.999C75 42.1419 77.3571 39.999 80.5 39.999C83.6429 39.999 86 42.1419 86 44.999Z" fill="#6900FF"/>
<path d="M104 44.999C104 47.6776 101.857 49.999 99 49.999C96.1429 49.999 94 47.8562 94 44.999C94 42.1419 96.1429 39.999 99 39.999C101.857 39.999 104 42.1419 104 44.999Z" fill="#6900FF"/>
<path d="M123 44.999C123 47.6776 120.643 49.999 117.5 49.999C114.357 49.999 112 47.8562 112 44.999C112 42.1419 114.357 39.999 117.5 39.999C120.643 39.999 123 42.1419 123 44.999Z" fill="#6900FF"/>
</g>
<path d="M94.5126 299.646H437.839C446.87 299.646 454.248 292.27 454.248 283.24V131.763C454.248 122.733 446.87 115.356 437.839 115.356H94.5126C85.4811 115.356 78.1032 122.733 78.1032 131.763V283.24C77.976 292.27 85.3539 299.646 94.5126 299.646Z" fill="#0E074F"/>
<g opacity="0.4">
<path d="M196.153 187.215H162.825C161.553 187.215 160.281 186.579 160.281 185.816C160.281 184.926 161.299 184.417 162.825 184.417H196.153C197.425 184.417 198.697 185.053 198.697 185.816C198.697 186.579 197.425 187.215 196.153 187.215Z" fill="#D9D9D9"/>
<path d="M196.153 194.337H162.825C161.553 194.337 160.281 193.701 160.281 192.938C160.281 192.048 161.299 191.539 162.825 191.539H196.153C197.425 191.539 198.697 192.175 198.697 192.938C198.697 193.701 197.425 194.337 196.153 194.337Z" fill="#D9D9D9"/>
<path d="M179.998 201.459H162.825C161.553 201.459 160.281 200.823 160.281 200.06C160.281 199.17 161.299 198.661 162.825 198.661H179.998C181.27 198.661 182.542 199.297 182.542 200.06C182.542 200.95 181.27 201.459 179.998 201.459Z" fill="#D9D9D9"/>
<path d="M145.397 268.026H103.038C100.621 268.026 98.5859 266.118 98.5859 263.575V234.449C98.5859 232.033 100.494 229.998 103.038 229.998H145.397C147.814 229.998 149.85 231.906 149.85 234.449V263.575C149.85 266.118 147.814 268.026 145.397 268.026Z" fill="#D9D9D9"/>
<path d="M196.153 242.716H162.825C161.553 242.716 160.281 242.081 160.281 241.19C160.281 240.3 161.299 239.664 162.825 239.664H196.153C197.425 239.664 198.697 240.3 198.697 241.19C198.697 242.081 197.425 242.716 196.153 242.716Z" fill="#D9D9D9"/>
<path d="M196.153 250.934H162.825C161.553 250.934 160.281 250.298 160.281 249.408C160.281 248.518 161.299 247.882 162.825 247.882H196.153C197.425 247.882 198.697 248.518 198.697 249.408C198.697 250.298 197.425 250.934 196.153 250.934Z" fill="#D9D9D9"/>
<path d="M179.998 258.692H162.825C161.553 258.692 160.281 258.056 160.281 257.166C160.281 256.276 161.299 255.64 162.825 255.64H179.998C181.27 255.64 182.542 256.276 182.542 257.166C182.542 258.056 181.27 258.692 179.998 258.692Z" fill="#D9D9D9"/>
</g>
<rect opacity="0.5" x="218" y="123" width="229" height="169" rx="8" fill="#6900FF"/>
<path opacity="0.9" d="M314.45 87.5612H280.868C280.105 87.5612 279.469 86.7981 279.469 85.7806C279.469 84.7631 280.105 84 280.868 84H314.45C315.213 84 315.849 84.7631 315.849 85.7806C315.849 86.7981 315.213 87.5612 314.45 87.5612Z" fill="#D9D9D9"/>
<path opacity="0.9" d="M363.423 87.5612H329.841C329.077 87.5612 328.441 86.7981 328.441 85.7806C328.441 84.7631 329.077 84 329.841 84H363.423C364.186 84 364.822 84.7631 364.822 85.7806C364.822 86.7981 364.186 87.5612 363.423 87.5612Z" fill="#D9D9D9"/>
<path opacity="0.9" d="M412.27 87.5612H378.688C377.925 87.5612 377.289 86.7981 377.289 85.7806C377.289 84.7631 377.925 84 378.688 84H412.27C413.034 84 413.67 84.7631 413.67 85.7806C413.67 86.7981 413.034 87.5612 412.27 87.5612Z" fill="#D9D9D9"/>
<path d="M329.969 223.717C318.011 223.717 308.344 214.051 308.344 202.096C308.344 190.141 318.011 180.475 329.969 180.475C341.926 180.475 351.593 190.141 351.593 202.096C351.466 214.051 341.799 223.717 329.969 223.717Z" fill="#13A8E7"/>
<path d="M342.435 201.206L323.99 190.522C323.863 190.395 323.608 190.395 323.481 190.522C323.354 190.649 323.227 190.777 323.227 191.031V212.271C323.227 212.525 323.354 212.652 323.481 212.779C323.608 212.779 323.608 212.907 323.735 212.907C323.863 212.907 323.863 212.907 323.99 212.779L333.276 207.565L342.435 202.223C342.562 202.096 342.689 201.969 342.689 201.714C342.689 201.46 342.562 201.206 342.435 201.206Z" fill="white"/>
<path fill-rule="evenodd" clip-rule="evenodd" d="M466.077 259.837C469.257 256.403 471.419 252.206 471.038 247.373C470.02 233.765 449.54 236.69 445.469 243.558C441.526 250.426 441.908 267.977 447.123 269.122C449.158 269.631 453.61 268.359 458.063 265.942L455.264 284.257H471.801L466.077 259.837Z" fill="#CE844D"/>
<path fill-rule="evenodd" clip-rule="evenodd" d="M478.289 242.795C478.798 242.286 479.053 241.65 479.307 240.887C479.561 240.251 479.816 239.488 479.943 238.725C480.325 237.326 480.325 235.672 479.18 234.528C478.289 233.637 477.017 233.256 475.745 233.129C474.982 233.129 474.092 233.129 473.328 233.383C472.565 233.637 471.929 234.146 471.166 234.401C471.166 232.874 470.912 231.221 470.021 229.949C469.258 228.677 467.859 227.914 466.459 227.787C464.933 227.533 463.406 227.914 462.134 228.55C461.753 228.677 461.498 228.932 461.117 229.059C460.862 229.186 460.608 229.44 460.226 229.44C459.845 229.568 459.717 229.313 459.463 229.059C459.209 228.804 458.827 228.55 458.573 228.296C457.173 227.278 455.265 226.897 453.612 227.533C452.848 227.787 452.085 228.296 451.576 228.932C451.068 229.44 450.813 230.331 450.177 230.712C449.923 230.839 449.668 230.712 449.414 230.458C449.032 230.203 448.651 229.949 448.269 229.695C447.76 229.313 447.124 229.059 446.615 228.932C445.725 228.804 444.453 228.804 444.198 229.822C444.071 230.203 444.198 230.712 444.198 231.094C444.198 231.602 444.326 232.238 444.326 232.747C444.326 233.129 444.453 233.637 444.453 234.019C444.453 234.273 444.58 234.655 444.58 234.909C444.453 235.164 443.817 235.036 443.562 235.036C443.054 235.036 442.545 235.164 442.036 235.291C441.654 235.418 441.273 235.672 441.146 236.054C441.018 236.308 441.018 236.563 441.146 236.817C441.146 237.071 441.146 237.199 441.146 237.58C440.51 237.326 438.093 236.563 437.838 237.707C437.711 238.089 437.965 238.47 438.093 238.852C438.347 239.361 438.729 239.869 439.237 240.378C440.128 241.396 441.018 242.286 442.163 242.922C440.891 243.431 440.637 244.957 441.654 245.847C442.163 246.229 442.799 246.356 443.435 246.356C443.69 246.356 443.944 246.229 444.198 246.356C444.326 246.356 444.453 246.483 444.58 246.483C445.471 246.483 446.361 246.356 447.251 246.229C448.778 245.974 450.177 245.211 451.322 244.321C451.576 244.067 451.831 243.939 452.212 243.939C452.594 243.939 452.848 244.067 453.23 244.067C454.12 244.067 455.011 243.685 455.774 243.431C455.774 244.448 456.156 245.72 456.665 246.61C457.046 247.373 457.809 247.5 458.573 247.628C461.117 247.882 460.608 247.882 463.152 247.882C460.735 248.391 461.117 248.391 458.7 248.9C457.555 249.154 458.445 249.79 458.954 250.299C459.717 251.062 460.354 252.079 460.735 253.097C461.88 251.698 464.042 250.68 465.951 251.189C467.986 251.698 469.512 254.241 468.113 256.149C467.35 257.166 465.951 257.675 464.806 258.057C465.696 258.947 465.951 260.219 466.459 261.236C466.714 261.745 467.095 262.381 467.731 262.508C467.986 262.635 468.24 262.635 468.367 262.763C468.622 263.017 468.622 263.144 468.876 263.399C470.021 264.162 471.675 264.034 472.692 263.144C473.583 262.254 473.328 260.982 472.565 260.092C473.71 259.583 475.873 259.074 475.364 257.421C477.908 257.294 484.014 253.478 480.706 250.68C482.614 249.663 484.268 247.373 483.123 245.211C482.233 243.685 480.07 242.922 478.289 242.795Z" fill="#0B0456"/>
<g opacity="0.6">
<path opacity="0.2" fill-rule="evenodd" clip-rule="evenodd" d="M495.082 353.191H456.284L441.528 443.238H512L495.082 353.191Z" fill="#A6A4F7"/>
<path opacity="0.2" fill-rule="evenodd" clip-rule="evenodd" d="M495.082 353.191H480.453L471.803 443.238H512L495.082 353.191Z" fill="#A6A4F7"/>
</g>
<path fill-rule="evenodd" clip-rule="evenodd" d="M387.847 350.521C382.123 347.341 372.71 351.411 372.71 355.99C372.71 369.471 386.066 433.063 386.702 437.133C387.338 441.203 394.843 442.22 395.225 437.133C395.861 429.12 395.607 401.14 394.334 388.167C393.826 382.825 394.716 377.738 394.207 373.287C401.204 384.988 412.016 401.649 426.645 423.397L434.531 420.09C428.298 401.14 423.21 387.658 419.267 379.773C412.398 366.419 406.037 354.845 403.366 350.902C399.041 344.543 391.663 346.705 387.847 350.521Z" fill="#CE844D"/>
<path fill-rule="evenodd" clip-rule="evenodd" d="M434.023 409.533L406.802 349.757C400.314 340.091 381.997 351.792 384.159 357.388C389.247 370.233 414.943 411.568 416.342 415.384L434.023 409.533Z" fill="#140666"/>
<g opacity="0.7">
<path fill-rule="evenodd" clip-rule="evenodd" d="M435.495 416.325C437.11 417.595 438.314 418.663 438.823 419.544C439.395 420.535 440.176 422.141 441.037 424.141C439.825 424.84 428.554 430.759 407.352 442.117C404.771 439.935 404.384 438.249 406.13 436.947C407.939 435.756 409.354 434.646 410.502 433.836L422.096 419.066C422.363 418.765 422.757 418.684 423.058 418.951L425.495 420.628C427.703 420.382 429.39 419.996 430.445 419.534C431.326 419.025 432.411 418.105 433.461 416.618C433.931 415.906 434.783 415.855 435.495 416.325C435.431 416.215 435.431 416.215 435.495 416.325Z" fill="#300B8D"/>
</g>
<g opacity="0.7">
<path fill-rule="evenodd" clip-rule="evenodd" d="M397.008 433.953C397.771 435.861 398.152 437.26 398.152 438.277C398.152 439.422 397.898 441.075 397.516 443.364C396.117 443.364 383.142 443.364 358.719 443.364C357.701 440.312 358.337 438.659 360.5 438.404C362.662 438.15 364.443 437.896 365.969 437.768L384.033 430.264C384.414 430.137 384.796 430.264 384.923 430.646L386.068 433.317C388.103 434.207 389.757 434.589 391.029 434.589C392.046 434.589 393.446 434.207 395.227 433.444C395.735 432.935 396.626 433.19 397.008 433.953C397.008 433.826 396.88 433.826 397.008 433.953Z" fill="#300B8D"/>
</g>
<path fill-rule="evenodd" clip-rule="evenodd" d="M370.674 360.568C370.674 377.483 379.323 417.037 379.323 420.726H398.023C395.224 385.496 394.334 367.563 395.097 367.181C396.242 366.673 444.071 371.633 458.318 371.633C478.925 371.633 487.448 359.55 488.211 337.293H447.251C438.983 338.056 395.479 346.196 379.323 348.994C372.582 350.266 370.674 355.862 370.674 360.568Z" fill="#1E0489"/>
<path fill-rule="evenodd" clip-rule="evenodd" d="M343.455 269.885L379.836 234.782C381.871 232.747 384.415 231.729 386.705 231.729C389.758 231.729 392.683 233.383 394.464 236.562L411.128 265.433C414.435 271.029 413.29 279.424 408.457 284.129L373.348 317.96C368.514 322.666 362.281 321.267 357.447 317.452L340.784 288.581C337.349 282.985 338.621 274.463 343.455 269.885Z" fill="url(#paint0_linear_128_546)"/>
<path fill-rule="evenodd" clip-rule="evenodd" d="M441.02 297.611L417.105 285.529C413.162 281.205 409.218 277.771 405.402 275.354C404.257 274.845 402.222 274.591 404.13 277.771C406.038 280.95 407.946 284.384 406.929 285.275C405.911 286.292 403.494 284.893 402.349 286.546C401.586 287.691 405.784 289.344 414.943 291.634L432.37 306.387L441.02 297.611ZM403.621 307.786L393.063 302.444C391.537 297.23 389.883 294.686 387.721 294.559C386.194 293.923 388.865 300.409 385.94 299.901C383.014 299.392 375.636 294.305 374.364 295.322C372.456 296.848 374.11 301.427 376.145 303.716C379.834 308.04 382.76 309.44 390.265 311.474C394.208 312.492 398.406 314.527 402.858 317.579L403.621 307.786Z" fill="#CE844D"/>
<path fill-rule="evenodd" clip-rule="evenodd" d="M452.724 294.813C444.328 294.686 433.134 293.032 421.304 286.037L416.597 295.703C424.866 303.207 436.314 309.439 446.491 309.185C454.377 309.057 458.448 300.155 452.724 294.813Z" fill="url(#paint1_linear_128_546)"/>
<path fill-rule="evenodd" clip-rule="evenodd" d="M441.402 310.329C432.497 312.364 417.614 309.948 396.626 303.08C391.41 313 388.993 320.123 389.375 324.32C407.311 332.968 422.703 336.911 435.423 337.165C435.041 344.16 435.932 350.774 438.985 356.879C445.345 369.343 482.362 357.769 494.828 360.058C502.587 336.657 487.577 327.118 487.577 312.11C487.577 295.703 473.33 270.394 471.168 270.394H452.087C451.069 282.858 445.854 296.721 441.402 310.329Z" fill="url(#paint2_linear_128_546)"/>
<path fill-rule="evenodd" clip-rule="evenodd" d="M39.3256 157.779C34.7988 154.646 31.3031 150.447 30.19 144.82C27.048 128.676 49.9953 126.347 56.4358 133.181C62.8763 140.014 67.8179 160.417 62.6513 163.249C60.6044 164.456 55.5405 164.232 49.9915 162.69L58.6367 183.154L40.9446 187.893L39.3256 157.779Z" fill="#FCBB89"/>
<path fill-rule="evenodd" clip-rule="evenodd" d="M59.0824 136.252C58.6961 135.302 57.8753 134.205 57.2433 133.321C56.4226 132.224 55.479 131.16 54.4784 130.375C52.6 128.771 50.3859 127.389 48.1148 126.286C43.9502 124.504 39.2217 124.059 35.1759 125.67C33.153 126.475 31.2948 127.895 29.8139 129.74C28.5459 131.396 27.4425 133.667 25.5096 134.316C23.3309 135.032 20.7153 133.626 18.543 132.891C16.0921 132.099 13.7399 131.676 11.1508 131.842C7.05442 132.281 3.60771 134.653 1.76072 138.572C-0.266156 142.801 -0.971975 148.521 2.21221 152.54C2.8113 153.301 9.57966 166.762 11.4492 167.842C13.3187 168.921 15.2365 169.197 17.3341 169.162C18.6286 169.079 20.0131 168.84 21.3317 168.355C22.1588 168.001 22.8302 167.558 23.7802 167.172C26.8873 168.446 29.9108 168.427 32.9166 167.358C35.1853 166.487 37.7566 165.271 39.1716 163.181C40.7994 160.901 40.1409 158.444 38.925 155.873C39.4823 155.987 40.9897 155.715 39.8662 154.962C39.3988 154.692 38.7186 154.611 38.1613 154.497C37.6039 154.383 37.0137 154.146 36.3905 153.786C34.2993 152.372 34.8759 148.135 36.8 146.961C39.6083 145.156 41.375 149.291 43.883 149.804C45.2763 150.089 46.3974 148.867 47.027 147.777C47.9264 146.219 48.3913 144.515 48.7005 142.72C48.9526 141.204 49.0819 139.721 49.367 138.328C49.4481 137.648 49.97 135.664 49.281 135.059C51.3609 133.975 53.9588 134.332 56.0982 134.944C56.9671 135.238 57.7131 135.565 58.3122 136.327C58.468 136.416 58.7555 136.998 59.0013 136.932C59.5257 136.923 59.1482 136.498 59.0824 136.252Z" fill="#190649"/>
<path fill-rule="evenodd" clip-rule="evenodd" d="M21.3711 324.174C39.6886 329.261 55.5892 331.932 68.9458 331.932C82.3023 331.932 94.6412 327.99 106.09 320.104C88.1537 314.89 73.2707 312.219 61.6951 312.219C50.1194 312.219 36.6357 316.161 21.3711 324.174Z" fill="#176084"/>
<path fill-rule="evenodd" clip-rule="evenodd" d="M72.5078 337.529C72.3806 337.274 72.1261 337.02 72.1261 336.638C69.582 330.152 37.0176 259.819 33.0742 246.974H77.3416C80.2673 256.64 93.751 317.815 95.6591 329.898C101.638 349.103 113.849 411.296 115.376 415.62C117.03 420.199 107.744 424.904 105.327 419.308C101.383 410.405 87.1363 381.662 83.0658 366.654C79.1224 352.664 74.0342 344.651 72.5078 337.529Z" fill="#FCBB89"/>
<path fill-rule="evenodd" clip-rule="evenodd" d="M102.557 418.718C101.667 421.007 101.285 422.661 101.285 423.805C101.285 425.205 101.54 427.239 101.921 429.783C103.575 429.783 117.949 429.783 145.044 429.783C146.189 426.095 145.552 424.06 143.136 423.805C140.719 423.551 138.683 423.297 137.157 423.042L117.059 414.139C116.677 414.012 116.168 414.139 116.041 414.521L114.769 417.701C112.479 418.718 110.698 419.227 109.299 419.227C108.154 419.227 106.628 418.718 104.592 417.828C103.829 417.446 102.939 417.828 102.557 418.718C102.557 418.591 102.557 418.591 102.557 418.718Z" fill="url(#paint3_linear_128_546)"/>
<path fill-rule="evenodd" clip-rule="evenodd" d="M102.557 418.718C101.667 421.007 101.285 422.661 101.285 423.805C101.285 425.205 101.54 427.239 101.921 429.783C103.575 429.783 117.949 429.783 145.044 429.783C146.189 426.095 145.552 424.06 143.136 423.805C140.719 423.551 138.683 423.297 137.157 423.042L117.059 414.139C116.677 414.012 116.168 414.139 116.041 414.521L114.769 417.701C112.479 418.718 110.698 419.227 109.299 419.227C108.154 419.227 106.628 418.718 104.592 417.828C103.829 417.446 102.939 417.828 102.557 418.718C102.557 418.591 102.557 418.591 102.557 418.718Z" fill="url(#paint4_linear_128_546)"/>
<path fill-rule="evenodd" clip-rule="evenodd" d="M34.7286 332.696C34.7286 332.441 34.6014 332.06 34.7286 331.678C35.1102 324.81 33.5837 244.048 35.1102 230.821L69.0739 249.263C67.9291 259.311 60.424 318.451 57.371 330.407C55.0814 350.502 36.7638 414.602 36.5094 419.181C36.255 424.014 25.8242 424.65 25.8242 418.545C25.8242 408.879 26.9691 382.552 29.1315 367.163C31.1668 352.791 33.3293 339.945 34.7286 332.696Z" fill="#FCBB89"/>
<path fill-rule="evenodd" clip-rule="evenodd" d="M23.5626 416.811C21.9089 418.591 20.7641 419.99 20.3824 421.008C19.8736 422.28 19.2376 424.187 18.6016 426.858C20.128 427.494 33.2301 433.218 58.1623 444.155C60.7064 441.23 60.8336 439.068 58.7983 437.923C56.7631 436.651 54.9822 435.634 53.5829 434.744L38.8272 418.591C38.5728 418.337 38.0639 418.21 37.8095 418.591L35.3926 420.881C32.9757 420.881 31.0677 420.753 29.7956 420.118C28.778 419.609 27.5059 418.591 25.9795 416.938C25.2162 416.175 24.1986 416.175 23.5626 416.811C23.5626 416.811 23.5626 416.684 23.5626 416.811Z" fill="url(#paint5_linear_128_546)"/>
<path fill-rule="evenodd" clip-rule="evenodd" d="M36.3824 249.136C53.6823 244.176 69.9645 244.176 85.3563 249.136C90.6989 273.683 103.674 283.349 105.963 320.741C79.8865 333.714 47.8308 311.584 20.9906 324.175C13.4855 306.496 24.1707 264.144 36.3824 249.136Z" fill="url(#paint6_linear_128_546)"/>
<path fill-rule="evenodd" clip-rule="evenodd" d="M62.6327 186.797L88.1818 170.541C92.2499 165.045 96.2664 160.721 100.356 157.546C101.668 156.927 103.901 156.405 102.014 160.353C100.127 164.302 98.2845 168.501 99.5076 169.577C100.731 170.653 103.266 168.915 104.747 170.72C105.741 171.966 101.246 174.308 91.2611 177.747L73.0141 196.591L62.6327 186.797Z" fill="#FCBB89"/>
<path fill-rule="evenodd" clip-rule="evenodd" d="M49.4134 184.349C58.7128 183.614 70.8789 180.824 83.591 171.609L89.5731 182.824C81.0685 192.459 68.7029 200.709 57.5392 201.127C48.6967 201.524 43.5177 191.201 49.4134 184.349Z" fill="url(#paint7_linear_128_546)"/>
<path d="M155.11 215.31L96.6728 185.703C93.416 184.082 92.0975 179.535 94.2126 175.417L118.069 128.334C120.103 124.488 124.392 122.441 127.818 124.291L186.13 153.92C189.387 155.542 190.705 160.088 188.59 164.206L164.712 211.164C162.722 215.26 158.367 216.932 155.11 215.31Z" fill="url(#paint8_linear_128_546)"/>
<g opacity="0.6">
<path d="M151.58 204.826L106.612 182.013C104.07 180.782 103.053 177.216 104.697 174.085L123.092 137.78C124.632 134.796 127.985 133.301 130.549 134.657L175.517 157.47C178.059 158.7 179.075 162.267 177.432 165.398L159.037 201.703C157.519 204.812 154.122 206.056 151.58 204.826Z" stroke="white" stroke-width="2" stroke-miterlimit="10"/>
</g>
<path opacity="0.3" d="M164.474 172.461L146.81 190.944C144.842 192.969 141.32 192.04 140.583 189.329L132.018 145.894C131.237 142.932 127.487 142.173 125.585 144.574L110.573 173.696C109.084 175.509 109.696 178.242 111.818 179.289L150.921 198.872C152.748 199.712 154.959 199.064 155.799 197.237L167.274 174.421C168.136 172.72 165.778 171.069 164.474 172.461Z" fill="white"/>
<path opacity="0.5" d="M151.813 171.721C155.48 171.075 157.928 167.579 157.281 163.912C156.635 160.246 153.138 157.798 149.471 158.444C145.804 159.09 143.356 162.586 144.003 166.253C144.65 169.919 148.146 172.368 151.813 171.721Z" fill="white"/>
<path fill-rule="evenodd" clip-rule="evenodd" d="M128.71 201.107L139.13 192.813C139.676 186.388 141.003 182.926 143.257 182.528C144.879 181.467 143.22 189.638 146.366 188.438C149.513 187.237 156.47 179.812 158.069 180.821C160.382 182.222 159.6 188.042 157.957 191.173C154.854 197.015 151.884 199.218 144.161 203.033C140.101 204.911 135.908 208.233 131.516 212.623L128.71 201.107Z" fill="#FFAF78"/>
<path fill-rule="evenodd" clip-rule="evenodd" d="M79.4295 213.927C89.6203 214.584 105.419 208.958 126.886 196.65C134.599 207.43 138.71 215.359 139.218 220.435C121.362 234.173 105.268 241.788 91.5327 244.468C89.4463 253.876 90.9561 260.972 91.7364 268.325C87.4313 284.194 37.4955 269.104 24.305 274.142C30.3586 239.625 32.4141 242.491 29.2771 224.705C25.8529 205.29 36.2537 172.719 38.5086 172.322L59.4287 168.634C63.185 183.341 71.8415 198.733 79.4295 213.927Z" fill="url(#paint9_linear_128_546)"/>
<path fill-rule="evenodd" clip-rule="evenodd" d="M88.1523 170.172C92.2229 164.703 96.2935 160.252 100.364 157.072C101.636 156.437 103.926 155.928 102.018 159.87C100.11 163.813 98.3287 168.01 99.4736 169.155C100.618 170.3 103.29 168.392 104.689 170.3C105.579 171.571 101.127 173.861 91.2053 177.422L88.1523 170.172Z" fill="#FCBB89"/>
<path opacity="0.9" fill-rule="evenodd" clip-rule="evenodd" d="M365.46 265.688C365.588 265.179 365.842 264.67 366.224 264.162C366.732 263.653 367.241 263.526 367.496 263.653C367.75 263.78 368.386 264.416 369.149 265.179L383.142 281.331C383.905 282.222 384.287 282.73 384.414 283.112C384.923 284.129 384.668 285.147 383.778 286.164C383.396 286.546 383.015 286.673 382.76 286.673C382.379 286.673 382.124 286.546 381.87 286.292C381.615 286.037 381.234 285.656 380.725 285.02L366.732 268.74C366.096 267.977 365.588 267.468 365.46 267.087C365.46 266.705 365.333 266.196 365.46 265.688ZM365.079 270.902L354.902 292.524L356.938 296.721L374.746 290.234L372.329 285.401L360.118 290.489L367.496 275.862L365.079 270.902ZM393.445 253.732L375.637 260.219L378.181 265.179L390.265 260.092L383.015 274.718L385.432 279.551L395.481 257.93L393.445 253.732Z" fill="url(#paint10_linear_128_546)"/>
<path d="M132.546 91.7204H91.8407C88.279 91.7204 85.4805 88.7951 85.4805 85.3612C85.4805 81.8 88.4062 79.002 91.8407 79.002H132.546C136.108 79.002 138.907 81.9272 138.907 85.3612C139.034 88.7951 136.108 91.7204 132.546 91.7204Z" fill="url(#paint11_linear_128_546)"/>
<circle cx="439" cy="86" r="7" fill="#D9D9D9"/>
</g>
<defs>
<linearGradient id="paint0_linear_128_546" x1="338.856" y1="276.323" x2="264.707" y2="276.323" gradientUnits="userSpaceOnUse">
<stop stop-color="#F3B412"/>
<stop offset="1" stop-color="#EE2616"/>
</linearGradient>
<linearGradient id="paint1_linear_128_546" x1="416.577" y1="297.735" x2="454.998" y2="297.998" gradientUnits="userSpaceOnUse">
<stop stop-color="#00AAEB"/>
<stop offset="1" stop-color="#06EDA4"/>
</linearGradient>
<linearGradient id="paint2_linear_128_546" x1="432.499" y1="327.001" x2="344.999" y2="302.001" gradientUnits="userSpaceOnUse">
<stop stop-color="#06EDA4"/>
<stop offset="1" stop-color="#00AAEB"/>
</linearGradient>
<linearGradient id="paint3_linear_128_546" x1="101.219" y1="421.933" x2="145.6" y2="421.933" gradientUnits="userSpaceOnUse">
<stop stop-color="#6900FF"/>
<stop offset="1" stop-color="#B600FF"/>
</linearGradient>
<linearGradient id="paint4_linear_128_546" x1="101.191" y1="421.898" x2="145.509" y2="421.898" gradientUnits="userSpaceOnUse">
<stop stop-color="#FA00FF"/>
<stop offset="1" stop-color="#B600FF"/>
</linearGradient>
<linearGradient id="paint5_linear_128_546" x1="18.5132" y1="430.182" x2="60.1279" y2="430.182" gradientUnits="userSpaceOnUse">
<stop stop-color="#FA00FF"/>
<stop offset="1" stop-color="#B600FF"/>
</linearGradient>
<linearGradient id="paint6_linear_128_546" x1="18.5136" y1="285.247" x2="106.02" y2="285.247" gradientUnits="userSpaceOnUse">
<stop stop-color="#06EDA4"/>
<stop offset="1" stop-color="#00AAEB"/>
</linearGradient>
<linearGradient id="paint7_linear_128_546" x1="46.8919" y1="186.408" x2="88.9319" y2="178.994" gradientUnits="userSpaceOnUse">
<stop stop-color="#EE2616"/>
<stop offset="0.1834" stop-color="#EE2B16"/>
<stop offset="0.3893" stop-color="#EF3815"/>
<stop offset="0.6062" stop-color="#F04F14"/>
<stop offset="0.829" stop-color="#F26E13"/>
<stop offset="1" stop-color="#F38B12"/>
</linearGradient>
<linearGradient id="paint8_linear_128_546" x1="93.2046" y1="169.764" x2="188.195" y2="153.009" gradientUnits="userSpaceOnUse">
<stop stop-color="#FF954B"/>
<stop offset="1" stop-color="#FF0E95"/>
</linearGradient>
<linearGradient id="paint9_linear_128_546" x1="24.2751" y1="222.344" x2="137.43" y2="202.386" gradientUnits="userSpaceOnUse">
<stop stop-color="#F38B12"/>
<stop offset="1" stop-color="#EE2616"/>
</linearGradient>
<linearGradient id="paint10_linear_128_546" x1="355.005" y1="275.181" x2="395.597" y2="275.249" gradientUnits="userSpaceOnUse">
<stop stop-color="#F2F2F2"/>
<stop offset="1" stop-color="#F2F2F2" stop-opacity="0.64"/>
</linearGradient>
<linearGradient id="paint11_linear_128_546" x1="85.4665" y1="85.2828" x2="138.977" y2="85.2828" gradientUnits="userSpaceOnUse">
<stop stop-color="#06EDA4"/>
<stop offset="1" stop-color="#00AAEB"/>
</linearGradient>
<clipPath id="clip0_128_546">
<rect width="512" height="444" fill="white"/>
</clipPath>
</defs>
</svg>
