<svg width="65" height="64" viewBox="0 0 65 64" fill="none" xmlns="http://www.w3.org/2000/svg">
<circle cx="24.332" cy="24" r="24" fill="#E5D7FA"/>
<path d="M54.732 32C54.732 44.3712 44.7032 54.4 32.332 54.4V57.6C46.4705 57.6 57.932 46.1385 57.932 32H54.732ZM32.332 54.4C19.9609 54.4 9.93203 44.3712 9.93203 32H6.73203C6.73203 46.1385 18.1935 57.6 32.332 57.6V54.4ZM9.93203 32C9.93203 19.6288 19.9609 9.6 32.332 9.6V6.4C18.1935 6.4 6.73203 17.8615 6.73203 32H9.93203ZM32.332 9.6C44.7032 9.6 54.732 19.6288 54.732 32H57.932C57.932 17.8615 46.4705 6.4 32.332 6.4V9.6ZM41.3987 32C41.3987 37.0074 37.3394 41.0667 32.332 41.0667V44.2667C39.1067 44.2667 44.5987 38.7747 44.5987 32H41.3987ZM32.332 41.0667C27.3246 41.0667 23.2654 37.0074 23.2654 32H20.0654C20.0654 38.7747 25.5573 44.2667 32.332 44.2667V41.0667ZM23.2654 32C23.2654 26.9926 27.3246 22.9333 32.332 22.9333V19.7333C25.5573 19.7333 20.0654 25.2253 20.0654 32H23.2654ZM32.332 22.9333C37.3394 22.9333 41.3987 26.9926 41.3987 32H44.5987C44.5987 25.2253 39.1067 19.7333 32.332 19.7333V22.9333ZM48.1712 13.8981L38.7431 23.3262L41.0059 25.5889L50.434 16.1608L48.1712 13.8981ZM38.7431 40.6738L48.1712 50.1019L50.434 47.8392L41.0059 38.4111L38.7431 40.6738ZM25.9209 23.3262L16.4928 13.8981L14.2301 16.1608L23.6582 25.5889L25.9209 23.3262ZM23.6582 38.4111L14.2301 47.8392L16.4928 50.1019L25.9209 40.6738L23.6582 38.4111Z" fill="url(#paint0_radial_128_807)"/>
<defs>
<radialGradient id="paint0_radial_128_807" cx="0" cy="0" r="1" gradientUnits="userSpaceOnUse" gradientTransform="translate(7.63203 56) rotate(-44.7252) scale(84.5367 303.778)">
<stop stop-color="#0800B5"/>
<stop offset="0.500518" stop-color="#7807E9"/>
<stop offset="1" stop-color="#CB37FF"/>
</radialGradient>
</defs>
</svg>
