<?xml version="1.0" encoding="utf-8"?>
<!-- Generator: Adobe Illustrator 16.0.0, SVG Export Plug-In . SVG Version: 6.00 Build 0)  -->
<!DOCTYPE svg PUBLIC "-//W3C//DTD SVG 1.1//EN" "http://www.w3.org/Graphics/SVG/1.1/DTD/svg11.dtd">
<svg version="1.1" id="ast-svg" xmlns="http://www.w3.org/2000/svg" xmlns:xlink="http://www.w3.org/1999/xlink" role="img" x="0px" y="0px"
	 width="864px" height="250px" viewBox="0 0 864 250" enable-background="new 0 0 864 250" xml:space="preserve">
<g>
	<linearGradient id="SVGID_1_" gradientUnits="userSpaceOnUse" x1="31.8491" y1="207.9727" x2="216.1504" y2="42.0271">
		<stop  offset="0" style="stop-color:#5437DC"/>
		<stop  offset="1" style="stop-color:#EE79FF"/>
	</linearGradient>
	<circle fill="url(#SVGID_1_)" cx="124" cy="125" r="124"/>
</g>
<g>
	<path fill="#453E6B" d="M359.749,165.565h-53.84L293.656,189.7h-29.147l66.278-130.144h7.611L399.85,189.7h-28.776L359.749,165.565
		z M347.496,139.574l-13.553-28.963l-14.667,28.963H347.496z"/>
	<path fill="#453E6B" d="M446.824,134.561c-4.27-1.113-12.252-3.156-19.678-8.168c-10.396-6.869-16.152-16.895-16.709-29.334
		c-0.557-10.396,2.785-19.493,9.469-26.548c9.652-10.025,23.578-12.811,30.26-12.811c18.938,0,29.52,6.87,38.988,12.996l4.27,2.784
		l-13.553,22.094l-4.641-2.971c-8.355-5.385-13.738-8.912-25.064-8.912c-1.67,0-8.168,1.301-11.51,4.828
		c-1.113,1.113-2.414,3.155-2.229,7.426c0.186,6.684,4.828,10.396,16.709,13.367c1.486,0.371,2.6,0.742,3.713,1.113
		c12.439,4.271,22.094,10.025,28.777,17.266c6.684,7.427,10.211,16.152,10.211,25.435c0,9.098-3.898,18.566-10.396,25.807
		c-7.611,8.539-18.193,13.367-29.891,13.367c-5.756,0-13.553-0.372-22.836-3.156c-11.695-3.713-22.092-10.211-31.004-19.68
		l18.938-17.822c13.738,14.666,29.146,14.666,34.902,14.666c10.768,0,14.295-9.84,14.295-13.182c0-7.054-7.982-13.552-21.535-18.194
		l-0.557-0.186L446.824,134.561z"/>
	<path fill="#453E6B" d="M607.975,59.557v25.992h-36.016V189.7h-25.992V85.549h-36.203V59.557H607.975z"/>
	<path fill="#453E6B" d="M690.781,189.7l-24.32-52.169h-12.996v51.983h-25.992V59.371h49.014c21.535,0,38.986,17.637,38.986,39.174
		c0,15.779-9.283,29.332-22.836,35.459l25.807,55.696H690.781z M653.465,85.363v26.177h23.021c7.24,0,12.996-5.755,12.996-12.995
		c0-7.241-5.756-13.182-12.996-13.182H653.465z"/>
	<path fill="#453E6B" d="M823.898,165.565h-53.84L757.807,189.7h-29.148l66.279-130.144h7.611L864,189.7h-28.775L823.898,165.565z
		 M811.646,139.574l-13.553-28.963l-14.668,28.963H811.646z"/>
</g>
<g>
	<path fill="#FFFFFF" d="M122.508,56.006c-0.003-0.002-0.005-0.004-0.008-0.006c-20.998,44.329-42.002,88.671-63,133
		c8.999,0,18.001,0,27,0c16.994-34.32,33.993-68.651,50.986-102.972L122.508,56.006z"/>
</g>
<path fill="#FFFFFF" d="M150.5,111c-8.666,17.998-17.334,36.002-26,54l-0.5,1h0.5c8.333,0,16.668,0,25,0
	c3.333,7.666,6.667,15.334,10,23c9.666,0,19.334,0,29,0C175.835,163.002,163.166,136.998,150.5,111z"/>
</svg>
