<svg width="20" height="20" viewBox="0 0 20 20" fill="none" xmlns="http://www.w3.org/2000/svg">
<g clip-path="url(#clip0_29122_44702)">
<path d="M13.0263 9.19741C12.922 9.12616 12.7792 9.15491 12.7084 9.26116C12.2936 9.88991 11.4132 9.92367 11.3673 9.92367C11.3586 9.92367 11.3548 9.92367 11.3462 9.92367C10.2608 9.92367 9.84607 10.8562 9.82993 10.8937C9.78025 11.0112 9.83365 11.1462 9.94665 11.1974C9.97646 11.2099 10.01 11.2187 10.0385 11.2187C10.1267 11.2187 10.2099 11.1687 10.2484 11.0799C10.2521 11.0712 10.5377 10.4299 11.2704 10.3887V11.5824C11.2406 11.8399 11.1201 12.0424 10.9053 12.1937C10.683 12.3499 10.3862 12.4299 10.0212 12.4299C9.58529 12.4299 9.2289 12.2787 8.96564 11.9787C8.69741 11.6787 8.5633 11.2537 8.5633 10.7049L8.56702 9.38866C8.58813 8.90366 8.71728 8.51991 8.96564 8.24616C9.23387 7.94615 9.58529 7.7949 10.0212 7.7949C10.3862 7.7949 10.683 7.8749 10.9053 8.03115C11.1276 8.1874 11.253 8.40241 11.2741 8.68116V8.71116C11.2741 8.87116 11.4045 9.00241 11.5635 9.00241C11.7224 9.00241 11.8528 8.87116 11.8528 8.71116C11.8528 8.70241 11.8528 8.68991 11.8528 8.68116C11.8106 8.26365 11.6218 7.9349 11.2828 7.68615C10.9438 7.4349 10.5216 7.3124 10.01 7.3124C9.40275 7.3124 8.91224 7.5149 8.53971 7.9149C8.18828 8.28991 8.00325 8.78366 7.98214 9.39116C7.98214 9.43366 7.97842 9.47491 7.97842 9.51741L7.98214 10.7024H7.97842C7.97842 11.3724 8.16717 11.9087 8.53971 12.3087C8.91224 12.7087 9.40275 12.9112 10.01 12.9112C10.5216 12.9112 10.9438 12.7887 11.2841 12.5399C11.5945 12.3124 11.7783 12.0124 11.8416 11.6412L11.854 10.3174C12.2353 10.2249 12.7543 10.0137 13.0822 9.51616C13.1641 9.41241 13.1356 9.26866 13.0263 9.19741ZM17.0609 -4.36141H20.2746C20.4174 -4.36141 20.5342 -4.47891 20.5342 -4.62267C20.5342 -4.76642 20.4174 -4.88392 20.2746 -4.88392H17.0609C16.9181 -4.88392 16.8013 -4.76642 16.8013 -4.62267C16.8013 -4.47891 16.9181 -4.36141 17.0609 -4.36141ZM-0.154071 -4.36141H3.05968C3.20249 -4.36141 3.31922 -4.47891 3.31922 -4.62267C3.31922 -4.76642 3.20125 -4.88392 3.05968 -4.88392H-0.154071C-0.296877 -4.88392 -0.413605 -4.76642 -0.413605 -4.62267C-0.413605 -4.47891 -0.300602 -4.36141 -0.154071 -4.36141ZM20.4385 -2.2614C20.5826 -2.2614 20.6981 -2.1439 20.6981 -2.00015C20.6981 -1.85515 20.5814 -1.7389 20.4385 -1.7389C20.2945 -1.7389 20.179 -1.8564 20.179 -2.00015C20.1778 -2.1439 20.2945 -2.2614 20.4385 -2.2614ZM9.98515 -3.08391C10.1292 -3.08391 10.2447 -2.96641 10.2447 -2.82266C10.2447 -2.67891 10.128 -2.5614 9.98515 -2.5614C9.84234 -2.5614 9.72562 -2.67891 9.72562 -2.82266C9.72562 -2.96641 9.8411 -3.08391 9.98515 -3.08391ZM5.167 -1.99515H5.17942C6.15547 -1.99515 6.59134 -2.6114 6.92289 -3.18391C7.03217 -3.37391 7.43451 -4.00641 8.00325 -4.17016C8.70735 -4.37641 9.45739 -4.04766 9.75045 -3.40266C9.79267 -3.31016 9.88456 -3.25516 9.97646 -3.25141H9.98888H10.005C10.0969 -3.25516 10.1888 -3.31016 10.231 -3.40266C10.5241 -4.04766 11.2741 -4.37641 11.9782 -4.17016C12.5482 -4.00141 12.9505 -3.37266 13.0586 -3.18391C13.3901 -2.6064 13.8248 -1.99515 14.8145 -1.99515C15.4093 -1.99515 16.1134 -2.44265 16.3096 -3.29891C16.4735 -4.00766 16.1718 -4.64892 15.5136 -4.97267C15.3832 -5.03642 15.2292 -4.98517 15.1659 -4.85517C15.1026 -4.72392 15.1535 -4.56892 15.2826 -4.50517C15.9073 -4.19266 15.8526 -3.64016 15.8017 -3.41766C15.7011 -2.97891 15.3162 -2.51515 14.8083 -2.51515C14.1588 -2.51515 13.8484 -2.84391 13.5007 -3.44766C13.3293 -3.74266 12.8512 -4.46016 12.1185 -4.67517C11.3188 -4.91142 10.4719 -4.62892 9.98639 -4.00891C9.50085 -4.62892 8.65395 -4.91142 7.85424 -4.67517C7.12158 -4.46016 6.64349 -3.74266 6.47212 -3.44766C6.12442 -2.84516 5.81398 -2.51515 5.17694 -2.51515C5.17321 -2.51515 5.16824 -2.51515 5.16824 -2.51515C4.61565 -2.5189 4.26298 -2.90766 4.16239 -3.29141C4.11272 -3.47266 4.00717 -4.09266 4.71127 -4.51392C4.83296 -4.58517 4.87518 -4.74642 4.79943 -4.87267C4.72617 -4.99392 4.57218 -5.03642 4.44552 -4.96017C3.63712 -4.47516 3.51169 -3.70766 3.66195 -3.15141C3.84698 -2.4639 4.45421 -2.00015 5.167 -1.99515ZM-0.560137 -2.2614C-0.416089 -2.2614 -0.300602 -2.1439 -0.300602 -2.00015C-0.300602 -1.85515 -0.417331 -1.7389 -0.560137 -1.7389C-0.702943 -1.7389 -0.820913 -1.85515 -0.820913 -2.00015C-0.820913 -2.1439 -0.704185 -2.2614 -0.560137 -2.2614ZM-1.28907 -4.88017C-1.14502 -4.88017 -1.02953 -4.76267 -1.02953 -4.61892C-1.02953 -4.47516 -1.14626 -4.35766 -1.28907 -4.35766C-1.43187 -4.35766 -1.54984 -4.47391 -1.54984 -4.61892C-1.54984 -4.76392 -1.43312 -4.88017 -1.28907 -4.88017ZM21.36 -4.88017C21.504 -4.88017 21.6195 -4.76267 21.6195 -4.61892C21.6195 -4.47516 21.5028 -4.35766 21.36 -4.35766C21.2171 -4.35766 21.1004 -4.47516 21.1004 -4.61892C21.1004 -4.76267 21.2159 -4.88017 21.36 -4.88017ZM22.7508 11.8749C22.8948 11.8749 23.0103 11.9924 23.0103 12.1362C23.0103 12.2812 22.8936 12.3974 22.7508 12.3974C22.6067 12.3974 22.4912 12.2799 22.4912 12.1362C22.4912 11.9924 22.6067 11.8749 22.7508 11.8749ZM21.7077 17.8562C21.8517 17.8562 21.9672 17.9737 21.9672 18.1175C21.9672 18.2625 21.8505 18.3787 21.7077 18.3787C21.5648 18.3787 21.4481 18.2612 21.4481 18.1175C21.4481 17.9725 21.5636 17.8562 21.7077 17.8562ZM20.0399 18.6025C20.184 18.6025 20.2995 18.72 20.2995 18.8637C20.2995 19.0087 20.1827 19.125 20.0399 19.125C19.8959 19.125 19.7804 19.0075 19.7804 18.8637C19.7804 18.7187 19.8971 18.6025 20.0399 18.6025ZM4.62558 -3.64016C4.62558 -3.25266 4.93976 -2.93641 5.32471 -2.93641C5.70967 -2.93641 6.02384 -3.25266 6.02384 -3.64016C6.02384 -4.02766 5.71091 -4.34516 5.32595 -4.34516C4.941 -4.34891 4.62558 -4.03266 4.62558 -3.64016ZM5.32595 -3.82641C5.42654 -3.82641 5.50974 -3.74266 5.50974 -3.64141C5.50974 -3.54016 5.42654 -3.45641 5.32595 -3.45641C5.22537 -3.45641 5.14217 -3.54016 5.14217 -3.64141C5.14092 -3.74141 5.22537 -3.82641 5.32595 -3.82641ZM14.7524 -2.93641C15.1373 -2.93641 15.4515 -3.25266 15.4515 -3.64016C15.4515 -4.02766 15.1373 -4.34391 14.7524 -4.34391C14.3674 -4.34391 14.0533 -4.02766 14.0533 -3.64016C14.0533 -3.25266 14.3674 -2.93641 14.7524 -2.93641ZM14.7524 -3.82641C14.853 -3.82641 14.9362 -3.74266 14.9362 -3.64141C14.9362 -3.54016 14.853 -3.45641 14.7524 -3.45641C14.6518 -3.45641 14.5686 -3.54016 14.5686 -3.64141C14.5686 -3.74141 14.6518 -3.82641 14.7524 -3.82641ZM10.693 -3.20141C10.5589 -3.15141 10.4918 -3.00266 10.5427 -2.86766C10.5924 -2.73266 10.7402 -2.66515 10.8743 -2.71141C10.9165 -2.72766 11.9211 -3.06516 12.6923 -1.8589C12.7419 -1.78265 12.8264 -1.7414 12.9096 -1.7414C12.9555 -1.7414 13.0064 -1.7539 13.0474 -1.7839C13.1691 -1.86015 13.2026 -2.0239 13.1269 -2.14265C12.3222 -3.39516 11.1835 -3.38266 10.693 -3.20141ZM9.29347 -3.20141C9.25622 -3.21391 8.91224 -3.33641 8.44285 -3.26516C8.00698 -3.20141 7.38236 -2.95266 6.86329 -2.1389C6.78754 -2.0164 6.82107 -1.8564 6.94276 -1.78015C6.98498 -1.75015 7.03465 -1.73765 7.0806 -1.73765C7.1638 -1.73765 7.24824 -1.78015 7.29791 -1.85515C8.0641 -3.06141 9.06995 -2.72391 9.1159 -2.70766C9.25001 -2.65765 9.39654 -2.72891 9.44745 -2.86391C9.49837 -2.99891 9.42759 -3.15141 9.29347 -3.20141ZM21.2134 -2.4889L22.4751 -3.93141V-1.85265C22.4751 -1.7089 22.5918 -1.5914 22.7346 -1.5914C22.8774 -1.5914 22.9942 -1.7089 22.9942 -1.85265V-4.61892C22.9942 -4.72892 22.9271 -4.82517 22.8265 -4.86392C22.7259 -4.90267 22.6129 -4.87267 22.5421 -4.79267L20.8285 -2.83141C20.7316 -2.72141 20.7453 -2.55765 20.8533 -2.4639C20.9539 -2.3664 21.1166 -2.3789 21.2134 -2.4889ZM-2.70968 -1.5864C-2.56687 -1.5864 -2.45014 -1.7039 -2.45014 -1.84765V-3.92766L-1.18848 -2.48515C-1.09286 -2.37515 -0.928948 -2.3664 -0.824638 -2.4589C-0.71536 -2.5564 -0.70791 -2.72016 -0.799802 -2.82641L-2.51347 -4.79142C-2.58426 -4.87142 -2.69726 -4.90142 -2.79784 -4.86392C-2.89843 -4.82517 -2.96549 -4.72892 -2.96549 -4.61892V-1.84765C-2.96549 -1.70515 -2.85248 -1.5864 -2.70968 -1.5864ZM15.5819 -1.3289C15.4602 -1.33765 15.3472 -1.25265 15.3174 -1.13515C15.2876 -1.01265 15.3472 -0.886395 15.4552 -0.835145C15.8663 -0.641394 16.2388 -0.565143 16.5741 -0.565143C17.2149 -0.565143 17.7265 -0.847645 18.0829 -1.14265C18.6529 -1.61515 18.9459 -2.21015 18.9583 -2.23515C19.0167 -2.35765 18.9745 -2.50515 18.8577 -2.57265C18.5932 -2.72891 18.1375 -2.82516 17.4421 -2.40015C17.0944 -2.18515 16.8262 -1.92765 16.7802 -1.8814C16.1432 -1.3164 15.6117 -1.3289 15.5819 -1.3289ZM17.1279 -1.4939C17.1317 -1.49765 17.1366 -1.50265 17.1404 -1.5064C17.3378 -1.70515 17.8941 -2.1639 18.33 -2.18515C18.2046 -2.0039 18.0158 -1.7589 17.76 -1.5439C17.3825 -1.2314 16.9802 -1.08015 16.553 -1.0889C16.7306 -1.1814 16.9268 -1.3164 17.1279 -1.4939ZM1.25288 -2.5739C1.13615 -2.5064 1.09393 -2.35765 1.15353 -2.2364C1.16595 -2.2114 1.45902 -1.6164 2.029 -1.1439C2.38539 -0.848895 2.89204 -0.566393 3.53777 -0.566393C3.87678 -0.566393 4.25056 -0.642643 4.65663 -0.836395C4.76963 -0.891395 4.82427 -1.0139 4.79447 -1.1364C4.76466 -1.25765 4.65539 -1.33765 4.52996 -1.3339C4.50885 -1.3339 3.9724 -1.31765 3.33536 -1.88265C3.28941 -1.92765 3.02119 -2.18515 2.67349 -2.40015C1.97808 -2.82266 1.51738 -2.72516 1.25288 -2.5739ZM2.98766 -1.4939C3.1851 -1.3164 3.38131 -1.1864 3.56137 -1.0889C2.6561 -1.08015 2.05756 -1.7764 1.78436 -2.18515C2.22023 -2.1639 2.7778 -1.7039 2.974 -1.5064C2.98021 -1.50265 2.98393 -1.49765 2.98766 -1.4939ZM23.0562 19.6987C22.7967 19.48 22.5111 19.3525 22.2478 19.2812C22.3484 19.205 22.4453 19.1162 22.5285 19.02C23.1692 18.2612 23.1742 17.1437 22.5372 16.4175C22.4403 16.3075 22.2776 16.3 22.1721 16.3962C22.0628 16.4937 22.0554 16.6575 22.151 16.7637C22.6166 17.295 22.608 18.1175 22.1348 18.6825C21.7499 19.1375 21.016 19.2475 20.7987 19.2725C20.1405 19.3437 19.4029 19.4962 19.0055 20.4025C18.9422 20.5412 18.9049 20.6975 18.8962 20.8662C18.8043 20.8362 18.7038 20.82 18.6032 20.82C18.0791 20.82 17.652 21.25 17.652 21.7775C17.652 22.14 17.8531 22.4562 18.1499 22.6162C18.0618 22.6962 17.9786 22.785 17.9028 22.8862C17.0224 21.6925 15.6154 20.9425 14.0657 20.9425C13.8434 20.9425 13.6211 20.9587 13.4075 20.9887C14.6816 20.5962 15.8663 19.985 16.9479 19.175C18.3436 18.125 19.5035 16.7537 20.2995 15.2149C21.1377 13.5949 21.5611 11.8449 21.5611 10.0237C21.5611 10.0112 21.5611 10.0024 21.5611 9.98991C21.5611 9.98616 21.5611 9.98616 21.5611 9.98116C21.5611 9.97616 21.5611 9.97241 21.5611 9.96867C21.5524 8.48866 21.2258 7.15615 20.7614 6.00864C20.9328 6.04239 21.0967 6.05489 21.2432 6.05489C22.3286 6.05489 22.8054 5.30364 22.8563 5.21614C23.091 4.81989 23.1283 4.33863 22.9942 3.90488C22.9979 3.89238 22.9979 3.87488 22.9979 3.85863V-0.895145C22.9979 -1.0389 22.8811 -1.1564 22.7383 -1.1564C22.5955 -1.1564 22.4788 -1.0389 22.4788 -0.895145V3.09863C22.0392 2.71487 21.4022 2.67237 21.1377 2.67237C20.6261 2.67612 20.3082 2.59612 20.0735 2.19112C19.876 1.84987 19.9903 1.49487 20.1865 1.29237C20.4336 1.03987 20.785 1.00611 21.129 1.19487C21.2544 1.26237 21.4134 1.21987 21.4804 1.09362C21.5475 0.967365 21.5052 0.807364 21.3798 0.739864C20.8347 0.436112 20.2237 0.512362 19.8177 0.924864C19.4153 1.33862 19.3396 1.94987 19.6252 2.44737C19.9977 3.09238 20.564 3.18488 21.1203 3.18488H21.1414C21.309 3.18488 21.8492 3.20988 22.1597 3.50488C22.562 3.88863 22.6663 4.49113 22.4031 4.93864C22.4031 4.93864 22.3993 4.94239 22.3993 4.94739C22.3782 4.98489 21.8803 5.83739 20.4895 5.38989C20.071 4.49613 19.5842 3.73613 19.1322 3.12988L18.926 3.28863L19.1309 3.12863L19.0477 3.01863C18.1549 1.51362 19.1856 -0.0901408 19.722 -0.768894L20.0238 -1.11515C20.1157 -1.22515 20.107 -1.3889 19.999 -1.48265C19.8946 -1.5714 19.7431 -1.5664 19.6475 -1.47015C19.6388 -1.4614 19.5929 -1.41515 19.5221 -1.33515C19.0564 -0.858895 17.2384 0.828614 15.4751 -0.0526404L15.4254 -0.0863905L15.4006 -0.102641C13.821 -0.958896 12.2626 -1.45265 10.7749 -1.5789C10.5825 -2.0214 10.3266 -2.3589 10.0038 -2.3589C9.67719 -2.3589 9.42138 -2.01765 9.22393 -1.5664C7.14145 -1.4739 4.55232 -0.120141 4.44304 -0.0651407C2.66976 0.834865 0.843087 -0.861395 0.377415 -1.33765C0.306633 -1.41765 0.25572 -1.4639 0.251994 -1.47265C0.155135 -1.57015 0.00487804 -1.5739 -0.0994325 -1.48515C-0.20871 -1.39265 -0.216161 -1.22765 -0.124268 -1.11765L0.198598 -0.750144C0.386108 -0.515143 0.624531 -0.173891 0.825702 0.234861C1.32863 1.25987 1.33732 2.19112 0.855505 3.00988C0.25572 3.76113 -0.22982 4.54988 -0.602358 5.38114C-2.00558 5.84114 -2.50851 4.97989 -2.52962 4.94239C-2.52962 4.93864 -2.53334 4.93864 -2.53334 4.93364C-2.79784 4.48613 -2.69353 3.88363 -2.29119 3.49988C-1.98075 3.20488 -1.44057 3.17988 -1.27292 3.17988H-1.2692C-0.70791 3.17988 -0.129235 3.09113 0.243302 2.44237C0.528914 1.94362 0.453165 1.32737 0.0508242 0.918615C-0.355241 0.501112 -0.967444 0.429862 -1.51135 0.733613C-1.63801 0.801114 -1.68396 0.961115 -1.61193 1.08737C-1.54488 1.21362 -1.38593 1.25987 -1.26051 1.18862C-0.912805 0.998615 -0.561378 1.03236 -0.317987 1.28612C-0.120543 1.48862 -0.0112653 1.84237 -0.204985 2.18362C-0.434716 2.58487 -0.748889 2.66487 -1.25181 2.66487C-1.25554 2.66487 -1.26051 2.66487 -1.26796 2.66487C-1.49893 2.66487 -2.03414 2.69862 -2.46256 2.97738V-0.831395C-2.46256 -0.975145 -2.57929 -1.09265 -2.72209 -1.09265C-2.8649 -1.09265 -2.98163 -0.975145 -2.98163 -0.831395V3.55488C-3.26724 4.06863 -3.28338 4.69739 -2.99032 5.20364C-2.96176 5.25864 -2.7817 5.56239 -2.37936 5.78989C-2.14839 5.91989 -1.81807 6.04239 -1.37724 6.04239C-1.21829 6.04239 -1.04195 6.02614 -0.853199 5.98739C-1.30521 7.2099 -1.53246 8.52616 -1.53991 9.95992V9.96867V9.97241V10.0062C-1.53991 12.5962 -0.634644 15.1387 1.007 17.1675C2.46114 18.9637 4.43807 20.2962 6.62983 20.9762C6.39886 20.9425 6.16416 20.9262 5.9307 20.9262C4.39337 20.9262 2.99759 21.6637 2.11841 22.8412C2.04762 22.7487 1.96815 22.66 1.87998 22.5837C2.1569 22.415 2.34565 22.1112 2.34565 21.7612C2.34565 21.2337 1.91848 20.8037 1.39444 20.8037C1.29758 20.8037 1.20569 20.82 1.11752 20.8462C1.1051 20.6812 1.06785 20.5262 1.00824 20.3862C0.605905 19.48 -0.126752 19.3275 -0.784901 19.2562C-1.00221 19.2312 -1.73611 19.1212 -2.12107 18.6662C-2.60661 18.1137 -2.6153 17.2912 -2.15087 16.76C-2.05401 16.65 -2.06767 16.4862 -2.17198 16.3925C-2.28126 16.295 -2.44393 16.3087 -2.53707 16.4137C-3.16914 17.1387 -3.16541 18.2562 -2.52838 19.0162C-2.44518 19.1175 -2.34832 19.2012 -2.24773 19.2775C-2.51223 19.3487 -2.7966 19.48 -3.05614 19.695C-3.67206 20.205 -3.98624 21.0575 -3.99493 22.2175C-4.01604 22.3225 -3.97009 22.4325 -3.8782 22.4912C-3.83598 22.5162 -3.79003 22.5287 -3.74409 22.5287C-3.72794 22.5287 -3.70683 22.525 -3.68945 22.52H-3.68572C-3.67703 22.52 -3.67331 22.5162 -3.66461 22.5112C-3.6522 22.5075 -3.63481 22.5025 -3.62239 22.495C-3.61867 22.495 -3.61867 22.4912 -3.6137 22.4912C-3.57148 22.4662 -3.53423 22.4325 -3.50939 22.39C-3.4088 22.2587 -2.99405 22.095 -2.65007 22.0225C-1.30521 21.7275 -1.02457 20.8125 -1.06679 20.3737C-1.07921 20.23 -1.20463 20.125 -1.34743 20.1375C-1.49024 20.15 -1.59455 20.2762 -1.58213 20.42C-1.58213 20.4237 -1.57841 20.5 -1.60324 20.6137C-1.66657 20.875 -1.8963 21.3262 -2.75935 21.5162C-2.76307 21.5162 -2.76307 21.5162 -2.76804 21.5162C-2.86863 21.5375 -3.17038 21.6087 -3.45103 21.74C-3.37528 20.9887 -3.13685 20.4412 -2.73079 20.1C-2.10617 19.5775 -1.28162 19.725 -1.27292 19.7287C-1.24312 19.7325 -1.21829 19.7325 -1.19345 19.7287C-1.05561 19.7587 -0.937641 19.775 -0.849474 19.7837C-0.157796 19.86 0.264412 20.0112 0.528914 20.6062C0.733809 21.075 0.47055 21.6137 0.114155 21.8837C-0.0659041 22.0225 -0.547719 22.2975 -1.0879 21.85C-1.19718 21.7575 -1.35985 21.7737 -1.45298 21.8837C-1.54488 21.9937 -1.52873 22.1575 -1.41946 22.2512C-1.17606 22.4537 -0.904113 22.5712 -0.623468 22.605C-0.983587 22.9 -1.22698 23.2712 -1.33626 23.465C-1.68768 24.0762 -1.97329 24.405 -2.44642 24.41V22.5837C-2.44642 22.44 -2.56315 22.3225 -2.70595 22.3225C-2.84876 22.3225 -2.96549 22.44 -2.96549 22.5837V24.7012C-2.96549 24.8062 -2.90215 24.895 -2.81523 24.9375C-2.76928 24.9713 -2.71464 24.9962 -2.65628 24.9962H3.37634C3.46823 24.9962 3.54398 24.95 3.59365 24.8787C3.62718 24.845 3.65698 24.8025 3.6694 24.7525C3.90783 23.82 4.74231 23.1712 5.69725 23.1712C6.5516 23.1712 7.31033 23.6937 7.6332 24.475H7.08184C6.85584 23.9137 6.31069 23.5387 5.69476 23.5387C5.02047 23.5387 4.42565 23.9987 4.24559 24.6525C4.20834 24.7912 4.29154 24.935 4.42565 24.9725C4.56349 25.01 4.7063 24.9262 4.74355 24.7912C4.86028 24.3612 5.2502 24.0612 5.69104 24.0612C6.01763 24.0612 6.31069 24.2212 6.49075 24.475H6.33925C6.19645 24.475 6.07972 24.5925 6.07972 24.7362C6.07972 24.88 6.19645 24.9975 6.33925 24.9975H6.86329C6.87198 24.9962 6.8844 25 6.89309 25C6.90551 25 6.91793 25 6.92662 24.9962H7.966C8.1088 24.9962 8.22553 24.8787 8.22553 24.735C8.22553 24.7225 8.22553 24.71 8.22181 24.6975C8.22553 24.6637 8.22553 24.6262 8.21808 24.5875C7.9126 23.445 6.87322 22.6475 5.69601 22.6475C4.55604 22.6475 3.55516 23.39 3.20746 24.4737H1.8539C1.96318 24.1237 2.10971 23.7987 2.2935 23.495C2.30592 23.4787 2.31461 23.4612 2.32703 23.445C3.09321 22.235 4.43435 21.4587 5.92201 21.4587C6.80244 21.4587 7.6481 21.7287 8.36461 22.235C8.38572 22.2475 8.40683 22.26 8.42794 22.265C8.53722 22.3962 8.64526 22.535 8.75081 22.6787C8.77565 22.7125 8.79676 22.7462 8.82159 22.78C8.79676 23.315 9.08609 23.8762 9.68464 24.45C9.70575 24.5137 9.72686 24.5675 9.73927 24.61V24.665C9.73927 24.8087 9.856 24.9262 9.99881 24.9262C10.1205 24.9262 10.2161 24.8462 10.2459 24.7325C10.2459 24.7287 10.2832 24.6012 10.3589 24.3912C10.8991 23.86 11.1673 23.3412 11.1636 22.8387C11.1971 22.7887 11.2344 22.7337 11.2729 22.6825C11.3896 22.5225 11.5113 22.3662 11.638 22.2187C12.3508 21.7212 13.184 21.46 14.0557 21.46C15.9333 21.46 17.575 22.6912 18.1201 24.475H16.7666C16.4226 23.3912 15.4217 22.6487 14.278 22.6487C13.1008 22.6487 12.0664 23.4462 11.7559 24.5887C11.7435 24.6312 11.7435 24.6725 11.7559 24.715V24.7362C11.7559 24.88 11.8727 24.9975 12.0155 24.9975H14.2867C14.4295 24.9975 14.5462 24.88 14.5462 24.7362C14.5462 24.5925 14.4295 24.475 14.2867 24.475H13.4609C13.641 24.2225 13.934 24.0612 14.2606 24.0612C14.7089 24.0612 15.0988 24.365 15.2118 24.8037C15.2416 24.9212 15.346 24.9975 15.4627 24.9975C15.4838 24.9975 15.5049 24.9937 15.526 24.9887C15.6639 24.955 15.7483 24.8112 15.7148 24.6725C15.5434 24.0062 14.9486 23.5375 14.2606 23.5375C13.6484 23.5375 13.1045 23.9125 12.8736 24.4737H12.3495C12.6674 23.6937 13.4299 23.17 14.2855 23.17C15.2404 23.17 16.0749 23.82 16.3133 24.7512C16.317 24.7725 16.3295 24.7937 16.3382 24.815C16.3717 24.92 16.4685 24.9962 16.5853 24.9962H22.7321C22.8749 24.9962 22.9917 24.8787 22.9917 24.735C22.9917 24.7312 22.9917 24.7225 22.9917 24.7187C22.9917 24.715 22.9917 24.7062 22.9917 24.7025V24.6525C22.9954 24.6275 22.9954 24.6025 22.9954 24.5762C22.9954 24.5725 22.9954 24.5675 22.9917 24.5637V22.5862C22.9917 22.4425 22.8749 22.325 22.7321 22.325C22.5893 22.325 22.4726 22.4425 22.4726 22.5862V24.3575C22.0367 24.3237 21.7648 23.9987 21.4295 23.4175C21.3202 23.2325 21.0942 22.8825 20.7589 22.595C20.9899 22.545 21.2109 22.435 21.4171 22.2612C21.5264 22.1687 21.5425 22.0037 21.4506 21.8937C21.3587 21.7837 21.1948 21.7675 21.0855 21.86C20.5491 22.3075 20.0673 22.0325 19.8835 21.8937C19.5271 21.6237 19.2638 21.08 19.4687 20.6162C19.7332 20.0212 20.1554 19.865 20.8471 19.7937C20.9353 19.785 21.052 19.7687 21.1911 19.7387C21.2159 19.7425 21.2457 19.7425 21.2743 19.7387C21.283 19.7387 22.1001 19.5875 22.7284 20.11C23.1394 20.4512 23.3816 21 23.4536 21.755C23.1692 21.62 22.8625 21.5487 22.7669 21.5275C22.7632 21.5275 22.7632 21.5275 22.7582 21.5275C21.8989 21.3375 21.6642 20.8912 21.6021 20.6287C21.5773 20.5187 21.5773 20.4437 21.581 20.435C21.5934 20.2912 21.4891 20.165 21.3463 20.1525C21.2035 20.14 21.0781 20.245 21.0657 20.3887C21.0234 20.8312 21.3041 21.7425 22.6539 22.0375C23.0016 22.1137 23.4412 22.2862 23.5207 22.4175C23.5207 22.4175 23.5207 22.4212 23.5244 22.4212C23.5368 22.4375 23.5492 22.455 23.5616 22.4675C23.5654 22.4712 23.5703 22.4712 23.5741 22.4762C23.5865 22.485 23.5989 22.4975 23.6113 22.5012C23.615 22.505 23.6237 22.51 23.6275 22.51C23.6399 22.5187 23.6523 22.5225 23.6647 22.5262C23.6684 22.5262 23.6771 22.53 23.6809 22.53C23.697 22.5337 23.7181 22.5387 23.7392 22.5387C23.7554 22.5387 23.769 22.5387 23.7852 22.535C23.7889 22.535 23.7939 22.535 23.7976 22.5312C23.81 22.5275 23.8224 22.5225 23.8398 22.5187H23.8435C23.856 22.515 23.8646 22.5062 23.8771 22.5025L23.8808 22.4987C23.8895 22.495 23.8969 22.4862 23.9019 22.4825C23.9056 22.4787 23.9143 22.4737 23.918 22.4662C23.9218 22.4625 23.9305 22.4537 23.9342 22.45C23.9379 22.4412 23.9466 22.4375 23.9503 22.4287C23.9541 22.42 23.959 22.4162 23.9627 22.4075C23.9665 22.3987 23.9714 22.395 23.9752 22.3862C23.9789 22.3775 23.9789 22.37 23.9839 22.3612C23.9876 22.3525 23.9876 22.345 23.9926 22.3362C23.9926 22.3275 23.9963 22.32 23.9963 22.315C23.9963 22.3062 24 22.2987 24 22.285V22.275C23.9988 21.0825 23.6809 20.2175 23.0562 19.6987ZM1.31621 24.4687H-1.41076C-1.17979 24.2325 -1.01712 23.95 -0.891695 23.7312C-0.782417 23.5412 -0.380077 22.9087 0.188663 22.745C0.85923 22.5462 1.48758 22.7787 1.79802 23.3137C1.59313 23.6712 1.42921 24.06 1.31621 24.4687ZM1.38699 22.2037C1.14857 22.2037 0.954848 22.01 0.954848 21.7687C0.954848 21.5275 1.14733 21.3337 1.38699 21.3337C1.62541 21.3337 1.81913 21.5275 1.81913 21.7687C1.81913 22.01 1.62169 22.2037 1.38699 22.2037ZM16.7554 18.6487C14.3091 18.3625 12.5408 19.42 11.4852 20.3562C11.0283 20.7612 10.6681 21.1787 10.3962 21.5325C10.3465 21.4987 10.2993 21.465 10.2583 21.4437V20.7012C12.2402 18.6975 14.2097 18.0987 15.5161 17.9512C16.3829 17.8537 17.0832 17.935 17.5017 18.015C17.262 18.24 17.0149 18.45 16.7554 18.6487ZM19.8263 14.9712C19.5755 15.4562 19.2862 15.9199 18.967 16.3675C18.6355 16.2625 18.2207 16.165 17.7227 16.1187C18.8329 14.7012 19.537 13.0099 19.763 11.2262C20.1231 11.1837 20.6223 11.0274 21.0036 10.7787C20.903 12.2424 20.5093 13.6512 19.8263 14.9712ZM18.063 10.2649L18.3648 10.2524C18.4653 10.7037 18.8043 11.0662 19.2489 11.1887C19.0142 12.9937 18.2691 14.6974 17.0783 16.0887C16.5046 16.0887 15.8377 16.1562 15.0839 16.3212C16.8436 14.8787 17.991 12.7062 18.063 10.2649ZM13.1393 16.9275C12.9717 16.995 12.8549 17.05 12.7953 17.075C12.0999 17.3537 11.3536 17.535 10.575 17.5937L17.5253 10.5974C17.3167 13.4149 15.5732 15.8024 13.1393 16.9275ZM21.0284 9.98242C21.0197 10.2187 20.3789 10.6024 19.8139 10.6949C19.7345 10.7074 19.655 10.7162 19.5792 10.7162C19.4786 10.7162 19.3818 10.6949 19.2949 10.6574C19.0304 10.5437 18.8466 10.2824 18.8466 9.97866C18.8466 9.67491 19.0304 9.41366 19.2949 9.29991C19.383 9.26241 19.4786 9.24116 19.5792 9.24116C19.655 9.24116 19.7345 9.24991 19.8139 9.26241C20.3789 9.35491 21.016 9.73866 21.0284 9.97116V9.98242ZM18.6032 3.30988L18.7125 3.45738C19.6637 4.73489 20.7776 6.71365 20.9911 9.17616C20.6136 8.93116 20.1194 8.77491 19.763 8.73366C19.4948 6.5999 18.5523 4.67239 17.1565 3.18363C17.2149 3.06113 17.2484 2.92238 17.2484 2.77863C17.2484 2.58487 17.19 2.40362 17.0932 2.25612L18.2828 0.889864C18.058 1.75737 18.1673 2.57987 18.6032 3.30988ZM15.1299 0.353611L15.1845 0.391112L15.2131 0.408612C15.6278 0.619863 16.0724 0.724864 16.5331 0.724864C17.0187 0.724864 17.5265 0.607363 18.0369 0.371111L16.6958 1.90987C16.5741 1.85112 16.44 1.82112 16.2934 1.82112C16.1047 1.82112 15.9333 1.87612 15.7868 1.96862C14.4668 0.998615 12.9046 0.353611 11.2033 0.14236C11.1611 -0.165142 11.0779 -0.603893 10.9525 -1.0339C12.2974 -0.882645 13.7006 -0.417643 15.1299 0.353611ZM16.7306 2.77863C16.7306 2.96863 16.6051 3.13238 16.4325 3.19238C16.3903 3.20488 16.3444 3.21363 16.2984 3.21363C16.286 3.21363 16.2686 3.21363 16.2562 3.21363C16.0637 3.19738 15.9085 3.04863 15.875 2.86363C15.8712 2.83862 15.8663 2.80863 15.8663 2.78363C15.8663 2.75362 15.87 2.72862 15.875 2.69987C15.9122 2.50987 16.0724 2.36237 16.2686 2.34987H16.2984C16.2984 2.34987 16.3146 2.34987 16.3233 2.34987C16.5157 2.36237 16.6796 2.50112 16.7219 2.68737C16.7256 2.71237 16.7306 2.73362 16.7306 2.75862C16.7256 2.76112 16.7306 2.76988 16.7306 2.77863ZM11.2245 0.673614C12.7829 0.879865 14.2246 1.47862 15.4441 2.36487C15.3807 2.49112 15.3472 2.63112 15.3472 2.78237C15.3472 2.97238 15.4018 3.14488 15.4975 3.29738L13.4113 5.69239C13.3144 5.80239 13.3281 5.96614 13.4361 6.05989C13.4858 6.10239 13.5454 6.12364 13.6075 6.12364C13.6782 6.12364 13.7503 6.09364 13.8049 6.03489L15.8874 3.64363C16.0128 3.70738 16.1519 3.74113 16.3021 3.74113C16.4946 3.74113 16.671 3.68238 16.8175 3.58488C18.1164 4.98489 18.9919 6.78115 19.2514 8.77241C18.8031 8.89866 18.4554 9.26991 18.3635 9.73366L18.0655 9.74616C18.0022 7.81865 17.2608 5.97989 15.9669 4.54988C15.87 4.44488 15.7073 4.43613 15.6018 4.53363C15.4975 4.63113 15.4888 4.79489 15.5856 4.90114C16.7256 6.15739 17.4036 7.7524 17.534 9.43866L14.7474 6.6424C14.6468 6.54115 14.4829 6.54115 14.3823 6.6424C14.2817 6.74365 14.2817 6.90865 14.3823 7.0099L17.3738 10.0212L10.0001 17.4437L2.6263 10.0212L5.59294 7.0349C5.69352 6.93365 5.69352 6.76865 5.59294 6.6674C5.49235 6.56615 5.32844 6.56615 5.22785 6.6674L2.47728 9.43741C2.62381 7.51865 3.47817 5.79364 4.78205 4.53738L6.08096 6.02989C6.13063 6.08864 6.20266 6.11864 6.2784 6.11864C6.33677 6.11864 6.4001 6.09739 6.44977 6.05489C6.55905 5.95739 6.5665 5.79364 6.47461 5.68739L5.17073 4.19113C6.34422 3.20488 7.8145 2.56737 9.42759 2.44487L7.21596 4.65114C7.11537 4.75239 7.11537 4.91739 7.21596 5.01864C7.26563 5.06864 7.33268 5.09489 7.39974 5.09489C7.4668 5.09489 7.53013 5.06989 7.58353 5.01864L10.0137 2.59737L12.3731 4.97239C12.4737 5.07364 12.6376 5.07364 12.7382 4.97239C12.8388 4.87114 12.8388 4.70614 12.7382 4.60489L10.5936 2.44612C11.9223 2.54737 13.1865 2.99488 14.2892 3.75738C14.4059 3.83738 14.5698 3.80738 14.6493 3.68988C14.7288 3.57238 14.699 3.40738 14.5823 3.32738C13.3082 2.44612 11.8255 1.95612 10.2757 1.90987V1.72362C10.76 1.60612 11.1499 1.18862 11.2245 0.673614ZM3.6545 3.80738C3.80103 3.80738 3.93887 3.77363 4.06057 3.71488L4.4331 4.14488C2.95413 5.56614 2.01161 7.54365 1.93586 9.74116L1.726 9.72866C1.62542 9.23491 1.24419 8.84741 0.753678 8.74616C1.00949 6.79365 1.86384 5.03114 3.12053 3.64738C3.277 3.74863 3.45706 3.80738 3.6545 3.80738ZM3.22236 2.85488C3.22236 2.83363 3.22236 2.81738 3.22608 2.79612C3.22608 2.78363 3.22981 2.77488 3.22981 2.76237C3.26706 2.57737 3.42725 2.43362 3.61973 2.42112H3.64084C3.64084 2.42112 3.64457 2.42112 3.64953 2.42112C3.84698 2.42112 4.01462 2.55612 4.06429 2.74112C4.07298 2.77862 4.08044 2.81738 4.08044 2.85488C4.08044 2.88488 4.07671 2.91363 4.07174 2.94363C4.03449 3.12863 3.8743 3.27238 3.68182 3.28488C3.6694 3.28488 3.66071 3.28488 3.64829 3.28488C3.59365 3.28488 3.53901 3.27238 3.49307 3.25488C3.34033 3.19613 3.22236 3.03613 3.22236 2.85488ZM1.72227 10.2512L1.93586 10.2637C2.00664 12.7099 3.15903 14.8862 4.92361 16.3287C4.16488 16.16 3.49928 16.0924 2.9206 16.0887C1.73966 14.7012 0.989618 13.0062 0.75492 11.2087C1.23673 11.1074 1.61796 10.7324 1.72227 10.2512ZM2.47232 10.5974L9.42262 17.5937C5.7196 17.3112 2.75296 14.3262 2.47232 10.5974ZM9.28975 0.0961103C9.40275 -0.692644 9.78771 -1.7464 9.98888 -1.8314C10.2198 -1.74265 10.575 -0.650144 10.6843 0.0911102C10.7054 0.239861 10.7178 0.374862 10.7178 0.484862C10.7178 0.531113 10.7141 0.573613 10.7054 0.616113C10.6421 0.957365 10.3453 1.21862 9.98515 1.21862C9.62503 1.21862 9.327 0.957365 9.26491 0.616113C9.25622 0.573613 9.25249 0.527362 9.25249 0.484862C9.25622 0.369862 9.26864 0.239861 9.28975 0.0961103ZM9.74176 1.71987V1.90112C7.87286 1.95987 6.16416 2.66487 4.82303 3.79488L4.45421 3.36863C4.55107 3.22113 4.60944 3.03988 4.60944 2.84988C4.60944 2.68987 4.56722 2.53737 4.50016 2.40737C5.72829 1.50112 7.18119 0.888615 8.76074 0.673614C8.83277 1.19737 9.23014 1.61862 9.74176 1.71987ZM3.34405 0.724864C3.80476 0.724864 4.24932 0.619863 4.6678 0.408612C4.69264 0.396112 7.08557 -0.856395 9.02028 -1.02515C8.89486 -0.598893 8.81042 -0.156391 8.76944 0.14736C7.04831 0.362361 5.46006 1.03237 4.13135 2.02737C3.98978 1.94362 3.82959 1.89737 3.6545 1.89737C3.50797 1.89737 3.37013 1.93112 3.24844 1.98987L1.84025 0.374862C2.35559 0.606113 2.85851 0.724864 3.34405 0.724864ZM1.25288 3.33488L1.27399 3.30488C1.70986 2.57987 1.81913 1.75237 1.60058 0.883614L2.85727 2.32987C2.76165 2.47862 2.70329 2.65987 2.70329 2.84988C2.70329 2.98863 2.73309 3.11988 2.78649 3.24238C1.41679 4.72739 0.494144 6.63365 0.230884 8.74241C-0.141653 8.80116 -0.635886 8.96116 -1.00967 9.20241C-0.861892 6.9749 -0.120543 5.04739 1.25288 3.33488ZM-1.02953 9.97367C-1.02084 9.72866 -0.346549 9.39116 0.184938 9.28241C0.301666 9.25741 0.410944 9.24491 0.502836 9.24491C0.573618 9.24491 0.63695 9.25366 0.704006 9.27491C1.00949 9.36366 1.23549 9.64616 1.23549 9.98367C1.23549 10.3212 1.00949 10.6037 0.704006 10.6924C0.640675 10.7087 0.573618 10.7224 0.502836 10.7224C0.405977 10.7224 0.297941 10.7099 0.184938 10.6849C-0.346549 10.5712 -1.02208 10.2337 -1.02953 9.98866C-1.02953 9.97742 -1.02953 9.97742 -1.02953 9.97367ZM-1.0047 10.7499C-0.63216 10.9949 -0.132961 11.1549 0.235851 11.2137C0.458132 13.0024 1.16223 14.6974 2.27611 16.1137C1.77816 16.16 1.36216 16.2525 1.02811 16.3587C-0.175182 14.6974 -0.870584 12.7774 -1.0047 10.7499ZM1.40065 16.8475C1.38823 16.8312 1.37581 16.8175 1.3634 16.8012C2.62506 16.4512 4.00344 16.6362 4.9708 16.8687C6.13932 17.1512 6.99492 17.56 7.00237 17.565L7.00609 17.5562C7.93247 17.9275 8.94205 18.1337 9.99757 18.1337C11.0494 18.1337 12.0552 17.9312 12.9766 17.56C13.898 17.1887 12.9853 17.5562 13.0015 17.5475C13.1107 17.5012 13.2237 17.455 13.3281 17.4037C13.6844 17.2562 14.283 17.0362 15.0045 16.8637C15.9805 16.6275 17.3639 16.4425 18.6243 16.7962C18.407 17.0662 18.1797 17.3237 17.9376 17.5725C17.5862 17.475 16.6896 17.29 15.4788 17.4212C14.1638 17.565 12.2278 18.13 10.2497 19.9687V19.5087C10.2497 19.365 10.1329 19.2475 9.99012 19.2475C9.84731 19.2475 9.73058 19.365 9.73058 19.5087V19.9437C7.76607 18.1262 5.83881 17.565 4.53121 17.4212C3.29066 17.2862 2.38167 17.4887 2.05135 17.5812C1.83155 17.3537 1.60927 17.105 1.40065 16.8475ZM2.50212 18.02C2.9206 17.9362 3.62967 17.8512 4.51258 17.9525C6.83845 18.2137 8.6229 19.5512 9.74176 20.6725V21.4362C9.7045 21.4575 9.66228 21.4825 9.61634 21.5162C9.34439 21.1662 8.98799 20.7575 8.53971 20.3612C7.48418 19.4212 5.70718 18.3575 3.25216 18.6537V18.6575C2.99263 18.455 2.74054 18.2437 2.50212 18.02ZM9.0091 22.1537C8.5186 21.5212 7.98214 21.045 7.44693 20.6862L7.45065 20.6737C7.43824 20.67 7.42582 20.665 7.4134 20.665C6.52055 20.0787 5.62398 19.8212 4.90374 19.7162C4.56473 19.5387 4.22945 19.3412 3.90658 19.1262C5.48614 19.08 6.91917 19.62 8.18455 20.7375C8.62042 21.1212 8.9644 21.5175 9.22393 21.8587C9.14322 21.9462 9.07119 22.0437 9.0091 22.1537ZM10.2608 23.735C10.1975 23.8112 10.1304 23.8862 10.0559 23.9625C10.0398 23.9787 10.0187 24 9.99757 24.0175L9.99384 24.0212L9.99012 24.025V24.0162C9.98143 24.0075 9.96901 24 9.96031 23.9862C9.87711 23.9062 9.80509 23.8262 9.73803 23.7462C9.43255 23.3787 9.29844 23.0375 9.34439 22.7262C9.34811 22.7012 9.35308 22.6762 9.36053 22.65C9.39406 22.515 9.45739 22.3975 9.5319 22.2962C9.59523 22.2125 9.66601 22.14 9.73679 22.0775C9.80012 22.0225 9.86221 21.9762 9.91685 21.9387C9.94169 21.9225 9.9628 21.9087 9.98391 21.8962C9.98391 21.8962 9.98763 21.8962 9.98763 21.8925H9.99136C10.0212 21.9087 10.0497 21.93 10.0882 21.9562C10.1379 21.99 10.1975 22.0362 10.2559 22.0875C10.3316 22.155 10.4061 22.235 10.4694 22.3237C10.5452 22.4337 10.6073 22.5562 10.6334 22.695C10.6334 22.7037 10.6371 22.7162 10.6421 22.725C10.6892 23.03 10.5589 23.3675 10.2608 23.735ZM11.2841 21.8325C11.2754 21.8412 11.2679 21.8487 11.263 21.8575C11.1661 21.9675 11.0792 22.0762 10.9985 22.1825C10.9351 22.0725 10.8643 21.9712 10.7886 21.8825C11.0481 21.5412 11.4008 21.1312 11.8441 20.74C13.1008 19.6262 14.5301 19.0862 16.0972 19.125C15.7707 19.34 15.4354 19.5425 15.0914 19.72C13.2982 19.9937 12.0714 20.93 11.2841 21.8325ZM18.5945 21.335C18.8329 21.335 19.0266 21.5287 19.0266 21.77C19.0266 22.0112 18.8342 22.205 18.5945 22.205C18.3548 22.205 18.1623 22.0112 18.1623 21.77C18.1636 21.5337 18.3561 21.335 18.5945 21.335ZM19.9021 22.6887C20.4721 22.8575 20.8744 23.4862 20.9825 23.675C21.1166 23.9112 21.2966 24.2237 21.5611 24.4675H18.6653C18.556 24.0712 18.4008 23.6962 18.2046 23.35C18.5237 22.7775 19.2353 22.4912 19.9021 22.6887ZM-2.17322 4.36863C-2.17322 4.79489 -1.82925 5.14489 -1.40207 5.14489C-0.974895 5.14489 -0.63216 4.79864 -0.63216 4.36863C-0.63216 3.94238 -0.976137 3.59238 -1.40331 3.59238C-1.83049 3.59238 -2.17322 3.94238 -2.17322 4.36863ZM-1.15123 4.36863C-1.15123 4.50738 -1.26423 4.62113 -1.40207 4.62113C-1.53991 4.62113 -1.65291 4.50738 -1.65291 4.36863C-1.65291 4.22988 -1.53991 4.11613 -1.40207 4.11613C-1.26423 4.11488 -1.15123 4.22988 -1.15123 4.36863ZM22.0889 4.36863C22.0889 3.94238 21.7449 3.59238 21.3177 3.59238C20.8943 3.59238 20.5466 3.93863 20.5466 4.36863C20.5466 4.79489 20.8906 5.14489 21.3177 5.14489C21.7449 5.14489 22.0889 4.79864 22.0889 4.36863ZM21.0669 4.36863C21.0669 4.22988 21.1799 4.11613 21.3177 4.11613C21.4556 4.11613 21.5686 4.22988 21.5686 4.36863C21.5686 4.50738 21.4556 4.62113 21.3177 4.62113C21.1799 4.62613 21.0669 4.51238 21.0669 4.36863ZM22.8302 6.29989C22.7334 6.26239 22.6204 6.28364 22.5459 6.35864C22.2069 6.70865 21.6493 6.69615 21.6406 6.69615C21.6369 6.69615 21.6319 6.69615 21.6319 6.69615C21.4941 6.69615 21.3811 6.80615 21.3724 6.9449C21.3686 7.08865 21.4767 7.21115 21.6195 7.2149C21.6443 7.2149 22.0554 7.2274 22.4738 7.03365V11.2887C22.4738 11.4324 22.5906 11.5499 22.7334 11.5499C22.8762 11.5499 22.9929 11.4324 22.9929 11.2887V6.5399C22.9892 6.4349 22.9271 6.33739 22.8302 6.29989ZM-2.75562 11.5512C-2.61282 11.5512 -2.49609 11.4337 -2.49609 11.2899V7.03365C-2.07761 7.2274 -1.66657 7.2149 -1.64174 7.2149C-1.49893 7.21115 -1.38593 7.08865 -1.39462 6.9449C-1.39835 6.8024 -1.52004 6.68865 -1.66285 6.69615C-1.66657 6.69615 -2.22786 6.70865 -2.56811 6.35864C-2.64262 6.28364 -2.7519 6.26239 -2.85248 6.29989C-2.94934 6.33739 -3.01143 6.4349 -3.01143 6.5399V11.2924C-3.0164 11.4374 -2.89843 11.5512 -2.75562 11.5512ZM23.0351 15.8899C23.0351 15.7462 22.9184 15.6287 22.7756 15.6287H21.0992C20.9564 15.6287 20.8396 15.7462 20.8396 15.8899C20.8396 16.0337 20.9564 16.1512 21.0992 16.1512H22.7756C22.9184 16.1524 23.0351 16.0374 23.0351 15.8899ZM21.2966 16.89C21.4394 16.89 21.5562 16.7725 21.5562 16.6287C21.5562 16.485 21.4394 16.3675 21.2966 16.3675H20.6509C20.5081 16.3675 20.3914 16.485 20.3914 16.6287C20.3914 16.7725 20.5081 16.89 20.6509 16.89H21.2966ZM21.925 17.3712C21.925 17.2275 21.8082 17.11 21.6654 17.11H20.0648C19.922 17.11 19.8052 17.2275 19.8052 17.3712C19.8052 17.515 19.922 17.6325 20.0648 17.6325H21.6654C21.8082 17.6325 21.925 17.5187 21.925 17.3712ZM20.9117 18.1175C20.9117 17.9737 20.7949 17.8562 20.6521 17.8562H19.3992C19.2564 17.8562 19.1396 17.9737 19.1396 18.1175C19.1396 18.2612 19.2564 18.3787 19.3992 18.3787H20.6521C20.7937 18.3787 20.9117 18.2612 20.9117 18.1175ZM18.5858 18.6025C18.443 18.6025 18.3263 18.72 18.3263 18.8637C18.3263 19.0075 18.443 19.125 18.5858 19.125H19.2986C19.4414 19.125 19.5581 19.0075 19.5581 18.8637C19.5581 18.72 19.4414 18.6025 19.2986 18.6025H18.5858ZM22.7756 14.1399H21.8418C21.699 14.1399 21.5822 14.2574 21.5822 14.4012C21.5822 14.5449 21.699 14.6624 21.8418 14.6624H22.7756C22.9184 14.6624 23.0351 14.5449 23.0351 14.4012C23.0351 14.2587 22.9184 14.1399 22.7756 14.1399ZM22.7756 14.8862H21.473C21.3302 14.8862 21.2134 15.0037 21.2134 15.1474C21.2134 15.2912 21.3302 15.4087 21.473 15.4087H22.7756C22.9184 15.4087 23.0351 15.2912 23.0351 15.1474C23.0351 15.0037 22.9184 14.8862 22.7756 14.8862ZM22.7756 12.6512H22.3608C22.218 12.6512 22.1013 12.7687 22.1013 12.9124C22.1013 13.0562 22.218 13.1737 22.3608 13.1737H22.7756C22.9184 13.1737 23.0351 13.0562 23.0351 12.9124C23.0351 12.7699 22.9184 12.6512 22.7756 12.6512ZM22.7756 13.3974H22.1386C21.9958 13.3974 21.879 13.5149 21.879 13.6587C21.879 13.8024 21.9958 13.9199 22.1386 13.9199H22.7756C22.9184 13.9199 23.0351 13.8024 23.0351 13.6587C23.0351 13.5162 22.9184 13.3974 22.7756 13.3974ZM-2.76432 11.8887C-2.62027 11.8887 -2.50478 12.0062 -2.50478 12.1499C-2.50478 12.2949 -2.62151 12.4112 -2.76432 12.4112C-2.90836 12.4112 -3.02385 12.2937 -3.02385 12.1499C-3.02385 12.0049 -2.90836 11.8887 -2.76432 11.8887ZM-1.71749 17.8637C-1.57344 17.8637 -1.45795 17.9812 -1.45795 18.125C-1.45795 18.27 -1.57468 18.3862 -1.71749 18.3862C-1.86153 18.3862 -1.97702 18.2687 -1.97702 18.125C-1.97702 17.9812 -1.86029 17.8637 -1.71749 17.8637ZM-0.0497608 18.6112C0.0942869 18.6112 0.209774 18.7287 0.209774 18.8725C0.209774 19.0175 0.0930452 19.1337 -0.0497608 19.1337C-0.192567 19.1337 -0.309295 19.0162 -0.309295 18.8725C-0.309295 18.7275 -0.192567 18.6112 -0.0497608 18.6112ZM-2.78915 16.16H-1.11273C-0.969928 16.16 -0.853199 16.0424 -0.853199 15.8987C-0.853199 15.7549 -0.971169 15.6374 -1.11398 15.6374H-2.79039C-2.9332 15.6374 -3.04993 15.7549 -3.04993 15.8987C-3.04993 16.0462 -2.93196 16.16 -2.78915 16.16ZM-0.665689 16.38H-1.31142C-1.45423 16.38 -1.57095 16.4975 -1.57095 16.6412C-1.57095 16.785 -1.45423 16.9025 -1.31142 16.9025H-0.665689C-0.522883 16.9025 -0.406155 16.785 -0.406155 16.6412C-0.406155 16.4975 -0.522883 16.38 -0.665689 16.38ZM-0.0783219 17.1225H-1.67899C-1.8218 17.1225 -1.93852 17.24 -1.93852 17.3837C-1.93852 17.5275 -1.8218 17.645 -1.67899 17.645H-0.0783219C0.0644841 17.645 0.181212 17.5275 0.181212 17.3837C0.181212 17.2362 0.063242 17.1225 -0.0783219 17.1225ZM0.587278 17.8637H-0.665689C-0.808495 17.8637 -0.925223 17.9812 -0.925223 18.125C-0.925223 18.2687 -0.808495 18.3862 -0.665689 18.3862H0.587278C0.730084 18.3862 0.846812 18.2687 0.846812 18.125C0.846812 17.9825 0.730084 17.8637 0.587278 17.8637ZM0.428329 18.8725C0.428329 19.0162 0.545057 19.1337 0.687863 19.1337H1.40065C1.54346 19.1337 1.66018 19.0162 1.66018 18.8725C1.66018 18.7287 1.54346 18.6112 1.40065 18.6112H0.687863C0.545057 18.6112 0.428329 18.7287 0.428329 18.8725ZM-2.78915 14.6712H-1.85532C-1.71252 14.6712 -1.59579 14.5537 -1.59579 14.4099C-1.59579 14.2662 -1.71252 14.1487 -1.85532 14.1487H-2.78915C-2.93196 14.1487 -3.04869 14.2662 -3.04869 14.4099C-3.04993 14.5537 -2.93196 14.6712 -2.78915 14.6712ZM-2.78915 15.4187H-1.48651C-1.34371 15.4187 -1.22698 15.3012 -1.22698 15.1574C-1.22698 15.0137 -1.34371 14.8962 -1.48651 14.8962H-2.78915C-2.93196 14.8962 -3.04869 15.0137 -3.04869 15.1574C-3.04869 15.3012 -2.93196 15.4187 -2.78915 15.4187ZM-2.78915 13.1824H-2.37439C-2.23159 13.1824 -2.11486 13.0649 -2.11486 12.9212C-2.11486 12.7774 -2.23159 12.6599 -2.37439 12.6599H-2.78915C-2.93196 12.6599 -3.04869 12.7774 -3.04869 12.9212C-3.04869 13.0649 -2.93196 13.1824 -2.78915 13.1824ZM-2.78915 13.9249H-2.15211C-2.00931 13.9249 -1.89258 13.8074 -1.89258 13.6637C-1.89258 13.5199 -2.00931 13.4024 -2.15211 13.4024H-2.78915C-2.93196 13.4024 -3.04869 13.5199 -3.04869 13.6637C-3.04993 13.8112 -2.93196 13.9249 -2.78915 13.9249ZM9.99384 24.0212C9.99757 24.0175 9.9926 24.0175 9.9926 24.0125L9.99384 24.0212ZM21.7747 0.218611C21.7784 0.218611 21.7784 0.218611 21.7747 0.218611C21.8914 0.218611 21.997 0.13861 22.0256 0.0198593C22.1174 -0.351393 22.0802 -0.667644 21.9039 -0.928895C21.6232 -1.35015 21.1079 -1.43015 21.0495 -1.4389C20.9154 -1.45515 20.79 -1.3714 20.7602 -1.2364C20.6633 -0.793895 20.7179 -0.438892 20.9278 -0.177641C21.2383 0.201111 21.7238 0.214861 21.7747 0.218611ZM21.4816 -0.633893C21.5313 -0.553893 21.5611 -0.461392 21.5611 -0.351392C21.4854 -0.381392 21.4022 -0.427642 21.3438 -0.502643C21.2768 -0.586393 21.2432 -0.696394 21.2432 -0.836395C21.3264 -0.793894 21.4183 -0.726394 21.4816 -0.633893ZM20.0908 -3.55141C19.8102 -3.97266 19.2949 -4.05266 19.2365 -4.06141C19.1024 -4.07766 18.977 -3.99391 18.9472 -3.85891C18.8503 -3.41641 18.9049 -3.06141 19.1148 -2.80016C19.4166 -2.42015 19.9021 -2.40765 19.9567 -2.40765C20.0735 -2.40765 20.179 -2.48765 20.2076 -2.6064C20.3044 -2.97016 20.2659 -3.29016 20.0908 -3.55141ZM19.5246 -3.12641C19.4575 -3.21016 19.424 -3.32016 19.424 -3.46016C19.5122 -3.41766 19.6041 -3.35016 19.6624 -3.25766C19.7121 -3.17766 19.7419 -3.08516 19.7419 -2.97516C19.6674 -3.00391 19.583 -3.05016 19.5246 -3.12641ZM-1.01339 -1.4389C-1.07175 -1.43015 -1.58337 -1.35015 -1.86774 -0.928895C-2.03911 -0.667644 -2.08133 -0.351393 -1.98944 0.0198593C-1.95964 0.13361 -1.85532 0.218611 -1.73735 0.218611C-1.68272 0.218611 -1.19718 0.206111 -0.89542 -0.173891C-0.6868 -0.435143 -0.632161 -0.793895 -0.727779 -1.23265C-0.753856 -1.36765 -0.879277 -1.45515 -1.01339 -1.4389ZM-1.29403 -0.502643C-1.3524 -0.426393 -1.43684 -0.380142 -1.51632 -0.351392C-1.51632 -0.461392 -1.48651 -0.557643 -1.43684 -0.633893C-1.37351 -0.726394 -1.28162 -0.793894 -1.19842 -0.836395C-1.19718 -0.696394 -1.2307 -0.586393 -1.29403 -0.502643ZM0.763612 -4.06266C0.705248 -4.05391 0.19363 -3.97391 -0.0919816 -3.55141C-0.263349 -3.29016 -0.305569 -2.97391 -0.212435 -2.60265C-0.183874 -2.4889 -0.0783219 -2.40515 0.0384064 -2.40515C0.0930452 -2.40515 0.578586 -2.41765 0.880341 -2.79766C1.0902 -3.05891 1.14484 -3.41766 1.04798 -3.85641C1.01942 -3.99016 0.897726 -4.07891 0.763612 -4.06266ZM0.478001 -3.12641C0.419636 -3.05016 0.336436 -3.00391 0.256962 -2.97391C0.256962 -3.08391 0.286764 -3.18016 0.336436 -3.25641C0.398526 -3.34891 0.490418 -3.41641 0.57486 -3.45891C0.57486 -3.32016 0.545057 -3.21016 0.478001 -3.12641ZM18.1673 8.2024C18.1835 8.33741 18.2927 8.43491 18.4231 8.43491H18.4529C18.5957 8.41866 18.6963 8.28741 18.6789 8.14365C18.4194 5.86614 16.8734 4.25488 16.8063 4.18738C16.7057 4.08613 16.5418 4.08238 16.4412 4.18363C16.3406 4.28488 16.3369 4.44988 16.4375 4.55113C16.4536 4.56613 17.9289 6.10614 18.1673 8.2024ZM1.57574 8.42991H1.60555C1.73593 8.42991 1.84894 8.33241 1.86136 8.1974C2.09978 6.10239 3.57503 4.56238 3.58744 4.54988C3.68803 4.44863 3.6843 4.27988 3.58372 4.18238C3.48189 4.08113 3.31425 4.08113 3.21863 4.18738C3.15158 4.25488 1.60927 5.86614 1.34601 8.14365C1.33359 8.28616 1.43418 8.41241 1.57574 8.42991Z" fill="black"/>
</g>
<defs>
<clipPath id="clip0_29122_44702">
<rect width="20" height="20" rx="10" fill="white"/>
</clipPath>
</defs>
</svg>
