<svg width="126" height="111" viewBox="0 0 126 111" fill="none" xmlns="http://www.w3.org/2000/svg">
	<rect x="0.5" y="0.5" width="124.157" height="109.336" rx="4.5" stroke="#E4EBF0"/>
	<circle cx="63" cy="58" r="26.5" stroke="#E4EBF0" stroke-width="3"/>
	<mask id="path-3-inside-1_112_3" fill="white">
		<path d="M53.6338 84.387C49.3593 82.8697 45.5173 80.3368 42.4385 77.0059C39.3597 73.6751 37.1361 69.6462 35.9591 65.2657C34.7821 60.8853 34.6869 56.2844 35.6817 51.8591C36.6765 47.4337 38.7315 43.3162 41.6699 39.8609C44.6083 36.4055 48.3422 33.7158 52.5503 32.023C56.7584 30.3302 61.3148 29.6851 65.8274 30.1431C70.34 30.6011 74.6739 32.1486 78.456 34.6524C82.2382 37.1561 85.3555 40.5413 87.5397 44.5165L84.9162 45.9581C82.9655 42.4078 80.1814 39.3845 76.8036 37.1484C73.4258 34.9123 69.5553 33.5303 65.5251 33.1213C61.4949 32.7122 57.4257 33.2884 53.6675 34.8002C49.9093 36.312 46.5746 38.7142 43.9503 41.8001C41.326 44.886 39.4907 48.5633 38.6023 52.5156C37.7138 56.4679 37.7989 60.5768 38.85 64.4889C39.9012 68.4011 41.887 71.9993 44.6367 74.974C47.3864 77.9487 50.8176 80.2109 54.6351 81.566L53.6338 84.387Z"/>
	</mask>
	<path d="M53.6338 84.387C49.3593 82.8697 45.5173 80.3368 42.4385 77.0059C39.3597 73.6751 37.1361 69.6462 35.9591 65.2657C34.7821 60.8853 34.6869 56.2844 35.6817 51.8591C36.6765 47.4337 38.7315 43.3162 41.6699 39.8609C44.6083 36.4055 48.3422 33.7158 52.5503 32.023C56.7584 30.3302 61.3148 29.6851 65.8274 30.1431C70.34 30.6011 74.6739 32.1486 78.456 34.6524C82.2382 37.1561 85.3555 40.5413 87.5397 44.5165L84.9162 45.9581C82.9655 42.4078 80.1814 39.3845 76.8036 37.1484C73.4258 34.9123 69.5553 33.5303 65.5251 33.1213C61.4949 32.7122 57.4257 33.2884 53.6675 34.8002C49.9093 36.312 46.5746 38.7142 43.9503 41.8001C41.326 44.886 39.4907 48.5633 38.6023 52.5156C37.7138 56.4679 37.7989 60.5768 38.85 64.4889C39.9012 68.4011 41.887 71.9993 44.6367 74.974C47.3864 77.9487 50.8176 80.2109 54.6351 81.566L53.6338 84.387Z" stroke="#C8D0D7" stroke-width="6" stroke-linejoin="round" mask="url(#path-3-inside-1_112_3)"/>
	<path d="M53.6338 84.387C49.3593 82.8697 45.5173 80.3368 42.4385 77.0059C39.3597 73.6751 37.1361 69.6462 35.9591 65.2657C34.7821 60.8853 34.6869 56.2844 35.6817 51.8591C36.6765 47.4337 38.7315 43.3162 41.6699 39.8609C44.6083 36.4055 48.3422 33.7158 52.5503 32.023C56.7584 30.3302 61.3148 29.6851 65.8274 30.1431C70.34 30.6011 74.6739 32.1486 78.456 34.6524C82.2382 37.1561 85.3555 40.5413 87.5397 44.5165L84.9162 45.9581C82.9655 42.4078 80.1814 39.3845 76.8036 37.1484C73.4258 34.9123 69.5553 33.5303 65.5251 33.1213C61.4949 32.7122 57.4257 33.2884 53.6675 34.8002C49.9093 36.312 46.5746 38.7142 43.9503 41.8001C41.326 44.886 39.4907 48.5633 38.6023 52.5156C37.7138 56.4679 37.7989 60.5768 38.85 64.4889C39.9012 68.4011 41.887 71.9993 44.6367 74.974C47.3864 77.9487 50.8176 80.2109 54.6351 81.566L53.6338 84.387Z" stroke="#C8D0D7" stroke-width="6" stroke-linejoin="round" mask="url(#path-3-inside-1_112_3)"/>
	<rect x="54" y="53" width="19" height="11" fill="#C8D0D7"/>
	<circle cx="63.5" cy="45.5" r="3.5" fill="#E4EBF0"/>
	<rect x="50" y="69" width="26" height="1.2" fill="#E4EBF0"/>
</svg>
