<svg width="126" height="111" viewBox="0 0 126 111" fill="none" xmlns="http://www.w3.org/2000/svg">
	<rect x="0.5" y="0.5" width="124.157" height="109.336" rx="4.5" stroke="#E4EBF0"/>
	<rect x="16" y="24" width="93" height="63" rx="2" fill="#C8D0D7"/>
	<path d="M72.5 47.2188C71.559 47.2188 70.6565 47.5926 69.9911 48.258C69.3256 48.9234 68.9518 49.8259 68.9518 50.7669C68.9518 53.5438 71.6607 56.8853 72.3705 57.7062C72.4086 57.7499 72.4625 57.7767 72.5203 57.7808C72.5781 57.7848 72.6352 57.7658 72.679 57.7279L72.7007 57.7062C73.4011 56.8821 76.0479 53.5438 76.0479 50.7667C76.0478 49.8257 75.674 48.9233 75.0087 48.258C74.3433 47.5926 73.4409 47.2188 72.5 47.2188V47.2188ZM72.5 51.7298C72.262 51.7298 72.0294 51.6592 71.8315 51.527C71.6336 51.3947 71.4794 51.2068 71.3883 50.9869C71.2972 50.767 71.2734 50.5251 71.3198 50.2917C71.3662 50.0583 71.4808 49.8439 71.6491 49.6756C71.8174 49.5073 72.0318 49.3927 72.2652 49.3462C72.4987 49.2998 72.7406 49.3236 72.9605 49.4147C73.1804 49.5058 73.3683 49.66 73.5005 49.8579C73.6327 50.0558 73.7033 50.2884 73.7033 50.5264V50.5294C73.7025 50.848 73.5754 51.1533 73.3498 51.3784C73.1242 51.6034 72.8186 51.7298 72.5 51.7298V51.7298Z" stroke="#E4EBF0" stroke-width="0.7" stroke-linecap="round" stroke-linejoin="round"/>
	<path d="M72 24V37.608H98V58.272H82.1961V87" stroke="#E4EBF0" stroke-width="0.5"/>
	<path d="M31 24V37.608H57V58.272H41.1961V87" stroke="#E4EBF0" stroke-width="0.5"/>
	<path d="M20 24V37.608H28V58.272H23.1373V87" stroke="#E4EBF0" stroke-width="0.5"/>
	<path d="M109 46L88.912 46L88.912 72L58.408 72L58.408 56.1961L16 56.1961" stroke="#E4EBF0" stroke-width="0.5"/>
	<path d="M109 26L88.912 26L88.912 34L58.408 34L58.408 29.1373L16 29.1373" stroke="#E4EBF0" stroke-width="0.5"/>
	<path d="M16 74L36.088 74L36.088 84L66.592 84L66.592 77.9216L109 77.9216" stroke="#E4EBF0" stroke-width="0.5"/>
</svg>
