<svg width="126" height="111" viewBox="0 0 126 111" fill="none" xmlns="http://www.w3.org/2000/svg">
	<rect x="0.5" y="0.5" width="124.157" height="109.336" rx="4.5" stroke="#E4EBF0"/>
	<rect x="36" y="38" width="68" height="4" fill="#E4EBF0"/>
	<rect x="36" y="53" width="68" height="5" fill="#E4EBF0"/>
	<rect x="36" y="68" width="68" height="4" fill="#E4EBF0"/>
	<g clip-path="url(#clip0_40_95)">
		<path d="M25 36C26.0609 36 27.0783 36.4214 27.8284 37.1716C28.5786 37.9217 29 38.9391 29 40C29 41.0609 28.5786 42.0783 27.8284 42.8284C27.0783 43.5786 26.0609 44 25 44C23.9391 44 22.9217 43.5786 22.1716 42.8284C21.4214 42.0783 21 41.0609 21 40C21 38.9391 21.4214 37.9217 22.1716 37.1716C22.9217 36.4214 23.9391 36 25 36V36ZM23.25 39.75C23.1837 39.75 23.1201 39.7763 23.0732 39.8232C23.0263 39.8701 23 39.9337 23 40C23 40.0663 23.0263 40.1299 23.0732 40.1768C23.1201 40.2237 23.1837 40.25 23.25 40.25H26.1465L25.073 41.323C25.0498 41.3462 25.0313 41.3738 25.0187 41.4042C25.0062 41.4346 24.9997 41.4671 24.9997 41.5C24.9997 41.5329 25.0062 41.5654 25.0187 41.5958C25.0313 41.6262 25.0498 41.6538 25.073 41.677C25.0962 41.7002 25.1238 41.7187 25.1542 41.7313C25.1846 41.7438 25.2171 41.7503 25.25 41.7503C25.2829 41.7503 25.3154 41.7438 25.3458 41.7313C25.3762 41.7187 25.4038 41.7002 25.427 41.677L26.927 40.177C26.9503 40.1538 26.9688 40.1262 26.9814 40.0958C26.994 40.0654 27.0004 40.0329 27.0004 40C27.0004 39.9671 26.994 39.9346 26.9814 39.9042C26.9688 39.8738 26.9503 39.8462 26.927 39.823L25.427 38.323C25.4038 38.2998 25.3762 38.2813 25.3458 38.2687C25.3154 38.2562 25.2829 38.2497 25.25 38.2497C25.2171 38.2497 25.1846 38.2562 25.1542 38.2687C25.1238 38.2813 25.0962 38.2998 25.073 38.323C25.0498 38.3462 25.0313 38.3738 25.0187 38.4042C25.0062 38.4346 24.9997 38.4671 24.9997 38.5C24.9997 38.5329 25.0062 38.5654 25.0187 38.5958C25.0313 38.6262 25.0498 38.6538 25.073 38.677L26.1465 39.75H23.25Z" fill="#C8D0D7"/>
	</g>
	<g clip-path="url(#clip1_40_95)">
		<path d="M25 51C26.0609 51 27.0783 51.4214 27.8284 52.1716C28.5786 52.9217 29 53.9391 29 55C29 56.0609 28.5786 57.0783 27.8284 57.8284C27.0783 58.5786 26.0609 59 25 59C23.9391 59 22.9217 58.5786 22.1716 57.8284C21.4214 57.0783 21 56.0609 21 55C21 53.9391 21.4214 52.9217 22.1716 52.1716C22.9217 51.4214 23.9391 51 25 51V51ZM23.25 54.75C23.1837 54.75 23.1201 54.7763 23.0732 54.8232C23.0263 54.8701 23 54.9337 23 55C23 55.0663 23.0263 55.1299 23.0732 55.1768C23.1201 55.2237 23.1837 55.25 23.25 55.25H26.1465L25.073 56.323C25.0498 56.3462 25.0313 56.3738 25.0187 56.4042C25.0062 56.4346 24.9997 56.4671 24.9997 56.5C24.9997 56.5329 25.0062 56.5654 25.0187 56.5958C25.0313 56.6262 25.0498 56.6538 25.073 56.677C25.0962 56.7002 25.1238 56.7187 25.1542 56.7313C25.1846 56.7438 25.2171 56.7503 25.25 56.7503C25.2829 56.7503 25.3154 56.7438 25.3458 56.7313C25.3762 56.7187 25.4038 56.7002 25.427 56.677L26.927 55.177C26.9503 55.1538 26.9688 55.1262 26.9814 55.0958C26.994 55.0654 27.0004 55.0329 27.0004 55C27.0004 54.9671 26.994 54.9346 26.9814 54.9042C26.9688 54.8738 26.9503 54.8462 26.927 54.823L25.427 53.323C25.4038 53.2998 25.3762 53.2813 25.3458 53.2687C25.3154 53.2562 25.2829 53.2497 25.25 53.2497C25.2171 53.2497 25.1846 53.2562 25.1542 53.2687C25.1238 53.2813 25.0962 53.2998 25.073 53.323C25.0498 53.3462 25.0313 53.3738 25.0187 53.4042C25.0062 53.4346 24.9997 53.4671 24.9997 53.5C24.9997 53.5329 25.0062 53.5654 25.0187 53.5958C25.0313 53.6262 25.0498 53.6538 25.073 53.677L26.1465 54.75H23.25Z" fill="#C8D0D7"/>
	</g>
	<g clip-path="url(#clip2_40_95)">
		<path d="M25 66C26.0609 66 27.0783 66.4214 27.8284 67.1716C28.5786 67.9217 29 68.9391 29 70C29 71.0609 28.5786 72.0783 27.8284 72.8284C27.0783 73.5786 26.0609 74 25 74C23.9391 74 22.9217 73.5786 22.1716 72.8284C21.4214 72.0783 21 71.0609 21 70C21 68.9391 21.4214 67.9217 22.1716 67.1716C22.9217 66.4214 23.9391 66 25 66V66ZM23.25 69.75C23.1837 69.75 23.1201 69.7763 23.0732 69.8232C23.0263 69.8701 23 69.9337 23 70C23 70.0663 23.0263 70.1299 23.0732 70.1768C23.1201 70.2237 23.1837 70.25 23.25 70.25H26.1465L25.073 71.323C25.0498 71.3462 25.0313 71.3738 25.0187 71.4042C25.0062 71.4346 24.9997 71.4671 24.9997 71.5C24.9997 71.5329 25.0062 71.5654 25.0187 71.5958C25.0313 71.6262 25.0498 71.6538 25.073 71.677C25.0962 71.7002 25.1238 71.7187 25.1542 71.7313C25.1846 71.7438 25.2171 71.7503 25.25 71.7503C25.2829 71.7503 25.3154 71.7438 25.3458 71.7313C25.3762 71.7187 25.4038 71.7002 25.427 71.677L26.927 70.177C26.9503 70.1538 26.9688 70.1262 26.9814 70.0958C26.994 70.0654 27.0004 70.0329 27.0004 70C27.0004 69.9671 26.994 69.9346 26.9814 69.9042C26.9688 69.8738 26.9503 69.8462 26.927 69.823L25.427 68.323C25.4038 68.2998 25.3762 68.2813 25.3458 68.2687C25.3154 68.2562 25.2829 68.2497 25.25 68.2497C25.2171 68.2497 25.1846 68.2562 25.1542 68.2687C25.1238 68.2813 25.0962 68.2998 25.073 68.323C25.0498 68.3462 25.0313 68.3738 25.0187 68.4042C25.0062 68.4346 24.9997 68.4671 24.9997 68.5C24.9997 68.5329 25.0062 68.5654 25.0187 68.5958C25.0313 68.6262 25.0498 68.6538 25.073 68.677L26.1465 69.75H23.25Z" fill="#C8D0D7"/>
	</g>
	<defs>
		<clipPath id="clip0_40_95">
			<rect width="8" height="8" fill="white" transform="translate(21 36)"/>
		</clipPath>
		<clipPath id="clip1_40_95">
			<rect width="8" height="8" fill="white" transform="translate(21 51)"/>
		</clipPath>
		<clipPath id="clip2_40_95">
			<rect width="8" height="8" fill="white" transform="translate(21 66)"/>
		</clipPath>
	</defs>
</svg>
