<svg width="126" height="111" viewBox="0 0 126 111" fill="none" xmlns="http://www.w3.org/2000/svg">
	<rect x="0.5" y="0.5" width="124.157" height="109.336" rx="4.5" stroke="#E4EBF0"/>
	<rect x="18" y="25" width="90" height="61" fill="#C8D0D7"/>
	<g clip-path="url(#clip0_7_624)">
		<path d="M61.1776 52.6609C61.1776 53.0704 61.0149 53.4631 60.7254 53.7526C60.4359 54.0422 60.0432 54.2048 59.6337 54.2048C59.2242 54.2048 58.8316 54.0422 58.542 53.7526C58.2525 53.4631 58.0898 53.0704 58.0898 52.6609C58.0898 52.2515 58.2525 51.8588 58.542 51.5693C58.8316 51.2797 59.2242 51.1171 59.6337 51.1171C60.0432 51.1171 60.4359 51.2797 60.7254 51.5693C61.0149 51.8588 61.1776 52.2515 61.1776 52.6609Z" fill="#E4EBF0"/>
		<path d="M57.0606 48.0293C56.5146 48.0293 55.991 48.2462 55.605 48.6322C55.2189 49.0183 55.0021 49.5419 55.0021 50.0878V60.3804C55.0021 60.9263 55.2189 61.4499 55.605 61.8359C55.991 62.222 56.5146 62.4389 57.0606 62.4389H69.4116C69.9576 62.4389 70.4812 62.222 70.8672 61.8359C71.2533 61.4499 71.4701 60.9263 71.4701 60.3804V50.0878C71.4701 49.5419 71.2533 49.0183 70.8672 48.6322C70.4812 48.2462 69.9576 48.0293 69.4116 48.0293H57.0606ZM69.4116 49.0586C69.6846 49.0586 69.9464 49.167 70.1394 49.36C70.3324 49.553 70.4409 49.8148 70.4409 50.0878V56.778L66.5534 54.774C66.4569 54.7257 66.3476 54.7089 66.241 54.7261C66.1344 54.7432 66.036 54.7935 65.9595 54.8697L62.141 58.6883L59.4032 56.8644C59.3043 56.7986 59.1857 56.769 59.0676 56.7806C58.9494 56.7923 58.8388 56.8444 58.7547 56.9282L56.0313 59.3511V50.0878C56.0313 49.8148 56.1398 49.553 56.3328 49.36C56.5258 49.167 56.7876 49.0586 57.0606 49.0586H69.4116Z" fill="#E4EBF0"/>
	</g>
	<defs>
		<clipPath id="clip0_7_624">
			<rect width="16.4681" height="16.4681" fill="white" transform="translate(55 47)"/>
		</clipPath>
	</defs>
</svg>
