<svg width="126" height="111" viewBox="0 0 126 111" fill="none" xmlns="http://www.w3.org/2000/svg">
	<rect x="0.5" y="0.5" width="124.157" height="109.336" rx="4.5" stroke="#E4EBF0"/>
	<rect x="19" y="18" width="41.8852" height="34.7049" rx="1" fill="#C8D0D7"/>
	<g clip-path="url(#clip0_112_10)">
		<path d="M37.1633 31.9549C37.1633 32.4449 36.9687 32.9149 36.6222 33.2613C36.2757 33.6078 35.8058 33.8025 35.3157 33.8025C34.8257 33.8025 34.3558 33.6078 34.0093 33.2613C33.6628 32.9149 33.4681 32.4449 33.4681 31.9549C33.4681 31.4649 33.6628 30.9949 34.0093 30.6484C34.3558 30.302 34.8257 30.1073 35.3157 30.1073C35.8058 30.1073 36.2757 30.302 36.6222 30.6484C36.9687 30.9949 37.1633 31.4649 37.1633 31.9549Z" fill="#E4EBF0"/>
		<path d="M32.2364 26.4121C31.5831 26.4121 30.9565 26.6717 30.4945 27.1336C30.0325 27.5956 29.7729 28.2222 29.7729 28.8756V41.1929C29.7729 41.8462 30.0325 42.4728 30.4945 42.9348C30.9565 43.3968 31.5831 43.6564 32.2364 43.6564H47.0172C47.6705 43.6564 48.2971 43.3968 48.7591 42.9348C49.2211 42.4728 49.4807 41.8462 49.4807 41.1929V28.8756C49.4807 28.2222 49.2211 27.5956 48.7591 27.1336C48.2971 26.6717 47.6705 26.4121 47.0172 26.4121H32.2364ZM47.0172 27.6438C47.3439 27.6438 47.6572 27.7736 47.8882 28.0046C48.1192 28.2356 48.2489 28.5489 48.2489 28.8756V36.8818L43.5967 34.4836C43.4812 34.4258 43.3504 34.4057 43.2228 34.4263C43.0953 34.4468 42.9774 34.507 42.886 34.5982L38.3162 39.1679L35.0398 36.9853C34.9215 36.9065 34.7796 36.8711 34.6382 36.885C34.4968 36.899 34.3645 36.9614 34.2638 37.0617L31.0047 39.9612V28.8756C31.0047 28.5489 31.1345 28.2356 31.3654 28.0046C31.5964 27.7736 31.9097 27.6438 32.2364 27.6438H47.0172Z" fill="#E4EBF0"/>
	</g>
	<rect x="19" y="56.2952" width="41.8852" height="34.7049" rx="1" fill="#C8D0D7"/>
	<g clip-path="url(#clip1_112_10)">
		<path d="M37.1633 70.2501C37.1633 70.7401 36.9687 71.21 36.6222 71.5565C36.2757 71.903 35.8058 72.0977 35.3157 72.0977C34.8257 72.0977 34.3558 71.903 34.0093 71.5565C33.6628 71.21 33.4681 70.7401 33.4681 70.2501C33.4681 69.7601 33.6628 69.2901 34.0093 68.9436C34.3558 68.5971 34.8257 68.4025 35.3157 68.4025C35.8058 68.4025 36.2757 68.5971 36.6222 68.9436C36.9687 69.2901 37.1633 69.7601 37.1633 70.2501Z" fill="#E4EBF0"/>
		<path d="M32.2364 64.7073C31.5831 64.7073 30.9565 64.9668 30.4945 65.4288C30.0325 65.8908 29.7729 66.5174 29.7729 67.1707V79.4881C29.7729 80.1414 30.0325 80.768 30.4945 81.23C30.9565 81.692 31.5831 81.9515 32.2364 81.9515H47.0172C47.6705 81.9515 48.2971 81.692 48.7591 81.23C49.2211 80.768 49.4807 80.1414 49.4807 79.4881V67.1707C49.4807 66.5174 49.2211 65.8908 48.7591 65.4288C48.2971 64.9668 47.6705 64.7073 47.0172 64.7073H32.2364ZM47.0172 65.939C47.3439 65.939 47.6572 66.0688 47.8882 66.2998C48.1192 66.5308 48.2489 66.8441 48.2489 67.1707V75.177L43.5967 72.7788C43.4812 72.721 43.3504 72.7009 43.2228 72.7214C43.0953 72.742 42.9774 72.8021 42.886 72.8934L38.3162 77.4631L35.0398 75.2805C34.9215 75.2017 34.7796 75.1663 34.6382 75.1802C34.4968 75.1941 34.3645 75.2565 34.2638 75.3568L31.0047 78.2563V67.1707C31.0047 66.8441 31.1345 66.5308 31.3654 66.2998C31.5964 66.0688 31.9097 65.939 32.2364 65.939H47.0172Z" fill="#E4EBF0"/>
	</g>
	<rect x="65.6721" y="18" width="41.8852" height="34.7049" rx="1" fill="#C8D0D7"/>
	<g clip-path="url(#clip2_112_10)">
		<path d="M83.8355 31.9549C83.8355 32.4449 83.6408 32.9149 83.2943 33.2613C82.9478 33.6078 82.4779 33.8025 81.9879 33.8025C81.4979 33.8025 81.0279 33.6078 80.6814 33.2613C80.3349 32.9149 80.1403 32.4449 80.1403 31.9549C80.1403 31.4649 80.3349 30.9949 80.6814 30.6484C81.0279 30.302 81.4979 30.1073 81.9879 30.1073C82.4779 30.1073 82.9478 30.302 83.2943 30.6484C83.6408 30.9949 83.8355 31.4649 83.8355 31.9549Z" fill="#E4EBF0"/>
		<path d="M78.9086 26.4121C78.2552 26.4121 77.6286 26.6717 77.1666 27.1336C76.7046 27.5956 76.4451 28.2222 76.4451 28.8756V41.1929C76.4451 41.8462 76.7046 42.4728 77.1666 42.9348C77.6286 43.3968 78.2552 43.6564 78.9086 43.6564H93.6893C94.3427 43.6564 94.9693 43.3968 95.4313 42.9348C95.8933 42.4728 96.1528 41.8462 96.1528 41.1929V28.8756C96.1528 28.2222 95.8933 27.5956 95.4313 27.1336C94.9693 26.6717 94.3427 26.4121 93.6893 26.4121H78.9086ZM93.6893 27.6438C94.016 27.6438 94.3293 27.7736 94.5603 28.0046C94.7913 28.2356 94.9211 28.5489 94.9211 28.8756V36.8818L90.2688 34.4836C90.1533 34.4258 90.0225 34.4057 89.895 34.4263C89.7674 34.4468 89.6496 34.507 89.5581 34.5982L84.9884 39.1679L81.712 36.9853C81.5937 36.9065 81.4518 36.8711 81.3104 36.885C81.1689 36.899 81.0367 36.9614 80.936 37.0617L77.6768 39.9612V28.8756C77.6768 28.5489 77.8066 28.2356 78.0376 28.0046C78.2686 27.7736 78.5819 27.6438 78.9086 27.6438H93.6893Z" fill="#E4EBF0"/>
	</g>
	<rect x="65.6721" y="56.2952" width="41.8852" height="34.7049" rx="1" fill="#C8D0D7"/>
	<g clip-path="url(#clip3_112_10)">
		<path d="M83.8355 70.2501C83.8355 70.7401 83.6408 71.21 83.2943 71.5565C82.9478 71.903 82.4779 72.0977 81.9879 72.0977C81.4979 72.0977 81.0279 71.903 80.6814 71.5565C80.3349 71.21 80.1403 70.7401 80.1403 70.2501C80.1403 69.7601 80.3349 69.2901 80.6814 68.9436C81.0279 68.5971 81.4979 68.4025 81.9879 68.4025C82.4779 68.4025 82.9478 68.5971 83.2943 68.9436C83.6408 69.2901 83.8355 69.7601 83.8355 70.2501Z" fill="#E4EBF0"/>
		<path d="M78.9086 64.7073C78.2552 64.7073 77.6286 64.9668 77.1666 65.4288C76.7046 65.8908 76.4451 66.5174 76.4451 67.1707V79.4881C76.4451 80.1414 76.7046 80.768 77.1666 81.23C77.6286 81.692 78.2552 81.9515 78.9086 81.9515H93.6893C94.3427 81.9515 94.9693 81.692 95.4313 81.23C95.8933 80.768 96.1528 80.1414 96.1528 79.4881V67.1707C96.1528 66.5174 95.8933 65.8908 95.4313 65.4288C94.9693 64.9668 94.3427 64.7073 93.6893 64.7073H78.9086ZM93.6893 65.939C94.016 65.939 94.3293 66.0688 94.5603 66.2998C94.7913 66.5308 94.9211 66.8441 94.9211 67.1707V75.177L90.2688 72.7788C90.1533 72.721 90.0225 72.7009 89.895 72.7214C89.7674 72.742 89.6496 72.8021 89.5581 72.8934L84.9884 77.4631L81.712 75.2805C81.5937 75.2017 81.4518 75.1663 81.3104 75.1802C81.1689 75.1941 81.0367 75.2565 80.936 75.3568L77.6768 78.2563V67.1707C77.6768 66.8441 77.8066 66.5308 78.0376 66.2998C78.2686 66.0688 78.5819 65.939 78.9086 65.939H93.6893Z" fill="#E4EBF0"/>
	</g>
	<defs>
		<clipPath id="clip0_112_10">
			<rect width="19.7077" height="19.7077" fill="white" transform="translate(29.7705 25.1803)"/>
		</clipPath>
		<clipPath id="clip1_112_10">
			<rect width="19.7077" height="19.7077" fill="white" transform="translate(29.7705 63.4755)"/>
		</clipPath>
		<clipPath id="clip2_112_10">
			<rect width="19.7077" height="19.7077" fill="white" transform="translate(76.4426 25.1803)"/>
		</clipPath>
		<clipPath id="clip3_112_10">
			<rect width="19.7077" height="19.7077" fill="white" transform="translate(76.4426 63.4755)"/>
		</clipPath>
	</defs>
</svg>
