<svg width="126" height="111" viewBox="0 0 126 111" fill="none" xmlns="http://www.w3.org/2000/svg">
	<rect x="0.5" y="0.5" width="124.157" height="109.336" rx="4.5" stroke="#E4EBF0"/>
	<rect x="15" y="42" width="91" height="26" rx="13" fill="#C8D0D7"/>
	<g clip-path="url(#clip0_40_115)">
		<path fill-rule="evenodd" clip-rule="evenodd" d="M93.2385 50.3125C93.2385 50.2628 93.2187 50.2151 93.1836 50.1799C93.1484 50.1448 93.1007 50.125 93.051 50.125H90.5625C90.4133 50.125 90.2702 50.1843 90.1648 50.2898C90.0593 50.3952 90 50.5383 90 50.6875V54.4375C90 54.5867 90.0593 54.7298 90.1648 54.8352C90.2702 54.9407 90.4133 55 90.5625 55H94.3125C94.4617 55 94.6048 54.9407 94.7102 54.8352C94.8157 54.7298 94.875 54.5867 94.875 54.4375V51.949C94.875 51.8993 94.8552 51.8516 94.8201 51.8164C94.7849 51.7813 94.7372 51.7615 94.6875 51.7615C94.6378 51.7615 94.5901 51.7813 94.5549 51.8164C94.5198 51.8516 94.5 51.8993 94.5 51.949V54.4375C94.5 54.4872 94.4802 54.5349 94.4451 54.5701C94.4099 54.6052 94.3622 54.625 94.3125 54.625H90.5625C90.5128 54.625 90.4651 54.6052 90.4299 54.5701C90.3948 54.5349 90.375 54.4872 90.375 54.4375V50.6875C90.375 50.6378 90.3948 50.5901 90.4299 50.5549C90.4651 50.5198 90.5128 50.5 90.5625 50.5H93.051C93.1007 50.5 93.1484 50.4802 93.1836 50.4451C93.2187 50.4099 93.2385 50.3622 93.2385 50.3125Z" fill="#E4EBF0"/>
		<path fill-rule="evenodd" clip-rule="evenodd" d="M93.325 50.0385C93.3977 50.1112 93.4385 50.2097 93.4385 50.3125C93.4385 50.4153 93.3977 50.5138 93.325 50.5865C93.2523 50.6592 93.1538 50.7 93.051 50.7H90.575V54.425H94.3V51.949C94.3 51.8462 94.3408 51.7477 94.4135 51.675C94.4862 51.6023 94.5847 51.5615 94.6875 51.5615C94.7903 51.5615 94.8888 51.6023 94.9615 51.675C95.0342 51.7477 95.075 51.8462 95.075 51.949V54.4375C95.075 54.6397 94.9947 54.8337 94.8517 54.9767C94.7087 55.1197 94.5147 55.2 94.3125 55.2H90.5625C90.3603 55.2 90.1663 55.1197 90.0233 54.9767C89.8803 54.8337 89.8 54.6397 89.8 54.4375V50.6875C89.8 50.4853 89.8803 50.2913 90.0233 50.1483C90.1663 50.0053 90.3603 49.925 90.5625 49.925H93.051C93.1538 49.925 93.2523 49.9658 93.325 50.0385ZM93.1836 50.1799C93.2187 50.2151 93.2385 50.2628 93.2385 50.3125C93.2385 50.3622 93.2187 50.4099 93.1836 50.4451C93.1484 50.4802 93.1007 50.5 93.051 50.5H90.5625C90.5128 50.5 90.4651 50.5197 90.4299 50.5549C90.3948 50.5901 90.375 50.6378 90.375 50.6875V54.4375C90.375 54.4872 90.3948 54.5349 90.4299 54.5701C90.4651 54.6052 90.5128 54.625 90.5625 54.625H94.3125C94.3622 54.625 94.4099 54.6052 94.4451 54.5701C94.4802 54.5349 94.5 54.4872 94.5 54.4375V51.949C94.5 51.8993 94.5198 51.8516 94.5549 51.8164C94.5901 51.7812 94.6378 51.7615 94.6875 51.7615C94.7372 51.7615 94.7849 51.7812 94.8201 51.8164C94.8552 51.8516 94.875 51.8993 94.875 51.949V54.4375C94.875 54.5867 94.8157 54.7297 94.7102 54.8352C94.6048 54.9407 94.4617 55 94.3125 55H90.5625C90.4133 55 90.2702 54.9407 90.1648 54.8352C90.0593 54.7297 90 54.5867 90 54.4375V50.6875C90 50.5383 90.0593 50.3952 90.1648 50.2897C90.2702 50.1843 90.4133 50.125 90.5625 50.125H93.051C93.1007 50.125 93.1484 50.1447 93.1836 50.1799Z" fill="#E4EBF0"/>
		<path fill-rule="evenodd" clip-rule="evenodd" d="M96 49.1875C96 49.1378 95.9802 49.0901 95.9451 49.0549C95.9099 49.0198 95.8622 49 95.8125 49H93.9375C93.8878 49 93.8401 49.0198 93.8049 49.0549C93.7698 49.0901 93.75 49.1378 93.75 49.1875C93.75 49.2372 93.7698 49.2849 93.8049 49.3201C93.8401 49.3552 93.8878 49.375 93.9375 49.375H95.3599L92.3048 52.4297C92.2873 52.4472 92.2735 52.4679 92.2641 52.4907C92.2546 52.5134 92.2498 52.5378 92.2498 52.5625C92.2498 52.5872 92.2546 52.6116 92.2641 52.6343C92.2735 52.6571 92.2873 52.6778 92.3048 52.6953C92.3222 52.7127 92.3429 52.7265 92.3657 52.7359C92.3884 52.7454 92.4128 52.7502 92.4375 52.7502C92.4622 52.7502 92.4866 52.7454 92.5093 52.7359C92.5321 52.7265 92.5528 52.7127 92.5703 52.6953L95.625 49.6401V51.0625C95.625 51.1122 95.6448 51.1599 95.6799 51.1951C95.7151 51.2302 95.7628 51.25 95.8125 51.25C95.8622 51.25 95.9099 51.2302 95.9451 51.1951C95.9802 51.1599 96 51.1122 96 51.0625V49.1875Z" fill="#E4EBF0"/>
		<path fill-rule="evenodd" clip-rule="evenodd" d="M92.3047 52.4297L95.3599 49.375H93.9375C93.8878 49.375 93.8401 49.3552 93.8049 49.3201C93.7698 49.2849 93.75 49.2372 93.75 49.1875C93.75 49.1378 93.7698 49.0901 93.8049 49.0549C93.8401 49.0197 93.8878 49 93.9375 49H95.8125C95.8622 49 95.9099 49.0197 95.9451 49.0549C95.9802 49.0901 96 49.1378 96 49.1875V51.0625C96 51.1122 95.9802 51.1599 95.9451 51.1951C95.9099 51.2302 95.8622 51.25 95.8125 51.25C95.7628 51.25 95.7151 51.2302 95.6799 51.1951C95.6448 51.1599 95.625 51.1122 95.625 51.0625V49.6401L92.5702 52.6952C92.5528 52.7127 92.5321 52.7265 92.5093 52.7359C92.4866 52.7454 92.4622 52.7502 92.4375 52.7502C92.4128 52.7502 92.3884 52.7454 92.3657 52.7359C92.3429 52.7265 92.3222 52.7127 92.3047 52.6952C92.2873 52.6778 92.2735 52.6571 92.2641 52.6343C92.2546 52.6116 92.2498 52.5871 92.2498 52.5625C92.2498 52.5378 92.2546 52.5134 92.2641 52.4906C92.2735 52.4679 92.2873 52.4472 92.3047 52.4297ZM95.425 50.123V51.0625C95.425 51.1653 95.4658 51.2638 95.5385 51.3365C95.6112 51.4092 95.7097 51.45 95.8125 51.45C95.9153 51.45 96.0138 51.4092 96.0865 51.3365C96.1592 51.2638 96.2 51.1653 96.2 51.0625V49.1875C96.2 49.0847 96.1592 48.9862 96.0865 48.9135C96.0138 48.8408 95.9153 48.8 95.8125 48.8H93.9375C93.8347 48.8 93.7362 48.8408 93.6635 48.9135C93.5908 48.9862 93.55 49.0847 93.55 49.1875C93.55 49.2903 93.5908 49.3888 93.6635 49.4615C93.7362 49.5342 93.8347 49.575 93.9375 49.575H94.877L92.1633 52.2883C92.1273 52.3243 92.0988 52.3671 92.0793 52.4141C92.0598 52.4611 92.0498 52.5116 92.0498 52.5625C92.0498 52.6134 92.0598 52.6638 92.0793 52.7109C92.0988 52.7579 92.1273 52.8007 92.1633 52.8367C92.1993 52.8727 92.2421 52.9012 92.2891 52.9207C92.3362 52.9402 92.3866 52.9502 92.4375 52.9502C92.4884 52.9502 92.5388 52.9402 92.5859 52.9207C92.6329 52.9012 92.6757 52.8727 92.7117 52.8367L95.425 50.123Z" fill="#E4EBF0"/>
	</g>
	<rect x="38" y="59" width="45" height="2" fill="#E4EBF0"/>
	<rect x="29" y="51" width="59" height="3" fill="#E4EBF0"/>
	<defs>
		<clipPath id="clip0_40_115">
			<rect width="6" height="6" fill="white" transform="translate(90 49)"/>
		</clipPath>
	</defs>
</svg>
