<svg width="126" height="111" viewBox="0 0 126 111" fill="none" xmlns="http://www.w3.org/2000/svg">
	<rect x="0.5" y="0.5" width="124.157" height="109.336" rx="4.5" stroke="#E4EBF0"/>
	<rect x="12.5787" y="12.6594" width="100" height="85.0171" rx="0.5" fill="#E4EBF0" stroke="#E4EBF0"/>
	<rect x="24.1648" y="33.5579" width="76.8278" height="43.2207" rx="1" fill="white"/>
	<rect x="54.1892" y="64.5361" width="17.1418" height="4.78375" rx="2.39188" fill="#E4EBF0"/>
	<rect x="50.6013" y="53.2029" width="24.526" height="2.22964" fill="#E4EBF0"/>
	<rect x="45.0203" y="57.6619" width="35.1168" height="1.11482" fill="#E4EBF0"/>
	<rect x="49.0068" y="60.4492" width="27.8705" height="1.11482" fill="#E4EBF0"/>
	<ellipse cx="62.8323" cy="45.2729" rx="4.25804" ry="4.25659" fill="#E4EBF0"/>
	<path d="M61.1764 45.2732L62.5957 46.4556L64.4882 44.0908" stroke="#C8D0D7" stroke-width="1.39826"/>
	<path d="M101.665 29.0187L102.072 28.6111L103.688 30.227L105.304 28.6111L105.712 29.0187L104.096 30.6346L105.712 32.2505L105.304 32.6581L103.688 31.0422L102.072 32.6581L101.665 32.2505L103.281 30.6346L101.665 29.0187Z" fill="white"/>
</svg>
