<svg width="126" height="111" viewBox="0 0 126 111" fill="none" xmlns="http://www.w3.org/2000/svg">
	<rect x="0.5" y="0.5" width="124.157" height="109.336" rx="4.5" stroke="#E4EBF0"/>
	<rect x="22" y="14" width="39.3792" height="38.8323" rx="2.50705" fill="#C8D0D7"/>
	<rect x="25.2816" y="21.657" width="19.6896" height="3.2816" fill="#E4EBF0"/>
	<rect x="25.2816" y="28.2202" width="27.3467" height="1.6408" fill="#E4EBF0"/>
	<rect x="25.2816" y="31.5018" width="32.816" height="1.6408" fill="#E4EBF0"/>
	<rect x="25.2816" y="34.7834" width="21.3304" height="1.6408" fill="#E4EBF0"/>
	<rect x="25.2816" y="41.3467" width="12.0325" height="4.37547" rx="2.18773" fill="#E4EBF0"/>
	<rect x="22" y="56.6208" width="39.3792" height="38.8323" rx="2.50705" fill="#C8D0D7"/>
	<rect x="25.2816" y="64.2778" width="19.6896" height="3.2816" fill="#E4EBF0"/>
	<rect x="25.2816" y="70.8411" width="27.3467" height="1.6408" fill="#E4EBF0"/>
	<rect x="25.2816" y="74.1227" width="32.816" height="1.6408" fill="#E4EBF0"/>
	<rect x="25.2816" y="77.4043" width="21.3304" height="1.6408" fill="#E4EBF0"/>
	<rect x="25.2816" y="83.9675" width="12.0325" height="4.37547" rx="2.18773" fill="#E4EBF0"/>
	<rect x="64.6208" y="14" width="39.3792" height="38.8323" rx="2.50705" fill="#C8D0D7"/>
	<rect x="67.9024" y="21.657" width="19.6896" height="3.2816" fill="#E4EBF0"/>
	<rect x="67.9024" y="28.2202" width="27.3467" height="1.6408" fill="#E4EBF0"/>
	<rect x="67.9024" y="31.5018" width="32.816" height="1.6408" fill="#E4EBF0"/>
	<rect x="67.9024" y="34.7834" width="21.3304" height="1.6408" fill="#E4EBF0"/>
	<rect x="67.9024" y="41.3467" width="12.0325" height="4.37547" rx="2.18773" fill="#E4EBF0"/>
	<rect x="64.6208" y="56.6208" width="39.3792" height="38.8323" rx="2.50705" fill="#C8D0D7"/>
	<rect x="67.9024" y="64.2778" width="19.6896" height="3.2816" fill="#E4EBF0"/>
	<rect x="67.9024" y="70.8411" width="27.3467" height="1.6408" fill="#E4EBF0"/>
	<rect x="67.9024" y="74.1227" width="32.816" height="1.6408" fill="#E4EBF0"/>
	<rect x="67.9024" y="77.4043" width="21.3304" height="1.6408" fill="#E4EBF0"/>
	<rect x="67.9024" y="83.9675" width="12.0325" height="4.37547" rx="2.18773" fill="#E4EBF0"/>
</svg>
