<svg width="126" height="111" viewBox="0 0 126 111" fill="none" xmlns="http://www.w3.org/2000/svg">
	<rect x="0.5" y="0.5" width="124.157" height="109.336" rx="4.5" stroke="#E4EBF0"/>
	<rect x="27" y="20" width="72" height="71" rx="2.50705" fill="#C8D0D7"/>
	<rect x="33" y="34" width="36" height="6" fill="#E4EBF0"/>
	<rect x="33" y="46" width="50" height="3" fill="#E4EBF0"/>
	<rect x="33" y="52" width="60" height="3" fill="#E4EBF0"/>
	<rect x="33" y="58" width="39" height="3" fill="#E4EBF0"/>
	<rect x="33" y="70" width="22" height="8" rx="4" fill="#E4EBF0"/>
	<path d="M21.5 57.5H14.207L16.8535 54.8535L16.1465 54.1465L12.293 58L16.1465 61.8535L16.8535 61.1465L14.207 58.5H21.5V57.5Z" fill="#E4EBF0"/>
	<path d="M104.5 57.5H111.793L109.147 54.8535L109.854 54.1465L113.707 58L109.854 61.8535L109.147 61.1465L111.793 58.5H104.5V57.5Z" fill="#E4EBF0"/>
</svg>
