<svg width="126" height="111" viewBox="0 0 126 111" fill="none" xmlns="http://www.w3.org/2000/svg">
	<rect x="0.5" y="0.5" width="124.157" height="109.336" rx="4.5" stroke="#E4EBF0"/>
	<rect x="22" y="10" width="39" height="38.8323" rx="2.50705" fill="#C8D0D7"/>
	<rect x="25.2816" y="17.657" width="19.6896" height="3.2816" fill="#E4EBF0"/>
	<rect x="25.2816" y="24.2202" width="27.3467" height="1.6408" fill="#E4EBF0"/>
	<rect x="25.2816" y="27.5019" width="32.816" height="1.6408" fill="#E4EBF0"/>
	<rect x="25.2816" y="30.7834" width="21.3304" height="1.6408" fill="#E4EBF0"/>
	<rect x="25.2816" y="37.3467" width="12.0325" height="4.37547" rx="2.18773" fill="#E4EBF0"/>
	<rect x="65" y="60" width="39" height="38.8323" rx="2.50705" fill="#C8D0D7"/>
	<rect x="68.2816" y="67.657" width="19.6896" height="3.2816" fill="#E4EBF0"/>
	<rect x="68.2816" y="74.2202" width="27.3467" height="1.6408" fill="#E4EBF0"/>
	<rect x="68.2816" y="77.5019" width="32.816" height="1.6408" fill="#E4EBF0"/>
	<rect x="68.2816" y="80.7834" width="21.3304" height="1.6408" fill="#E4EBF0"/>
	<rect x="68.2816" y="87.3467" width="12.0325" height="4.37547" rx="2.18773" fill="#E4EBF0"/>
	<rect x="22" y="53" width="39" height="46" rx="2.50705" fill="#C8D0D7"/>
	<rect x="25.2816" y="60.657" width="19.6896" height="3.2816" fill="#E4EBF0"/>
	<rect x="25.2816" y="67.2202" width="27.3467" height="1.6408" fill="#E4EBF0"/>
	<rect x="25.2816" y="70.5019" width="32.816" height="1.6408" fill="#E4EBF0"/>
	<rect x="25.2816" y="73.7834" width="21.3304" height="1.6408" fill="#E4EBF0"/>
	<rect x="25.2816" y="77" width="30" height="1.6408" fill="#E4EBF0"/>
	<rect x="25.2816" y="83.5634" width="12.0325" height="4.37547" rx="2.18773" fill="#E4EBF0"/>
	<rect x="65" y="10" width="39" height="46" rx="2.50705" fill="#C8D0D7"/>
	<rect x="68.2816" y="17.657" width="19.6896" height="3.2816" fill="#E4EBF0"/>
	<rect x="68.2816" y="24.2202" width="27.3467" height="1.6408" fill="#E4EBF0"/>
	<rect x="68.2816" y="27.5019" width="32.816" height="1.6408" fill="#E4EBF0"/>
	<rect x="68.2816" y="30.7834" width="21.3304" height="1.6408" fill="#E4EBF0"/>
	<rect x="68.2816" y="34" width="30" height="1.6408" fill="#E4EBF0"/>
	<rect x="68.2816" y="40.5634" width="12.0325" height="4.37547" rx="2.18773" fill="#E4EBF0"/>
</svg>
