<svg width="126" height="111" viewBox="0 0 126 111" fill="none" xmlns="http://www.w3.org/2000/svg">
	<rect x="0.5" y="0.5" width="124.157" height="109.336" rx="4.5" stroke="#E4EBF0"/>
	<rect x="14" y="22" width="35" height="29" rx="1" fill="#C8D0D7"/>
	<g clip-path="url(#clip0_40_171)">
		<path d="M29.1776 33.6609C29.1776 34.0704 29.0149 34.4631 28.7254 34.7526C28.4359 35.0422 28.0432 35.2048 27.6337 35.2048C27.2242 35.2048 26.8316 35.0422 26.542 34.7526C26.2525 34.4631 26.0898 34.0704 26.0898 33.6609C26.0898 33.2515 26.2525 32.8588 26.542 32.5693C26.8316 32.2797 27.2242 32.1171 27.6337 32.1171C28.0432 32.1171 28.4359 32.2797 28.7254 32.5693C29.0149 32.8588 29.1776 33.2515 29.1776 33.6609Z" fill="#E4EBF0"/>
		<path d="M25.0606 29.0293C24.5146 29.0293 23.991 29.2462 23.605 29.6322C23.2189 30.0183 23.0021 30.5419 23.0021 31.0878V41.3804C23.0021 41.9263 23.2189 42.4499 23.605 42.8359C23.991 43.222 24.5146 43.4389 25.0606 43.4389H37.4116C37.9576 43.4389 38.4812 43.222 38.8672 42.8359C39.2533 42.4499 39.4701 41.9263 39.4701 41.3804V31.0878C39.4701 30.5419 39.2533 30.0183 38.8672 29.6322C38.4812 29.2462 37.9576 29.0293 37.4116 29.0293H25.0606ZM37.4116 30.0586C37.6846 30.0586 37.9464 30.167 38.1394 30.36C38.3325 30.553 38.4409 30.8148 38.4409 31.0878V37.778L34.5534 35.774C34.4569 35.7257 34.3476 35.7089 34.241 35.7261C34.1344 35.7432 34.036 35.7935 33.9595 35.8697L30.141 39.6883L27.4032 37.8644C27.3043 37.7986 27.1857 37.769 27.0676 37.7806C26.9494 37.7923 26.8388 37.8444 26.7547 37.9282L24.0313 40.3511V31.0878C24.0313 30.8148 24.1398 30.553 24.3328 30.36C24.5258 30.167 24.7876 30.0586 25.0606 30.0586H37.4116Z" fill="#E4EBF0"/>
	</g>
	<rect x="14" y="58" width="35" height="29" rx="1" fill="#C8D0D7"/>
	<g clip-path="url(#clip1_40_171)">
		<path d="M29.1776 69.6609C29.1776 70.0704 29.0149 70.4631 28.7254 70.7526C28.4359 71.0422 28.0432 71.2048 27.6337 71.2048C27.2242 71.2048 26.8316 71.0422 26.542 70.7526C26.2525 70.4631 26.0898 70.0704 26.0898 69.6609C26.0898 69.2515 26.2525 68.8588 26.542 68.5693C26.8316 68.2797 27.2242 68.1171 27.6337 68.1171C28.0432 68.1171 28.4359 68.2797 28.7254 68.5693C29.0149 68.8588 29.1776 69.2515 29.1776 69.6609Z" fill="#E4EBF0"/>
		<path d="M25.0606 65.0293C24.5146 65.0293 23.991 65.2462 23.605 65.6322C23.2189 66.0183 23.0021 66.5419 23.0021 67.0878V77.3804C23.0021 77.9263 23.2189 78.4499 23.605 78.8359C23.991 79.222 24.5146 79.4389 25.0606 79.4389H37.4116C37.9576 79.4389 38.4812 79.222 38.8672 78.8359C39.2533 78.4499 39.4701 77.9263 39.4701 77.3804V67.0878C39.4701 66.5419 39.2533 66.0183 38.8672 65.6322C38.4812 65.2462 37.9576 65.0293 37.4116 65.0293H25.0606ZM37.4116 66.0586C37.6846 66.0586 37.9464 66.167 38.1394 66.36C38.3325 66.553 38.4409 66.8148 38.4409 67.0878V73.778L34.5534 71.774C34.4569 71.7257 34.3476 71.7089 34.241 71.7261C34.1344 71.7432 34.036 71.7935 33.9595 71.8697L30.141 75.6883L27.4032 73.8644C27.3043 73.7986 27.1857 73.769 27.0676 73.7806C26.9494 73.7923 26.8388 73.8444 26.7547 73.9282L24.0313 76.3511V67.0878C24.0313 66.8148 24.1398 66.553 24.3328 66.36C24.5258 66.167 24.7876 66.0586 25.0606 66.0586H37.4116Z" fill="#E4EBF0"/>
	</g>
	<rect x="54" y="25" width="34" height="4" fill="#E4EBF0"/>
	<rect x="54" y="61" width="34" height="4" fill="#E4EBF0"/>
	<rect x="54" y="46" width="45" height="2" fill="#E4EBF0"/>
	<rect x="54" y="82" width="45" height="2" fill="#E4EBF0"/>
	<rect x="54" y="41" width="58" height="2" fill="#E4EBF0"/>
	<rect x="54" y="77" width="58" height="2" fill="#E4EBF0"/>
	<rect x="54" y="36" width="58" height="2" fill="#E4EBF0"/>
	<rect x="54" y="72" width="58" height="2" fill="#E4EBF0"/>
	<circle r="3" transform="matrix(-1 0 0 1 109 27)" fill="#E4EBF0"/>
	<circle r="3" transform="matrix(-1 0 0 1 109 63)" fill="#E4EBF0"/>
	<defs>
		<clipPath id="clip0_40_171">
			<rect width="16.4681" height="16.4681" fill="white" transform="translate(23 28)"/>
		</clipPath>
		<clipPath id="clip1_40_171">
			<rect width="16.4681" height="16.4681" fill="white" transform="translate(23 64)"/>
		</clipPath>
	</defs>
</svg>
