<svg width="126" height="111" viewBox="0 0 126 111" fill="none" xmlns="http://www.w3.org/2000/svg">
	<rect x="0.5" y="0.5" width="124.157" height="109.336" rx="4.5" stroke="#E4EBF0"/>
	<rect x="14" y="74" width="33" height="3" fill="#E4EBF0"/>
	<rect x="14" y="83" width="33" height="3" fill="#E4EBF0"/>
	<rect x="14" y="92" width="33" height="3" fill="#E4EBF0"/>
	<g clip-path="url(#clip0_40_185)">
		<path d="M49.9953 74.7148L51.2283 74.5356L51.7795 73.4181C51.7946 73.3875 51.8194 73.3627 51.85 73.3477C51.9267 73.3098 52.0199 73.3414 52.0583 73.4181L52.6095 74.5356L53.8425 74.7148C53.8765 74.7196 53.9076 74.7357 53.9314 74.7599C53.9602 74.7895 53.976 74.8293 53.9755 74.8705C53.9749 74.9118 53.958 74.9511 53.9285 74.9799L53.0364 75.8497L53.2471 77.0779C53.2521 77.1065 53.2489 77.1359 53.238 77.1627C53.2271 77.1896 53.2089 77.2129 53.1854 77.2299C53.162 77.2469 53.1342 77.2571 53.1053 77.2591C53.0764 77.2612 53.0475 77.2551 53.0218 77.2416L51.9189 76.6617L50.816 77.2416C50.7859 77.2576 50.751 77.2629 50.7174 77.2571C50.6329 77.2425 50.5761 77.1624 50.5907 77.0779L50.8015 75.8497L49.9093 74.9799C49.8851 74.9561 49.869 74.9251 49.8642 74.8911C49.8511 74.8061 49.9103 74.7274 49.9953 74.7148Z" fill="#C8D0D7"/>
	</g>
	<g clip-path="url(#clip1_40_185)">
		<path d="M56.8331 74.7148L58.0662 74.5356L58.6174 73.4181C58.6324 73.3875 58.6572 73.3627 58.6878 73.3477C58.7645 73.3098 58.8578 73.3414 58.8961 73.4181L59.4473 74.5356L60.6804 74.7148C60.7144 74.7196 60.7455 74.7357 60.7693 74.7599C60.798 74.7895 60.8139 74.8293 60.8133 74.8705C60.8128 74.9118 60.7959 74.9511 60.7663 74.9799L59.8742 75.8497L60.085 77.0779C60.0899 77.1065 60.0868 77.1359 60.0759 77.1627C60.065 77.1896 60.0467 77.2129 60.0233 77.2299C59.9998 77.2469 59.9721 77.2571 59.9431 77.2591C59.9142 77.2612 59.8853 77.2551 59.8597 77.2416L58.7568 76.6617L57.6539 77.2416C57.6238 77.2576 57.5888 77.2629 57.5553 77.2571C57.4708 77.2425 57.414 77.1624 57.4285 77.0779L57.6393 75.8497L56.7472 74.9799C56.7229 74.9561 56.7069 74.9251 56.702 74.8911C56.6889 74.8061 56.7481 74.7274 56.8331 74.7148Z" fill="#C8D0D7"/>
	</g>
	<g clip-path="url(#clip2_40_185)">
		<path d="M63.671 74.7148L64.904 74.5356L65.4552 73.4181C65.4703 73.3875 65.495 73.3627 65.5256 73.3477C65.6024 73.3098 65.6956 73.3414 65.734 73.4181L66.2852 74.5356L67.5182 74.7148C67.5522 74.7196 67.5833 74.7357 67.6071 74.7599C67.6359 74.7895 67.6517 74.8293 67.6512 74.8705C67.6506 74.9118 67.6337 74.9511 67.6042 74.9799L66.7121 75.8497L66.9228 77.0779C66.9278 77.1065 66.9246 77.1359 66.9137 77.1627C66.9028 77.1896 66.8846 77.2129 66.8611 77.2299C66.8377 77.2469 66.8099 77.2571 66.781 77.2591C66.752 77.2612 66.7231 77.2551 66.6975 77.2416L65.5946 76.6617L64.4917 77.2416C64.4616 77.2576 64.4266 77.2629 64.3931 77.2571C64.3086 77.2425 64.2518 77.1624 64.2664 77.0779L64.4771 75.8497L63.585 74.9799C63.5607 74.9561 63.5447 74.9251 63.5398 74.8911C63.5267 74.8061 63.586 74.7274 63.671 74.7148Z" fill="#C8D0D7"/>
	</g>
	<g clip-path="url(#clip3_40_185)">
		<path d="M70.5088 74.7148L71.7419 74.5356L72.2931 73.4181C72.3081 73.3875 72.3329 73.3627 72.3635 73.3477C72.4402 73.3098 72.5335 73.3414 72.5718 73.4181L73.123 74.5356L74.3561 74.7148C74.3901 74.7196 74.4211 74.7357 74.4449 74.7599C74.4737 74.7895 74.4896 74.8293 74.489 74.8705C74.4885 74.9118 74.4716 74.9511 74.442 74.9799L73.5499 75.8497L73.7607 77.0779C73.7656 77.1065 73.7624 77.1359 73.7515 77.1627C73.7406 77.1896 73.7224 77.2129 73.699 77.2299C73.6755 77.2469 73.6477 77.2571 73.6188 77.2591C73.5899 77.2612 73.561 77.2551 73.5353 77.2416L72.4324 76.6617L71.3295 77.2416C71.2994 77.2576 71.2645 77.2629 71.231 77.2571C71.1465 77.2425 71.0896 77.1624 71.1042 77.0779L71.315 75.8497L70.4229 74.9799C70.3986 74.9561 70.3825 74.9251 70.3777 74.8911C70.3646 74.8061 70.4238 74.7274 70.5088 74.7148Z" fill="#C8D0D7"/>
	</g>
	<g clip-path="url(#clip4_40_185)">
		<path d="M49.9953 83.7148L51.2283 83.5356L51.7795 82.4181C51.7946 82.3875 51.8194 82.3627 51.85 82.3477C51.9267 82.3098 52.0199 82.3414 52.0583 82.4181L52.6095 83.5356L53.8425 83.7148C53.8765 83.7196 53.9076 83.7357 53.9314 83.7599C53.9602 83.7895 53.976 83.8293 53.9755 83.8705C53.9749 83.9118 53.958 83.9511 53.9285 83.9799L53.0364 84.8497L53.2471 86.0779C53.2521 86.1065 53.2489 86.1359 53.238 86.1627C53.2271 86.1896 53.2089 86.2129 53.1854 86.2299C53.162 86.2469 53.1342 86.2571 53.1053 86.2591C53.0764 86.2612 53.0475 86.2551 53.0218 86.2416L51.9189 85.6617L50.816 86.2416C50.7859 86.2576 50.751 86.2629 50.7174 86.2571C50.6329 86.2425 50.5761 86.1624 50.5907 86.0779L50.8015 84.8497L49.9093 83.9799C49.8851 83.9561 49.869 83.9251 49.8642 83.8911C49.8511 83.8061 49.9103 83.7274 49.9953 83.7148Z" fill="#C8D0D7"/>
	</g>
	<g clip-path="url(#clip5_40_185)">
		<path d="M56.8331 83.7148L58.0662 83.5356L58.6174 82.4181C58.6324 82.3875 58.6572 82.3627 58.6878 82.3477C58.7645 82.3098 58.8578 82.3414 58.8961 82.4181L59.4473 83.5356L60.6804 83.7148C60.7144 83.7196 60.7455 83.7357 60.7693 83.7599C60.798 83.7895 60.8139 83.8293 60.8133 83.8705C60.8128 83.9118 60.7959 83.9511 60.7663 83.9799L59.8742 84.8497L60.085 86.0779C60.0899 86.1065 60.0868 86.1359 60.0759 86.1627C60.065 86.1896 60.0467 86.2129 60.0233 86.2299C59.9998 86.2469 59.9721 86.2571 59.9431 86.2591C59.9142 86.2612 59.8853 86.2551 59.8597 86.2416L58.7568 85.6617L57.6539 86.2416C57.6238 86.2576 57.5888 86.2629 57.5553 86.2571C57.4708 86.2425 57.414 86.1624 57.4285 86.0779L57.6393 84.8497L56.7472 83.9799C56.7229 83.9561 56.7069 83.9251 56.702 83.8911C56.6889 83.8061 56.7481 83.7274 56.8331 83.7148Z" fill="#C8D0D7"/>
	</g>
	<g clip-path="url(#clip6_40_185)">
		<path d="M63.671 83.7148L64.904 83.5356L65.4552 82.4181C65.4703 82.3875 65.495 82.3627 65.5256 82.3477C65.6024 82.3098 65.6956 82.3414 65.734 82.4181L66.2852 83.5356L67.5182 83.7148C67.5522 83.7196 67.5833 83.7357 67.6071 83.7599C67.6359 83.7895 67.6517 83.8293 67.6512 83.8705C67.6506 83.9118 67.6337 83.9511 67.6042 83.9799L66.7121 84.8497L66.9228 86.0779C66.9278 86.1065 66.9246 86.1359 66.9137 86.1627C66.9028 86.1896 66.8846 86.2129 66.8611 86.2299C66.8377 86.2469 66.8099 86.2571 66.781 86.2591C66.752 86.2612 66.7231 86.2551 66.6975 86.2416L65.5946 85.6617L64.4917 86.2416C64.4616 86.2576 64.4266 86.2629 64.3931 86.2571C64.3086 86.2425 64.2518 86.1624 64.2664 86.0779L64.4771 84.8497L63.585 83.9799C63.5607 83.9561 63.5447 83.9251 63.5398 83.8911C63.5267 83.8061 63.586 83.7274 63.671 83.7148Z" fill="#C8D0D7"/>
	</g>
	<g clip-path="url(#clip7_40_185)">
		<path d="M70.5088 83.7148L71.7419 83.5356L72.2931 82.4181C72.3081 82.3875 72.3329 82.3627 72.3635 82.3477C72.4402 82.3098 72.5335 82.3414 72.5718 82.4181L73.123 83.5356L74.3561 83.7148C74.3901 83.7196 74.4211 83.7357 74.4449 83.7599C74.4737 83.7895 74.4896 83.8293 74.489 83.8705C74.4885 83.9118 74.4716 83.9511 74.442 83.9799L73.5499 84.8497L73.7607 86.0779C73.7656 86.1065 73.7624 86.1359 73.7515 86.1627C73.7406 86.1896 73.7224 86.2129 73.699 86.2299C73.6755 86.2469 73.6477 86.2571 73.6188 86.2591C73.5899 86.2612 73.561 86.2551 73.5353 86.2416L72.4324 85.6617L71.3295 86.2416C71.2994 86.2576 71.2645 86.2629 71.231 86.2571C71.1465 86.2425 71.0896 86.1624 71.1042 86.0779L71.315 84.8497L70.4229 83.9799C70.3986 83.9561 70.3825 83.9251 70.3777 83.8911C70.3646 83.8061 70.4238 83.7274 70.5088 83.7148Z" fill="#C8D0D7"/>
	</g>
	<g clip-path="url(#clip8_40_185)">
		<path d="M49.9953 92.7148L51.2283 92.5356L51.7795 91.4181C51.7946 91.3875 51.8194 91.3627 51.85 91.3477C51.9267 91.3098 52.0199 91.3414 52.0583 91.4181L52.6095 92.5356L53.8425 92.7148C53.8765 92.7196 53.9076 92.7357 53.9314 92.7599C53.9602 92.7895 53.976 92.8293 53.9755 92.8705C53.9749 92.9118 53.958 92.9511 53.9285 92.9799L53.0364 93.8497L53.2471 95.0779C53.2521 95.1065 53.2489 95.1359 53.238 95.1627C53.2271 95.1896 53.2089 95.2129 53.1854 95.2299C53.162 95.2469 53.1342 95.2571 53.1053 95.2591C53.0764 95.2612 53.0475 95.2551 53.0218 95.2416L51.9189 94.6617L50.816 95.2416C50.7859 95.2576 50.751 95.2629 50.7174 95.2571C50.6329 95.2425 50.5761 95.1624 50.5907 95.0779L50.8015 93.8497L49.9093 92.9799C49.8851 92.9561 49.869 92.9251 49.8642 92.8911C49.8511 92.8061 49.9103 92.7274 49.9953 92.7148Z" fill="#C8D0D7"/>
	</g>
	<g clip-path="url(#clip9_40_185)">
		<path d="M56.8331 92.7148L58.0662 92.5356L58.6174 91.4181C58.6324 91.3875 58.6572 91.3627 58.6878 91.3477C58.7645 91.3098 58.8578 91.3414 58.8961 91.4181L59.4473 92.5356L60.6804 92.7148C60.7144 92.7196 60.7455 92.7357 60.7693 92.7599C60.798 92.7895 60.8139 92.8293 60.8133 92.8705C60.8128 92.9118 60.7959 92.9511 60.7663 92.9799L59.8742 93.8497L60.085 95.0779C60.0899 95.1065 60.0868 95.1359 60.0759 95.1627C60.065 95.1896 60.0467 95.2129 60.0233 95.2299C59.9998 95.2469 59.9721 95.2571 59.9431 95.2591C59.9142 95.2612 59.8853 95.2551 59.8597 95.2416L58.7568 94.6617L57.6539 95.2416C57.6238 95.2576 57.5888 95.2629 57.5553 95.2571C57.4708 95.2425 57.414 95.1624 57.4285 95.0779L57.6393 93.8497L56.7472 92.9799C56.7229 92.9561 56.7069 92.9251 56.702 92.8911C56.6889 92.8061 56.7481 92.7274 56.8331 92.7148Z" fill="#C8D0D7"/>
	</g>
	<g clip-path="url(#clip10_40_185)">
		<path d="M63.671 92.7148L64.904 92.5356L65.4552 91.4181C65.4703 91.3875 65.495 91.3627 65.5256 91.3477C65.6024 91.3098 65.6956 91.3414 65.734 91.4181L66.2852 92.5356L67.5182 92.7148C67.5522 92.7196 67.5833 92.7357 67.6071 92.7599C67.6359 92.7895 67.6517 92.8293 67.6512 92.8705C67.6506 92.9118 67.6337 92.9511 67.6042 92.9799L66.7121 93.8497L66.9228 95.0779C66.9278 95.1065 66.9246 95.1359 66.9137 95.1627C66.9028 95.1896 66.8846 95.2129 66.8611 95.2299C66.8377 95.2469 66.8099 95.2571 66.781 95.2591C66.752 95.2612 66.7231 95.2551 66.6975 95.2416L65.5946 94.6617L64.4917 95.2416C64.4616 95.2576 64.4266 95.2629 64.3931 95.2571C64.3086 95.2425 64.2518 95.1624 64.2664 95.0779L64.4771 93.8497L63.585 92.9799C63.5607 92.9561 63.5447 92.9251 63.5398 92.8911C63.5267 92.8061 63.586 92.7274 63.671 92.7148Z" fill="#C8D0D7"/>
	</g>
	<g clip-path="url(#clip11_40_185)">
		<path d="M70.5088 92.7148L71.7419 92.5356L72.2931 91.4181C72.3081 91.3875 72.3329 91.3627 72.3635 91.3477C72.4402 91.3098 72.5335 91.3414 72.5718 91.4181L73.123 92.5356L74.3561 92.7148C74.3901 92.7196 74.4211 92.7357 74.4449 92.7599C74.4737 92.7895 74.4896 92.8293 74.489 92.8705C74.4885 92.9118 74.4716 92.9511 74.442 92.9799L73.5499 93.8497L73.7607 95.0779C73.7656 95.1065 73.7624 95.1359 73.7515 95.1627C73.7406 95.1896 73.7224 95.2129 73.699 95.2299C73.6755 95.2469 73.6477 95.2571 73.6188 95.2591C73.5899 95.2612 73.561 95.2551 73.5353 95.2416L72.4324 94.6617L71.3295 95.2416C71.2994 95.2576 71.2645 95.2629 71.231 95.2571C71.1465 95.2425 71.0896 95.1624 71.1042 95.0779L71.315 93.8497L70.4229 92.9799C70.3986 92.9561 70.3825 92.9251 70.3777 92.8911C70.3646 92.8061 70.4238 92.7274 70.5088 92.7148Z" fill="#C8D0D7"/>
	</g>
	<rect x="14" y="36" width="35" height="29" rx="1" fill="#C8D0D7"/>
	<g clip-path="url(#clip12_40_185)">
		<path d="M29.1776 47.6609C29.1776 48.0704 29.0149 48.4631 28.7254 48.7526C28.4359 49.0422 28.0432 49.2048 27.6337 49.2048C27.2242 49.2048 26.8316 49.0422 26.542 48.7526C26.2525 48.4631 26.0898 48.0704 26.0898 47.6609C26.0898 47.2515 26.2525 46.8588 26.542 46.5693C26.8316 46.2797 27.2242 46.1171 27.6337 46.1171C28.0432 46.1171 28.4359 46.2797 28.7254 46.5693C29.0149 46.8588 29.1776 47.2515 29.1776 47.6609Z" fill="#E4EBF0"/>
		<path d="M25.0606 43.0293C24.5146 43.0293 23.991 43.2462 23.605 43.6322C23.2189 44.0183 23.0021 44.5419 23.0021 45.0878V55.3804C23.0021 55.9263 23.2189 56.4499 23.605 56.8359C23.991 57.222 24.5146 57.4389 25.0606 57.4389H37.4116C37.9576 57.4389 38.4812 57.222 38.8672 56.8359C39.2533 56.4499 39.4701 55.9263 39.4701 55.3804V45.0878C39.4701 44.5419 39.2533 44.0183 38.8672 43.6322C38.4812 43.2462 37.9576 43.0293 37.4116 43.0293H25.0606ZM37.4116 44.0586C37.6846 44.0586 37.9464 44.167 38.1394 44.36C38.3325 44.553 38.4409 44.8148 38.4409 45.0878V51.778L34.5534 49.774C34.4569 49.7257 34.3476 49.7089 34.241 49.7261C34.1344 49.7432 34.036 49.7935 33.9595 49.8697L30.141 53.6883L27.4032 51.8644C27.3043 51.7986 27.1857 51.769 27.0676 51.7806C26.9494 51.7923 26.8388 51.8444 26.7547 51.9282L24.0313 54.3511V45.0878C24.0313 44.8148 24.1398 44.553 24.3328 44.36C24.5258 44.167 24.7876 44.0586 25.0606 44.0586H37.4116Z" fill="#E4EBF0"/>
	</g>
	<rect x="14" y="15" width="34" height="4" fill="#E4EBF0"/>
	<rect x="14" y="24" width="97" height="2" fill="#E4EBF0"/>
	<rect x="14" y="29" width="85" height="2" fill="#E4EBF0"/>
	<defs>
		<clipPath id="clip0_40_185">
			<rect width="4.97297" height="4.97297" fill="white" transform="matrix(-1 0 0 1 54.4054 73)"/>
		</clipPath>
		<clipPath id="clip1_40_185">
			<rect width="4.97297" height="4.97297" fill="white" transform="matrix(-1 0 0 1 61.2432 73)"/>
		</clipPath>
		<clipPath id="clip2_40_185">
			<rect width="4.97297" height="4.97297" fill="white" transform="matrix(-1 0 0 1 68.0811 73)"/>
		</clipPath>
		<clipPath id="clip3_40_185">
			<rect width="4.97297" height="4.97297" fill="white" transform="matrix(-1 0 0 1 74.9189 73)"/>
		</clipPath>
		<clipPath id="clip4_40_185">
			<rect width="4.97297" height="4.97297" fill="white" transform="matrix(-1 0 0 1 54.4054 82)"/>
		</clipPath>
		<clipPath id="clip5_40_185">
			<rect width="4.97297" height="4.97297" fill="white" transform="matrix(-1 0 0 1 61.2432 82)"/>
		</clipPath>
		<clipPath id="clip6_40_185">
			<rect width="4.97297" height="4.97297" fill="white" transform="matrix(-1 0 0 1 68.0811 82)"/>
		</clipPath>
		<clipPath id="clip7_40_185">
			<rect width="4.97297" height="4.97297" fill="white" transform="matrix(-1 0 0 1 74.9189 82)"/>
		</clipPath>
		<clipPath id="clip8_40_185">
			<rect width="4.97297" height="4.97297" fill="white" transform="matrix(-1 0 0 1 54.4054 91)"/>
		</clipPath>
		<clipPath id="clip9_40_185">
			<rect width="4.97297" height="4.97297" fill="white" transform="matrix(-1 0 0 1 61.2432 91)"/>
		</clipPath>
		<clipPath id="clip10_40_185">
			<rect width="4.97297" height="4.97297" fill="white" transform="matrix(-1 0 0 1 68.0811 91)"/>
		</clipPath>
		<clipPath id="clip11_40_185">
			<rect width="4.97297" height="4.97297" fill="white" transform="matrix(-1 0 0 1 74.9189 91)"/>
		</clipPath>
		<clipPath id="clip12_40_185">
			<rect width="16.4681" height="16.4681" fill="white" transform="translate(23 42)"/>
		</clipPath>
	</defs>
</svg>
