<svg width="276" height="243" viewBox="0 0 276 243" fill="none" xmlns="http://www.w3.org/2000/svg">
<rect x="1" y="1" width="274" height="241" rx="7" fill="white"/>
<rect x="40" y="120" width="88" height="3" fill="#C8D0D7"/>
<rect x="148" y="120" width="88" height="3" fill="#C8D0D7"/>
<path d="M137.049 115.927C137.348 115.006 138.652 115.006 138.951 115.927L139.572 117.837C139.705 118.249 140.089 118.528 140.523 118.528H142.531C143.499 118.528 143.902 119.767 143.119 120.337L141.494 121.517C141.143 121.772 140.997 122.223 141.131 122.635L141.751 124.545C142.051 125.466 140.996 126.233 140.212 125.663L138.588 124.483C138.237 124.228 137.763 124.228 137.412 124.483L135.788 125.663C135.004 126.233 133.949 125.466 134.249 124.545L134.869 122.635C135.003 122.223 134.857 121.772 134.506 121.517L132.881 120.337C132.098 119.767 132.501 118.528 133.469 118.528H135.477C135.911 118.528 136.295 118.249 136.428 117.837L137.049 115.927Z" fill="#C8D0D7"/>
<rect x="40" y="65" width="196" height="8" fill="#E4EBF0"/>
<rect x="90" y="41" width="96" height="12" fill="#E4EBF0"/>
<rect x="66" y="81" width="144" height="8" fill="#E4EBF0"/>
<rect x="40" y="153" width="56" height="56" fill="#E4EBF0"/>
<rect x="110" y="153" width="56" height="56" fill="#E4EBF0"/>
<rect x="180" y="153" width="56" height="56" fill="#E4EBF0"/>
<rect x="1" y="1" width="274" height="241" rx="7" stroke="#E4EBF0" stroke-width="2"/>
</svg>
