<svg width="126" height="111" viewBox="0 0 126 111" fill="none" xmlns="http://www.w3.org/2000/svg">
	<rect x="0.5" y="0.5" width="124.157" height="109.336" rx="4.5" stroke="#E4EBF0"/>
	<path d="M23.1997 44C20.8732 44 19 45.8732 19 48.1997V62.8004C19 65.1268 20.8732 67 23.1997 67H31.1131V58.0084H28.7355V54.7712H31.1131V52.0054C31.1131 49.8325 32.5179 47.8374 35.7541 47.8374C37.0643 47.8374 38.0332 47.9632 38.0332 47.9632L37.957 50.9863C37.957 50.9863 36.9689 50.9769 35.8906 50.9769C34.7236 50.9769 34.5365 51.5146 34.5365 52.4073V54.7712H38.0497L37.8967 58.0085H34.5365V67H37.8003C40.1268 67 42 65.1268 42 62.8004V48.1997C42 45.8733 40.1268 44 37.8003 44H23.1996L23.1997 44Z" fill="#C8D0D7"/>
	<g clip-path="url(#clip0_40_196)">
		<path d="M70.1667 51.2174C69.6076 51.467 69.0037 51.6367 68.3548 51.7266C69.0336 51.3273 69.4978 50.7433 69.7474 49.9746C69.0985 50.3539 68.4297 50.6085 67.7409 50.7383C67.1319 50.0794 66.3683 49.75 65.4499 49.75C64.5814 49.75 63.8402 50.057 63.2262 50.6709C62.6123 51.2848 62.3053 52.026 62.3053 52.8945C62.3053 53.184 62.3303 53.4236 62.3802 53.6133C61.0924 53.5434 59.8845 53.219 58.7565 52.64C57.6285 52.061 56.6701 51.2873 55.8815 50.319C55.592 50.8181 55.4473 51.3472 55.4473 51.9062C55.4473 53.0443 55.9015 53.9178 56.8099 54.5267C56.3407 54.5167 55.8416 54.3869 55.3125 54.1374V54.1673C55.3125 54.916 55.5621 55.5824 56.0612 56.1663C56.5603 56.7503 57.1743 57.1122 57.903 57.252C57.6135 57.3318 57.3589 57.3717 57.1393 57.3717C57.0095 57.3717 56.8149 57.3518 56.5553 57.3118C56.765 57.9408 57.1368 58.4599 57.6709 58.8691C58.205 59.2784 58.8114 59.4881 59.4902 59.498C58.3322 60.3965 57.0295 60.8457 55.582 60.8457C55.3225 60.8457 55.0729 60.8307 54.8333 60.8008C56.3108 61.7391 57.918 62.2083 59.6549 62.2083C60.773 62.2083 61.8212 62.0311 62.7995 61.6768C63.7778 61.3224 64.6163 60.8482 65.3151 60.2542C66.0139 59.6603 66.6153 58.9765 67.1195 58.2028C67.6236 57.4291 67.9979 56.6206 68.2425 55.777C68.4871 54.9335 68.6094 54.0924 68.6094 53.2539C68.6094 53.0742 68.6044 52.9395 68.5944 52.8496C69.2233 52.4004 69.7474 51.8563 70.1667 51.2174ZM74 48.3125V62.6875C74 63.8754 73.5782 64.8912 72.7347 65.7347C71.8912 66.5782 70.8754 67 69.6875 67H55.3125C54.1246 67 53.1088 66.5782 52.2653 65.7347C51.4218 64.8912 51 63.8754 51 62.6875V48.3125C51 47.1246 51.4218 46.1088 52.2653 45.2653C53.1088 44.4218 54.1246 44 55.3125 44H69.6875C70.8754 44 71.8912 44.4218 72.7347 45.2653C73.5782 46.1088 74 47.1246 74 48.3125Z" fill="#C8D0D7"/>
	</g>
	<g clip-path="url(#clip1_40_196)">
		<path d="M101.688 44C102.875 44 103.891 44.4218 104.735 45.2653C105.578 46.1088 106 47.1246 106 48.3125V62.6875C106 63.8754 105.578 64.8912 104.735 65.7347C103.891 66.5782 102.875 67 101.688 67H90.8314C91.6799 65.7821 92.219 64.7339 92.4486 63.8555C92.5384 63.5161 92.803 62.4729 93.2422 60.7259C93.4518 61.1152 93.8187 61.4497 94.3428 61.7292C94.8669 62.0087 95.4284 62.1484 96.0273 62.1484C97.8342 62.1484 99.3091 61.4122 100.452 59.9398C101.595 58.4673 102.167 56.6031 102.167 54.347C102.167 53.5085 101.992 52.6974 101.643 51.9137C101.293 51.1301 100.812 50.4363 100.198 49.8324C99.5837 49.2284 98.8225 48.7442 97.9141 48.3799C97.0056 48.0155 96.0224 47.8333 94.9642 47.8333C93.926 47.8333 92.9552 47.9756 92.0518 48.2601C91.1483 48.5446 90.3847 48.9264 89.7607 49.4056C89.1368 49.8848 88.6003 50.4313 88.151 51.0452C87.7018 51.6592 87.3699 52.2981 87.1553 52.9619C86.9406 53.6258 86.8333 54.2871 86.8333 54.946C86.8333 55.9642 87.0305 56.8626 87.4248 57.6413C87.8191 58.4199 88.4006 58.969 89.1693 59.2884C89.299 59.3383 89.4163 59.3383 89.5212 59.2884C89.626 59.2385 89.6984 59.1437 89.7383 59.0039C89.8381 58.5647 89.913 58.2602 89.9629 58.0905C90.0228 57.8609 89.9679 57.6513 89.7982 57.4616C89.299 56.8427 89.0495 56.094 89.0495 55.2155C89.0495 53.7181 89.5661 52.4378 90.5993 51.3747C91.6325 50.3115 92.9826 49.7799 94.6497 49.7799C96.1372 49.7799 97.2976 50.1842 98.1312 50.9928C98.9647 51.8014 99.3815 52.8496 99.3815 54.1374C99.3815 55.8145 99.0446 57.242 98.3708 58.4199C97.6969 59.5979 96.8309 60.1868 95.7728 60.1868C95.1738 60.1868 94.6897 59.9697 94.3203 59.5355C93.951 59.1012 93.8362 58.5846 93.9759 57.9857C94.0558 57.6463 94.188 57.1846 94.3727 56.6006C94.5574 56.0166 94.7046 55.5075 94.8145 55.0732C94.9243 54.639 94.9792 54.2671 94.9792 53.9577C94.9792 53.4685 94.8469 53.0617 94.5824 52.7373C94.3178 52.4129 93.941 52.2507 93.4518 52.2507C92.8429 52.2507 92.3263 52.5327 91.902 53.0967C91.4778 53.6607 91.2656 54.357 91.2656 55.1855C91.2656 55.9043 91.3854 56.5082 91.625 56.9974L90.1576 63.1966C89.918 64.1949 89.883 65.4627 90.0527 67H87.3125C86.1246 67 85.1088 66.5782 84.2653 65.7347C83.4218 64.8912 83 63.8754 83 62.6875V48.3125C83 47.1246 83.4218 46.1088 84.2653 45.2653C85.1088 44.4218 86.1246 44 87.3125 44H101.688Z" fill="#C8D0D7"/>
	</g>
	<defs>
		<clipPath id="clip0_40_196">
			<rect width="23" height="23" fill="white" transform="translate(51 44)"/>
		</clipPath>
		<clipPath id="clip1_40_196">
			<rect width="23" height="23" fill="white" transform="translate(83 44)"/>
		</clipPath>
	</defs>
</svg>
