<svg width="126" height="111" viewBox="0 0 126 111" fill="none" xmlns="http://www.w3.org/2000/svg">
	<rect x="0.5" y="0.5" width="124.157" height="109.336" rx="4.5" stroke="#E4EBF0"/>
	<rect x="14" y="38" width="53" height="5" fill="#E4EBF0"/>
	<rect x="14" y="52" width="53" height="5" fill="#E4EBF0"/>
	<rect x="14" y="67" width="53" height="5" fill="#E4EBF0"/>
	<path d="M71.9055 38.7586L73.889 38.4703L74.7758 36.6727C74.8 36.6234 74.8398 36.5836 74.889 36.5594C75.0125 36.4984 75.1625 36.5492 75.2242 36.6727L76.1109 38.4703L78.0945 38.7586C78.1492 38.7664 78.1992 38.7922 78.2375 38.8313C78.2838 38.8788 78.3093 38.9428 78.3084 39.0092C78.3075 39.0755 78.2803 39.1388 78.2328 39.1852L76.7976 40.5844L77.1367 42.5602C77.1447 42.6061 77.1396 42.6534 77.122 42.6966C77.1045 42.7398 77.0752 42.7773 77.0374 42.8047C76.9997 42.8321 76.955 42.8484 76.9085 42.8517C76.862 42.855 76.8155 42.8452 76.7742 42.8234L75 41.8906L73.2258 42.8234C73.1773 42.8492 73.1211 42.8578 73.0672 42.8484C72.9312 42.825 72.8398 42.6961 72.8633 42.5602L73.2023 40.5844L71.7672 39.1852C71.7281 39.1469 71.7023 39.0969 71.6945 39.0422C71.6734 38.9055 71.7687 38.7789 71.9055 38.7586Z" fill="#C8D0D7"/>
	<path d="M82.9055 38.7586L84.889 38.4703L85.7758 36.6727C85.8 36.6234 85.8398 36.5836 85.889 36.5594C86.0125 36.4984 86.1625 36.5492 86.2242 36.6727L87.1109 38.4703L89.0945 38.7586C89.1492 38.7664 89.1992 38.7922 89.2375 38.8313C89.2838 38.8788 89.3093 38.9428 89.3084 39.0092C89.3075 39.0755 89.2803 39.1388 89.2328 39.1852L87.7976 40.5844L88.1367 42.5602C88.1447 42.6061 88.1396 42.6534 88.122 42.6966C88.1045 42.7398 88.0752 42.7773 88.0374 42.8047C87.9997 42.8321 87.955 42.8484 87.9085 42.8517C87.862 42.855 87.8155 42.8452 87.7742 42.8234L86 41.8906L84.2258 42.8234C84.1773 42.8492 84.1211 42.8578 84.0672 42.8484C83.9312 42.825 83.8398 42.6961 83.8633 42.5602L84.2023 40.5844L82.7672 39.1852C82.7281 39.1469 82.7023 39.0969 82.6945 39.0422C82.6734 38.9055 82.7687 38.7789 82.9055 38.7586Z" fill="#C8D0D7"/>
	<path d="M93.9055 38.7586L95.889 38.4703L96.7758 36.6727C96.8 36.6234 96.8398 36.5836 96.889 36.5594C97.0125 36.4984 97.1625 36.5492 97.2242 36.6727L98.1109 38.4703L100.095 38.7586C100.149 38.7664 100.199 38.7922 100.237 38.8313C100.284 38.8788 100.309 38.9428 100.308 39.0092C100.308 39.0755 100.28 39.1388 100.233 39.1852L98.7976 40.5844L99.1367 42.5602C99.1447 42.6061 99.1396 42.6534 99.122 42.6966C99.1045 42.7398 99.0752 42.7773 99.0374 42.8047C98.9997 42.8321 98.955 42.8484 98.9085 42.8517C98.862 42.855 98.8155 42.8452 98.7742 42.8234L97 41.8906L95.2258 42.8234C95.1773 42.8492 95.1211 42.8578 95.0672 42.8484C94.9312 42.825 94.8398 42.6961 94.8633 42.5602L95.2023 40.5844L93.7672 39.1852C93.7281 39.1469 93.7023 39.0969 93.6945 39.0422C93.6734 38.9055 93.7687 38.7789 93.9055 38.7586Z" fill="#C8D0D7"/>
	<path d="M104.905 38.7586L106.889 38.4703L107.776 36.6727C107.8 36.6234 107.84 36.5836 107.889 36.5594C108.012 36.4984 108.162 36.5492 108.224 36.6727L109.111 38.4703L111.095 38.7586C111.149 38.7664 111.199 38.7922 111.237 38.8313C111.284 38.8788 111.309 38.9428 111.308 39.0092C111.308 39.0755 111.28 39.1388 111.233 39.1852L109.798 40.5844L110.137 42.5602C110.145 42.6061 110.14 42.6534 110.122 42.6966C110.104 42.7398 110.075 42.7773 110.037 42.8047C110 42.8321 109.955 42.8484 109.909 42.8517C109.862 42.855 109.815 42.8452 109.774 42.8234L108 41.8906L106.226 42.8234C106.177 42.8492 106.121 42.8578 106.067 42.8484C105.931 42.825 105.84 42.6961 105.863 42.5602L106.202 40.5844L104.767 39.1852C104.728 39.1469 104.702 39.0969 104.695 39.0422C104.673 38.9055 104.769 38.7789 104.905 38.7586Z" fill="#C8D0D7"/>
	<path d="M71.9055 52.7586L73.889 52.4703L74.7758 50.6727C74.8 50.6234 74.8398 50.5836 74.889 50.5594C75.0125 50.4984 75.1625 50.5492 75.2242 50.6727L76.1109 52.4703L78.0945 52.7586C78.1492 52.7664 78.1992 52.7922 78.2375 52.8313C78.2838 52.8788 78.3093 52.9428 78.3084 53.0092C78.3075 53.0755 78.2803 53.1388 78.2328 53.1852L76.7976 54.5844L77.1367 56.5602C77.1447 56.6061 77.1396 56.6534 77.122 56.6966C77.1045 56.7398 77.0752 56.7773 77.0374 56.8047C76.9997 56.8321 76.955 56.8484 76.9085 56.8517C76.862 56.855 76.8155 56.8452 76.7742 56.8234L75 55.8906L73.2258 56.8234C73.1773 56.8492 73.1211 56.8578 73.0672 56.8484C72.9312 56.825 72.8398 56.6961 72.8633 56.5602L73.2023 54.5844L71.7672 53.1852C71.7281 53.1469 71.7023 53.0969 71.6945 53.0422C71.6734 52.9055 71.7687 52.7789 71.9055 52.7586Z" fill="#C8D0D7"/>
	<path d="M82.9055 52.7586L84.889 52.4703L85.7758 50.6727C85.8 50.6234 85.8398 50.5836 85.889 50.5594C86.0125 50.4984 86.1625 50.5492 86.2242 50.6727L87.1109 52.4703L89.0945 52.7586C89.1492 52.7664 89.1992 52.7922 89.2375 52.8313C89.2838 52.8788 89.3093 52.9428 89.3084 53.0092C89.3075 53.0755 89.2803 53.1388 89.2328 53.1852L87.7976 54.5844L88.1367 56.5602C88.1447 56.6061 88.1396 56.6534 88.122 56.6966C88.1045 56.7398 88.0752 56.7773 88.0374 56.8047C87.9997 56.8321 87.955 56.8484 87.9085 56.8517C87.862 56.855 87.8155 56.8452 87.7742 56.8234L86 55.8906L84.2258 56.8234C84.1773 56.8492 84.1211 56.8578 84.0672 56.8484C83.9312 56.825 83.8398 56.6961 83.8633 56.5602L84.2023 54.5844L82.7672 53.1852C82.7281 53.1469 82.7023 53.0969 82.6945 53.0422C82.6734 52.9055 82.7687 52.7789 82.9055 52.7586Z" fill="#C8D0D7"/>
	<path d="M93.9055 52.7586L95.889 52.4703L96.7758 50.6727C96.8 50.6234 96.8398 50.5836 96.889 50.5594C97.0125 50.4984 97.1625 50.5492 97.2242 50.6727L98.1109 52.4703L100.095 52.7586C100.149 52.7664 100.199 52.7922 100.237 52.8313C100.284 52.8788 100.309 52.9428 100.308 53.0092C100.308 53.0755 100.28 53.1388 100.233 53.1852L98.7976 54.5844L99.1367 56.5602C99.1447 56.6061 99.1396 56.6534 99.122 56.6966C99.1045 56.7398 99.0752 56.7773 99.0374 56.8047C98.9997 56.8321 98.955 56.8484 98.9085 56.8517C98.862 56.855 98.8155 56.8452 98.7742 56.8234L97 55.8906L95.2258 56.8234C95.1773 56.8492 95.1211 56.8578 95.0672 56.8484C94.9312 56.825 94.8398 56.6961 94.8633 56.5602L95.2023 54.5844L93.7672 53.1852C93.7281 53.1469 93.7023 53.0969 93.6945 53.0422C93.6734 52.9055 93.7687 52.7789 93.9055 52.7586Z" fill="#C8D0D7"/>
	<path d="M104.905 52.7586L106.889 52.4703L107.776 50.6727C107.8 50.6234 107.84 50.5836 107.889 50.5594C108.012 50.4984 108.162 50.5492 108.224 50.6727L109.111 52.4703L111.095 52.7586C111.149 52.7664 111.199 52.7922 111.237 52.8313C111.284 52.8788 111.309 52.9428 111.308 53.0092C111.308 53.0755 111.28 53.1388 111.233 53.1852L109.798 54.5844L110.137 56.5602C110.145 56.6061 110.14 56.6534 110.122 56.6966C110.104 56.7398 110.075 56.7773 110.037 56.8047C110 56.8321 109.955 56.8484 109.909 56.8517C109.862 56.855 109.815 56.8452 109.774 56.8234L108 55.8906L106.226 56.8234C106.177 56.8492 106.121 56.8578 106.067 56.8484C105.931 56.825 105.84 56.6961 105.863 56.5602L106.202 54.5844L104.767 53.1852C104.728 53.1469 104.702 53.0969 104.695 53.0422C104.673 52.9055 104.769 52.7789 104.905 52.7586Z" fill="#C8D0D7"/>
	<path d="M71.9055 67.7586L73.889 67.4703L74.7758 65.6727C74.8 65.6234 74.8398 65.5836 74.889 65.5594C75.0125 65.4984 75.1625 65.5492 75.2242 65.6727L76.1109 67.4703L78.0945 67.7586C78.1492 67.7664 78.1992 67.7922 78.2375 67.8313C78.2838 67.8788 78.3093 67.9428 78.3084 68.0092C78.3075 68.0755 78.2803 68.1388 78.2328 68.1852L76.7976 69.5844L77.1367 71.5602C77.1447 71.6061 77.1396 71.6534 77.122 71.6966C77.1045 71.7398 77.0752 71.7773 77.0374 71.8047C76.9997 71.8321 76.955 71.8484 76.9085 71.8517C76.862 71.855 76.8155 71.8452 76.7742 71.8234L75 70.8906L73.2258 71.8234C73.1773 71.8492 73.1211 71.8578 73.0672 71.8484C72.9312 71.825 72.8398 71.6961 72.8633 71.5602L73.2023 69.5844L71.7672 68.1852C71.7281 68.1469 71.7023 68.0969 71.6945 68.0422C71.6734 67.9055 71.7687 67.7789 71.9055 67.7586Z" fill="#C8D0D7"/>
	<path d="M82.9055 67.7586L84.889 67.4703L85.7758 65.6727C85.8 65.6234 85.8398 65.5836 85.889 65.5594C86.0125 65.4984 86.1625 65.5492 86.2242 65.6727L87.1109 67.4703L89.0945 67.7586C89.1492 67.7664 89.1992 67.7922 89.2375 67.8313C89.2838 67.8788 89.3093 67.9428 89.3084 68.0092C89.3075 68.0755 89.2803 68.1388 89.2328 68.1852L87.7976 69.5844L88.1367 71.5602C88.1447 71.6061 88.1396 71.6534 88.122 71.6966C88.1045 71.7398 88.0752 71.7773 88.0374 71.8047C87.9997 71.8321 87.955 71.8484 87.9085 71.8517C87.862 71.855 87.8155 71.8452 87.7742 71.8234L86 70.8906L84.2258 71.8234C84.1773 71.8492 84.1211 71.8578 84.0672 71.8484C83.9312 71.825 83.8398 71.6961 83.8633 71.5602L84.2023 69.5844L82.7672 68.1852C82.7281 68.1469 82.7023 68.0969 82.6945 68.0422C82.6734 67.9055 82.7687 67.7789 82.9055 67.7586Z" fill="#C8D0D7"/>
	<path d="M93.9055 67.7586L95.889 67.4703L96.7758 65.6727C96.8 65.6234 96.8398 65.5836 96.889 65.5594C97.0125 65.4984 97.1625 65.5492 97.2242 65.6727L98.1109 67.4703L100.095 67.7586C100.149 67.7664 100.199 67.7922 100.237 67.8313C100.284 67.8788 100.309 67.9428 100.308 68.0092C100.308 68.0755 100.28 68.1388 100.233 68.1852L98.7976 69.5844L99.1367 71.5602C99.1447 71.6061 99.1396 71.6534 99.122 71.6966C99.1045 71.7398 99.0752 71.7773 99.0374 71.8047C98.9997 71.8321 98.955 71.8484 98.9085 71.8517C98.862 71.855 98.8155 71.8452 98.7742 71.8234L97 70.8906L95.2258 71.8234C95.1773 71.8492 95.1211 71.8578 95.0672 71.8484C94.9312 71.825 94.8398 71.6961 94.8633 71.5602L95.2023 69.5844L93.7672 68.1852C93.7281 68.1469 93.7023 68.0969 93.6945 68.0422C93.6734 67.9055 93.7687 67.7789 93.9055 67.7586Z" fill="#C8D0D7"/>
	<path d="M104.905 67.7586L106.889 67.4703L107.776 65.6727C107.8 65.6234 107.84 65.5836 107.889 65.5594C108.012 65.4984 108.162 65.5492 108.224 65.6727L109.111 67.4703L111.095 67.7586C111.149 67.7664 111.199 67.7922 111.237 67.8313C111.284 67.8788 111.309 67.9428 111.308 68.0092C111.308 68.0755 111.28 68.1388 111.233 68.1852L109.798 69.5844L110.137 71.5602C110.145 71.6061 110.14 71.6534 110.122 71.6966C110.104 71.7398 110.075 71.7773 110.037 71.8047C110 71.8321 109.955 71.8484 109.909 71.8517C109.862 71.855 109.815 71.8452 109.774 71.8234L108 70.8906L106.226 71.8234C106.177 71.8492 106.121 71.8578 106.067 71.8484C105.931 71.825 105.84 71.6961 105.863 71.5602L106.202 69.5844L104.767 68.1852C104.728 68.1469 104.702 68.0969 104.695 68.0422C104.673 67.9055 104.769 67.7789 104.905 67.7586Z" fill="#C8D0D7"/>
</svg>
