<svg width="126" height="111" viewBox="0 0 126 111" fill="none" xmlns="http://www.w3.org/2000/svg">
	<rect x="0.5" y="0.5" width="124.157" height="109.336" rx="4.5" stroke="#E4EBF0"/>
	<rect x="9" y="23" width="52" height="19" rx="2" fill="#C8D0D7"/>
	<rect x="9" y="45" width="52" height="19" rx="2" fill="#C8D0D7"/>
	<rect x="9" y="67" width="52" height="19" rx="2" fill="#C8D0D7"/>
	<rect x="64" y="23" width="52" height="19" rx="2" fill="#C8D0D7"/>
	<rect x="64" y="45" width="52" height="19" rx="2" fill="#C8D0D7"/>
	<rect x="64" y="67" width="52" height="19" rx="2" fill="#C8D0D7"/>
	<rect x="15" y="29" width="41" height="3" fill="#E4EBF0"/>
	<rect x="15" y="51" width="41" height="3" fill="#E4EBF0"/>
	<rect x="15" y="73" width="41" height="3" fill="#E4EBF0"/>
	<rect x="70" y="29" width="41" height="3" fill="#E4EBF0"/>
	<rect x="70" y="51" width="41" height="3" fill="#E4EBF0"/>
	<rect x="70" y="73" width="41" height="3" fill="#E4EBF0"/>
	<rect x="20" y="35" width="31" height="2" fill="#E4EBF0"/>
	<rect x="20" y="57" width="31" height="2" fill="#E4EBF0"/>
	<rect x="20" y="79" width="31" height="2" fill="#E4EBF0"/>
	<rect x="75" y="35" width="31" height="2" fill="#E4EBF0"/>
	<rect x="75" y="57" width="31" height="2" fill="#E4EBF0"/>
	<rect x="75" y="79" width="31" height="2" fill="#E4EBF0"/>
</svg>
