<svg width="126" height="111" viewBox="0 0 126 111" fill="none" xmlns="http://www.w3.org/2000/svg">
	<rect x="0.5" y="0.5" width="124.157" height="109.336" rx="4.5" stroke="#E4EBF0"/>
	<rect x="34" y="25" width="58" height="8" fill="#C8D0D7"/>
	<rect x="15" y="51" width="96" height="3" fill="#E4EBF0"/>
	<rect x="15" y="59" width="96" height="3" fill="#E4EBF0"/>
	<rect x="28" y="67" width="68" height="3" fill="#E4EBF0"/>
	<rect x="49" y="37" width="28" height="3" fill="#E4EBF0"/>
	<g clip-path="url(#clip0_40_467)">
		<path d="M47.6433 77C46.733 77 46 77.733 46 78.6433V84.3567C46 85.267 46.733 86 47.6433 86H50.7399V82.4816H49.8095V81.2148H50.7399V80.1326C50.7399 79.2823 51.2896 78.5016 52.5559 78.5016C53.0687 78.5016 53.4478 78.5508 53.4478 78.5508L53.418 79.7338C53.418 79.7338 53.0313 79.7301 52.6094 79.7301C52.1527 79.7301 52.0795 79.9405 52.0795 80.2898V81.2148H53.4542L53.3943 82.4816H52.0795V86H53.3567C54.267 86 55 85.267 55 84.3567V78.6434C55 77.733 54.267 77 53.3567 77H47.6433L47.6433 77Z" fill="#E4EBF0"/>
	</g>
	<g clip-path="url(#clip1_40_467)">
		<path d="M66.5 79.8242C66.2813 79.9219 66.0449 79.9883 65.791 80.0234C66.0566 79.8672 66.2383 79.6387 66.3359 79.3379C66.082 79.4863 65.8203 79.5859 65.5508 79.6367C65.3125 79.3789 65.0137 79.25 64.6543 79.25C64.3145 79.25 64.0244 79.3701 63.7842 79.6104C63.5439 79.8506 63.4238 80.1406 63.4238 80.4805C63.4238 80.5938 63.4336 80.6875 63.4531 80.7617C62.9492 80.7344 62.4766 80.6074 62.0352 80.3809C61.5937 80.1543 61.2188 79.8516 60.9102 79.4727C60.7969 79.668 60.7402 79.875 60.7402 80.0938C60.7402 80.5391 60.918 80.8809 61.2734 81.1191C61.0898 81.1152 60.8945 81.0645 60.6875 80.9668V80.9785C60.6875 81.2715 60.7852 81.5322 60.9805 81.7607C61.1758 81.9893 61.416 82.1309 61.7012 82.1855C61.5879 82.2168 61.4883 82.2324 61.4023 82.2324C61.3516 82.2324 61.2754 82.2246 61.1738 82.209C61.2559 82.4551 61.4014 82.6582 61.6104 82.8184C61.8193 82.9785 62.0566 83.0605 62.3223 83.0645C61.8691 83.416 61.3594 83.5918 60.793 83.5918C60.6914 83.5918 60.5938 83.5859 60.5 83.5742C61.0781 83.9414 61.707 84.125 62.3867 84.125C62.8242 84.125 63.2344 84.0557 63.6172 83.917C64 83.7783 64.3281 83.5928 64.6016 83.3604C64.875 83.1279 65.1104 82.8604 65.3076 82.5576C65.5049 82.2549 65.6514 81.9385 65.7471 81.6084C65.8428 81.2783 65.8906 80.9492 65.8906 80.6211C65.8906 80.5508 65.8887 80.498 65.8848 80.4629C66.1309 80.2871 66.3359 80.0742 66.5 79.8242ZM68 78.6875V84.3125C68 84.7773 67.835 85.1748 67.5049 85.5049C67.1748 85.835 66.7773 86 66.3125 86H60.6875C60.2227 86 59.8252 85.835 59.4951 85.5049C59.165 85.1748 59 84.7773 59 84.3125V78.6875C59 78.2227 59.165 77.8252 59.4951 77.4951C59.8252 77.165 60.2227 77 60.6875 77H66.3125C66.7773 77 67.1748 77.165 67.5049 77.4951C67.835 77.8252 68 78.2227 68 78.6875Z" fill="#E4EBF0"/>
	</g>
	<g clip-path="url(#clip2_40_467)">
		<path d="M79.3125 77C79.7773 77 80.1748 77.165 80.5049 77.4951C80.835 77.8252 81 78.2227 81 78.6875V84.3125C81 84.7773 80.835 85.1748 80.5049 85.5049C80.1748 85.835 79.7773 86 79.3125 86H75.0645C75.3965 85.5234 75.6074 85.1133 75.6973 84.7695C75.7324 84.6367 75.8359 84.2285 76.0078 83.5449C76.0898 83.6973 76.2334 83.8281 76.4385 83.9375C76.6436 84.0469 76.8633 84.1016 77.0977 84.1016C77.8047 84.1016 78.3818 83.8135 78.8291 83.2373C79.2764 82.6611 79.5 81.9316 79.5 81.0488C79.5 80.7207 79.4316 80.4033 79.2949 80.0967C79.1582 79.79 78.9697 79.5186 78.7295 79.2822C78.4893 79.0459 78.1914 78.8564 77.8359 78.7139C77.4805 78.5713 77.0957 78.5 76.6816 78.5C76.2754 78.5 75.8955 78.5557 75.542 78.667C75.1885 78.7783 74.8896 78.9277 74.6455 79.1152C74.4014 79.3027 74.1914 79.5166 74.0156 79.7568C73.8398 79.9971 73.71 80.2471 73.626 80.5068C73.542 80.7666 73.5 81.0254 73.5 81.2832C73.5 81.6816 73.5771 82.0332 73.7314 82.3379C73.8857 82.6426 74.1133 82.8574 74.4141 82.9824C74.4648 83.002 74.5107 83.002 74.5518 82.9824C74.5928 82.9629 74.6211 82.9258 74.6367 82.8711C74.6758 82.6992 74.7051 82.5801 74.7246 82.5137C74.748 82.4238 74.7266 82.3418 74.6602 82.2676C74.4648 82.0254 74.3672 81.7324 74.3672 81.3887C74.3672 80.8027 74.5693 80.3018 74.9736 79.8857C75.3779 79.4697 75.9062 79.2617 76.5586 79.2617C77.1406 79.2617 77.5947 79.4199 77.9209 79.7363C78.2471 80.0527 78.4102 80.4629 78.4102 80.9668C78.4102 81.623 78.2783 82.1816 78.0146 82.6426C77.751 83.1035 77.4121 83.334 76.998 83.334C76.7637 83.334 76.5742 83.249 76.4297 83.0791C76.2852 82.9092 76.2402 82.707 76.2949 82.4727C76.3262 82.3398 76.3779 82.1592 76.4502 81.9307C76.5225 81.7021 76.5801 81.5029 76.623 81.333C76.666 81.1631 76.6875 81.0176 76.6875 80.8965C76.6875 80.7051 76.6357 80.5459 76.5322 80.4189C76.4287 80.292 76.2813 80.2285 76.0898 80.2285C75.8516 80.2285 75.6494 80.3389 75.4834 80.5596C75.3174 80.7803 75.2344 81.0527 75.2344 81.377C75.2344 81.6582 75.2812 81.8945 75.375 82.0859L74.8008 84.5117C74.707 84.9023 74.6934 85.3984 74.7598 86H73.6875C73.2227 86 72.8252 85.835 72.4951 85.5049C72.165 85.1748 72 84.7773 72 84.3125V78.6875C72 78.2227 72.165 77.8252 72.4951 77.4951C72.8252 77.165 73.2227 77 73.6875 77H79.3125Z" fill="#E4EBF0"/>
	</g>
	<defs>
		<clipPath id="clip0_40_467">
			<rect width="9" height="9" fill="white" transform="translate(46 77)"/>
		</clipPath>
		<clipPath id="clip1_40_467">
			<rect width="9" height="9" fill="white" transform="translate(59 77)"/>
		</clipPath>
		<clipPath id="clip2_40_467">
			<rect width="9" height="9" fill="white" transform="translate(72 77)"/>
		</clipPath>
	</defs>
</svg>
