<svg width="126" height="111" viewBox="0 0 126 111" fill="none" xmlns="http://www.w3.org/2000/svg">
	<rect x="0.5" y="0.5" width="124.157" height="109.336" rx="4.5" stroke="#E4EBF0"/>
	<rect x="44" y="59" width="38" height="5" fill="#C8D0D7"/>
	<rect x="14" y="39" width="98" height="3" fill="#E4EBF0"/>
	<rect x="14" y="32" width="98" height="3" fill="#E4EBF0"/>
	<rect x="24" y="47" width="78" height="3" fill="#E4EBF0"/>
	<rect x="51" y="68" width="24" height="2" fill="#E4EBF0"/>
	<g clip-path="url(#clip0_40_503)">
		<path d="M112.295 57.295L114.585 55L112.295 52.705L113 52L116 55L113 58L112.295 57.295Z" fill="#C8D0D7"/>
	</g>
	<g clip-path="url(#clip1_40_503)">
		<path d="M13.705 57.295L11.415 55L13.705 52.705L13 52L9.99999 55L13 58L13.705 57.295Z" fill="#C8D0D7"/>
	</g>
	<circle cx="58.5" cy="77.5" r="1.5" fill="#C8D0D7"/>
	<circle cx="63.5" cy="77.5" r="1.5" fill="#E4EBF0"/>
	<circle cx="68.5" cy="77.5" r="1.5" fill="#E4EBF0"/>
	<defs>
		<clipPath id="clip0_40_503">
			<rect width="12" height="12" fill="white" transform="translate(108 49)"/>
		</clipPath>
		<clipPath id="clip1_40_503">
			<rect width="12" height="12" fill="white" transform="matrix(-1 0 0 1 18 49)"/>
		</clipPath>
	</defs>
</svg>
