<svg width="71" height="71" viewBox="0 0 71 71" fill="#000000" xmlns="http://www.w3.org/2000/svg">
<path d="M35.292 0C28.3119 0 21.4885 2.08204 15.6848 5.98283C9.88107 9.88362 5.35762 15.428 2.68645 21.9147C0.0152817 28.4015 -0.683625 35.5394 0.678124 42.4257C2.03987 49.312 5.40111 55.6375 10.3368 60.6023C15.2725 65.5671 21.5609 68.9481 28.4068 70.3179C35.2528 71.6876 42.3489 70.9846 48.7976 68.2977C55.2464 65.6108 60.7583 61.0607 64.6362 55.2227C68.5141 49.3848 70.584 42.5212 70.584 35.5C70.58 26.0861 66.8604 17.0588 60.2428 10.4021C53.6251 3.74548 44.6508 0.00401876 35.292 0V0ZM48.5887 40.944C48.5887 41.035 48.5887 41.126 48.5887 41.217V41.4748V41.6416C48.4098 42.6715 48.0307 43.6558 47.4731 44.538L47.1414 45.0081L46.659 45.5692C46.4943 45.781 46.3073 45.9742 46.1012 46.1454V46.2213L45.9957 46.2971L45.7846 46.4639C45.7145 46.5265 45.6388 46.5823 45.5585 46.6307L45.3323 46.7824L28.9753 57.6856C28.8417 57.7759 28.684 57.8235 28.523 57.8221H28.3572C28.2497 57.7996 28.1477 57.7558 28.0571 57.6933C27.9665 57.6309 27.8892 57.5509 27.8296 57.4582C27.8296 57.4582 27.4527 56.7909 27.4225 56.7454V56.5938V56.5179V56.4269V56.3208V56.1995C26.7754 54.513 26.7216 52.6545 27.2701 50.933C27.8187 49.2115 28.9365 47.7307 30.4376 46.7369L38.0659 41.6568C38.1849 41.5771 38.2779 41.4638 38.3329 41.3311C38.388 41.1984 38.4027 41.0522 38.3753 40.9111C38.3479 40.77 38.2796 40.6402 38.1789 40.5381C38.0782 40.436 37.9497 40.3662 37.8096 40.3375L28.8547 38.5177H28.5984H28.523H28.2818H28.0255H27.92H27.7843H27.709L27.4678 38.4267H27.3924H27.2416L27.0004 38.3054L26.7592 38.1841L26.533 38.0476L26.3069 37.9111C25.5952 37.4647 24.959 36.9067 24.4225 36.2582L24.2265 35.9853L24.0004 35.6365C23.421 34.7714 23.0198 33.7984 22.8205 32.7748C22.6211 31.7512 22.6276 30.6979 22.8395 29.6769C22.9971 28.975 23.2455 28.2969 23.5782 27.66C23.6687 27.4932 23.7441 27.3415 23.8345 27.205L23.9702 26.9927C24.067 26.8303 24.1727 26.6733 24.2868 26.5226L24.4225 26.3558L24.5883 26.1587L24.7541 25.9767L24.8597 25.8706L25.0406 25.6886L25.1913 25.5521L25.3572 25.4156L25.5381 25.264H25.6134L25.734 25.1578H25.8094L26.0054 25.0214L42.272 14.1788C42.3763 14.1091 42.4935 14.0612 42.6166 14.038C42.7396 14.0147 42.8661 14.0166 42.9884 14.0435C43.1108 14.0704 43.2265 14.1217 43.3287 14.1944C43.431 14.2672 43.5176 14.3598 43.5836 14.4669L43.7192 14.6944L43.8248 14.9067C43.8248 14.9825 43.9002 15.0432 43.9303 15.1038C43.9303 15.1038 43.9303 15.1038 43.9303 15.1948C43.94 15.2295 43.94 15.2662 43.9303 15.3009V15.3009L44.0208 15.5284C44.0289 15.5684 44.0289 15.6097 44.0208 15.6497C44.0208 15.6497 44.0208 15.6497 44.0208 15.7407C44.6198 17.3996 44.6483 19.2127 44.1017 20.8897C43.555 22.5668 42.4648 24.011 41.0056 24.991L33.4678 30.0256C33.3488 30.1053 33.2559 30.2186 33.2008 30.3513C33.1457 30.484 33.131 30.6302 33.1584 30.7713C33.1858 30.9124 33.2542 31.0422 33.3549 31.1443C33.4555 31.2464 33.584 31.3162 33.7241 31.3449L42.6036 33.1495C44.3808 33.5188 45.9773 34.4922 47.1249 35.9061C48.2726 37.3201 48.9012 39.0884 48.9053 40.9137C48.6188 40.4285 48.5887 40.9137 48.5887 40.9137V40.944Z" fill="white"/>
</svg>
