<svg width="25" height="20" viewBox="0 0 25 20" fill="none" xmlns="http://www.w3.org/2000/svg">
<path d="M1 6C1 3.23858 3.23858 1 6 1H19C21.7614 1 24 3.23858 24 6V14C24 16.7614 21.7614 19 19 19H6C3.23858 19 1 16.7614 1 14V6Z" stroke="url(#paint0_linear_25352_52655)" stroke-width="2"/>
<path d="M12.732 14L9.516 5.6H11.16L14.472 14H12.732ZM6.096 14L9.408 5.6H11.052L7.836 14H6.096ZM7.656 12.152V10.7H12.924V12.152H7.656ZM15.4784 14V5.6H17.1224V14H15.4784Z" fill="url(#paint1_linear_25352_52655)"/>
<defs>
<linearGradient id="paint0_linear_25352_52655" x1="25" y1="20" x2="5.4878" y2="-4.39024" gradientUnits="userSpaceOnUse">
<stop stop-color="#FE5BE4"/>
<stop offset="1" stop-color="#5A03EF"/>
</linearGradient>
<linearGradient id="paint1_linear_25352_52655" x1="19" y1="14" x2="11.8584" y2="2.39485" gradientUnits="userSpaceOnUse">
<stop stop-color="#FE5BE4"/>
<stop offset="1" stop-color="#5A03EF"/>
</linearGradient>
</defs>
</svg>
