<svg width="42" height="42" viewBox="0 0 42 42" fill="none" xmlns="http://www.w3.org/2000/svg">
<path d="M26.1437 10.7151L31.2866 15.858M10.7151 36.4294L36.4294 10.7151L31.2866 5.57227L5.57227 31.2866L10.7151 36.4294ZM15.858 5.57227C15.858 6.48158 16.2192 7.35365 16.8622 7.99663C17.5052 8.63961 18.3772 9.00084 19.2866 9.00084C18.3772 9.00084 17.5052 9.36206 16.8622 10.005C16.2192 10.648 15.858 11.5201 15.858 12.4294C15.858 11.5201 15.4968 10.648 14.8538 10.005C14.2108 9.36206 13.3387 9.00084 12.4294 9.00084C13.3387 9.00084 14.2108 8.63961 14.8538 7.99663C15.4968 7.35365 15.858 6.48158 15.858 5.57227ZM33.0008 22.7151C33.0008 23.6244 33.3621 24.4965 34.005 25.1395C34.648 25.7825 35.5201 26.1437 36.4294 26.1437C35.5201 26.1437 34.648 26.5049 34.005 27.1479C33.3621 27.7909 33.0008 28.663 33.0008 29.5723C33.0008 28.663 32.6396 27.7909 31.9966 27.1479C31.3536 26.5049 30.4816 26.1437 29.5723 26.1437C30.4816 26.1437 31.3536 25.7825 31.9966 25.1395C32.6396 24.4965 33.0008 23.6244 33.0008 22.7151Z" stroke="url(#paint0_linear_16917_27468)" stroke-width="3.42857" stroke-linecap="round" stroke-linejoin="round"/>
<defs>
<linearGradient id="paint0_linear_16917_27468" x1="21.0008" y1="5.57227" x2="21.0008" y2="36.4294" gradientUnits="userSpaceOnUse">
<stop stop-color="#B809A7"/>
<stop offset="0.46875" stop-color="#E90B76"/>
<stop offset="1" stop-color="#FC8536"/>
</linearGradient>
</defs>
</svg>
