<svg width="84" height="84" viewBox="0 0 84 84" fill="none" xmlns="http://www.w3.org/2000/svg">
<path d="M6.73497 41.9998C6.73497 43.6228 5.41924 44.9386 3.7962 44.9386C2.17316 44.9386 0.857422 43.6228 0.857422 41.9998C0.857422 40.3768 2.17316 39.061 3.7962 39.061C5.41924 39.061 6.73497 40.3768 6.73497 41.9998Z" fill="url(#paint0_angular_16917_27467)"/>
<path d="M83.1431 41.9998C83.1431 43.6228 81.8274 44.9386 80.2044 44.9386C78.5813 44.9386 77.2656 43.6228 77.2656 41.9998C77.2656 40.3768 78.5813 39.061 80.2044 39.061C81.8274 39.061 83.1431 40.3768 83.1431 41.9998Z" fill="url(#paint1_angular_16917_27467)"/>
<path d="M42.0003 6.73448C40.3772 6.73448 39.0615 5.41875 39.0615 3.79571C39.0615 2.17267 40.3772 0.856934 42.0003 0.856934C43.6233 0.856934 44.9391 2.17267 44.9391 3.79571C44.9391 5.41875 43.6233 6.73448 42.0003 6.73448Z" fill="url(#paint2_angular_16917_27467)"/>
<path d="M42.0003 83.1426C40.3772 83.1426 39.0615 81.8269 39.0615 80.2039C39.0615 78.5808 40.3772 77.2651 42.0003 77.2651C43.6233 77.2651 44.9391 78.5808 44.9391 80.2039C44.9391 81.8269 43.6233 83.1426 42.0003 83.1426Z" fill="url(#paint3_angular_16917_27467)"/>
<path d="M24.3695 11.459C22.9639 12.2706 21.1666 11.789 20.3551 10.3834C19.5436 8.97778 20.0252 7.18045 21.4307 6.36893C22.8363 5.55741 24.6337 6.039 25.4452 7.4446C26.2567 8.85019 25.7751 10.6475 24.3695 11.459Z" fill="url(#paint4_angular_16917_27467)"/>
<path d="M62.5736 77.6304C61.168 78.442 59.3707 77.9604 58.5592 76.5548C57.7476 75.1492 58.2292 73.3519 59.6348 72.5403C61.0404 71.7288 62.8377 72.2104 63.6493 73.616C64.4608 75.0216 63.9792 76.8189 62.5736 77.6304Z" fill="url(#paint5_angular_16917_27467)"/>
<path d="M72.5428 24.367C71.7313 22.9614 72.2129 21.1641 73.6185 20.3526C75.0241 19.5411 76.8214 20.0227 77.6329 21.4283C78.4445 22.8339 77.9629 24.6312 76.5573 25.4427C75.1517 26.2542 73.3543 25.7726 72.5428 24.367Z" fill="url(#paint6_angular_16917_27467)"/>
<path d="M6.37141 62.5711C5.55989 61.1655 6.04148 59.3682 7.44708 58.5567C8.85267 57.7451 10.65 58.2267 11.4615 59.6323C12.273 61.0379 11.7914 62.8353 10.3859 63.6468C8.98026 64.4583 7.18293 63.9767 6.37141 62.5711Z" fill="url(#paint7_angular_16917_27467)"/>
<path d="M11.4606 24.367C10.6491 25.7726 8.85176 26.2542 7.44616 25.4427C6.04057 24.6312 5.55898 22.8339 6.3705 21.4283C7.18202 20.0227 8.97934 19.5411 10.3849 20.3526C11.7905 21.1641 12.2721 22.9614 11.4606 24.367Z" fill="url(#paint8_angular_16917_27467)"/>
<path d="M77.632 62.5711C76.8205 63.9767 75.0232 64.4583 73.6176 63.6468C72.212 62.8353 71.7304 61.0379 72.5419 59.6323C73.3534 58.2267 75.1507 57.7452 76.5563 58.5567C77.9619 59.3682 78.4435 61.1655 77.632 62.5711Z" fill="url(#paint9_angular_16917_27467)"/>
<path d="M59.6339 11.459C58.2283 10.6475 57.7467 8.85019 58.5582 7.4446C59.3698 6.039 61.1671 5.55741 62.5727 6.36893C63.9783 7.18045 64.4599 8.97778 63.6483 10.3834C62.8368 11.789 61.0395 12.2706 59.6339 11.459Z" fill="url(#paint10_angular_16917_27467)"/>
<path d="M21.4298 77.6304C20.0242 76.8189 19.5426 75.0216 20.3542 73.616C21.1657 72.2104 22.963 71.7288 24.3686 72.5403C25.7742 73.3519 26.2558 75.1492 25.4443 76.5548C24.6327 77.9604 22.8354 78.442 21.4298 77.6304Z" fill="url(#paint11_angular_16917_27467)"/>
<defs>
<radialGradient id="paint0_angular_16917_27467" cx="0" cy="0" r="1" gradientUnits="userSpaceOnUse" gradientTransform="translate(42.0003 41.9998) rotate(98.2971) scale(41.5781)">
<stop stop-color="#B809A7" stop-opacity="0"/>
<stop offset="0.46875" stop-color="#E90B76"/>
<stop offset="1" stop-color="#FC8536"/>
</radialGradient>
<radialGradient id="paint1_angular_16917_27467" cx="0" cy="0" r="1" gradientUnits="userSpaceOnUse" gradientTransform="translate(42.0003 41.9998) rotate(98.2971) scale(41.5781)">
<stop stop-color="#B809A7" stop-opacity="0"/>
<stop offset="0.46875" stop-color="#E90B76"/>
<stop offset="1" stop-color="#FC8536"/>
</radialGradient>
<radialGradient id="paint2_angular_16917_27467" cx="0" cy="0" r="1" gradientUnits="userSpaceOnUse" gradientTransform="translate(42.0003 41.9998) rotate(98.2971) scale(41.5781)">
<stop stop-color="#B809A7" stop-opacity="0"/>
<stop offset="0.46875" stop-color="#E90B76"/>
<stop offset="1" stop-color="#FC8536"/>
</radialGradient>
<radialGradient id="paint3_angular_16917_27467" cx="0" cy="0" r="1" gradientUnits="userSpaceOnUse" gradientTransform="translate(42.0003 41.9998) rotate(98.2971) scale(41.5781)">
<stop stop-color="#B809A7" stop-opacity="0"/>
<stop offset="0.46875" stop-color="#E90B76"/>
<stop offset="1" stop-color="#FC8536"/>
</radialGradient>
<radialGradient id="paint4_angular_16917_27467" cx="0" cy="0" r="1" gradientUnits="userSpaceOnUse" gradientTransform="translate(42.0003 41.9998) rotate(98.2971) scale(41.5781)">
<stop stop-color="#B809A7" stop-opacity="0"/>
<stop offset="0.46875" stop-color="#E90B76"/>
<stop offset="1" stop-color="#FC8536"/>
</radialGradient>
<radialGradient id="paint5_angular_16917_27467" cx="0" cy="0" r="1" gradientUnits="userSpaceOnUse" gradientTransform="translate(42.0003 41.9998) rotate(98.2971) scale(41.5781)">
<stop stop-color="#B809A7" stop-opacity="0"/>
<stop offset="0.46875" stop-color="#E90B76"/>
<stop offset="1" stop-color="#FC8536"/>
</radialGradient>
<radialGradient id="paint6_angular_16917_27467" cx="0" cy="0" r="1" gradientUnits="userSpaceOnUse" gradientTransform="translate(42.0003 41.9998) rotate(98.2971) scale(41.5781)">
<stop stop-color="#B809A7" stop-opacity="0"/>
<stop offset="0.46875" stop-color="#E90B76"/>
<stop offset="1" stop-color="#FC8536"/>
</radialGradient>
<radialGradient id="paint7_angular_16917_27467" cx="0" cy="0" r="1" gradientUnits="userSpaceOnUse" gradientTransform="translate(42.0003 41.9998) rotate(98.2971) scale(41.5781)">
<stop stop-color="#B809A7" stop-opacity="0"/>
<stop offset="0.46875" stop-color="#E90B76"/>
<stop offset="1" stop-color="#FC8536"/>
</radialGradient>
<radialGradient id="paint8_angular_16917_27467" cx="0" cy="0" r="1" gradientUnits="userSpaceOnUse" gradientTransform="translate(42.0003 41.9998) rotate(98.2971) scale(41.5781)">
<stop stop-color="#B809A7" stop-opacity="0"/>
<stop offset="0.46875" stop-color="#E90B76"/>
<stop offset="1" stop-color="#FC8536"/>
</radialGradient>
<radialGradient id="paint9_angular_16917_27467" cx="0" cy="0" r="1" gradientUnits="userSpaceOnUse" gradientTransform="translate(42.0003 41.9998) rotate(98.2971) scale(41.5781)">
<stop stop-color="#B809A7" stop-opacity="0"/>
<stop offset="0.46875" stop-color="#E90B76"/>
<stop offset="1" stop-color="#FC8536"/>
</radialGradient>
<radialGradient id="paint10_angular_16917_27467" cx="0" cy="0" r="1" gradientUnits="userSpaceOnUse" gradientTransform="translate(42.0003 41.9998) rotate(98.2971) scale(41.5781)">
<stop stop-color="#B809A7" stop-opacity="0"/>
<stop offset="0.46875" stop-color="#E90B76"/>
<stop offset="1" stop-color="#FC8536"/>
</radialGradient>
<radialGradient id="paint11_angular_16917_27467" cx="0" cy="0" r="1" gradientUnits="userSpaceOnUse" gradientTransform="translate(42.0003 41.9998) rotate(98.2971) scale(41.5781)">
<stop stop-color="#B809A7" stop-opacity="0"/>
<stop offset="0.46875" stop-color="#E90B76"/>
<stop offset="1" stop-color="#FC8536"/>
</radialGradient>
</defs>
</svg>
