<svg width="480" height="345" viewBox="0 0 480 345" fill="none" xmlns="http://www.w3.org/2000/svg">
<g clip-path="url(#clip0_23095_67984)">
<g opacity="0.5">
<mask id="mask0_23095_67984" style="mask-type:alpha" maskUnits="userSpaceOnUse" x="0" y="0" width="480" height="345">
<rect y="0.427734" width="480" height="344.571" fill="url(#paint0_radial_23095_67984)"/>
</mask>
<g mask="url(#mask0_23095_67984)">
<line x1="11.1423" y1="2.14258" x2="11.1423" y2="345" stroke="#E4EAF1" stroke-width="1.71429"/>
<line x1="28.2829" y1="2.14258" x2="28.2829" y2="345" stroke="#E4EAF1" stroke-width="1.71429"/>
<line x1="45.4275" y1="2.14258" x2="45.4274" y2="345" stroke="#E4EAF1" stroke-width="1.71429"/>
<line x1="62.5681" y1="2.14258" x2="62.5681" y2="345" stroke="#E4EAF1" stroke-width="1.71429"/>
<line x1="79.7126" y1="2.14258" x2="79.7126" y2="345" stroke="#E4EAF1" stroke-width="1.71429"/>
<line x1="96.8571" y1="2.14258" x2="96.8571" y2="345" stroke="#E4EAF1" stroke-width="1.71429"/>
<line x1="113.998" y1="2.14258" x2="113.998" y2="345" stroke="#E4EAF1" stroke-width="1.71429"/>
<line x1="131.142" y1="2.14258" x2="131.142" y2="345" stroke="#E4EAF1" stroke-width="1.71429"/>
<line x1="148.283" y1="2.14258" x2="148.283" y2="345" stroke="#E4EAF1" stroke-width="1.71429"/>
<line x1="165.427" y1="2.14258" x2="165.427" y2="345" stroke="#E4EAF1" stroke-width="1.71429"/>
<line x1="182.568" y1="2.14258" x2="182.568" y2="345" stroke="#E4EAF1" stroke-width="1.71429"/>
<line x1="199.713" y1="2.14258" x2="199.713" y2="345" stroke="#E4EAF1" stroke-width="1.71429"/>
<line x1="216.857" y1="2.14258" x2="216.857" y2="345" stroke="#E4EAF1" stroke-width="1.71429"/>
<line x1="233.998" y1="2.14258" x2="233.998" y2="345" stroke="#E4EAF1" stroke-width="1.71429"/>
<line x1="251.142" y1="2.14258" x2="251.142" y2="345" stroke="#E4EAF1" stroke-width="1.71429"/>
<line x1="268.283" y1="2.14258" x2="268.283" y2="345" stroke="#E4EAF1" stroke-width="1.71429"/>
<line x1="285.427" y1="2.14258" x2="285.427" y2="345" stroke="#E4EAF1" stroke-width="1.71429"/>
<line x1="302.572" y1="2.14258" x2="302.572" y2="345" stroke="#E4EAF1" stroke-width="1.71429"/>
<line x1="319.713" y1="2.14258" x2="319.713" y2="345" stroke="#E4EAF1" stroke-width="1.71429"/>
<line x1="336.857" y1="2.14258" x2="336.857" y2="345" stroke="#E4EAF1" stroke-width="1.71429"/>
<line x1="353.998" y1="2.14258" x2="353.998" y2="345" stroke="#E4EAF1" stroke-width="1.71429"/>
<line x1="371.142" y1="2.14258" x2="371.142" y2="345" stroke="#E4EAF1" stroke-width="1.71429"/>
<line x1="388.283" y1="2.14258" x2="388.283" y2="345" stroke="#E4EAF1" stroke-width="1.71429"/>
<line x1="405.427" y1="2.14258" x2="405.427" y2="345" stroke="#E4EAF1" stroke-width="1.71429"/>
<line x1="422.572" y1="2.14258" x2="422.572" y2="345" stroke="#E4EAF1" stroke-width="1.71429"/>
<line x1="439.713" y1="2.14258" x2="439.713" y2="345" stroke="#E4EAF1" stroke-width="1.71429"/>
<line x1="456.857" y1="2.14258" x2="456.857" y2="345" stroke="#E4EAF1" stroke-width="1.71429"/>
<line x1="473.998" y1="2.14258" x2="473.998" y2="345" stroke="#E4EAF1" stroke-width="1.71429"/>
<line x1="8.57031" y1="335.569" x2="476.57" y2="335.569" stroke="#E4EAF1" stroke-width="1.71429"/>
<line x1="8.57031" y1="318.424" x2="476.57" y2="318.424" stroke="#E4EAF1" stroke-width="1.71429"/>
<line x1="8.57031" y1="301.282" x2="476.57" y2="301.282" stroke="#E4EAF1" stroke-width="1.71429"/>
<line x1="8.57031" y1="284.139" x2="476.57" y2="284.139" stroke="#E4EAF1" stroke-width="1.71429"/>
<line x1="8.57031" y1="266.996" x2="476.57" y2="266.996" stroke="#E4EAF1" stroke-width="1.71429"/>
<line x1="8.57031" y1="249.854" x2="476.57" y2="249.854" stroke="#E4EAF1" stroke-width="1.71429"/>
<line x1="8.57031" y1="232.711" x2="476.57" y2="232.711" stroke="#E4EAF1" stroke-width="1.71429"/>
<line x1="8.57031" y1="215.569" x2="476.57" y2="215.569" stroke="#E4EAF1" stroke-width="1.71429"/>
<line x1="8.57031" y1="198.424" x2="476.57" y2="198.424" stroke="#E4EAF1" stroke-width="1.71429"/>
<line x1="8.57031" y1="181.282" x2="476.57" y2="181.282" stroke="#E4EAF1" stroke-width="1.71429"/>
<line x1="8.57031" y1="164.139" x2="476.57" y2="164.139" stroke="#E4EAF1" stroke-width="1.71429"/>
<line x1="8.57031" y1="146.996" x2="476.57" y2="146.996" stroke="#E4EAF1" stroke-width="1.71429"/>
<line x1="8.57031" y1="129.854" x2="476.57" y2="129.854" stroke="#E4EAF1" stroke-width="1.71429"/>
<line x1="8.57031" y1="112.711" x2="476.57" y2="112.711" stroke="#E4EAF1" stroke-width="1.71429"/>
<line x1="8.57031" y1="95.5667" x2="476.57" y2="95.5667" stroke="#E4EAF1" stroke-width="1.71429"/>
<line x1="8.57031" y1="78.4241" x2="476.57" y2="78.4241" stroke="#E4EAF1" stroke-width="1.71429"/>
<line x1="8.57031" y1="61.2815" x2="476.57" y2="61.2815" stroke="#E4EAF1" stroke-width="1.71429"/>
<line x1="8.57031" y1="44.139" x2="476.57" y2="44.1389" stroke="#E4EAF1" stroke-width="1.71429"/>
<line x1="8.57031" y1="26.9964" x2="476.57" y2="26.9964" stroke="#E4EAF1" stroke-width="1.71429"/>
<line x1="8.57031" y1="9.85379" x2="476.57" y2="9.85379" stroke="#E4EAF1" stroke-width="1.71429"/>
</g>
</g>
<circle opacity="0.2" cx="240" cy="171.998" r="172" fill="white"/>
<circle opacity="0.4" cx="240" cy="171.998" r="127.5" fill="white" stroke="url(#paint1_angular_23095_67984)"/>
<circle cx="240" cy="171.998" r="80" fill="white"/>
<path d="M185 171.428C184.448 171.428 184 171.875 184 172.428C184 172.98 184.448 173.428 185 173.428V171.428ZM239.707 173.135C240.098 172.744 240.098 172.111 239.707 171.721L233.343 165.357C232.953 164.966 232.319 164.966 231.929 165.357C231.538 165.747 231.538 166.38 231.929 166.771L237.586 172.428L231.929 178.085C231.538 178.475 231.538 179.108 231.929 179.499C232.319 179.889 232.953 179.889 233.343 179.499L239.707 173.135ZM189.5 173.428C190.052 173.428 190.5 172.98 190.5 172.428C190.5 171.875 190.052 171.428 189.5 171.428V173.428ZM198.5 171.428C197.948 171.428 197.5 171.875 197.5 172.428C197.5 172.98 197.948 173.428 198.5 173.428V171.428ZM207.5 173.428C208.052 173.428 208.5 172.98 208.5 172.428C208.5 171.875 208.052 171.428 207.5 171.428V173.428ZM216.5 171.428C215.948 171.428 215.5 171.875 215.5 172.428C215.5 172.98 215.948 173.428 216.5 173.428V171.428ZM225.5 173.428C226.052 173.428 226.5 172.98 226.5 172.428C226.5 171.875 226.052 171.428 225.5 171.428V173.428ZM234.5 171.428C233.948 171.428 233.5 171.875 233.5 172.428C233.5 172.98 233.948 173.428 234.5 173.428V171.428ZM185 173.428H189.5V171.428H185V173.428ZM198.5 173.428H207.5V171.428H198.5V173.428ZM216.5 173.428H225.5V171.428H216.5V173.428ZM234.5 173.428H239V171.428H234.5V173.428Z" fill="url(#paint2_linear_23095_67984)"/>
<path d="M249 172.428H295" stroke="url(#paint3_linear_23095_67984)" stroke-width="2" stroke-linecap="round" stroke-dasharray="10 10"/>
<path d="M184 196.428C183.448 196.428 183 196.875 183 197.428C183 197.98 183.448 198.428 184 198.428V196.428ZM218.707 198.135C219.098 197.744 219.098 197.111 218.707 196.721L212.343 190.357C211.953 189.966 211.319 189.966 210.929 190.357C210.538 190.747 210.538 191.38 210.929 191.771L216.586 197.428L210.929 203.085C210.538 203.475 210.538 204.108 210.929 204.499C211.319 204.889 211.953 204.889 212.343 204.499L218.707 198.135ZM188.25 198.428C188.802 198.428 189.25 197.98 189.25 197.428C189.25 196.875 188.802 196.428 188.25 196.428V198.428ZM196.75 196.428C196.198 196.428 195.75 196.875 195.75 197.428C195.75 197.98 196.198 198.428 196.75 198.428V196.428ZM205.25 198.428C205.802 198.428 206.25 197.98 206.25 197.428C206.25 196.875 205.802 196.428 205.25 196.428V198.428ZM213.75 196.428C213.198 196.428 212.75 196.875 212.75 197.428C212.75 197.98 213.198 198.428 213.75 198.428V196.428ZM184 198.428H188.25V196.428H184V198.428ZM196.75 198.428H205.25V196.428H196.75V198.428ZM213.75 198.428H218V196.428H213.75V198.428Z" fill="#D8DFE9"/>
<path d="M224 197.428H294" stroke="#D8DFE9" stroke-width="2" stroke-linecap="round" stroke-dasharray="10 10"/>
<path d="M185 147.428C184.448 147.428 184 147.875 184 148.428C184 148.98 184.448 149.428 185 149.428V147.428ZM263.707 149.135C264.098 148.744 264.098 148.111 263.707 147.721L257.343 141.357C256.953 140.966 256.319 140.966 255.929 141.357C255.538 141.747 255.538 142.38 255.929 142.771L261.586 148.428L255.929 154.085C255.538 154.475 255.538 155.108 255.929 155.499C256.319 155.889 256.953 155.889 257.343 155.499L263.707 149.135ZM189.875 149.428C190.427 149.428 190.875 148.98 190.875 148.428C190.875 147.875 190.427 147.428 189.875 147.428V149.428ZM199.625 147.428C199.073 147.428 198.625 147.875 198.625 148.428C198.625 148.98 199.073 149.428 199.625 149.428V147.428ZM209.375 149.428C209.927 149.428 210.375 148.98 210.375 148.428C210.375 147.875 209.927 147.428 209.375 147.428V149.428ZM219.125 147.428C218.573 147.428 218.125 147.875 218.125 148.428C218.125 148.98 218.573 149.428 219.125 149.428V147.428ZM228.875 149.428C229.427 149.428 229.875 148.98 229.875 148.428C229.875 147.875 229.427 147.428 228.875 147.428V149.428ZM238.625 147.428C238.073 147.428 237.625 147.875 237.625 148.428C237.625 148.98 238.073 149.428 238.625 149.428V147.428ZM248.375 149.428C248.927 149.428 249.375 148.98 249.375 148.428C249.375 147.875 248.927 147.428 248.375 147.428V149.428ZM258.125 147.428C257.573 147.428 257.125 147.875 257.125 148.428C257.125 148.98 257.573 149.428 258.125 149.428V147.428ZM185 149.428H189.875V147.428H185V149.428ZM199.625 149.428H209.375V147.428H199.625V149.428ZM219.125 149.428H228.875V147.428H219.125V149.428ZM238.625 149.428H248.375V147.428H238.625V149.428ZM258.125 149.428H263V147.428H258.125V149.428Z" fill="#D8DFE9"/>
<path d="M270 148.428H295" stroke="#D8DFE9" stroke-width="2" stroke-linecap="round" stroke-dasharray="10 10"/>
<path d="M48.5 100.428C48.5 96.2856 51.8579 92.9277 56 92.9277H176C180.142 92.9277 183.5 96.2856 183.5 100.428V236.428C183.5 240.57 180.142 243.928 176 243.928H56C51.8579 243.928 48.5 240.57 48.5 236.428V100.428Z" fill="white"/>
<path d="M48.5 100.428C48.5 96.2856 51.8579 92.9277 56 92.9277H176C180.142 92.9277 183.5 96.2856 183.5 100.428V236.428C183.5 240.57 180.142 243.928 176 243.928H56C51.8579 243.928 48.5 240.57 48.5 236.428V100.428Z" stroke="#475569"/>
<path d="M60.5 243.928H79.5V246.428C79.5 247.808 78.3807 248.928 77 248.928H63C61.6193 248.928 60.5 247.808 60.5 246.428V243.928Z" fill="white" stroke="#475569"/>
<path d="M152.5 243.928H171.5V246.428C171.5 247.808 170.381 248.928 169 248.928H155C153.619 248.928 152.5 247.808 152.5 246.428V243.928Z" fill="white" stroke="#475569"/>
<path d="M56 104.428C56 102.219 57.7909 100.428 60 100.428H172C174.209 100.428 176 102.219 176 104.428V128.428C176 130.637 174.209 132.428 172 132.428H60C57.7909 132.428 56 130.637 56 128.428V104.428Z" fill="#F0F4FA"/>
<rect x="66" y="106.428" width="6" height="20" rx="3" fill="url(#paint4_linear_23095_67984)"/>
<rect x="78" y="106.428" width="6" height="20" rx="3" fill="url(#paint5_linear_23095_67984)"/>
<rect x="90" y="106.428" width="6" height="20" rx="3" fill="url(#paint6_linear_23095_67984)"/>
<rect x="102" y="106.428" width="6" height="20" rx="3" fill="url(#paint7_linear_23095_67984)"/>
<circle cx="164" cy="116.428" r="2" fill="#FF6C0A"/>
<path d="M56 144.428C56 142.219 57.7909 140.428 60 140.428H172C174.209 140.428 176 142.219 176 144.428V168.428C176 170.637 174.209 172.428 172 172.428H60C57.7909 172.428 56 170.637 56 168.428V144.428Z" fill="#F0F4FA"/>
<rect x="66" y="146.428" width="6" height="20" rx="3" fill="url(#paint8_linear_23095_67984)"/>
<rect x="78" y="146.428" width="6" height="20" rx="3" fill="url(#paint9_linear_23095_67984)"/>
<rect x="90" y="146.428" width="6" height="20" rx="3" fill="url(#paint10_linear_23095_67984)"/>
<rect x="102" y="146.428" width="6" height="20" rx="3" fill="url(#paint11_linear_23095_67984)"/>
<circle cx="164" cy="156.428" r="2" fill="#FF6C0A"/>
<path d="M56 184.428C56 182.219 57.7909 180.428 60 180.428H172C174.209 180.428 176 182.219 176 184.428V208.428C176 210.637 174.209 212.428 172 212.428H60C57.7909 212.428 56 210.637 56 208.428V184.428Z" fill="#F0F4FA"/>
<rect x="66" y="186.428" width="6" height="20" rx="3" fill="url(#paint12_linear_23095_67984)"/>
<rect x="78" y="186.428" width="6" height="20" rx="3" fill="url(#paint13_linear_23095_67984)"/>
<rect x="90" y="186.428" width="6" height="20" rx="3" fill="url(#paint14_linear_23095_67984)"/>
<rect x="102" y="186.428" width="6" height="20" rx="3" fill="url(#paint15_linear_23095_67984)"/>
<circle cx="164" cy="196.428" r="2" fill="#FF6C0A"/>
<rect x="60" y="230.428" width="4" height="30" rx="2" transform="rotate(-90 60 230.428)" fill="#F0F4FA"/>
<path fill-rule="evenodd" clip-rule="evenodd" d="M141.154 221.678V235.178H144.56V230.963C145.263 230.874 145.929 230.749 146.542 230.571C147.173 230.392 147.732 230.124 148.2 229.767C148.687 229.41 149.047 228.963 149.336 228.41C149.606 227.838 149.75 227.16 149.75 226.321C149.75 225.66 149.66 225.088 149.498 224.606C149.317 224.106 149.101 223.696 148.795 223.356C148.507 223.017 148.146 222.731 147.75 222.517C147.353 222.303 146.903 222.124 146.434 221.999C145.984 221.874 145.479 221.803 144.956 221.749C144.434 221.696 143.911 221.678 143.388 221.678H141.154ZM145.263 227.606C145.1 227.678 144.884 227.696 144.65 227.696V224.66H144.938C145.155 224.66 145.335 224.713 145.479 224.803C145.623 224.892 145.749 224.999 145.821 225.16C145.911 225.303 145.966 225.463 146.002 225.66C146.056 225.838 146.056 226.017 146.056 226.231C146.056 226.446 146.02 226.642 145.966 226.821C145.911 227.017 145.821 227.16 145.695 227.303C145.587 227.428 145.443 227.535 145.263 227.606Z" fill="#111827"/>
<path d="M139.688 221.803V235.143H136.408V221.803H139.688Z" fill="#111827"/>
<path d="M130.235 224.91H126.775V221.838H135.299L130.83 232.16H134.668V235.142H126L130.235 224.927V224.91Z" fill="#111827"/>
<path d="M175.894 223.933L175.885 223.934C175.882 223.934 175.879 223.934 175.876 223.934L175.894 223.933Z" fill="#FF580E"/>
<path d="M166.883 227.489C166.931 227.537 166.931 227.666 166.931 227.666L166.803 228.389C166.786 228.454 166.754 228.518 166.69 228.566C166.626 228.615 166.497 228.631 166.497 228.631H164.681C164.632 228.631 164.632 228.582 164.632 228.582L164.825 227.489C164.841 227.441 164.89 227.424 164.89 227.424H166.722C166.786 227.424 166.851 227.441 166.883 227.489Z" fill="#FF580E"/>
<path fill-rule="evenodd" clip-rule="evenodd" d="M175.885 223.934C175.967 223.932 176.021 223.998 175.992 224.07C175.697 224.784 174.171 227.755 168.903 230.236C168.801 230.28 168.832 230.441 168.936 230.433L173.362 230.453C173.451 230.464 173.512 230.568 173.446 230.628C172.48 231.757 166.628 238.026 158.012 236.043C154.614 235.253 152.264 232.11 152.25 228.313C152.236 224.516 154.52 221.595 158.371 220.987C162.724 220.286 170.021 220.428 171.183 220.465C171.252 220.459 171.312 220.545 171.264 220.604C171.015 221.023 170.116 222.328 167.676 224.153C167.609 224.195 167.638 224.338 167.725 224.331C168.571 224.374 171.397 224.409 175.885 223.934ZM162.993 226.219C162.993 226.219 163.089 226.235 163.122 226.283C163.138 226.331 163.138 226.38 163.122 226.428L160.63 230.899C160.566 231.028 160.469 231.076 160.341 231.076H159.36C159.36 231.076 159.248 231.076 159.199 231.028C159.151 230.979 159.135 230.947 159.119 230.899L158.685 228.68C158.685 228.68 158.669 228.631 158.621 228.631C158.572 228.631 158.556 228.631 158.556 228.663L157.286 230.915C157.222 231.028 157.11 231.092 156.997 231.092H156.017C156.017 231.092 155.904 231.092 155.872 231.044C155.824 231.012 155.808 230.963 155.792 230.915L154.94 226.444C154.94 226.444 154.94 226.348 154.988 226.299C155.036 226.251 155.084 226.235 155.133 226.235H156.29C156.29 226.235 156.402 226.235 156.435 226.283C156.444 226.298 156.454 226.311 156.463 226.323C156.484 226.352 156.504 226.378 156.515 226.412L156.965 228.68C156.965 228.68 156.981 228.728 157.029 228.728C157.078 228.728 157.094 228.728 157.11 228.696L158.38 226.396C158.444 226.283 158.54 226.219 158.669 226.219H159.473C159.473 226.219 159.585 226.219 159.633 226.267C159.682 226.299 159.698 226.348 159.714 226.396L160.148 228.663C160.148 228.663 160.18 228.712 160.212 228.728C160.244 228.744 160.276 228.728 160.276 228.696L161.562 226.396C161.627 226.283 161.723 226.219 161.852 226.219H162.993ZM168.265 228.582L168.458 227.473L168.474 227.457C168.539 227.103 168.458 226.797 168.249 226.556C168.04 226.315 167.751 226.186 167.397 226.186H163.877C163.797 226.186 163.732 226.218 163.668 226.267C163.604 226.315 163.555 226.459 163.555 226.459L162.768 230.802C162.752 230.882 162.768 230.947 162.816 230.995C162.864 231.043 162.993 231.075 162.993 231.075H163.925C164.006 231.075 164.07 231.043 164.134 230.995C164.198 230.947 164.247 230.802 164.247 230.802L164.407 229.901C164.407 229.869 164.472 229.853 164.472 229.853H166.722C167.092 229.853 167.413 229.724 167.719 229.483C168.008 229.242 168.201 228.936 168.265 228.582Z" fill="#FF580E"/>
<path d="M296.5 100.428C296.5 96.2856 299.858 92.9277 304 92.9277H424C428.142 92.9277 431.5 96.2856 431.5 100.428V236.428C431.5 240.57 428.142 243.928 424 243.928H304C299.858 243.928 296.5 240.57 296.5 236.428V100.428Z" fill="white"/>
<path d="M296.5 100.428C296.5 96.2856 299.858 92.9277 304 92.9277H424C428.142 92.9277 431.5 96.2856 431.5 100.428V236.428C431.5 240.57 428.142 243.928 424 243.928H304C299.858 243.928 296.5 240.57 296.5 236.428V100.428Z" stroke="#475569"/>
<path d="M304 104.428C304 102.219 305.791 100.428 308 100.428H420C422.209 100.428 424 102.219 424 104.428V128.428C424 130.637 422.209 132.428 420 132.428H308C305.791 132.428 304 130.637 304 128.428V104.428Z" fill="#F0F4FA"/>
<rect x="314" y="106.428" width="6" height="20" rx="3" fill="url(#paint16_linear_23095_67984)"/>
<rect x="326" y="106.428" width="6" height="20" rx="3" fill="url(#paint17_linear_23095_67984)"/>
<rect x="338" y="106.428" width="6" height="20" rx="3" fill="url(#paint18_linear_23095_67984)"/>
<rect x="350" y="106.428" width="6" height="20" rx="3" fill="url(#paint19_linear_23095_67984)"/>
<circle cx="412" cy="116.428" r="2" fill="#3D4592"/>
<path d="M304 144.428C304 142.219 305.791 140.428 308 140.428H420C422.209 140.428 424 142.219 424 144.428V168.428C424 170.637 422.209 172.428 420 172.428H308C305.791 172.428 304 170.637 304 168.428V144.428Z" fill="#F0F4FA"/>
<rect x="314" y="146.428" width="6" height="20" rx="3" fill="url(#paint20_linear_23095_67984)"/>
<rect x="326" y="146.428" width="6" height="20" rx="3" fill="url(#paint21_linear_23095_67984)"/>
<rect x="338" y="146.428" width="6" height="20" rx="3" fill="url(#paint22_linear_23095_67984)"/>
<rect x="350" y="146.428" width="6" height="20" rx="3" fill="url(#paint23_linear_23095_67984)"/>
<circle cx="412" cy="156.428" r="2" fill="#3D4592"/>
<path d="M304 184.428C304 182.219 305.791 180.428 308 180.428H420C422.209 180.428 424 182.219 424 184.428V208.428C424 210.637 422.209 212.428 420 212.428H308C305.791 212.428 304 210.637 304 208.428V184.428Z" fill="#F0F4FA"/>
<rect x="314" y="186.428" width="6" height="20" rx="3" fill="url(#paint24_linear_23095_67984)"/>
<rect x="326" y="186.428" width="6" height="20" rx="3" fill="url(#paint25_linear_23095_67984)"/>
<rect x="338" y="186.428" width="6" height="20" rx="3" fill="url(#paint26_linear_23095_67984)"/>
<rect x="350" y="186.428" width="6" height="20" rx="3" fill="url(#paint27_linear_23095_67984)"/>
<circle cx="412" cy="196.428" r="2" fill="#3D4592"/>
<rect x="308" y="230.428" width="4" height="30" rx="2" transform="rotate(-90 308 230.428)" fill="#F0F4FA"/>
<circle cx="414" cy="228.428" r="4" fill="#F0F4FA"/>
<path d="M308.5 243.928H327.5V246.428C327.5 247.808 326.381 248.928 325 248.928H311C309.619 248.928 308.5 247.808 308.5 246.428V243.928Z" fill="white" stroke="#475569"/>
<path d="M400.5 243.928H419.5V246.428C419.5 247.808 418.381 248.928 417 248.928H403C401.619 248.928 400.5 247.808 400.5 246.428V243.928Z" fill="white" stroke="#475569"/>
</g>
<defs>
<radialGradient id="paint0_radial_23095_67984" cx="0" cy="0" r="1" gradientUnits="userSpaceOnUse" gradientTransform="translate(240 172.713) rotate(90) scale(172.286 240)">
<stop offset="0.912036" stop-color="#D9D9D9"/>
<stop offset="1" stop-color="#D9D9D9" stop-opacity="0.5"/>
</radialGradient>
<radialGradient id="paint1_angular_23095_67984" cx="0" cy="0" r="1" gradientUnits="userSpaceOnUse" gradientTransform="translate(240 171.998) rotate(-180) scale(128)">
<stop stop-color="#B809A7" stop-opacity="0"/>
<stop offset="0.46875" stop-color="#E90B76"/>
<stop offset="1" stop-color="#FC8536"/>
</radialGradient>
<linearGradient id="paint2_linear_23095_67984" x1="185" y1="172.928" x2="239" y2="172.928" gradientUnits="userSpaceOnUse">
<stop stop-color="#B809A7"/>
<stop offset="0.46875" stop-color="#E90B76"/>
<stop offset="1" stop-color="#FC8536"/>
</linearGradient>
<linearGradient id="paint3_linear_23095_67984" x1="249" y1="172.928" x2="295" y2="172.928" gradientUnits="userSpaceOnUse">
<stop stop-color="#B809A7"/>
<stop offset="0.46875" stop-color="#E90B76"/>
<stop offset="1" stop-color="#FC8536"/>
</linearGradient>
<linearGradient id="paint4_linear_23095_67984" x1="69" y1="106.428" x2="69" y2="126.428" gradientUnits="userSpaceOnUse">
<stop stop-color="#D8DFE9"/>
<stop offset="1" stop-color="#D8DFE9" stop-opacity="0"/>
</linearGradient>
<linearGradient id="paint5_linear_23095_67984" x1="81" y1="106.428" x2="81" y2="126.428" gradientUnits="userSpaceOnUse">
<stop stop-color="#D8DFE9"/>
<stop offset="1" stop-color="#D8DFE9" stop-opacity="0"/>
</linearGradient>
<linearGradient id="paint6_linear_23095_67984" x1="93" y1="106.428" x2="93" y2="126.428" gradientUnits="userSpaceOnUse">
<stop stop-color="#D8DFE9"/>
<stop offset="1" stop-color="#D8DFE9" stop-opacity="0"/>
</linearGradient>
<linearGradient id="paint7_linear_23095_67984" x1="105" y1="106.428" x2="105" y2="126.428" gradientUnits="userSpaceOnUse">
<stop stop-color="#D8DFE9"/>
<stop offset="1" stop-color="#D8DFE9" stop-opacity="0"/>
</linearGradient>
<linearGradient id="paint8_linear_23095_67984" x1="69" y1="146.428" x2="69" y2="166.428" gradientUnits="userSpaceOnUse">
<stop stop-color="#D8DFE9"/>
<stop offset="1" stop-color="#D8DFE9" stop-opacity="0"/>
</linearGradient>
<linearGradient id="paint9_linear_23095_67984" x1="81" y1="146.428" x2="81" y2="166.428" gradientUnits="userSpaceOnUse">
<stop stop-color="#D8DFE9"/>
<stop offset="1" stop-color="#D8DFE9" stop-opacity="0"/>
</linearGradient>
<linearGradient id="paint10_linear_23095_67984" x1="93" y1="146.428" x2="93" y2="166.428" gradientUnits="userSpaceOnUse">
<stop stop-color="#D8DFE9"/>
<stop offset="1" stop-color="#D8DFE9" stop-opacity="0"/>
</linearGradient>
<linearGradient id="paint11_linear_23095_67984" x1="105" y1="146.428" x2="105" y2="166.428" gradientUnits="userSpaceOnUse">
<stop stop-color="#D8DFE9"/>
<stop offset="1" stop-color="#D8DFE9" stop-opacity="0"/>
</linearGradient>
<linearGradient id="paint12_linear_23095_67984" x1="69" y1="186.428" x2="69" y2="206.428" gradientUnits="userSpaceOnUse">
<stop stop-color="#D8DFE9"/>
<stop offset="1" stop-color="#D8DFE9" stop-opacity="0"/>
</linearGradient>
<linearGradient id="paint13_linear_23095_67984" x1="81" y1="186.428" x2="81" y2="206.428" gradientUnits="userSpaceOnUse">
<stop stop-color="#D8DFE9"/>
<stop offset="1" stop-color="#D8DFE9" stop-opacity="0"/>
</linearGradient>
<linearGradient id="paint14_linear_23095_67984" x1="93" y1="186.428" x2="93" y2="206.428" gradientUnits="userSpaceOnUse">
<stop stop-color="#D8DFE9"/>
<stop offset="1" stop-color="#D8DFE9" stop-opacity="0"/>
</linearGradient>
<linearGradient id="paint15_linear_23095_67984" x1="105" y1="186.428" x2="105" y2="206.428" gradientUnits="userSpaceOnUse">
<stop stop-color="#D8DFE9"/>
<stop offset="1" stop-color="#D8DFE9" stop-opacity="0"/>
</linearGradient>
<linearGradient id="paint16_linear_23095_67984" x1="317" y1="106.428" x2="317" y2="126.428" gradientUnits="userSpaceOnUse">
<stop stop-color="#D8DFE9"/>
<stop offset="1" stop-color="#D8DFE9" stop-opacity="0"/>
</linearGradient>
<linearGradient id="paint17_linear_23095_67984" x1="329" y1="106.428" x2="329" y2="126.428" gradientUnits="userSpaceOnUse">
<stop stop-color="#D8DFE9"/>
<stop offset="1" stop-color="#D8DFE9" stop-opacity="0"/>
</linearGradient>
<linearGradient id="paint18_linear_23095_67984" x1="341" y1="106.428" x2="341" y2="126.428" gradientUnits="userSpaceOnUse">
<stop stop-color="#D8DFE9"/>
<stop offset="1" stop-color="#D8DFE9" stop-opacity="0"/>
</linearGradient>
<linearGradient id="paint19_linear_23095_67984" x1="353" y1="106.428" x2="353" y2="126.428" gradientUnits="userSpaceOnUse">
<stop stop-color="#D8DFE9"/>
<stop offset="1" stop-color="#D8DFE9" stop-opacity="0"/>
</linearGradient>
<linearGradient id="paint20_linear_23095_67984" x1="317" y1="146.428" x2="317" y2="166.428" gradientUnits="userSpaceOnUse">
<stop stop-color="#D8DFE9"/>
<stop offset="1" stop-color="#D8DFE9" stop-opacity="0"/>
</linearGradient>
<linearGradient id="paint21_linear_23095_67984" x1="329" y1="146.428" x2="329" y2="166.428" gradientUnits="userSpaceOnUse">
<stop stop-color="#D8DFE9"/>
<stop offset="1" stop-color="#D8DFE9" stop-opacity="0"/>
</linearGradient>
<linearGradient id="paint22_linear_23095_67984" x1="341" y1="146.428" x2="341" y2="166.428" gradientUnits="userSpaceOnUse">
<stop stop-color="#D8DFE9"/>
<stop offset="1" stop-color="#D8DFE9" stop-opacity="0"/>
</linearGradient>
<linearGradient id="paint23_linear_23095_67984" x1="353" y1="146.428" x2="353" y2="166.428" gradientUnits="userSpaceOnUse">
<stop stop-color="#D8DFE9"/>
<stop offset="1" stop-color="#D8DFE9" stop-opacity="0"/>
</linearGradient>
<linearGradient id="paint24_linear_23095_67984" x1="317" y1="186.428" x2="317" y2="206.428" gradientUnits="userSpaceOnUse">
<stop stop-color="#D8DFE9"/>
<stop offset="1" stop-color="#D8DFE9" stop-opacity="0"/>
</linearGradient>
<linearGradient id="paint25_linear_23095_67984" x1="329" y1="186.428" x2="329" y2="206.428" gradientUnits="userSpaceOnUse">
<stop stop-color="#D8DFE9"/>
<stop offset="1" stop-color="#D8DFE9" stop-opacity="0"/>
</linearGradient>
<linearGradient id="paint26_linear_23095_67984" x1="341" y1="186.428" x2="341" y2="206.428" gradientUnits="userSpaceOnUse">
<stop stop-color="#D8DFE9"/>
<stop offset="1" stop-color="#D8DFE9" stop-opacity="0"/>
</linearGradient>
<linearGradient id="paint27_linear_23095_67984" x1="353" y1="186.428" x2="353" y2="206.428" gradientUnits="userSpaceOnUse">
<stop stop-color="#D8DFE9"/>
<stop offset="1" stop-color="#D8DFE9" stop-opacity="0"/>
</linearGradient>
<clipPath id="clip0_23095_67984">
<rect width="480" height="344" fill="white" transform="translate(0 0.427734)"/>
</clipPath>
</defs>
</svg>
