<svg width="48" height="48" viewBox="0 0 48 48" fill="none" xmlns="http://www.w3.org/2000/svg">
<g id="heroicons-outline/rectangle-stack">
<path id="Vector" d="M12 13.7561V12C12 9.51472 14.0147 7.5 16.5 7.5H31.5C33.9853 7.5 36 9.51472 36 12V13.7561M12 13.7561C12.4692 13.5902 12.974 13.5 13.5 13.5H34.5C35.026 13.5 35.5308 13.5902 36 13.7561M12 13.7561C10.2522 14.3738 9 16.0407 9 18V19.7561M36 13.7561C37.7478 14.3738 39 16.0407 39 18V19.7561M39 19.7561C38.5308 19.5902 38.026 19.5 37.5 19.5H10.5C9.97405 19.5 9.46917 19.5902 9 19.7561M39 19.7561C40.7478 20.3738 42 22.0407 42 24V36C42 38.4853 39.9853 40.5 37.5 40.5H10.5C8.01472 40.5 6 38.4853 6 36V24C6 22.0407 7.25221 20.3738 9 19.7561" stroke="#3D4592" stroke-width="2" stroke-linecap="round" stroke-linejoin="round"/>
</g>
</svg>
