<svg width="36" height="40" viewBox="0 0 36 40" fill="none" xmlns="http://www.w3.org/2000/svg">
<path d="M24 11.7871C24 5.27788 18.6274 0.0011034 12 0.0011034C5.37258 0.0011034 0 5.27788 0 11.7871C7.32159 11.7866 13.7445 11.787 24 11.7871Z" fill="#EFEFEF"/>
<path d="M36 0C36 6.50923 30.6274 11.786 24 11.786C17.3726 11.786 12 6.50923 12 0C19.3216 0.000514961 25.7445 8.9524e-05 36 0Z" fill="white"/>
<path d="M36 25.8926C36 19.3833 30.6274 14.1066 24 14.1066C17.3726 14.1066 12 19.3833 12 25.8926C19.3216 25.8921 25.7445 25.8925 36 25.8926Z" fill="#EFEFEF"/>
<path d="M24 14.1055C24 20.6147 18.6274 25.8915 12 25.8915C5.37258 25.8915 0 20.6147 0 14.1055C7.32159 14.106 13.7445 14.1056 24 14.1055Z" fill="white"/>
<path d="M36 28.2148C36 34.7241 30.6274 40.0008 24 40.0008C17.3726 40.0008 12 34.7241 12 28.2148C19.3216 28.2154 25.7445 28.2149 36 28.2148Z" fill="#EFEFEF"/>
<path d="M24 40.002C24 33.4927 18.6274 28.2159 12 28.2159C5.37258 28.2159 0 33.4927 0 40.002C7.32159 40.0014 13.7445 40.0019 24 40.002Z" fill="white"/>
</svg>
