<?xml version="1.0" encoding="utf-8"?>
<!-- Generator: Adobe Illustrator 16.0.0, SVG Export Plug-In . SVG Version: 6.00 Build 0)  -->
<!DOCTYPE svg PUBLIC "-//W3C//DTD SVG 1.1//EN" "http://www.w3.org/Graphics/SVG/1.1/DTD/svg11.dtd">
<svg version="1.1" id="Layer_1" xmlns="http://www.w3.org/2000/svg" xmlns:xlink="http://www.w3.org/1999/xlink" x="0px" y="0px"
	 width="500px" height="95px" viewBox="0 0 500 95" enable-background="new 0 0 500 95" xml:space="preserve">
<g>
	<path fill="#F06335" d="M135.779,68.374c-5.939,0-10.946-1.951-14.934-5.939c-3.989-3.988-5.939-8.995-5.939-15.019
		c0-6.025,1.951-11.031,5.939-15.02c3.988-3.988,8.995-6.024,14.934-6.024c6.535,0,11.964,2.376,16.208,7.212l7.211-6.194
		c-6.194-7.043-14-10.606-23.42-10.606c-8.74,0-16.207,2.885-22.317,8.74c-6.023,5.854-9.079,13.152-9.079,21.893
		c0,8.739,3.056,16.037,9.079,21.892c6.11,5.77,13.577,8.655,22.317,8.655c9.25,0,17.735-3.988,23.505-10.776l-7.127-6.194
		C148,65.914,142.483,68.374,135.779,68.374"/>
	<path fill="#F06335" d="M199.086,40.372c-1.443-4.157-6.619-7.127-13.661-7.127c-6.025,0-11.117,2.121-15.274,6.448
		c-4.073,4.243-6.11,9.504-6.11,15.868s2.037,11.625,6.11,15.952c4.157,4.243,9.249,6.364,15.274,6.364
		c7.042,0,12.218-2.97,13.661-7.128v6.194h10.182V34.178h-10.182V40.372z M196.03,64.896c-2.46,2.461-5.6,3.733-9.249,3.733
		c-3.648,0-6.619-1.272-9.08-3.733c-2.375-2.461-3.563-5.601-3.563-9.334c0-3.734,1.188-6.873,3.563-9.334
		c2.461-2.461,5.432-3.734,9.08-3.734c3.649,0,6.788,1.273,9.249,3.734c2.547,2.461,3.819,5.6,3.819,9.334
		C199.85,59.295,198.577,62.435,196.03,64.896"/>
	<path fill="#F06335" d="M229.891,40.542v-6.363h-10.098v42.767h10.098V54.458c0-7.043,4.498-11.455,11.541-11.455
		c1.527,0,2.971,0.17,4.243,0.424v-9.843c-0.848-0.169-1.867-0.254-3.055-0.254C236.595,33.33,231.928,36.045,229.891,40.542"/>
	<polygon fill="#F06335" points="267.654,17.802 257.472,17.802 257.472,34.178 251.955,34.178 251.955,43.427 257.472,43.427 
		257.472,76.944 267.654,76.944 267.654,43.427 276.902,43.427 276.902,34.178 267.654,34.178 	"/>
	<polygon fill="#F06335" points="286.834,76.944 297.439,76.944 297.439,51.827 320.436,51.827 320.436,42.239 297.439,42.239 
		297.439,27.39 322.641,27.39 322.641,17.802 286.834,17.802 	"/>
	<rect x="332.487" y="17.802" fill="#F06335" width="10.183" height="59.143"/>
	<path fill="#F06335" d="M374.832,32.905c-6.534,0-12.049,2.206-16.547,6.533c-4.498,4.328-6.789,9.759-6.789,16.123
		s2.291,11.795,6.789,16.122s10.013,6.534,16.547,6.534c6.533,0,12.049-2.207,16.547-6.534c4.496-4.327,6.787-9.758,6.787-16.122
		s-2.291-11.795-6.787-16.123C386.881,35.111,381.365,32.905,374.832,32.905 M384.25,65.149c-2.545,2.546-5.685,3.819-9.418,3.819
		c-3.819,0-6.959-1.273-9.505-3.819c-2.46-2.63-3.733-5.77-3.733-9.588s1.273-6.958,3.733-9.504
		c2.546-2.631,5.686-3.903,9.505-3.903c3.733,0,6.873,1.272,9.418,3.903c2.547,2.546,3.818,5.686,3.818,9.504
		S386.797,62.52,384.25,65.149"/>
	<polygon fill="#F06335" points="443.992,60.822 435.337,34.178 427.615,34.178 418.959,60.822 410.051,34.178 400.461,34.178 
		414.717,76.944 422.693,76.944 431.518,49.876 440.344,76.944 448.234,76.944 462.575,34.178 452.902,34.178 	"/>
	<path fill="#F06335" d="M488.545,51.743c-1.697-0.595-4.074-1.442-5.346-1.782c-1.104-0.424-2.801-1.104-3.479-1.527
		c-1.188-0.764-1.952-1.527-1.952-2.97c0-2.291,2.037-3.818,5.176-3.818c3.649,0,6.449,1.188,8.316,3.563l5.686-6.024
		c-3.225-4.158-7.807-6.279-13.832-6.279c-4.242,0-7.807,1.188-10.776,3.479c-2.886,2.291-4.327,5.346-4.327,9.333
		c0,6.109,3.648,9.589,10.521,12.05c1.443,0.594,3.988,1.357,5.262,1.782c1.271,0.424,3.055,1.018,3.988,1.611
		c1.442,0.765,2.459,1.952,2.459,3.395c0,2.631-2.291,4.667-7.636,4.667c-5.176,0-9.333-2.291-11.286-5.346l-6.533,5.516
		c2.715,5.346,9.08,8.655,17.65,8.655c11.624,0,17.564-5.685,17.564-13.577C500,58.361,496.436,54.543,488.545,51.743"/>
	<path fill="#F06335" d="M58.942,5.609c-3.444,3.354-5.587,8.036-5.587,13.22v30.718c0,4.521-3.668,8.188-8.188,8.188H24.574
		c-4.52,0-8.188-3.668-8.188-8.188c0-4.52,3.668-8.188,8.188-8.188h22.583V24.974H24.574c-1.399,0-2.763,0.115-4.099,0.34
		C8.86,27.26,0,37.377,0,49.547c0,10.7,6.843,19.803,16.386,23.176c1.318,0.466,2.681,0.825,4.09,1.058
		c1.336,0.225,2.699,0.341,4.099,0.341h20.592c1.399,0,2.763-0.116,4.099-0.341c1.409-0.232,2.771-0.592,4.09-1.058
		C62.897,69.35,69.74,60.247,69.74,49.547v-8.188c9.05,0,16.386-7.337,16.386-16.386H69.74v-6.145c0-1.13,0.915-2.044,2.045-2.044
		h4.098c4.996,0,9.525-1.982,12.843-5.212c2.987-2.905,4.996-6.807,5.471-11.174H71.786C66.799,0.399,62.261,2.381,58.942,5.609"/>
	<path fill="#F06335" d="M24.575,78.218c-4.523,0-8.191,3.667-8.191,8.191c0,4.523,3.667,8.191,8.191,8.191s8.191-3.668,8.191-8.191
		C32.766,81.885,29.098,78.218,24.575,78.218"/>
	<path fill="#F06335" d="M49.149,78.218c-4.524,0-8.192,3.667-8.192,8.191c0,4.523,3.667,8.191,8.192,8.191
		c4.523,0,8.191-3.668,8.191-8.191C57.34,81.885,53.672,78.218,49.149,78.218"/>
</g>
</svg>
