<svg width="200" height="215" viewBox="0 0 200 215" fill="none" xmlns="http://www.w3.org/2000/svg">
<path d="M45.0333 97.3153C39.6223 95.9522 35.1613 92.2761 30.9068 88.6825C22.4805 81.578 14.013 74.4735 5.58667 67.4103C14.4673 68.4842 23.5545 68.0711 32.3112 66.1298C35.2439 65.4689 38.2592 64.6428 40.6136 62.7428C43.2984 60.5949 44.9094 57.4144 46.2724 54.2752C52.2617 40.8096 56.2683 24.4527 48.5855 11.8959C53.9552 21.2309 60.2336 30.0703 67.2555 38.2074C77.7471 23.9158 90.18 11.0285 104.059 0C102.53 8.13715 104.183 16.8113 108.561 23.8332C110.337 26.6419 112.65 29.3267 115.748 30.4833C119.961 32.0529 124.67 30.6072 128.883 28.9963C139.829 24.9071 150.486 19.9917 160.73 14.3742C151.353 22.0983 141.275 31.1029 140.118 43.2053C139.912 45.2706 140.159 47.7077 141.812 48.9468C143.175 49.9382 144.992 49.8555 146.686 49.7316C159.903 48.699 173.121 47.625 186.339 46.5923C179.73 51.1772 173.452 56.2991 167.669 61.8753C165.645 63.858 163.621 67.2451 165.686 69.1864C166.884 70.3017 168.743 70.1364 170.354 69.9299C178.945 68.8972 187.743 69.6821 196.046 72.1604C197.409 72.5735 198.896 73.1104 199.598 74.3909C200.92 76.704 198.73 79.3888 196.706 81.1236C184.852 91.2021 171.799 99.8762 157.879 106.898C148.957 111.4 139.622 115.283 131.774 121.479C127.355 124.99 123.224 129.286 117.731 130.566C110.915 132.136 103.976 128.501 98.3997 124.288C92.7822 120.075 87.4951 115.035 80.8037 113.094C75.2688 111.483 69.1556 112.144 63.8272 109.955C55.6487 106.609 50.1551 96.9436 41.3158 96.7371" fill="#303046"/>
<path d="M182.249 101.363C181.382 106.114 179.275 110.575 177.045 114.87C173.865 121.025 170.436 127.014 166.801 132.921C165.19 135.523 163.456 138.208 160.977 140.025C157.301 142.71 152.468 143.164 147.883 142.586C144.909 146.056 141.894 149.525 138.259 152.334C137.103 153.243 135.864 154.069 134.459 154.565C130.535 155.887 126.074 153.986 122.026 154.028C121.737 154.399 121.407 154.73 121.035 155.06C115.087 160.678 107.032 163.941 98.854 164.024C91.8321 164.106 84.8515 161.834 79.1514 157.704C77.9122 158.571 76.797 159.645 75.8882 160.884C72.9969 164.726 74.9795 168.65 75.4752 174.309C75.186 174.35 74.9382 174.433 74.6904 174.474C76.9209 178.646 78.284 183.272 78.6557 188.022C73.0382 187.857 67.4207 188.807 62.1336 190.831L62.2575 191.161C60.3987 188.311 58.9118 185.213 57.7965 181.95C57.6726 181.578 57.5487 181.165 57.5074 180.752C56.3508 181.372 55.2356 182.033 54.1203 182.694C47.0984 177.324 40.5309 171.128 36.3177 163.363C32.1459 155.597 30.6176 146.056 33.8807 137.836C36.8547 130.401 44.2897 124.618 52.179 124.494C50.5681 120.447 49.7833 116.027 49.9485 111.69C50.2789 102.727 54.4921 94.259 60.2748 87.361C60.6053 86.9479 60.977 86.5348 61.3075 86.163C55.029 78.6455 48.7093 71.1692 42.4309 63.6516C57.9617 50.5578 75.1447 39.3641 93.443 30.4834C95.3017 29.5747 97.5736 28.7073 99.2671 29.8639C99.9693 30.3595 100.465 31.1444 100.919 31.8879C108.478 44.5273 116.037 57.208 123.596 69.8474C131.237 73.1932 137.888 78.976 141.894 86.3283C142.762 87.8979 143.505 89.5501 144.083 91.2436C144.372 90.9958 144.662 90.7479 144.909 90.5001C149.866 86.2044 155.566 82.4869 162.01 81.3303C168.453 80.2151 175.765 82.1564 179.606 87.4848C182.539 91.3675 183.117 96.6133 182.249 101.363ZM100.919 163.982C96.3344 163.982 92.6582 175.259 92.6582 189.179C92.6582 203.099 96.3757 214.375 100.919 214.375C105.463 214.375 109.18 203.099 109.18 189.179C109.18 175.259 105.504 163.982 100.919 163.982ZM55.4008 185.668C52.3442 186.494 51.3942 192.855 53.2942 199.835C55.1943 206.816 59.2009 211.855 62.2988 210.988C65.3554 210.162 66.3054 203.801 64.4054 196.82C62.5053 189.798 58.4574 184.8 55.4008 185.668ZM137.888 180.215C134.707 179.885 131.568 185.461 130.824 192.69C130.081 199.918 132.064 206.031 135.203 206.32C138.383 206.651 141.522 201.074 142.266 193.846C143.009 186.659 141.027 180.546 137.888 180.215Z" fill="white"/>
<path d="M168.123 158.406C167.421 157.993 168.082 156.919 168.743 157.332C173.369 160.099 177.995 162.908 182.621 165.675C183.323 166.088 182.663 167.162 182.002 166.749C177.375 163.982 172.749 161.173 168.123 158.406ZM161.514 165.345C164.158 167.988 166.801 170.632 169.445 173.276C170.023 173.854 170.89 172.945 170.312 172.408C167.669 169.765 165.025 167.121 162.382 164.478C161.803 163.899 160.936 164.767 161.514 165.345ZM21.5304 167.245C16.739 169.352 11.9476 171.499 7.15616 173.606C6.41266 173.936 7.07355 175.01 7.77574 174.68C12.5672 172.573 17.3586 170.426 22.15 168.319C22.8522 167.988 22.2326 166.956 21.5304 167.245ZM24.174 112.309C16.4086 113.796 8.47792 114.291 0.588601 113.755C-0.1962 113.713 -0.1962 114.952 0.588601 114.994C8.60184 115.531 16.6564 114.994 24.5044 113.507C25.2892 113.383 24.9588 112.185 24.174 112.309ZM21.3239 120.281C17.8955 120.983 14.4259 121.644 10.9976 122.346C10.2127 122.511 10.5432 123.709 11.328 123.544C14.7563 122.842 18.226 122.181 21.6543 121.479C22.4391 121.313 22.1087 120.116 21.3239 120.281ZM118.185 32.7961C119.218 30.4004 120.25 27.9633 121.283 25.5676C121.407 25.2785 121.365 24.9067 121.076 24.7002C120.828 24.535 120.374 24.6176 120.209 24.9067C119.176 27.3024 118.144 29.7394 117.111 32.1351C116.987 32.4243 117.028 32.7961 117.317 33.0026C117.565 33.1678 118.02 33.1265 118.185 32.7961ZM47.3462 26.5589C45.6114 24.4937 43.8766 22.4284 42.1831 20.3631C41.9766 20.1153 41.5222 20.1566 41.3157 20.3631C41.0678 20.6109 41.1092 20.9827 41.3157 21.2306C43.0505 23.2958 44.7853 25.3611 46.4788 27.4264C46.6854 27.6742 47.1397 27.6329 47.3462 27.4264C47.5941 27.1785 47.5528 26.8068 47.3462 26.5589ZM34.5829 23.3784C37.6395 25.8154 40.6548 28.2938 43.7114 30.7308C44.331 31.2265 45.1984 30.359 44.5788 29.8633C41.5222 27.4263 38.5069 24.9481 35.4503 22.5111C34.8307 22.0154 33.9633 22.8828 34.5829 23.3784Z" fill="white"/>
<path d="M121.985 164.272C122.315 170.591 122.357 176.911 122.109 183.231C122.109 183.726 121.572 183.892 121.241 183.768H121.2C117.565 184.098 113.93 184.429 110.296 184.759C109.511 184.842 109.511 183.602 110.296 183.52C113.848 183.189 117.359 182.859 120.911 182.57C121.118 176.457 121.076 170.344 120.746 164.272C119.011 164.189 117.317 164.106 115.583 163.941C114.798 163.859 114.798 162.619 115.583 162.702C117.483 162.867 119.424 162.991 121.324 163.032V162.785C121.324 162.867 121.324 162.95 121.324 163.032C127.726 163.239 134.129 162.867 140.49 161.917C141.275 161.793 141.605 162.991 140.82 163.115C134.583 164.065 128.305 164.437 121.985 164.272ZM105.174 190.831C105.008 191.616 106.206 191.946 106.372 191.161C107.487 185.957 107.239 180.546 105.711 175.424C105.463 174.681 104.306 174.97 104.513 175.755C106 180.67 106.248 185.874 105.174 190.831ZM98.6887 169.104C96.4995 172.574 95.3843 176.705 95.5908 180.794C95.6321 181.579 96.8713 181.579 96.83 180.794C96.6648 176.911 97.6561 173.028 99.7627 169.724C100.176 169.063 99.1018 168.443 98.6887 169.104ZM137.144 184.016C137.929 183.685 138.342 184.346 138.507 185.007C139.127 186.99 139.251 189.137 138.92 191.161C138.879 191.492 139.003 191.822 139.333 191.905C139.622 191.987 140.035 191.822 140.077 191.492C140.283 190.17 140.366 188.848 140.242 187.485C140.118 186.246 139.911 184.883 139.333 183.768C138.755 182.735 137.598 182.363 136.524 182.859C135.368 183.396 134.955 184.635 134.624 185.75C134.418 186.535 135.616 186.866 135.822 186.081C136.111 185.379 136.359 184.346 137.144 184.016ZM55.8964 200.538C55.6073 200.62 55.3594 200.992 55.4833 201.281C56.4334 203.842 57.7965 206.238 59.49 208.386C59.8617 208.881 60.3161 209.294 60.9357 209.46C61.5139 209.584 62.1335 209.46 62.6292 209.129C63.7444 208.427 64.0335 207.105 64.1988 205.907C64.2401 205.577 64.1162 205.247 63.7857 205.164C63.4966 205.081 63.0835 205.247 63.0422 205.577C62.9183 206.486 62.7944 207.642 61.927 208.138C61.0183 208.675 60.3574 207.518 59.903 206.899C58.5813 205.081 57.5073 203.057 56.6812 200.951C56.5573 200.662 56.2268 200.455 55.8964 200.538ZM181.341 106.94C179.895 110.823 177.954 114.54 175.971 118.175C173.906 122.016 171.758 125.816 169.527 129.534C167.503 132.962 165.521 136.721 162.547 139.447C159.903 141.884 156.475 143.041 152.923 143.289C151.312 143.412 149.701 143.33 148.131 143.165C146.396 145.189 144.662 147.171 142.803 149.071C141.275 150.6 139.622 152.128 137.846 153.408C137.557 153.078 137.268 152.789 136.979 152.5C137.061 152.417 137.144 152.376 137.268 152.293C140.944 149.608 144.001 146.097 146.975 142.669C144.703 141.512 142.348 140.48 139.953 139.612C137.598 138.786 135.203 138.125 132.807 137.588C131.692 137.341 130.411 137.01 129.337 137.464C128.924 137.63 128.635 137.878 128.346 138.167C128.346 138.208 128.346 138.249 128.346 138.291C128.387 139.612 127.561 140.728 126.446 141.306C124.546 144.858 122.687 148.452 120.828 152.004C120.333 152.417 119.837 152.871 119.424 153.367C119.383 153.45 119.341 153.532 119.3 153.615L118.763 154.441C118.681 154.482 118.598 154.482 118.515 154.524C118.391 154.689 118.267 154.854 118.144 155.061C118.061 154.978 117.978 154.854 117.978 154.73C114.922 155.763 111.576 155.969 108.272 155.763C107.322 155.721 106.372 155.639 105.463 155.556C105.669 157.002 105.339 158.489 104.306 159.604C103.563 160.43 102.571 160.967 101.497 161.091C101.621 161.793 101.704 162.495 101.828 163.198C106.372 162.743 110.791 161.298 114.757 158.985C115.5 158.53 116.243 158.076 116.946 157.58C116.739 158.158 116.574 158.778 116.45 159.398C115.583 159.935 114.715 160.43 113.806 160.885C110.502 162.537 106.991 163.693 103.356 164.23C107.156 167.204 109.841 177.076 109.841 189.096C109.841 189.385 109.841 189.716 109.841 190.005C111.865 189.922 113.889 189.964 115.872 190.087C120.746 190.459 125.578 191.574 130.163 193.351C130.163 193.103 130.205 192.855 130.246 192.566C131.031 184.883 134.459 179.183 138.011 179.555C141.564 179.926 143.753 186.205 142.968 193.888C142.596 197.44 141.646 200.786 140.283 203.181C138.92 205.618 137.227 206.899 135.574 206.899C135.45 206.899 135.368 206.899 135.244 206.899C133.468 206.734 131.981 205.04 131.072 202.231C130.37 200.083 130.081 197.44 130.163 194.631C123.72 192.111 116.78 190.914 109.882 191.244C109.511 204.668 105.752 214.871 101.002 214.871C96.3343 214.871 92.6168 204.957 92.1625 191.822C88.6102 192.07 85.058 192.566 81.547 193.268C81.4644 193.309 81.4231 193.309 81.3405 193.309C81.2992 194.094 81.2579 194.879 81.2579 195.664C81.2166 196.449 79.9774 196.449 80.0187 195.664C80.1013 193.144 80.2252 190.583 80.3078 188.063C80.3078 187.609 80.7209 187.403 81.0927 187.485C81.134 187.32 81.2579 187.155 81.5057 187.114C84.9754 186.122 88.6102 185.585 92.2038 185.544C92.6581 175.548 95.0125 167.535 98.1931 164.519C96.9126 164.519 95.5908 164.396 94.3104 164.23C88.9407 163.528 83.7775 161.463 79.3165 158.365C78.3665 159.067 77.4991 159.893 76.7556 160.843C75.3512 162.619 74.9795 164.685 75.186 166.915C75.2686 167.659 75.3512 168.402 75.4751 169.146C75.6816 169.972 75.8882 170.757 76.0534 171.583C76.0947 171.789 76.0534 171.954 75.9708 172.078C76.0947 172.781 76.1773 173.483 76.2599 174.185C76.3012 174.433 76.0534 174.722 75.8056 174.763H75.7643C76.3838 175.961 76.9208 177.242 77.3752 178.522C78.4904 181.537 79.1513 184.676 79.3991 187.898C79.3991 188.022 79.3578 188.146 79.2752 188.27C78.9035 187.816 78.4904 187.361 78.0361 186.99C77.5817 182.818 76.3425 178.77 74.4425 175.052C68.825 176.291 63.3727 178.274 58.3334 180.959C58.4573 181.62 58.7878 182.322 58.9943 182.859C59.3247 183.768 59.6965 184.676 60.1096 185.544C60.2748 185.916 60.4813 186.329 60.6465 186.7C60.5226 186.824 60.3987 186.948 60.3161 187.072C60.5226 187.279 60.6878 187.527 60.8943 187.733C62.5052 189.757 63.9096 192.566 64.8183 195.705C69.7337 195.829 74.649 195.994 79.5644 196.242C80.3492 196.283 80.3492 197.522 79.5644 197.481C74.7729 197.233 69.9402 197.068 65.1488 196.944C67.0075 204.214 65.851 210.492 62.4639 211.401C62.1748 211.484 61.927 211.525 61.6378 211.525C58.3747 211.525 54.5746 206.651 52.7159 199.794C50.6919 192.359 51.8072 185.792 55.2768 184.842C56.3921 184.553 57.5899 184.842 58.7878 185.709C58.1682 184.346 57.5899 182.942 57.1769 181.496C56.3094 181.992 55.4007 182.487 54.5746 183.024C54.4094 183.148 54.1203 183.148 53.955 183.024C48.9984 179.224 44.2483 175.052 40.3656 170.137C33.5915 161.545 29.4197 149.98 32.848 139.117C35.409 131.021 42.9265 124.247 51.4767 123.71C50.2789 120.405 49.5767 116.894 49.4941 113.342C49.2875 104.131 53.2529 95.2917 58.8704 88.1459C59.4487 87.4024 60.0682 86.6589 60.6878 85.9567C54.5333 78.6043 48.3375 71.252 42.183 63.8997C41.9765 63.6518 41.8939 63.2387 42.183 63.0322C42.9265 62.3713 43.7113 61.7518 44.4961 61.1322C50.6506 56.093 57.0117 51.3429 63.6205 46.8819C70.2294 42.4209 77.0447 38.3316 84.0253 34.5315C85.7602 33.5815 87.5363 32.6728 89.3124 31.7641C91.0472 30.8967 92.7408 29.9466 94.5169 29.2444C96.0865 28.5835 97.9452 28.1706 99.5148 28.9967C100.3 29.4097 100.837 30.1119 101.291 30.8141C101.869 31.6815 102.365 32.5902 102.902 33.4989C107.404 41.0578 111.948 48.6167 116.45 56.1756C119.052 60.5127 121.613 64.8497 124.215 69.1454C128.139 70.8803 131.774 73.2346 134.955 76.126C139.003 79.8022 142.555 84.6349 144.579 89.922C149.37 85.7502 154.864 82.074 161.101 80.7109C167.38 79.3478 174.691 80.6696 179.193 85.5436C184.439 91.4503 183.902 100.042 181.341 106.94ZM59.8617 188.683C58.5399 187.072 57.2182 186.163 56.1029 186.163C55.9377 186.163 55.7725 186.205 55.566 186.246C53.1703 186.907 51.9311 192.442 53.8724 199.67C55.8138 206.899 59.6965 211.071 62.0922 210.41C64.4879 209.749 65.7271 204.255 63.7857 197.109C61.927 197.068 60.0682 197.027 58.2095 197.027C57.4247 197.027 57.4247 195.788 58.2095 195.788C59.9443 195.829 61.6792 195.829 63.414 195.87C62.5466 193.02 61.3074 190.5 59.8617 188.683ZM131.32 193.888C133.096 194.631 134.831 195.457 136.524 196.407C137.227 196.779 136.607 197.853 135.905 197.481C134.377 196.655 132.848 195.87 131.237 195.209C131.196 197.688 131.485 200.042 132.105 201.942C132.848 204.255 133.963 205.618 135.244 205.742C136.483 205.866 137.887 204.751 139.085 202.644C140.366 200.372 141.275 197.233 141.646 193.805C142.431 186.37 140.283 181.083 137.805 180.835C137.722 180.835 137.681 180.835 137.598 180.835C135.161 180.835 132.146 185.503 131.403 192.772C131.403 193.144 131.361 193.516 131.32 193.888ZM116.037 67.9889C115.293 71.252 114.674 74.5565 114.22 77.8609C112.609 89.5503 112.815 101.487 114.839 113.094C114.88 113.259 114.839 113.383 114.757 113.507C115.583 113.755 116.367 114.003 117.194 114.251C116.698 111.194 116.285 108.138 115.996 105.04C114.963 93.1025 115.83 81 118.515 69.3106C118.681 68.5258 119.878 68.8563 119.713 69.6411C118.97 72.9042 118.35 76.2087 117.896 79.5131C116.326 90.7069 116.491 102.148 118.267 113.301C118.97 112.64 119.631 111.979 120.291 111.277C121.118 110.368 122.026 109.377 122.398 108.138C122.439 108.014 122.481 107.848 122.481 107.725C122.233 107.931 121.944 108.096 121.572 108.179C120.622 108.468 119.424 108.22 118.846 107.353C118.226 106.403 118.598 105.246 119.424 104.585C120.333 103.883 121.489 103.842 122.398 104.544C122.522 104.627 122.646 104.751 122.77 104.875C122.976 104.131 123.059 103.388 123.1 102.685C123.307 99.9179 122.605 97.1505 121.2 94.7961C120.787 94.0939 121.861 93.4743 122.274 94.1765C122.976 95.3331 123.513 96.5722 123.844 97.8526C124.546 100.372 124.67 103.346 123.761 105.783C123.72 105.948 123.637 106.114 123.555 106.279C123.678 106.651 123.72 107.064 123.72 107.477C123.637 108.881 122.894 110.12 122.026 111.153C120.952 112.475 119.713 113.59 118.474 114.788C118.515 115.242 118.102 115.531 117.73 115.531C117.524 115.738 117.317 115.986 117.111 116.192C115.624 117.844 114.385 119.827 114.509 122.14C114.633 124.412 116.12 126.519 117.978 127.758C120.085 129.162 122.646 129.534 125.083 128.997C130.618 127.84 134.418 123.338 137.351 118.836C138.92 116.44 140.407 114.003 141.77 111.483C143.133 108.922 144.29 106.279 144.785 103.388C145.777 97.77 144.207 91.9047 141.564 86.9067C139.292 82.6523 136.111 78.9348 132.394 75.8782C127.685 71.9955 122.026 69.2693 116.037 67.9889ZM121.407 105.37C120.704 105.081 119.341 105.907 119.961 106.733C120.581 107.559 121.82 106.898 122.233 106.279C122.233 106.238 122.274 106.238 122.274 106.196C122.109 105.825 121.82 105.535 121.407 105.37ZM61.39 85.2132C65.9336 80.1739 71.3033 75.9195 76.8382 71.9542C76.3012 70.715 76.1773 69.3107 76.6317 68.0302C77.1273 66.6258 78.2839 65.5518 79.6057 64.9735C75.8469 61.793 71.9642 53.9037 75.3099 49.8145C79.6883 44.4448 85.1819 46.7992 86.4623 39.4056C90.1385 41.3469 90.3863 46.5514 89.1059 48.4102C88.6928 49.0297 88.1972 49.5254 87.7428 49.9384C88.8994 50.0211 90.0559 50.2689 91.1711 50.6406C92.8647 51.2602 94.4756 52.169 96.1278 52.9538C97.8213 53.7799 99.4735 54.606 101.167 55.4321C104.306 57.0017 107.445 58.5713 110.626 60.0996C110.956 60.2648 111.039 60.8431 110.75 61.0909C108.272 63.1975 105.793 65.304 103.274 67.3693C103.439 67.8649 103.645 68.3193 103.811 68.815C105.958 74.3912 108.106 79.9674 110.213 85.5436C110.337 85.9154 110.13 86.1632 109.841 86.2458C109.345 88.435 108.272 90.4177 106.826 92.1112C103.893 95.5809 99.4322 97.5635 94.9299 97.3156C90.3864 97.0678 85.9667 94.7961 83.3231 91.0786C83.2405 90.9547 83.1992 90.8307 83.1992 90.7481C83.1579 90.6655 83.1579 90.5829 83.1579 90.459C83.2405 85.2132 83.1579 80.0088 82.9514 74.763C82.497 74.8869 82.0014 74.9695 81.5057 74.9695C80.7209 74.9695 79.8948 74.8043 79.1926 74.4325C78.5317 74.1021 77.9534 73.6064 77.4991 72.9868C75.7643 74.226 74.0707 75.4651 72.3772 76.7869C72.4598 76.8282 72.5425 76.8695 72.6251 76.9521C74.9382 79.4717 77.0447 82.1979 78.9448 85.048C82.2905 90.0872 84.9754 95.5809 86.958 101.281C88.8581 106.816 90.0146 112.599 90.469 118.423C91.8734 117.886 93.2364 117.349 94.5995 116.729C98.2757 115.118 101.993 113.383 105.958 112.723C107.859 112.392 109.759 112.351 111.659 112.681C112.319 112.805 112.939 112.929 113.559 113.094C112.98 109.831 112.567 106.568 112.278 103.305C111.246 91.409 112.113 79.3478 114.757 67.6584C111.783 67.1214 108.726 66.9562 105.669 67.1628C104.885 67.2041 104.885 65.9649 105.669 65.9236C106.826 65.841 108.024 65.7997 109.18 65.841C113.6 65.9649 117.978 66.8737 122.109 68.4433C119.341 63.8171 116.574 59.1908 113.806 54.5646C109.387 47.171 104.967 39.7774 100.589 32.425C100.134 31.6815 99.7214 30.814 98.9779 30.2771C98.317 29.8227 97.4496 29.7401 96.6648 29.864C94.8473 30.1531 93.1951 31.1445 91.5842 31.9706C88.1145 33.7054 84.6862 35.5229 81.2992 37.4229C74.5251 41.223 67.9162 45.3536 61.5139 49.7733C55.2355 54.1103 49.1636 58.7365 43.3396 63.6518C45.157 65.7997 46.9331 67.9476 48.7506 70.0955C53.005 75.176 57.2182 80.1739 61.39 85.2132ZM85.2232 120.281C86.5863 119.868 87.9493 119.414 89.2711 118.96C89.0233 115.697 88.5689 112.433 87.8667 109.212C86.5863 103.388 84.5623 97.77 81.8362 92.4829C79.11 87.2372 75.7643 82.3218 71.7576 77.9435C71.6337 77.8196 71.5924 77.6543 71.5924 77.5304C71.0968 77.9435 70.5598 78.3565 70.0641 78.7696C71.9642 81.4131 73.8642 84.0567 75.6816 86.7415C82.2079 96.4896 87.5776 108.22 85.2232 120.281ZM83.1579 65.4279C83.0753 65.7584 82.7449 65.9649 82.4144 65.9236C80.5557 65.5518 78.4491 66.7084 77.8295 68.4845C77.2099 70.2606 78.0774 72.5325 79.7709 73.3999C81.4644 74.2673 83.8188 73.689 84.8928 72.1607C85.0993 71.8716 85.471 71.8302 85.7602 71.9955C86.0493 72.202 86.0906 72.5738 85.9254 72.8629C85.471 73.5238 84.8927 74.0194 84.1906 74.3912C84.4384 79.7609 84.4797 85.1719 84.4384 90.5416C85.8015 92.483 87.7015 93.9286 89.8494 94.9199C93.6908 96.6547 98.1931 96.6548 101.911 94.6308C105.463 92.7308 108.106 89.3025 108.85 85.2959C108.437 84.1806 107.982 83.0653 107.569 81.9501C105.711 77.076 103.852 72.2433 101.952 67.3693C101.869 67.1628 101.952 66.8736 102.117 66.7497C104.471 64.767 106.867 62.7844 109.222 60.8018C107.776 60.0996 106.372 59.3973 104.967 58.6952C101.828 57.1256 98.73 55.5559 95.5908 54.0276C94.8886 53.6972 94.1864 53.3255 93.4429 52.9538C93.5669 53.0777 93.6908 53.2015 93.8147 53.3255C94.0212 53.6146 94.0625 53.9451 93.8147 54.1929C93.6082 54.4407 93.1538 54.4407 92.9473 54.1929C92.8234 54.0277 92.6995 53.9038 92.5342 53.7799C92.4929 53.7386 92.4929 53.7386 92.4516 53.6973C92.369 53.656 92.2864 53.5733 92.2038 53.532C92.1625 53.532 92.1212 53.4907 92.0799 53.4907H92.0386C91.956 53.4494 91.8733 53.4494 91.7907 53.4081C91.7494 53.4081 91.7494 53.4081 91.7081 53.4081C91.6668 53.4081 91.6668 53.4081 91.6668 53.4081C91.6255 53.4081 91.5842 53.4081 91.5429 53.4081C91.5429 53.4081 91.5429 53.4081 91.5016 53.4081C91.4603 53.4081 91.4603 53.4081 91.5016 53.4081C91.419 53.4081 91.2951 53.4494 91.2538 53.4494C91.2125 53.4494 91.1711 53.4907 91.1711 53.4907C91.1298 53.4907 91.0886 53.532 91.0886 53.5733L91.0472 53.6146L91.0059 53.6559C91.0059 53.6559 91.0059 53.656 91.0059 53.6973C91.0059 53.7386 90.9646 53.7799 90.9646 53.7799C90.9646 53.8212 90.9233 53.8625 90.9233 53.9038C90.9233 53.9451 90.9233 54.0277 90.9233 53.945C90.9233 53.8624 90.9233 53.9864 90.9233 54.069C90.9233 54.1103 90.9233 54.1103 90.9233 54.1516C90.9233 54.1929 91.0059 54.3168 90.9233 54.1516C91.0472 54.482 91.0059 54.8125 90.7168 55.019C90.469 55.1842 90.0146 55.1016 89.8494 54.8125C89.6016 54.2755 89.6016 53.6972 89.8907 53.2015C90.1385 52.7059 90.6342 52.3755 91.1298 52.2516C91.3777 52.2103 91.6255 52.1689 91.832 52.2102C90.0146 51.4254 88.0733 50.9298 86.0493 51.2602C85.9667 51.2602 85.9254 51.2602 85.8428 51.2602C84.1079 52.2102 82.7036 53.0363 83.034 56.3408C83.2818 58.7778 85.058 61.3387 83.0753 64.4779L82.6623 64.6844C82.7036 64.6844 82.7862 64.6845 82.8275 64.7258C82.9927 64.7671 83.1992 65.0562 83.1579 65.4279ZM54.8224 128.377C55.8964 130.236 57.1769 131.971 58.6225 133.582C60.0682 135.151 61.7205 136.721 63.827 137.258C66.1401 137.877 68.5771 137.134 70.725 136.225C71.8402 135.771 72.9142 135.234 73.9881 134.697C74.9795 134.201 75.9708 133.664 76.7969 132.921C77.9947 131.888 78.9861 130.525 78.6556 128.873C78.3665 127.51 77.5817 126.271 77.086 124.99C76.5078 123.421 76.3838 121.81 77.0034 120.199C77.4165 119.166 77.9948 118.216 78.2013 117.142C78.3665 116.027 78.1187 114.912 77.7469 113.838C76.9621 111.69 75.5577 109.872 74.8142 107.725C74.1534 105.783 73.9468 103.594 75.1447 101.818C75.599 101.157 76.673 101.777 76.2186 102.438C75.6404 103.305 75.4338 104.296 75.5164 105.329C75.8882 109.873 80.8448 113.507 79.1926 118.34C78.8209 119.373 78.2426 120.323 77.9534 121.397C77.9121 121.603 77.8708 121.81 77.8708 122.016C79.4818 121.727 81.0926 121.397 82.7036 120.984C83.1992 120.86 83.6949 120.736 84.1906 120.612C84.0666 120.488 84.0253 120.281 84.0666 120.075C84.7275 116.853 84.7688 113.549 84.3558 110.327C82.9101 98.6787 75.9295 88.8067 69.1967 79.5544C65.0662 83.0653 61.2661 86.948 58.1269 91.409C53.0876 98.6374 49.9071 107.353 50.8571 116.234C51.2702 120.447 52.6746 124.66 54.8224 128.377ZM81.2992 137.877C81.3818 138.001 81.3405 137.754 81.2166 137.919L81.1753 137.96C81.0927 138.125 81.1753 138.332 81.2992 138.497C82.5797 138.538 83.8601 138.58 85.1406 138.621C84.9754 138.497 84.8514 138.291 84.8101 138.084C84.4797 135.193 82.0014 132.632 79.1513 132.219C77.9121 134.077 75.8882 135.193 73.9055 136.143C71.7163 137.217 69.4445 138.332 67.0075 138.662C66.2227 138.786 65.4379 138.786 64.6531 138.662C66.0988 140.315 67.751 141.802 69.6098 142.999C70.5185 143.578 71.5098 144.28 72.5837 144.486C73.0794 144.61 73.5338 144.569 73.8642 144.197C74.1947 143.867 74.4425 143.454 74.8555 143.206C75.9295 142.586 76.9621 143.412 77.8708 143.949C78.697 144.445 79.7296 144.61 80.6796 144.28C81.547 143.991 82.1666 143.206 82.2492 142.297C82.2905 141.843 82.2492 141.347 82.0014 140.934C81.7535 140.48 81.2992 140.191 80.9274 139.901C80.1839 139.282 79.4817 138.084 80.2252 137.175C80.7622 136.514 81.9188 136.473 82.3731 137.258C82.7862 137.919 81.7122 138.538 81.2992 137.877ZM89.0646 153.532C91.5016 153.243 93.9386 153.284 96.3756 153.45C96.7474 152.665 97.3257 152.004 98.0278 151.591C97.243 151.591 97.2843 150.393 98.0691 150.352C98.6887 150.31 99.3496 150.352 99.9692 150.476C99.9279 149.402 99.8453 148.286 99.804 147.213C98.4409 147.378 97.0365 147.089 95.9213 146.304C93.9799 144.982 92.9886 142.462 93.4429 140.191C89.8494 140.067 86.2558 139.943 82.6623 139.86C82.7449 139.943 82.7862 139.984 82.8688 140.067C83.4884 140.893 83.6536 141.967 83.4057 142.958C82.9101 144.982 80.8861 146.015 78.9035 145.725C78.3665 145.643 77.8708 145.478 77.4165 145.23C76.9621 144.982 76.5491 144.569 76.0534 144.404C75.5164 144.197 75.2686 144.569 74.9382 144.941C74.6077 145.312 74.236 145.602 73.7403 145.767C72.749 146.056 71.675 145.643 70.7663 145.189C69.7337 144.652 68.7837 144.032 67.8336 143.371C65.9749 142.008 64.3227 140.397 62.877 138.58C62.7944 138.497 62.7531 138.414 62.7531 138.332C61.927 138.043 61.1835 137.63 60.44 137.093C58.6226 135.771 57.1356 134.036 55.8138 132.26C54.492 130.484 53.3355 128.542 52.3854 126.519C52.1789 126.105 52.0137 125.651 51.8072 125.197C47.6353 125.403 43.5874 127.138 40.4069 129.906C36.6894 133.086 34.2524 137.423 33.2611 142.215C32.1871 147.419 32.848 152.871 34.5828 157.869C38.0525 167.907 45.9418 175.672 54.2029 182.033C60.5226 178.15 67.5445 175.424 74.8142 173.937C74.649 172.491 74.3599 171.046 74.112 169.6C73.9881 169.187 73.9055 168.815 73.7816 168.402L67.9576 155.019C66.9249 153.119 65.851 151.219 64.8183 149.319C64.4466 148.617 65.4792 147.997 65.8923 148.7C66.801 150.352 67.751 152.004 68.6184 153.656C70.5598 157.25 72.3772 160.885 73.8229 164.726C74.0707 162.909 74.8142 161.256 76.0947 159.769C79.3991 155.928 84.2732 154.069 89.0646 153.532ZM100.547 163.322C100.424 162.578 100.3 161.835 100.217 161.091C99.6387 161.009 99.0605 160.761 98.5235 160.389C96.7061 159.108 95.7561 156.795 96.0452 154.606C94.1038 154.482 92.2038 154.441 90.2624 154.606C86.8341 154.895 83.2818 155.804 80.3492 157.704C85.1406 160.967 90.7994 162.95 96.5408 163.322C97.8626 163.404 99.2257 163.404 100.547 163.322ZM92.0386 190.666C92.0386 190.17 92.0386 189.674 92.0386 189.179C92.0386 188.394 92.0386 187.65 92.0799 186.907C88.6102 186.948 85.1406 187.485 81.7535 188.435C81.6709 188.477 81.547 188.477 81.4644 188.435C81.4231 189.674 81.3818 190.914 81.2992 192.153C84.8514 191.368 88.445 190.914 92.0386 190.666ZM102.034 164.891C102.117 165.428 102.2 166.006 102.282 166.543C102.324 166.874 102.2 167.204 101.869 167.287C101.58 167.37 101.167 167.204 101.126 166.874C101.002 166.13 100.878 165.346 100.754 164.602C97.4083 164.85 93.8973 173.111 93.3603 185.626C95.88 185.668 98.4409 185.957 100.919 186.453C101.704 186.618 101.374 187.816 100.589 187.65C98.1931 187.155 95.756 186.907 93.319 186.866C93.2777 187.609 93.2777 188.394 93.2777 189.137C93.2777 189.633 93.2777 190.087 93.2777 190.542C94.7647 190.459 96.2517 190.418 97.7387 190.418C98.5235 190.418 98.5235 191.657 97.7387 191.657C96.2517 191.657 94.7647 191.698 93.2777 191.781C93.7321 204.999 97.4082 213.673 100.878 213.673C104.595 213.673 108.519 203.801 108.519 189.096C108.561 175.961 105.38 166.626 102.034 164.891ZM103.026 153.326C102.53 152.789 101.911 152.376 101.25 152.087C101.25 152.128 101.208 152.21 101.167 152.252C101.043 152.417 100.878 152.5 100.63 152.458C100.547 152.458 100.424 152.417 100.341 152.376C99.5148 152.169 98.6474 152.458 98.0278 153.037C97.3257 153.739 97.1191 154.813 97.2017 155.804C97.3257 157.415 98.3583 159.191 99.9279 159.769C100.093 159.811 100.258 159.852 100.424 159.893C100.465 159.852 100.506 159.852 100.547 159.811C100.713 159.769 100.919 159.811 101.084 159.893C102.282 159.811 103.398 158.985 103.935 157.869C104.678 156.424 104.141 154.482 103.026 153.326ZM123.844 143.578C123.348 143.784 122.811 143.949 122.274 143.949C120.787 143.991 119.424 143.206 118.391 142.173C117.73 143.33 116.367 144.115 115.004 143.908C114.096 143.784 113.27 143.206 112.733 142.462C112.113 143.206 111.163 143.702 110.172 143.702C108.478 143.66 107.115 142.338 106.495 140.81C106.372 140.48 106.289 140.191 106.206 139.86C105.298 139.984 104.348 140.108 103.439 140.315C103.48 141.223 103.48 142.091 103.521 142.999C103.521 143.495 103.563 143.991 103.563 144.486C103.563 144.982 103.563 145.271 103.191 145.643C102.571 146.221 101.787 146.634 100.961 146.923C101.043 148.204 101.084 149.484 101.167 150.765C102.613 151.26 103.893 152.169 104.678 153.532C104.843 153.78 104.967 154.028 105.05 154.317C105.752 154.4 106.454 154.441 107.156 154.524C111.122 154.813 115.211 154.647 118.846 153.119C120.291 150.352 121.737 147.584 123.224 144.776C123.431 144.404 123.637 143.991 123.844 143.578ZM126.983 137.836C126.735 137.01 125.95 136.349 125.083 136.308C124.587 136.267 124.174 135.606 124.628 135.234C126.198 133.995 127.933 132.673 128.676 130.773C128.883 130.153 129.007 129.575 129.007 128.956C128.346 129.286 127.685 129.575 126.983 129.782C124.628 130.566 121.944 130.732 119.589 129.864C117.441 129.079 115.541 127.551 114.426 125.569C113.27 123.545 113.063 121.149 113.93 119.001C114.467 117.597 115.376 116.399 116.367 115.283C114.302 114.705 112.278 113.92 110.172 113.797C106.165 113.549 102.241 114.912 98.6061 116.44C94.8886 117.968 91.2538 119.662 87.4537 120.901C84.3558 121.892 81.1753 122.677 77.9534 123.255C77.9947 123.421 77.9947 123.545 78.0361 123.71C78.4078 125.156 79.2339 126.436 79.7296 127.882C80.1013 128.956 80.1426 130.071 79.8122 131.103C83.1579 131.847 85.7602 134.697 86.1732 138.084C86.2145 138.332 86.008 138.538 85.8014 138.621C88.6515 138.704 91.5016 138.786 94.3104 138.91C94.6821 138.91 95.0538 139.282 94.8886 139.695C94.1864 141.678 94.8886 144.115 96.7061 145.271C97.6148 145.849 98.73 146.056 99.804 145.932C99.7627 145.23 100.671 145.147 100.961 145.643C101.497 145.436 101.993 145.147 102.448 144.734C102.406 143.082 102.365 141.43 102.282 139.778C102.282 139.53 102.489 139.241 102.737 139.199C103.893 138.993 105.05 138.786 106.206 138.662C106.206 137.341 106.537 135.977 106.95 134.738C108.148 130.897 110.172 127.345 112.774 124.247C113.27 123.627 114.178 124.536 113.641 125.114C112.443 126.56 111.369 128.088 110.461 129.74C109.676 131.186 108.974 132.673 108.437 134.201C107.859 135.812 107.28 137.588 107.487 139.323C107.652 140.645 108.478 142.091 109.841 142.421C110.791 142.669 111.989 142.008 112.196 141.017C112.154 140.769 112.154 140.521 112.154 140.232C112.237 139.571 113.228 139.323 113.352 140.067C113.393 140.356 113.435 140.604 113.393 140.893C113.559 141.76 114.22 142.586 115.17 142.71C116.326 142.875 117.4 141.967 117.607 140.852C117.689 140.438 118.35 140.232 118.639 140.562C119.465 141.595 120.622 142.628 122.026 142.71C123.183 142.793 124.422 142.091 124.67 140.893C124.711 140.604 125 140.48 125.248 140.438C125.331 140.438 125.455 140.397 125.537 140.356C125.95 139.53 126.405 138.621 126.983 137.836ZM181.836 100.042C182.291 96.3657 181.878 92.4829 180.06 89.1785C178.449 86.2458 175.806 84.098 172.749 82.9001C166.058 80.2566 158.829 81.9914 152.799 85.5436C150.031 87.1958 147.388 89.1372 144.909 91.2851C146.314 95.4157 146.809 99.7527 145.983 104.09C145.446 106.857 144.331 109.459 143.009 111.938C141.688 114.457 140.159 116.894 138.59 119.29C136.359 122.76 133.674 126.147 130.163 128.295C130.329 129.41 130.122 130.566 129.626 131.64C128.924 133.169 127.685 134.367 126.363 135.399C127.024 135.73 127.561 136.225 127.892 136.845C128.429 136.432 129.089 136.143 129.792 136.06C131.031 135.895 132.27 136.225 133.468 136.473C138.631 137.63 143.588 139.447 148.255 141.925C148.296 141.925 148.296 141.967 148.338 141.967C151.436 142.339 154.534 142.215 157.549 141.099C161.184 139.736 163.579 136.804 165.603 133.623C167.875 130.071 169.982 126.436 172.047 122.76C174.112 119.084 176.136 115.407 177.954 111.607C179.771 108.014 181.341 104.131 181.836 100.042ZM79.3991 68.3193C79.11 68.4845 79.0274 68.8976 79.1926 69.1868C79.3578 69.4759 79.7296 69.5585 80.06 69.3933C81.2992 68.7737 82.8688 68.7737 84.1079 69.352C84.3971 69.4759 84.7688 69.4346 84.9753 69.1454C85.1406 68.8563 85.058 68.4432 84.7688 68.278C83.034 67.4932 81.0926 67.4932 79.3991 68.3193ZM85.3884 59.7278C88.4863 58.5299 91.5016 57.2082 94.5169 55.7625C95.2191 55.4321 95.88 56.506 95.1365 56.8364C94.7234 57.0429 94.3517 57.2082 93.9386 57.3734C93.9799 57.4147 94.0625 57.456 94.1038 57.4973C94.2278 57.6213 94.2691 57.7451 94.3517 57.869C94.4343 58.0756 94.4343 58.2821 94.393 58.4886C94.3517 58.6952 94.2277 58.9017 94.0625 59.0256C93.8973 59.1908 93.6908 59.3148 93.4843 59.3561C93.2777 59.3974 93.0299 59.4387 92.8234 59.3561C92.5755 59.2735 92.369 59.1083 92.2038 58.8604C92.0799 58.6539 92.0386 58.406 92.0799 58.1582C90.9646 58.6538 89.8907 59.1495 88.7754 59.6039C88.8167 59.6452 88.858 59.7278 88.8993 59.7691C88.9407 59.8517 88.982 59.9756 89.0233 60.0583C89.0646 60.1409 89.0646 60.2648 89.0646 60.3887C89.0646 60.5952 89.0233 60.8018 88.8993 61.0083C88.858 61.0496 88.8581 61.0909 88.8168 61.1322C88.7755 61.1735 88.7754 61.2148 88.7341 61.2561C88.6515 61.3387 88.5689 61.38 88.4863 61.4213C88.4037 61.4627 88.3624 61.5039 88.2798 61.5039C88.1972 61.5039 88.1146 61.5453 88.0319 61.5453C87.9906 61.5453 87.908 61.5453 87.8667 61.5453C87.7428 61.5453 87.6602 61.5039 87.5363 61.4626C87.4537 61.4213 87.3297 61.3801 87.2471 61.3388C87.2058 61.2975 87.1232 61.2561 87.0819 61.2148C87.0406 61.1735 86.9993 61.0908 86.958 61.0495C86.8754 60.9669 86.8754 60.843 86.8341 60.7604V60.7192C86.8341 60.7192 86.8341 60.7191 86.8341 60.6778C86.8341 60.5952 86.7928 60.5126 86.7928 60.43C86.4623 60.5539 86.0906 60.7191 85.7602 60.843C84.9754 61.2148 84.6449 60.0169 85.3884 59.7278ZM87.9907 60.43C87.9907 60.43 87.9906 60.4713 88.0319 60.4713C87.9906 60.43 87.9907 60.43 87.9907 60.43ZM84.7688 58.1169C85.7188 57.7452 86.6689 57.4147 87.6189 57.0429C87.908 56.919 88.1559 56.6299 88.0319 56.2994C87.9493 56.0103 87.5776 55.7625 87.2885 55.8864C86.3384 56.2581 85.3884 56.5886 84.4384 56.9604C84.1492 57.0843 83.9014 57.3734 84.0253 57.7039C84.0666 57.993 84.4384 58.2408 84.7688 58.1169ZM91.3777 53.4494C91.3777 53.4081 91.3777 53.4081 91.3777 53.4494V53.4494ZM93.1951 74.9695C93.0712 74.9695 92.9473 74.9695 92.8234 74.9695C92.8234 74.9695 92.7407 74.9695 92.6994 74.9695C92.6581 74.9695 92.6168 74.9695 92.5755 74.9282C92.3277 74.8869 92.0799 74.8043 91.8733 74.7216C91.5429 74.5977 91.0059 74.3086 90.7581 74.1021C90.5516 73.9368 90.3863 73.7716 90.2211 73.6064C90.1385 73.5238 90.0559 73.4412 89.9733 73.3173C89.8907 73.2347 89.9733 73.3172 89.932 73.2346C89.8907 73.1933 89.8494 73.1107 89.8081 73.0694C89.5189 72.6151 89.3537 72.2846 89.2298 71.7889C89.1472 71.4585 88.7754 71.252 88.4863 71.3759C88.1559 71.4585 87.9906 71.8303 88.0732 72.1194C88.6515 74.4325 90.882 76.1673 93.2364 76.1673C93.9799 76.2086 93.9799 74.9695 93.1951 74.9695Z" fill="#3F4254"/>
<path d="M116.244 163.156C115.707 158.654 117.896 153.904 121.655 151.384C125.414 148.864 130.659 148.616 134.625 150.806C138.59 152.995 141.192 157.538 141.068 162.082" fill="#9ED5F0"/>
<path d="M58.0444 196.903C56.64 192.979 58.4988 188.187 61.5967 185.957C64.6533 183.726 68.5773 183.561 72.1295 184.387C74.8144 184.965 77.4992 186.163 79.3167 188.518C81.1341 190.913 81.7537 194.714 80.1841 197.316L79.9776 197.068C72.9556 196.324 65.8924 196.035 58.8705 196.242" fill="#9ED5F0"/>
</svg>
