<svg width="48" height="48" viewBox="0 0 48 48" fill="none" xmlns="http://www.w3.org/2000/svg">
<g id="tabler:wand">
<path id="Vector" d="M30 12L36 18M12 42L42 12L36 6L6 36L12 42ZM18 6C18 7.06087 18.4214 8.07828 19.1716 8.82843C19.9217 9.57857 20.9391 10 22 10C20.9391 10 19.9217 10.4214 19.1716 11.1716C18.4214 11.9217 18 12.9391 18 14C18 12.9391 17.5786 11.9217 16.8284 11.1716C16.0783 10.4214 15.0609 10 14 10C15.0609 10 16.0783 9.57857 16.8284 8.82843C17.5786 8.07828 18 7.06087 18 6ZM38 26C38 27.0609 38.4214 28.0783 39.1716 28.8284C39.9217 29.5786 40.9391 30 42 30C40.9391 30 39.9217 30.4214 39.1716 31.1716C38.4214 31.9217 38 32.9391 38 34C38 32.9391 37.5786 31.9217 36.8284 31.1716C36.0783 30.4214 35.0609 30 34 30C35.0609 30 36.0783 29.5786 36.8284 28.8284C37.5786 28.0783 38 27.0609 38 26Z" stroke="#3D4592" stroke-width="2" stroke-linecap="round" stroke-linejoin="round"/>
</g>
</svg>