<svg width="40" height="40" viewBox="0 0 40 40" fill="none" xmlns="http://www.w3.org/2000/svg">
<g id="Group">
<g id="Group_2" opacity="0.5">
<path id="Vector" d="M27.3274 2.20188L24.5469 3.06447L27.0539 5.74301L31.2475 6.96879L30.108 3.56386C29.7433 2.47428 28.5582 1.79329 27.3274 2.20188Z" fill="white"/>
<path id="Vector_2" d="M2.11962 12.7349L3.07686 15.5042L5.76624 13.0073L6.99698 8.78516L3.57827 9.92013C2.39312 10.3287 1.70937 11.5999 2.11962 12.7349Z" fill="white"/>
<path id="Vector_3" d="M8.77539 33.1172L9.91496 36.5221C10.234 37.7479 11.5559 38.3381 12.7411 38.0203L15.6584 37.0669L13.2425 34.4338L8.77539 33.1172Z" fill="white"/>
<path id="Vector_4" d="M37.9028 27.3079L36.9455 24.4023L34.3929 26.8085L33.0254 31.2576L36.4441 30.1226C37.6293 29.8048 38.4042 28.5337 37.9028 27.3079Z" fill="white"/>
</g>
<g id="Group_3" opacity="0.8">
<path id="Vector_5" d="M22.3157 0.750787C21.4496 -0.202593 20.0821 -0.247993 19.1249 0.61459L16.709 2.83915L21.3128 4.20112L27.0107 5.83548L24.5036 3.15694L22.3157 0.750787Z" fill="white"/>
<path id="Vector_6" d="M0.753825 17.6385C-0.203413 18.5011 -0.248996 19.8631 0.617077 20.8165L2.71388 23.0864L3.9902 18.6373L5.67676 13.0078L2.98738 15.5048L0.753825 17.6385Z" fill="white"/>
<path id="Vector_7" d="M39.4073 19.1347L37.3105 16.9102L35.9431 21.4047L34.3477 26.7618L36.9003 24.3556L39.1794 22.2218C40.1823 21.4955 40.2734 20.0881 39.4073 19.1347Z" fill="white"/>
<path id="Vector_8" d="M13.1523 34.3906L15.5682 37.0238L17.665 39.2483C18.5311 40.2017 19.9442 40.2471 20.8558 39.3845L23.135 37.2962L18.759 36.025L13.1523 34.3906Z" fill="white"/>
</g>
<path id="Vector_9" d="M37.2204 8.78792L31.2035 7.06276L27.0098 5.83698L21.4032 4.15722L16.7993 2.79525L11.694 1.34248C10.4177 1.02468 9.05023 1.66027 8.73115 2.97684L6.95342 8.92412L5.76827 13.1462L4.0817 18.7757L2.80539 23.2248L1.20999 28.5365C0.89091 29.8077 1.52907 31.1697 2.85097 31.4875L8.8679 33.2126L13.2438 34.4838L18.7594 36.1182L23.1353 37.3893L28.3773 38.9329C29.6536 39.2507 31.0211 38.6151 31.3402 37.2985L33.0724 31.3967L34.4398 26.9476L36.0808 21.5905L37.4483 17.096L38.9981 11.9205C39.1804 10.4677 38.4967 9.10572 37.2204 8.78792ZM27.1922 10.5131V15.2346H20.9017H12.4689C12.5145 14.9168 12.6513 14.5082 12.788 14.145C13.0615 13.464 13.4718 12.783 14.0643 12.2837C14.6113 11.8297 15.2951 11.2849 15.9332 11.0125C16.617 10.6947 17.4375 10.5585 18.2124 10.5585H27.1922V10.5131ZM13.2438 29.7623V25.0408H21.9502C22.0869 25.0408 22.2692 25.0408 22.406 24.9954C22.5427 24.95 22.6795 24.8592 22.8162 24.723C22.953 24.5868 22.9986 24.4506 23.0897 24.3144C23.1353 24.1782 23.1353 24.042 23.1353 23.8604C23.1353 23.7242 23.1353 23.5426 23.0897 23.4064C23.0441 23.2702 22.953 23.134 22.8162 22.9978C22.6795 22.8616 22.5427 22.8162 22.406 22.7254C22.2692 22.68 22.1325 22.68 21.9502 22.68H18.3035C17.5742 22.68 16.6626 22.5438 16.0244 22.2261C15.3407 21.9537 14.6569 21.5451 14.1555 20.9549C13.6997 20.5009 13.1527 19.7291 12.8792 19.0935C12.6968 18.6849 12.6057 18.3671 12.5601 17.9585H18.3491H20.9929H21.9957C22.7251 17.9585 23.6367 18.1401 24.2749 18.4125C24.9586 18.6849 25.6424 19.0935 26.1438 19.6837C26.5996 20.1377 27.1466 20.9095 27.4201 21.5451C27.7392 22.2261 27.8759 23.0432 27.8759 23.9058C27.8759 24.6322 27.6936 25.5402 27.4201 26.1758C27.1466 26.8568 26.7363 27.5377 26.1438 28.0371C25.6879 28.4911 24.913 29.0359 24.2749 29.3083C23.5456 29.6261 22.7251 29.7623 21.9046 29.7623H13.2438Z" fill="white"/>
</g>
</svg>
