<svg class="mailpoet_tool_icon" version="1.1" id="Layer_1" xmlns="http://www.w3.org/2000/svg" xmlns:xlink="http://www.w3.org/1999/xlink" x="0px" y="0px"
	 viewBox="1.5 91.5 609 609" enable-background="new 1.5 91.5 609 609" xml:space="preserve">
<circle class="mailpoet_tool_icon_foreground" fill="#AA3333" cx="306.5" cy="396" r="269.5"/>
<path d="M1.5,396c0,168.171,136.329,304.5,304.5,304.5S610.5,564.171,610.5,396S474.171,91.5,306,91.5S1.5,227.829,1.5,396z
	 M363.103,567.313c0,31.521-25.579,57.104-57.103,57.104c-31.522,0-57.104-25.583-57.104-57.104
	c0-31.521,25.583-57.104,57.104-57.104C337.521,510.208,363.103,535.79,363.103,567.313z M363.103,396
	c0,31.521-25.579,57.104-57.103,57.104c-31.522,0-57.104-25.583-57.104-57.104s25.583-57.103,57.104-57.103
	C337.521,338.897,363.103,364.479,363.103,396z M363.103,224.689c0,31.521-25.579,57.104-57.103,57.104
	c-31.522,0-57.104-25.582-57.104-57.104c0-31.522,25.583-57.104,57.104-57.104C337.521,167.585,363.103,193.168,363.103,224.689z"/>
</svg>
