<svg class="mailpoet_tool_icon" version="1.1" id="Layer_1" xmlns="http://www.w3.org/2000/svg" xmlns:xlink="http://www.w3.org/1999/xlink" x="0px" y="0px"
	 width="612px" height="612px" viewBox="-3.14 90 612 612" enable-background="new -3.14 90 612 612" xml:space="preserve">
<circle class="mailpoet_tool_icon_foreground" fill="#AA3333" cx="302.86" cy="396.5" r="269.5"/>
<g id="Layer_1_1_">
	<g>
		<path d="M302.86,327.403c-37.957,0-68.598,30.641-68.598,68.598s30.641,68.598,68.598,68.598
			c37.958,0,68.598-30.641,68.598-68.598S340.817,327.403,302.86,327.403z"/>
		<path d="M302.86,90c-168.999,0-306,137-306,306c0,168.999,137.001,306,306,306c169,0,306-137.003,306-306
			C608.86,227.002,471.859,90,302.86,90z M497.219,430.298h-49.848c-3.888,16.006-10.062,30.87-18.521,44.132l35.214,35.213
			l-48.018,48.019l-35.214-35.214c-13.261,8.229-28.125,14.404-43.672,18.062v49.851h-68.598v-49.851
			c-15.549-3.657-30.411-9.833-43.672-18.062l-35.213,35.214l-48.478-48.477l35.213-35.213
			c-8.232-13.263-14.405-28.126-18.064-43.674H108.5v-67.91h49.619c3.659-16.006,10.061-30.869,18.293-44.36l-35.213-35.213
			l48.017-48.018l35.213,35.214c13.262-8.46,28.354-14.635,44.131-18.522v-49.848h68.598v49.848
			c15.546,3.659,30.411,9.834,43.671,18.064l35.214-35.213l48.475,48.475l-35.213,35.213c8.231,13.491,14.636,28.354,18.293,44.36
			h49.619L497.219,430.298L497.219,430.298z"/>
	</g>
</g>
</svg>
