<svg class="mailpoet_tool_icon" version="1.1" id="Layer_1" xmlns="http://www.w3.org/2000/svg" xmlns:xlink="http://www.w3.org/1999/xlink" x="0px" y="0px" viewBox="0 0 16.018 16.014" enable-background="new 0 0 16.018 16.014" xml:space="preserve">
<path d="M16.018,9.185c0,0.157-0.126,0.344-0.292,0.375l-1.93,0.292c-0.114,0.334-0.24,0.647-0.406,0.95
    c0.354,0.51,0.729,0.969,1.116,1.438c0.063,0.073,0.104,0.167,0.104,0.26s-0.031,0.167-0.094,0.24
    c-0.25,0.333-1.658,1.866-2.012,1.866c-0.094,0-0.188-0.042-0.271-0.094l-1.439-1.125c-0.303,0.156-0.625,0.292-0.95,0.396
    c-0.073,0.636-0.135,1.314-0.301,1.939c-0.042,0.167-0.188,0.292-0.376,0.292H6.851c-0.188,0-0.354-0.135-0.375-0.313l-0.292-1.918
    c-0.323-0.104-0.636-0.229-0.938-0.385l-1.471,1.115c-0.073,0.063-0.166,0.094-0.261,0.094c-0.093,0-0.188-0.042-0.261-0.115
    c-0.552-0.5-1.282-1.146-1.72-1.751C1.48,12.667,1.46,12.584,1.46,12.5c0-0.094,0.031-0.167,0.083-0.24
    c0.355-0.479,0.74-0.938,1.095-1.428C2.461,10.499,2.315,10.154,2.21,9.8L0.302,9.519C0.125,9.487,0,9.321,0,9.143V6.829
    c0-0.157,0.125-0.345,0.281-0.376l1.939-0.292c0.104-0.333,0.24-0.647,0.407-0.959c-0.354-0.501-0.729-0.97-1.116-1.439
    C1.449,3.69,1.408,3.607,1.408,3.513c0-0.093,0.042-0.167,0.094-0.239C1.752,2.93,3.16,1.407,3.514,1.407
    c0.095,0,0.188,0.042,0.271,0.104l1.439,1.115C5.527,2.471,5.85,2.335,6.173,2.231c0.073-0.636,0.135-1.314,0.302-1.939
    C6.517,0.125,6.663,0,6.851,0h2.315c0.188,0,0.354,0.135,0.376,0.313l0.292,1.918c0.323,0.104,0.636,0.229,0.938,0.385l1.481-1.115
    c0.063-0.063,0.156-0.094,0.25-0.094s0.188,0.042,0.261,0.104c0.553,0.51,1.283,1.157,1.721,1.772
    c0.052,0.063,0.073,0.146,0.073,0.229c0,0.094-0.031,0.167-0.083,0.24c-0.355,0.479-0.741,0.938-1.096,1.428
    c0.177,0.333,0.323,0.678,0.428,1.022l1.908,0.292c0.177,0.031,0.303,0.198,0.303,0.375V9.185z M8.008,5.338
    c-1.47,0-2.669,1.199-2.669,2.669s1.2,2.669,2.669,2.669c1.47,0,2.67-1.199,2.67-2.669S9.479,5.338,8.008,5.338z"/>
</svg>
