<svg class="mailpoet_tool_icon" version="1.1" id="Layer_1" xmlns="http://www.w3.org/2000/svg" xmlns:xlink="http://www.w3.org/1999/xlink" x="0px" y="0px" viewBox="0 0 15 16" enable-background="new 0 0 15 16" xml:space="preserve">
<path d="M14.991,3.666c0,0.187-0.149,0.332-0.34,0.332h-1.022v9.853c0,1.143-0.767,2.121-1.704,2.121H3.066
    c-0.937,0-1.704-0.936-1.704-2.079V3.998H0.341C0.149,3.998,0,3.853,0,3.666V3c0-0.187,0.149-0.333,0.341-0.333h3.29l0.745-1.735
    c0.214-0.509,0.853-0.925,1.417-0.925h3.407c0.564,0,1.203,0.416,1.416,0.925l0.745,1.735h3.29c0.191,0,0.34,0.146,0.34,0.333V3.666
    z M5.452,5.661c0-0.187-0.149-0.333-0.341-0.333H4.429c-0.191,0-0.34,0.146-0.34,0.333v7.316c0,0.188,0.149,0.333,0.34,0.333h0.682
    c0.191,0,0.341-0.146,0.341-0.333V5.661z M9.88,2.667L9.369,1.452C9.337,1.41,9.242,1.348,9.188,1.337H5.813
    C5.75,1.348,5.664,1.41,5.632,1.452L5.111,2.667H9.88z M8.177,5.661c0-0.187-0.149-0.333-0.341-0.333H7.155
    c-0.191,0-0.341,0.146-0.341,0.333v7.316c0,0.188,0.149,0.333,0.341,0.333h0.682c0.191,0,0.341-0.146,0.341-0.333V5.661z
     M10.903,5.661c0-0.187-0.149-0.333-0.341-0.333H9.88c-0.191,0-0.34,0.146-0.34,0.333v7.316c0,0.188,0.149,0.333,0.34,0.333h0.682
    c0.191,0,0.341-0.146,0.341-0.333V5.661z"/>
<rect id="_x3C_Slice_x3E_" fill="none" width="15" height="16"/>
</svg>
