<svg class="mailpoet_tool_icon" version="1.1" id="Layer_1" xmlns="http://www.w3.org/2000/svg" xmlns:xlink="http://www.w3.org/1999/xlink" x="0px" y="0px"
	 width="611.631px" height="611.632px" viewBox="0 93.684 611.631 611.632" enable-background="new 0 93.684 611.631 611.632"
	 xml:space="preserve">
<circle class="mailpoet_tool_icon_foreground" fill="#AA3333" cx="306" cy="403.5" r="269.5"/>
<rect id="_x3C_Slice_x3E_" y="69.6" fill="none" width="612" height="652.8"/>
<g>
	<path d="M314.959,324.106h-18.286c-5.128,0-9.156,3.92-9.156,8.942v196.446c0,5.049,4,8.939,9.156,8.939h18.313
		c5.128,0,9.154-3.92,9.154-8.939V333.048h-0.025C324.115,328.026,320.114,324.106,314.959,324.106z"/>
	<path d="M241.789,324.106h-18.313c-5.128,0-9.129,3.92-9.129,8.942v196.446c0,5.049,4.001,8.939,9.129,8.939h18.313
		c5.129,0,9.156-3.92,9.156-8.939V333.048C250.945,328.026,246.944,324.106,241.789,324.106z"/>
	<path d="M305.816,93.684C136.918,93.684,0,230.602,0,399.5c0,168.896,136.918,305.816,305.816,305.816
		c168.896,0,305.815-136.919,305.815-305.816C611.633,230.602,474.714,93.684,305.816,93.684z M507.082,279.479
		c0,5.021-4,8.915-9.129,8.915h-27.442v264.569c0,30.691-20.595,56.951-45.755,56.951H186.877c-25.16,0-45.755-25.133-45.755-55.824
		V288.394h-27.416c-5.155,0-9.156-3.894-9.156-8.915v-17.883c0-5.021,4.001-8.942,9.156-8.942h88.342l20.004-46.587
		c5.746-13.667,22.904-24.837,38.049-24.837h91.483c15.145,0,32.302,11.17,38.021,24.837l20.005,46.587h88.342
		c5.129,0,9.129,3.92,9.129,8.942L507.082,279.479L507.082,279.479z"/>
	<path d="M356.123,220.029c-0.859-1.128-3.41-2.792-4.861-3.088h-90.624c-1.691,0.295-4,1.96-4.86,3.088l-13.99,32.625h128.055
		L356.123,220.029z"/>
	<path d="M388.156,324.106h-18.313c-5.129,0-9.129,3.92-9.129,8.942v196.446c0,5.049,4,8.939,9.129,8.939h18.313
		c5.129,0,9.157-3.92,9.157-8.939V333.048C397.313,328.026,393.313,324.106,388.156,324.106z"/>
</g>
</svg>
