<svg width="90" height="90" viewBox="0 0 90 90" fill="none" xmlns="http://www.w3.org/2000/svg">
<path fill-rule="evenodd" clip-rule="evenodd" d="M71.2429 7.34463H18.3616C12.2771 7.34463 7.34463 12.2771 7.34463 18.3616V71.2429C7.34463 77.3274 12.2771 82.2598 18.3616 82.2598H71.2429C77.3274 82.2598 82.2598 77.3274 82.2598 71.2429V18.3616C82.2598 12.2771 77.3274 7.34463 71.2429 7.34463ZM18.3616 0C8.22076 0 0 8.22075 0 18.3616V71.2429C0 81.3837 8.22075 89.6045 18.3616 89.6045H71.2429C81.3837 89.6045 89.6045 81.3837 89.6045 71.2429V18.3616C89.6045 8.22076 81.3837 0 71.2429 0H18.3616Z" fill="white"/>
<path fill-rule="evenodd" clip-rule="evenodd" d="M54.1449 28.1896C53.9728 28.0356 53.7911 27.8882 53.5998 27.7474C51.9414 26.5264 49.6907 25.9159 46.8478 25.9159C44.916 25.9159 43.285 26.1892 41.9546 26.7359C40.6243 27.2644 39.6037 28.0025 38.893 28.9502C38.1294 29.995 36.829 30.8418 35.7046 30.2012C34.8223 29.6985 34.0076 29.0784 33.2839 28.3548C31.9339 27.0047 30.944 25.3377 30.405 23.5061C30.1674 22.6988 30.3776 21.8165 31.0133 21.265C32.434 20.0323 34.0947 18.9948 35.9954 18.1524C39.2028 16.7309 42.8476 16.0202 46.9298 16.0202C51.0849 16.0202 54.7115 16.7309 57.8095 18.1524C60.9259 19.5739 63.3496 21.5512 65.0809 24.0843C65.7142 25.011 66.2354 25.9913 66.6443 27.0252C67.8571 30.0913 65.0579 32.8866 61.7607 32.8866C59.1869 32.8866 57.1265 30.9615 55.18 29.1429L55.1799 29.1428C54.8321 28.8178 54.4878 28.4962 54.1449 28.1896ZM37.1987 34.2544C37.6871 34.0635 38.21 34.3524 38.4829 34.8001C38.9568 35.5473 39.6037 36.1942 40.4238 36.7409C41.2439 37.2694 42.1915 37.7342 43.2667 38.1351C44.342 38.5178 45.4901 38.8458 46.7111 39.1192L51.7409 40.322C54.183 40.8687 56.4245 41.5977 58.4656 42.5089C60.5067 43.4201 62.2744 44.5408 63.7688 45.8712C65.2632 47.2015 66.4204 48.7688 67.2405 50.573C68.0788 52.3772 68.5071 54.4456 68.5253 56.7783C68.5071 60.2044 67.6323 63.1749 65.901 65.6898C64.188 68.1865 61.7095 70.1274 58.4656 71.5124C55.2399 72.8792 51.3491 73.5626 46.7931 73.5626C42.2735 73.5626 38.3371 72.8701 34.9839 71.4851C31.6489 70.1001 29.0429 68.0499 27.1658 65.3345C26.2995 64.0605 25.6252 62.646 25.1428 61.091C24.1699 57.9547 26.943 55.1928 30.2268 55.1928H30.6526C33.4909 55.1928 35.5992 57.6279 37.3075 59.8946C38.2734 61.1338 39.5582 62.0724 41.1619 62.7102C42.7838 63.3298 44.6153 63.6396 46.6564 63.6396C48.6611 63.6396 50.4015 63.3481 51.8776 62.7649C53.372 62.1817 54.5292 61.3707 55.3493 60.332C56.1694 59.2932 56.5794 58.0995 56.5794 56.7509C56.5794 55.4935 56.2058 54.4365 55.4586 53.58C54.7297 52.7234 53.6545 51.9945 52.233 51.3931C50.8297 50.7917 49.1076 50.245 47.0665 49.7529L40.9705 48.2221C36.9718 47.2494 33.6859 45.8124 31.1129 43.9111C30.4174 43.3972 30.1608 42.4925 30.405 41.6629C30.9439 39.8315 31.9336 38.1645 33.2834 36.8145C34.4003 35.6975 35.7342 34.827 37.1987 34.2544ZM29.9545 26.532L29.4188 24.7118C29.3957 24.6328 29.3476 24.5633 29.2818 24.5139C29.2159 24.4645 29.1358 24.4378 29.0535 24.4378C28.9712 24.4378 28.8911 24.4645 28.8252 24.5139C28.7593 24.5633 28.7113 24.6328 28.6882 24.7118L28.1532 26.532C27.7938 27.7529 27.1338 28.8641 26.2338 29.764C25.3338 30.6639 24.2224 31.3236 23.0014 31.6829L21.1811 32.2186C20.8166 32.3267 20.8166 32.8426 21.1811 32.9491L23.0014 33.4849C24.2222 33.8442 25.3335 34.5041 26.2334 35.4039C27.1333 36.3038 27.7931 37.415 28.1525 38.6358L28.6882 40.4568C28.7955 40.8205 29.3115 40.8205 29.4188 40.4568L29.9545 38.6365C30.3138 37.4156 30.9736 36.3043 31.8735 35.4042C32.7734 34.5042 33.8847 33.8443 35.1056 33.4849L36.9266 32.9491C37.2904 32.8419 37.2904 32.3259 36.9266 32.2194L35.1064 31.6837C33.8853 31.3243 32.7738 30.6645 31.8738 29.7644C30.9738 28.8644 30.3138 27.753 29.9545 26.532ZM23.461 37.2817L23.6218 37.8277C23.7296 38.194 23.9275 38.5275 24.1975 38.7975C24.4676 39.0675 24.801 39.2654 25.1673 39.3732L25.7134 39.5339C25.8225 39.5659 25.8225 39.7207 25.7134 39.7529L25.1671 39.9136C24.8008 40.0214 24.4674 40.2194 24.1975 40.4894C23.9275 40.7594 23.7295 41.0928 23.6218 41.4591L23.461 42.0051C23.4288 42.1143 23.2741 42.1143 23.2419 42.0051L23.0812 41.4589C22.9733 41.0926 22.7754 40.7593 22.5054 40.4893C22.2354 40.2193 21.9021 40.0214 21.5358 39.9136L20.9897 39.7529C20.8804 39.7209 20.8804 39.5661 20.9897 39.5337L21.5358 39.373C21.9021 39.2652 22.2355 39.0673 22.5055 38.7973C22.7756 38.5274 22.9735 38.194 23.0814 37.8277L23.2419 37.2817C23.2488 37.2579 23.2632 37.2371 23.283 37.2223C23.3027 37.2075 23.3268 37.1995 23.3515 37.1995C23.3762 37.1995 23.4002 37.2075 23.4199 37.2223C23.4397 37.2371 23.4541 37.2579 23.461 37.2817ZM22.4142 22.428L22.1642 21.5786C22.1535 21.5417 22.131 21.5093 22.1003 21.4863C22.0696 21.4632 22.0322 21.4508 21.9938 21.4508C21.9554 21.4508 21.918 21.4632 21.8872 21.4863C21.8565 21.5093 21.8341 21.5417 21.8233 21.5786L21.5737 22.428C21.4059 22.9978 21.0979 23.5164 20.6779 23.9363C20.2579 24.3562 19.7392 24.6641 19.1695 24.8318L18.32 25.0818C18.1499 25.1322 18.1499 25.373 18.32 25.4227L19.1695 25.6727C19.7392 25.8404 20.2578 26.1483 20.6777 26.5683C21.0977 26.9882 21.4056 27.5068 21.5733 28.0765L21.8233 28.9263C21.8734 29.096 22.1142 29.096 22.1642 28.9263L22.4142 28.0768C22.5819 27.507 22.8898 26.9884 23.3098 26.5684C23.7297 26.1484 24.2483 25.8404 24.8181 25.6727L25.6679 25.4227C25.8377 25.3726 25.8377 25.1319 25.6679 25.0821L24.8184 24.8321C24.2486 24.6645 23.7299 24.3565 23.3099 23.9365C22.8899 23.5165 22.5819 22.9978 22.4142 22.428Z" fill="white"/>
</svg>