<svg width="316" height="70" viewBox="0 0 316 70" fill="none" xmlns="http://www.w3.org/2000/svg">
<path fill-rule="evenodd" clip-rule="evenodd" d="M35 70C54.33 70 70 54.33 70 35C70 15.67 54.33 0 35 0C15.67 0 0 15.67 0 35C0 54.33 15.67 70 35 70ZM45.763 45.255C47.7866 43.9757 48.9999 41.8352 49 39.5446C49.0001 36.3616 46.6761 33.5935 43.3799 32.8506L33.504 30.3992C32.573 30.1894 32.3499 29.0415 33.1419 28.5363L40.8361 23.6287C44.4175 21.3443 45.3487 16.7662 42.9159 13.4032C42.6119 12.9828 42.0024 12.8735 41.5547 13.1591L24.1734 24.8834C22.1884 26.1495 21 28.2566 21 30.5098C21 33.6548 23.2961 36.3896 26.5529 37.1236L36.5897 39.6113C37.5228 39.8216 37.744 40.9733 36.948 41.4765L29.1973 46.3764C25.6058 48.6468 24.6544 53.2212 27.0723 56.5936C27.3746 57.0152 27.9835 57.1269 28.4325 56.843L45.763 45.255Z" fill="#5733FF"/>
<path d="M100.898 51.964C97.6317 51.964 94.7238 51.4295 92.1738 50.3605C89.6237 49.2915 87.5658 47.7772 86 45.8174L91.7711 40.9401C93.1132 42.41 94.6343 43.479 96.3343 44.1471C98.0344 44.7707 99.7567 45.0824 101.502 45.0824C102.888 45.0824 104.007 44.7707 104.857 44.1471C105.707 43.5235 106.132 42.655 106.132 41.5414C106.132 40.5615 105.729 39.7821 104.924 39.203C104.119 38.6686 102.195 38.0004 99.1528 37.1987C94.6343 36.0406 91.4356 34.4594 89.5566 32.4551C87.9013 30.6735 87.0737 28.4687 87.0737 25.8408C87.0737 23.7474 87.7 21.9212 88.9527 20.3623C90.2053 18.7588 91.8606 17.5116 93.9185 16.6208C95.9764 15.73 98.2133 15.2846 100.629 15.2846C103.403 15.2846 106.02 15.7746 108.481 16.7545C110.941 17.7343 112.999 19.0706 114.654 20.7631L109.688 26.1748C108.436 25.0168 106.982 24.0591 105.327 23.302C103.716 22.5002 102.217 22.0994 100.83 22.0994C97.6094 22.0994 95.9988 23.2129 95.9988 25.4399C96.0435 26.5089 96.5357 27.3552 97.4751 27.9787C98.3699 28.6023 100.405 29.3372 103.582 30.1835C107.832 31.297 110.829 32.7669 112.574 34.5931C114.095 36.152 114.856 38.2231 114.856 40.8065C114.856 42.9445 114.229 44.8597 112.977 46.5523C111.769 48.2448 110.113 49.5811 108.011 50.561C105.908 51.4963 103.537 51.964 100.898 51.964Z" fill="black"/>
<path d="M119.377 63V16.0195H127.234L128.369 20.2954C129.533 18.8701 131.121 17.6898 133.134 16.7545C135.147 15.8191 137.272 15.3514 139.509 15.3514C142.596 15.3514 145.347 16.1309 147.763 17.6898C150.179 19.2487 152.08 21.409 153.467 24.1705C154.854 26.932 155.547 30.0722 155.547 33.5909C155.547 37.1096 154.854 40.2498 153.467 43.0113C152.08 45.7728 150.179 47.9553 147.763 49.5588C145.347 51.1177 142.596 51.8972 139.509 51.8972C137.406 51.8972 135.371 51.474 133.402 50.6278C131.434 49.737 129.846 48.6234 128.638 47.2872V59.0113L119.377 63ZM137.496 44.0135C140.225 44.0135 142.439 43.0558 144.139 41.1406C145.839 39.1808 146.689 36.6642 146.689 33.5909C146.689 30.5621 145.839 28.0901 144.139 26.1748C142.439 24.215 140.225 23.2351 137.496 23.2351C134.767 23.2351 132.552 24.1928 130.852 26.108C129.152 28.0233 128.302 30.5176 128.302 33.5909C128.302 36.6642 129.152 39.1808 130.852 41.1406C132.552 43.0558 134.767 44.0135 137.496 44.0135Z" fill="black"/>
<path d="M178.26 51.964C174.457 51.964 171.125 51.1845 168.261 49.6256C165.398 48.0667 163.161 45.9287 161.551 43.2117C159.985 40.4947 159.202 37.3769 159.202 33.8581C159.202 30.2058 159.963 26.9988 161.484 24.2373C163.049 21.4312 165.174 19.2265 167.859 17.623C170.588 16.0195 173.719 15.2178 177.254 15.2178C180.43 15.2178 183.271 15.9973 185.776 17.5562C188.326 19.0706 190.295 21.1417 191.681 23.7696C193.113 26.3975 193.784 29.4041 193.695 32.7892L193.627 35.662H168.127C168.619 38.2009 169.827 40.2052 171.751 41.6751C173.719 43.1449 176.202 43.8798 179.2 43.8798C180.81 43.8798 182.264 43.6349 183.562 43.1449C184.904 42.655 186.335 41.7864 187.856 40.5393L192.285 46.6859C190.362 48.3785 188.147 49.6924 185.642 50.6278C183.181 51.5186 180.721 51.964 178.26 51.964ZM177.321 23.1015C172.265 23.1015 169.223 25.3731 168.194 29.9163H184.971V29.649C184.837 27.7338 184.031 26.1748 182.555 24.9722C181.123 23.7251 179.379 23.1015 177.321 23.1015Z" fill="black"/>
<path d="M214.829 51.964C211.473 51.964 208.454 51.1623 205.769 49.5588C203.13 47.9553 201.027 45.7728 199.461 43.0113C197.94 40.2498 197.18 37.1096 197.18 33.5909C197.18 30.1167 197.94 26.9988 199.461 24.2373C201.027 21.4758 203.13 19.2933 205.769 17.6898C208.454 16.0863 211.473 15.2846 214.829 15.2846C218.005 15.2846 220.891 15.8636 223.485 17.0217C226.125 18.1798 228.183 19.8055 229.659 21.8989L224.626 27.9119C223.687 26.6203 222.389 25.529 220.734 24.6382C219.079 23.7028 217.401 23.2351 215.701 23.2351C213.822 23.2351 212.145 23.7028 210.668 24.6382C209.237 25.529 208.096 26.7539 207.246 28.3128C206.441 29.8717 206.038 31.6311 206.038 33.5909C206.038 35.5507 206.463 37.3101 207.313 38.869C208.163 40.4279 209.326 41.6751 210.802 42.6104C212.279 43.5012 213.934 43.9466 215.768 43.9466C217.513 43.9466 219.124 43.568 220.6 42.8108C222.076 42.0091 223.418 40.8956 224.626 39.4703L229.659 45.4833C228.138 47.4431 226.035 49.0243 223.351 50.2269C220.667 51.385 217.826 51.964 214.829 51.964Z" fill="black"/>
<path d="M241.975 51.2959C237.557 51.2959 233.975 47.7142 233.975 43.2959V24.2373V16.0195V10.9887L243.102 7V16.0195H250V24.2373H243.102V41C243.102 42.1046 243.997 43 245.102 43H250V51.2959H241.975Z" fill="black"/>
<path d="M255.355 51.2959V16.0195H263.212L264.347 21.8321C265.511 19.9169 267.032 18.3579 268.911 17.1553C270.834 15.9082 272.848 15.2846 274.95 15.2846C275.755 15.2846 276.494 15.3514 277.165 15.485C277.88 15.5741 278.484 15.7077 278.977 15.8859L276.494 25.9076C276.001 25.6403 275.375 25.4176 274.615 25.2395C273.854 25.0613 273.094 24.9722 272.333 24.9722C270.141 24.9722 268.284 25.7294 266.763 27.2438C265.287 28.7137 264.549 30.5844 264.549 32.856V51.2959H255.355Z" fill="black"/>
<path d="M295.398 51.964C292.446 51.964 289.784 51.1623 287.413 49.5588C285.042 47.9553 283.14 45.7728 281.709 43.0113C280.322 40.2498 279.628 37.1096 279.628 33.5909C279.628 29.9831 280.322 26.8207 281.709 24.1037C283.14 21.3422 285.064 19.1819 287.48 17.623C289.94 16.0641 292.714 15.2846 295.801 15.2846C298.306 15.2846 300.498 15.7968 302.377 16.8213C304.256 17.8012 305.755 19.0928 306.874 20.6963V16.0195H316V51.2959H307.808L306.806 46.5523C305.554 48.1112 303.921 49.4029 301.908 50.4273C299.939 51.4518 297.77 51.964 295.398 51.964ZM297.881 44.0135C300.61 44.0135 302.825 43.0558 304.525 41.1406C306.225 39.2253 307.075 36.7088 307.075 33.5909C307.075 30.473 306.225 27.9565 304.525 26.0412C302.825 24.126 300.61 23.1683 297.881 23.1683C295.197 23.1683 293.005 24.126 291.305 26.0412C289.65 27.9565 288.822 30.473 288.822 33.5909C288.822 36.7088 289.65 39.2253 291.305 41.1406C293.005 43.0558 295.197 44.0135 297.881 44.0135Z" fill="black"/>
</svg>
