<svg width="60" height="60" viewBox="0 0 84 85" fill="none" xmlns="http://www.w3.org/2000/svg">
<path d="M41.7849 0C33.5206 0 25.4419 2.49258 18.5705 7.16254C11.699 11.8325 6.34331 18.4701 3.18071 26.236C0.0181112 34.0018 -0.809377 42.5471 0.802901 50.7913C2.41518 59.0355 6.3948 66.6083 12.2385 72.552C18.0822 78.4958 25.5276 82.5435 33.633 84.1834C41.7385 85.8232 50.1401 84.9816 57.7753 81.7649C65.4105 78.5482 71.9363 73.1008 76.5277 66.1117C81.1191 59.1226 83.5697 50.9057 83.5697 42.5C83.565 31.2298 79.1612 20.4225 71.326 12.4533C63.4908 4.48402 52.8655 0.0048112 41.7849 0ZM57.5278 49.0175C57.5278 49.1264 57.5278 49.2354 57.5278 49.3443V49.6529V49.8526C57.3161 51.0856 56.8673 52.2639 56.207 53.3201L55.8143 53.8829L55.2431 54.5546C55.0482 54.8082 54.8268 55.0396 54.5827 55.2445V55.3353L54.4578 55.4261L54.2079 55.6258C54.1249 55.7007 54.0353 55.7675 53.9402 55.8255L53.6724 56.0071L34.3061 69.0602C34.1479 69.1683 33.9612 69.2253 33.7706 69.2236H33.5743C33.447 69.1967 33.3262 69.1443 33.2189 69.0695C33.1117 68.9947 33.0201 68.899 32.9495 68.7879C32.9495 68.7879 32.5033 67.9891 32.4676 67.9347V67.7531V67.6623V67.5534V67.4263V67.2811C31.7014 65.262 31.6378 63.0371 32.2872 60.9761C32.9366 58.9152 34.2601 57.1424 36.0375 55.9526L45.0691 49.8708C45.2101 49.7754 45.3201 49.6398 45.3853 49.4809C45.4505 49.322 45.4679 49.147 45.4355 48.9781C45.403 48.8091 45.3221 48.6537 45.2029 48.5315C45.0837 48.4093 44.9316 48.3257 44.7657 48.2913L34.1633 46.1128H33.8599H33.7706H33.485H33.1816H33.0567H32.896H32.8068L32.5212 46.0038H32.4319H32.2534L31.9679 45.8586L31.6823 45.7134L31.4145 45.55L31.1468 45.3866C30.3041 44.8521 29.5509 44.1841 28.9156 43.4077L28.6836 43.0809L28.4159 42.6634C27.73 41.6278 27.255 40.4629 27.0189 39.2375C26.7828 38.012 26.7905 36.751 27.0415 35.5286C27.228 34.6884 27.5221 33.8766 27.9161 33.1141C28.0232 32.9144 28.1124 32.7328 28.2195 32.5694L28.3802 32.3153C28.4948 32.1207 28.6199 31.9329 28.755 31.7525L28.9156 31.5528L29.112 31.3167L29.3083 31.0989L29.4333 30.9718L29.6475 30.754L29.8259 30.5906L30.0223 30.4272L30.2365 30.2456H30.3257L30.4685 30.1185H30.5578L30.7898 29.9551L50.049 16.9746C50.1725 16.8912 50.3113 16.8338 50.457 16.806C50.6027 16.7782 50.7524 16.7804 50.8973 16.8126C51.0421 16.8448 51.1791 16.9062 51.3002 16.9933C51.4212 17.0804 51.5238 17.1913 51.6019 17.3195L51.7626 17.5918L51.8875 17.846C51.8875 17.9368 51.9768 18.0094 52.0125 18.082C52.0125 18.082 52.0125 18.082 52.0125 18.191C52.0239 18.2325 52.0239 18.2765 52.0125 18.318L52.1195 18.5904C52.1292 18.6383 52.1292 18.6877 52.1195 18.7356C52.1195 18.7356 52.1195 18.7356 52.1195 18.8445C52.8288 20.8305 52.8625 23.0011 52.2153 25.0089C51.5681 27.0166 50.2774 28.7455 48.5497 29.9188L39.6251 35.9462C39.4842 36.0415 39.3742 36.1772 39.309 36.3361C39.2438 36.495 39.2263 36.6699 39.2588 36.8389C39.2912 37.0078 39.3722 37.1632 39.4914 37.2854C39.6106 37.4077 39.7627 37.4912 39.9286 37.5256L50.4417 39.686C52.5458 40.1281 54.4361 41.2935 55.7948 42.9862C57.1536 44.679 57.8979 46.796 57.9027 48.9812C57.5635 48.4003 57.5278 48.9812 57.5278 48.9812V49.0175Z" fill="url(#paint0_linear_619_170)"/>
<defs>
<linearGradient id="paint0_linear_619_170" x1="1.17098e-05" y1="1.49716e-06" x2="84.02" y2="71.3596" gradientUnits="userSpaceOnUse">
<stop stop-color="#6104FF"/>
<stop offset="1" stop-color="#6104FF"/>
</linearGradient>
</defs>
</svg>
