<svg version="1.1" id="Layer_1" xmlns="http://www.w3.org/2000/svg" xmlns:xlink="http://www.w3.org/1999/xlink" x="0px" y="0px"
	 viewBox="76.5 166.5 459 459" enable-background="new 76.5 166.5 459 459" xml:space="preserve">
<path d="M191.25,281.25V625.5h229.5L535.5,510.75v-229.5H191.25z M415.893,448.536l-11.647,11.647
	c-7.038,7.152-11.054,15.721-12.049,25.704c-0.976,10.002,1.224,19.087,6.599,27.272l-28.439,28.285l-37.446-37.446l-43.51,43.356
	c-5.584,5.584-16.142,13.617-31.613,24.078c-15.492,10.461-24.633,14.286-27.425,11.494c-2.792-2.792,1.033-11.991,11.494-27.578
	s18.437-26.125,23.925-31.613l43.356-43.356l-37.447-37.601l28.438-28.285c8.071,5.393,17.136,7.593,27.196,6.598
	c10.06-0.994,18.59-5.049,25.628-12.201l11.646-11.647c7.153-7.038,11.208-15.587,12.202-25.627
	c0.976-10.041-1.224-19.164-6.598-27.349l28.285-28.286l98.819,98.666l-28.439,28.286c-8.07-5.394-17.136-7.593-27.195-6.598
	C431.632,437.31,423.045,441.384,415.893,448.536z M420.75,596.813V510.75h86.063L420.75,596.813z"/>
<g opacity="0.3">
	<g>
		<path d="M133.875,223.875v344.25h38.25v-306h306v-38.25H133.875z M420.75,166.5H76.5v344.25h38.25v-306h306V166.5z"/>
	</g>
</g>
</svg>
