<svg version="1.1" id="Layer_1" xmlns="http://www.w3.org/2000/svg" xmlns:xlink="http://www.w3.org/1999/xlink" x="0px" y="0px"
	 viewBox="77.063 89.506 459 612" enable-background="new 77.063 89.506 459 612" xml:space="preserve">
<path opacity="0.3" enable-background="new    " d="M516.938,89.506H96.188c-10.557,0-19.125,8.568-19.125,19.125v38.25
	c0,10.557,8.568,19.125,19.125,19.125h420.75c10.558,0,19.125-8.568,19.125-19.125v-38.25
	C536.063,98.074,527.494,89.506,516.938,89.506z"/>
<path opacity="0.3" enable-background="new    " d="M516.938,205.131H96.188c-10.557,0-19.125,8.568-19.125,19.125v304.25
	c0,10.557,8.568,19.125,19.125,19.125h420.75c10.558,0,19.125-8.568,19.125-19.125v-304.25
	C536.063,213.699,527.494,205.131,516.938,205.131z"/>
<path d="M516.938,586.756H96.188c-10.557,0-19.125,8.567-19.125,19.125v76.5c0,10.557,8.568,19.125,19.125,19.125h420.75
	c10.558,0,19.125-8.568,19.125-19.125v-76.5C536.063,595.323,527.494,586.756,516.938,586.756z"/>
</svg>
