<svg version="1.1" id="Layer_1" xmlns="http://www.w3.org/2000/svg" xmlns:xlink="http://www.w3.org/1999/xlink" x="0px" y="0px"
	 viewBox="19.125 166.5 573.75 459" enable-background="new 19.125 166.5 573.75 459" xml:space="preserve">
<g>
	<g>
		<path d="M19.125,376.875h267.75V166.5H19.125V376.875z M38.25,185.625h229.5V357.75H38.25V185.625z M57.375,338.625h191.25
			l-191.25-114.75V338.625z M210.375,204.75c-10.461,0-19.45,3.768-26.966,11.284S172.125,232.539,172.125,243
			s3.768,19.45,11.284,26.966s16.505,11.284,26.966,11.284s19.45-3.768,26.966-11.284s11.284-16.505,11.284-26.966
			s-3.768-19.45-11.284-26.966S220.836,204.75,210.375,204.75z M516.375,281.25c10.461,0,19.45-3.768,26.966-11.284
			c7.517-7.516,11.284-16.505,11.284-26.966s-3.768-19.45-11.284-26.966c-7.516-7.516-16.505-11.284-26.966-11.284
			s-19.45,3.768-26.966,11.284c-7.517,7.516-11.284,16.505-11.284,26.966s3.768,19.45,11.284,26.966
			C496.925,277.482,505.914,281.25,516.375,281.25z M325.125,166.5v210.375h267.75V166.5H325.125z M573.75,357.75h-229.5V185.625
			h229.5V357.75z M363.375,223.875v114.75h191.25L363.375,223.875z M19.125,625.5h267.75V415.125H19.125V625.5z M38.25,434.25h229.5
			v172.125H38.25V434.25z M210.375,453.375c-10.461,0-19.45,3.768-26.966,11.284c-7.516,7.516-11.284,16.505-11.284,26.966
			s3.768,19.45,11.284,26.966c7.516,7.517,16.505,11.284,26.966,11.284s19.45-3.768,26.966-11.284
			c7.516-7.516,11.284-16.505,11.284-26.966s-3.768-19.45-11.284-26.966C229.825,457.143,220.836,453.375,210.375,453.375z
			 M57.375,587.25h191.25L57.375,472.5V587.25z M516.375,453.375c-10.461,0-19.45,3.768-26.966,11.284
			c-7.517,7.516-11.284,16.505-11.284,26.966s3.768,19.45,11.284,26.966c7.516,7.517,16.505,11.284,26.966,11.284
			s19.45-3.768,26.966-11.284c7.517-7.516,11.284-16.505,11.284-26.966s-3.768-19.45-11.284-26.966
			C535.825,457.143,526.836,453.375,516.375,453.375z M363.375,587.25h191.25L363.375,472.5V587.25z M325.125,625.5h267.75V415.125
			h-267.75V625.5z M344.25,434.25h229.5v172.125h-229.5V434.25z"/>
	</g>
</g>
</svg>
