<svg version="1.1" id="Layer_1" xmlns="http://www.w3.org/2000/svg" xmlns:xlink="http://www.w3.org/1999/xlink" x="0px" y="0px"
	 viewBox="114.425 147.203 383.169 497.575" enable-background="new 114.425 147.203 383.169 497.575" xml:space="preserve">
<path d="M114.425,147.203v497.575h383.169V271.611L369.878,147.222H114.425V147.203z M363.892,177.114l101.764,102.854H363.892
	V177.114z M389.021,527.235c-8.3,8.09-18.513,12.126-30.657,12.126c-14.478,0-25.972-4.036-34.482-12.126
	c-8.3-8.3-12.45-18.245-12.45-29.854c0-11.609,4.15-21.458,12.45-29.549c12.125-11.818,27.464-15.032,45.977-9.639v-71.527
	l-95.797,18.666v103.236c0,11.398-6.809,23.008-20.426,34.827c-6.598,5.393-16.811,8.09-30.657,8.09
	c-12.125,0-22.357-4.15-30.658-12.432c-8.51-8.3-12.775-18.13-12.775-29.548c0-11.188,4.246-21.152,12.775-29.854
	c8.3-8.09,18.513-12.125,30.658-12.125c9.371,0,15.759,0.727,19.163,2.181V364.903c0-9.333,3.825-14.727,11.494-16.161
	c5.948-1.454,51.198-9.543,135.711-24.25c3.614-0.421,6.483,0.612,8.626,3.117c2.563,2.486,3.824,5.489,3.824,9.027V497.42
	C401.797,508.569,397.532,518.534,389.021,527.235L389.021,527.235z"/>
</svg>
