<svg version="1.1" id="Layer_1" xmlns="http://www.w3.org/2000/svg" xmlns:xlink="http://www.w3.org/1999/xlink" x="0px" y="0px"
	 viewBox="133.875 223.875 344.25 344.25" enable-background="new 133.875 223.875 344.25 344.25" xml:space="preserve">
<path d="M133.875,223.875v344.25h229.5l114.75-114.75v-229.5H133.875z M358.518,391.161l-11.647,11.647
	c-7.038,7.152-11.054,15.721-12.049,25.704c-0.976,10.002,1.224,19.087,6.599,27.272L312.98,484.07l-37.447-37.446l-43.509,43.356
	c-5.584,5.584-16.142,13.617-31.613,24.078c-15.492,10.461-24.633,14.286-27.425,11.494c-2.792-2.792,1.033-11.991,11.494-27.578
	s18.437-26.125,23.925-31.613l43.356-43.356l-37.447-37.6l28.439-28.286c8.07,5.393,17.136,7.592,27.195,6.598
	c10.06-0.994,18.59-5.049,25.628-12.202l11.646-11.647c7.153-7.038,11.208-15.587,12.202-25.627
	c0.976-10.041-1.224-19.164-6.598-27.349l28.285-28.286l98.819,98.666l-28.439,28.286c-8.07-5.393-17.136-7.592-27.195-6.598
	C374.257,379.935,365.67,384.009,358.518,391.161z M363.375,539.438v-86.063h86.063L363.375,539.438z"/>
</svg>
