<?xml version="1.0" encoding="utf-8"?>
<svg viewBox="320 237.161 844.61 844.73" xmlns="http://www.w3.org/2000/svg">
  <path d="M712.312 495.688c1.823-3.419 2.506-6.838 2.278-10.94-.455-5.245-2.736-9.575-7.066-12.994-4.331-3.42-9.117-5.016-14.361-4.562-6.611.458-11.627 3.65-15.044 10.033-14.134 25.757-24.165 67.475-30.092 125.374-8.661-21.883-15.956-47.644-21.655-77.961-2.508-13.449-8.661-19.83-18.691-19.147-6.839.455-12.54 5.015-17.101 13.678l-49.921 95.058c-8.206-33.052-15.956-73.401-23.022-121.045-1.595-11.856-8.206-17.326-19.833-16.411-6.383.455-11.169 2.732-14.361 7.065-3.191 4.101-4.559 9.346-3.645 15.273 13.448 85.481 25.986 143.157 37.611 173.02 4.559 10.939 9.8 16.184 15.956 15.728 9.575-.684 20.972-13.904 34.421-39.665 7.067-14.589 18.009-36.473 32.827-65.65 12.309 43.084 29.178 75.453 50.378 97.111 5.927 6.154 12.081 8.889 18.009 8.433 5.244-.455 9.345-3.191 12.083-8.206 2.278-4.332 3.191-9.349 2.733-15.045-1.366-20.743.686-49.695 6.382-86.854 5.926-38.296 13.222-65.879 22.114-82.293zM984.263 564.531c.229-17.779-3.646-32.599-10.941-44.907-8.205-14.361-20.289-23.022-36.471-26.443-4.333-.912-8.436-1.367-12.312-1.367-21.885 0-39.663 11.396-53.569 34.193-11.855 19.376-17.78 40.804-17.78 64.284 0 17.552 3.646 32.596 10.94 45.135 8.207 14.36 20.289 23.022 36.473 26.442 4.331.913 8.434 1.369 12.311 1.369 22.111 0 39.892-11.397 53.57-34.194 11.852-19.605 17.779-41.032 17.779-64.512zM944.6 582.766v.002c-3.191 15.044-8.891 26.215-17.327 33.736-6.609 5.929-12.764 8.435-18.462 7.294-5.473-1.139-10.032-5.925-13.45-14.815-2.738-7.066-4.103-14.134-4.103-20.745 0-5.697.455-11.397 1.595-16.639 2.053-9.348 5.928-18.467 12.081-27.127 7.523-11.172 15.503-15.728 23.708-14.134 5.472 1.139 10.032 5.927 13.45 14.817 2.735 7.065 4.103 14.132 4.103 20.743 0 5.928-.455 11.625-1.595 16.868zM794.148 493.181c-4.33-.912-8.433-1.367-12.311-1.367-21.883 0-39.664 11.396-53.568 34.193-11.854 19.376-17.781 40.804-17.781 64.284 0 17.552 3.647 32.596 10.941 45.135 8.206 14.36 20.289 23.022 36.472 26.442 4.333.913 8.435 1.369 12.312 1.369 22.111 0 39.892-11.397 53.569-34.194 11.855-19.605 17.78-41.032 17.78-64.512 0-17.779-3.646-32.599-10.941-44.907-8.207-14.361-20.517-23.022-36.473-26.443zm7.522 89.585v.002c-3.192 15.044-8.893 26.215-17.325 33.736-6.61 5.929-12.766 8.435-18.465 7.294-5.471-1.139-10.029-5.925-13.451-14.815-2.733-7.066-4.1-14.134-4.1-20.745 0-5.697.454-11.397 1.594-16.639 2.053-9.348 5.928-18.467 12.083-27.127 7.522-11.172 15.501-15.728 23.706-14.134 5.472 1.139 10.032 5.927 13.45 14.817 2.737 7.065 4.103 14.132 4.103 20.743.229 5.928-.456 11.625-1.595 16.868z"/>
  <path d="M 320.95 238.875 L 320.95 1080.766 L 882.21 1080.766 L 1162.84 800.135 L 1162.84 238.875 L 320.95 238.875 Z M 828.787 784.994 L 729.974 729.973 L 513.781 729.973 C 484.895 729.973 461.511 706.59 461.511 677.702 L 461.511 503.464 C 461.281 474.805 484.662 451.192 513.553 451.192 L 970.01 451.192 C 998.899 451.192 1022.282 474.576 1022.282 503.464 L 1022.282 677.701 C 1022.282 706.59 998.898 729.972 970.01 729.972 L 806.32 729.972 L 828.787 784.994 Z M 882.21 1010.608 L 882.21 800.135 L 1092.684 800.135 L 882.21 1010.608 Z"/>
</svg>