<svg version="1.2" baseProfile="tiny-ps" xmlns="http://www.w3.org/2000/svg" viewBox="0 0 668 668" width="668" height="668">
	<title>W Mark</title>
	<style>
		tspan { white-space:pre }
		.shp0 { opacity: 0;fill: #ffffff } 
		.shp1 { fill: #32373c } 
	</style>
	<g id="W Mark">
		<path id="Safety Area 2 " class="shp0" d="M834 834L-166 834L-166 -166L834 -166L834 834Z" />
		<g id="W Mark 2 ">
			<path id="&lt;Compound Path&gt;" fill-rule="evenodd" class="shp1" d="M667.33 334C667.33 518.09 518.09 667.33 334 667.33C149.91 667.33 0.67 518.09 0.67 334C0.67 149.9 149.91 0.67 334 0.67C518.09 0.67 667.33 149.9 667.33 334ZM212.04 45.28C193.48 53.13 175.58 62.85 158.83 74.17C142.23 85.38 126.62 98.26 112.44 112.44C98.26 126.62 85.38 142.23 74.17 158.83C62.85 175.58 53.13 193.48 45.28 212.04C28.95 250.66 20.67 291.69 20.67 334C20.67 376.31 28.95 417.34 45.28 455.96C53.13 474.52 62.85 492.42 74.17 509.17C85.38 525.77 98.26 541.38 112.44 555.56C126.62 569.74 142.23 582.62 158.83 593.83C175.58 605.15 193.48 614.87 212.04 622.72C250.66 639.05 291.69 647.33 334 647.33C376.31 647.33 417.34 639.05 455.96 622.72C474.52 614.87 492.42 605.15 509.17 593.83C525.77 582.62 541.38 569.74 555.56 555.56C569.74 541.38 582.62 525.77 593.83 509.17C605.15 492.42 614.87 474.52 622.72 455.96C639.05 417.34 647.33 376.31 647.33 334C647.33 291.69 639.05 250.66 622.72 212.04C614.87 193.48 605.15 175.58 593.83 158.83C582.62 142.23 569.74 126.62 555.56 112.44C541.38 98.26 525.77 85.38 509.17 74.17C492.42 62.85 474.52 53.13 455.96 45.28C417.34 28.95 376.31 20.67 334 20.67C291.69 20.67 250.66 28.95 212.04 45.28Z" />
			<path id="&lt;Compound Path&gt;" class="shp1" d="M79.27 220.94L211.78 583.98C119.11 538.96 55.22 443.93 55.22 333.99C55.22 293.72 63.86 255.49 79.27 220.94ZM500.33 411.55L471.67 502.35L371.29 203.76C382.43 203.17 393.03 202.29 403.08 201.12C418.04 199.35 416.28 177.35 401.31 178.23C371.31 180.58 346.63 181.76 327.26 181.76C309.07 181.76 284.68 180.58 254.11 178.23C239.13 177.35 237.37 200.23 252.35 201.12C261.79 202.29 271.5 203.17 281.48 203.76L324.76 322.33L263.96 504.64L162.81 203.76C173.97 203.17 184.56 202.29 194.6 201.12C209.56 199.35 207.79 177.35 192.82 178.23C162.83 180.58 138.15 181.76 118.79 181.76C113.58 181.76 107.43 181.63 100.91 181.42C150.58 106.02 235.95 56.22 333 56.22C405.32 56.22 471.16 83.87 520.58 129.15C519.38 129.08 518.22 128.93 516.98 128.93C489.7 128.93 470.34 152.7 470.34 178.23C470.34 201.12 483.54 220.48 497.62 243.38C508.19 261.87 520.52 285.64 520.52 319.98C520.52 343.75 513.06 371.86 500.33 411.55ZM423.26 592.2C423.82 593.58 424.51 594.84 425.25 596.03C396.38 606.19 365.35 611.78 333 611.78C305.74 611.78 279.42 607.78 254.52 600.46L337.88 358.29L423.26 592.2ZM610.78 333.99C610.78 436.47 555.24 525.93 472.66 574.08L557.5 328.78C573.35 289.16 578.63 257.47 578.63 229.29C578.63 219.07 577.95 209.58 576.76 200.73C598.44 240.29 610.78 285.69 610.78 333.99Z" />
		</g>
	</g>
</svg>