<svg width="19" height="15" viewBox="0 0 19 15" fill="none" xmlns="http://www.w3.org/2000/svg">
<path fill-rule="evenodd" clip-rule="evenodd" d="M0.675555 0.680572C1.10811 0.244809 1.69477 0 2.30649 0H10.5276C11.1394 0 11.726 0.244809 12.1586 0.680572C12.5911 1.11634 12.8341 1.70736 12.8341 2.32362V3.3589C12.8341 3.68925 12.5683 3.95706 12.2404 3.95706C11.9125 3.95706 11.6466 3.68925 11.6466 3.3589V2.32362C11.6466 2.02464 11.5287 1.73791 11.3189 1.5265C11.109 1.31509 10.8244 1.19632 10.5276 1.19632H2.30649C2.00972 1.19632 1.7251 1.31509 1.51524 1.5265C1.30539 1.73791 1.1875 2.02464 1.1875 2.32362V12.6764C1.1875 12.9754 1.30539 13.2621 1.51524 13.4735C1.7251 13.6849 2.00972 13.8037 2.30649 13.8037H10.5276C10.8244 13.8037 11.109 13.6849 11.3189 13.4735C11.5287 13.2621 11.6466 12.9754 11.6466 12.6764V11.6411C11.6466 11.3108 11.9125 11.0429 12.2404 11.0429C12.5683 11.0429 12.8341 11.3108 12.8341 11.6411V12.6764C12.8341 13.2926 12.5911 13.8837 12.1586 14.3194C11.726 14.7552 11.1394 15 10.5276 15H2.30649C1.69477 15 1.10811 14.7552 0.675555 14.3194C0.243005 13.8837 0 13.2926 0 12.6764V2.32362C0 1.70736 0.243004 1.11634 0.675555 0.680572ZM14.5609 3.62612C14.7928 3.39252 15.1687 3.39252 15.4006 3.62612L18.8261 7.07704C19.058 7.31063 19.058 7.68937 18.8261 7.92296L15.4006 11.3739C15.1687 11.6075 14.7928 11.6075 14.5609 11.3739C14.3291 11.1403 14.3291 10.7616 14.5609 10.528L16.9728 8.09816H6.7168C6.38888 8.09816 6.12305 7.83035 6.12305 7.5C6.12305 7.16965 6.38888 6.90184 6.7168 6.90184H16.9728L14.5609 4.47204C14.3291 4.23845 14.3291 3.85971 14.5609 3.62612Z" fill="white"/>
</svg>
