<svg width="96" height="96" viewBox="0 0 96 96" fill="none" xmlns="http://www.w3.org/2000/svg">
<path fill-rule="evenodd" clip-rule="evenodd" d="M76.3279 7.86885H19.6721C13.1534 7.86885 7.86885 13.1534 7.86885 19.6721V76.3279C7.86885 82.8466 13.1534 88.1311 19.6721 88.1311H76.3279C82.8466 88.1311 88.1311 82.8466 88.1311 76.3279V19.6721C88.1311 13.1534 82.8466 7.86885 76.3279 7.86885ZM19.6721 0C8.80752 0 0 8.80751 0 19.6721V76.3279C0 87.1925 8.80751 96 19.6721 96H76.3279C87.1925 96 96 87.1925 96 76.3279V19.6721C96 8.80752 87.1925 0 76.3279 0H19.6721Z" fill="url(#paint0_linear_368_700)"/>
<path fill-rule="evenodd" clip-rule="evenodd" d="M58.0093 30.2022C57.8249 30.0372 57.6302 29.8793 57.4253 29.7284C55.6485 28.4203 53.2372 27.7662 50.1913 27.7662C48.1217 27.7662 46.3742 28.0591 44.9489 28.6448C43.5236 29.211 42.4302 30.0018 41.6688 31.0171C40.8508 32.1364 39.4578 33.0435 38.2532 32.3573C37.3077 31.8186 36.4346 31.1541 35.6591 30.3787C34.2127 28.9323 33.1522 27.1462 32.5747 25.1839C32.3202 24.3194 32.5454 23.3745 33.2261 22.7839C34.7483 21.463 36.5277 20.3512 38.5643 19.4486C42.0007 17.9257 45.9056 17.1642 50.2792 17.1642C54.7309 17.1642 58.6163 17.9257 61.9355 19.4486C65.2742 20.9716 67.871 23.09 69.7259 25.804C70.4044 26.7967 70.9627 27.847 71.4009 28.9547C72.7002 32.2396 69.7012 35.2344 66.1687 35.2344C63.4112 35.2344 61.2037 33.172 59.1183 31.2236C58.7456 30.8753 58.3767 30.5307 58.0093 30.2022ZM39.8529 36.6996C40.3764 36.4949 40.9369 36.8047 41.2295 37.2845C41.7371 38.085 42.4302 38.7782 43.3088 39.3639C44.1875 39.9301 45.2028 40.428 46.3547 40.8576C47.5067 41.2676 48.7367 41.619 50.0449 41.9119L55.4337 43.2005C58.0501 43.7863 60.4516 44.5673 62.6384 45.5435C64.8252 46.5198 66.7191 47.7205 68.3201 49.1458C69.9211 50.5711 71.161 52.2503 72.0396 54.1832C72.9377 56.1162 73.3966 58.3323 73.4161 60.8314C73.3966 64.5021 72.4594 67.6846 70.6045 70.3791C68.7692 73.0539 66.1138 75.1333 62.6384 76.6172C59.1825 78.0816 55.014 78.8138 50.1328 78.8138C45.2906 78.8138 41.0733 78.0718 37.4807 76.5879C33.9077 75.104 31.1156 72.9075 29.1046 69.9983C28.1764 68.6334 27.454 67.118 26.9372 65.452C25.8948 62.0918 28.8658 59.1328 32.384 59.1328H32.8402C35.8811 59.1328 38.1399 61.7417 39.9701 64.1702C41.0049 65.4979 42.3814 66.5034 44.0996 67.1867C45.8373 67.8506 47.7996 68.1825 49.9863 68.1825C52.1341 68.1825 53.9987 67.8701 55.5802 67.2453C57.1812 66.6205 58.421 65.7517 59.2997 64.6388C60.1783 63.5259 60.6176 62.247 60.6176 60.8021C60.6176 59.4549 60.2173 58.3225 59.4168 57.4048C58.6358 56.4872 57.4839 55.7062 55.9609 55.0619C54.4575 54.4175 52.6124 53.8318 50.4256 53.3046L43.8946 51.6645C39.6104 50.6224 36.0899 49.0828 33.3332 47.0457C32.588 46.495 32.313 45.5256 32.5747 44.6367C33.152 42.6746 34.2124 40.8886 35.6586 39.4422C36.855 38.2456 38.284 37.3131 39.8529 36.6996ZM32.0923 28.4259L31.5183 26.4758C31.4936 26.3911 31.4421 26.3167 31.3716 26.2638C31.301 26.2109 31.2152 26.1823 31.127 26.1823C31.0388 26.1823 30.953 26.2109 30.8824 26.2638C30.8118 26.3167 30.7603 26.3911 30.7356 26.4758L30.1625 28.4259C29.7774 29.7339 29.0703 30.9245 28.106 31.8886C27.1418 32.8527 25.9511 33.5595 24.6429 33.9445L22.6927 34.5184C22.3022 34.6342 22.3022 35.1869 22.6927 35.3011L24.6429 35.875C25.9509 36.26 27.1414 36.967 28.1056 37.9311C29.0697 38.8951 29.7766 40.0856 30.1617 41.3936L30.7356 43.3445C30.8506 43.7342 31.4034 43.7342 31.5183 43.3445L32.0923 41.3944C32.4772 40.0863 33.1841 38.8956 34.1483 37.9314C35.1124 36.9672 36.303 36.2601 37.6111 35.875L39.5621 35.3011C39.9518 35.1861 39.9518 34.6334 39.5621 34.5192L37.6119 33.9453C36.3036 33.5603 35.1129 32.8533 34.1486 31.889C33.1843 30.9248 32.4773 29.7341 32.0923 28.4259ZM25.1354 39.9443L25.3076 40.5293C25.4231 40.9218 25.6352 41.279 25.9245 41.5683C26.2137 41.8575 26.571 42.0696 26.9634 42.1851L27.5485 42.3573C27.6654 42.3916 27.6654 42.5574 27.5485 42.5919L26.9632 42.7641C26.5708 42.8796 26.2136 43.0917 25.9243 43.381C25.6351 43.6703 25.423 44.0275 25.3076 44.4199L25.1354 45.0049C25.1009 45.1218 24.9351 45.1218 24.9006 45.0049L24.7284 44.4196C24.6129 44.0273 24.4008 43.6701 24.1115 43.3809C23.8223 43.0916 23.4651 42.8796 23.0727 42.7641L22.4877 42.5919C22.3705 42.5576 22.3705 42.3918 22.4877 42.3571L23.0727 42.1849C23.4652 42.0694 23.8224 41.8574 24.1117 41.5681C24.401 41.2789 24.6131 40.9217 24.7286 40.5293L24.9006 39.9443C24.908 39.9189 24.9234 39.8966 24.9446 39.8807C24.9658 39.8648 24.9915 39.8562 25.018 39.8562C25.0444 39.8562 25.0702 39.8648 25.0913 39.8807C25.1125 39.8966 25.128 39.9189 25.1354 39.9443ZM24.0139 24.0284L23.7461 23.1184C23.7345 23.0789 23.7105 23.0442 23.6776 23.0195C23.6446 22.9948 23.6046 22.9814 23.5634 22.9814C23.5223 22.9814 23.4822 22.9948 23.4493 23.0195C23.4164 23.0442 23.3923 23.0789 23.3808 23.1184L23.1133 24.0284C22.9336 24.6389 22.6037 25.1944 22.1537 25.6444C21.7037 26.0943 21.148 26.4241 20.5375 26.6038L19.6274 26.8716C19.4452 26.9256 19.4452 27.1836 19.6274 27.2369L20.5375 27.5047C21.1479 27.6844 21.7035 28.0143 22.1534 28.4642C22.6034 28.9141 22.9333 29.4697 23.113 30.08L23.3808 30.9905C23.4345 31.1723 23.6924 31.1723 23.7461 30.9905L24.0139 30.0804C24.1935 29.47 24.5234 28.9143 24.9734 28.4643C25.4233 28.0144 25.9789 27.6844 26.5893 27.5047L27.4998 27.2369C27.6817 27.1832 27.6817 26.9253 27.4998 26.872L26.5897 26.6041C25.9792 26.4245 25.4235 26.0946 24.9735 25.6446C24.5235 25.1946 24.1936 24.6389 24.0139 24.0284Z" fill="url(#paint1_linear_368_700)"/>
<defs>
<linearGradient id="paint0_linear_368_700" x1="6.25189" y1="94.8732" x2="37.5122" y2="-13.8871" gradientUnits="userSpaceOnUse">
<stop stop-color="#C639FF"/>
<stop offset="1" stop-color="#3662FF"/>
</linearGradient>
<linearGradient id="paint1_linear_368_700" x1="23.0026" y1="78.0902" x2="45.4276" y2="9.84492" gradientUnits="userSpaceOnUse">
<stop stop-color="#C639FF"/>
<stop offset="1" stop-color="#3662FF"/>
</linearGradient>
</defs>
</svg>