<svg width="24" height="24" viewBox="0 0 24 24" fill="none" xmlns="http://www.w3.org/2000/svg">
<g clip-path="url(#clip0_3509_400)">
<path d="M2.20251 4.80005H21.74C22.9681 4.80005 23.9713 5.80305 23.9713 7.04039V14.4926C23.9713 15.7299 22.9681 16.7329 21.7306 16.7329H14.7275L15.6931 19.0858L11.465 16.7329H2.21188C0.974382 16.7329 -0.0287434 15.7299 -0.0287434 14.4926V7.04039C-0.0381184 5.81242 0.965007 4.80005 2.20251 4.80005Z" fill="#7F54B3"/>
<path d="M1.34004 6.84359C1.48066 6.65611 1.67754 6.56237 1.95879 6.54362C2.45566 6.50613 2.73691 6.74048 2.81191 7.24666C3.11191 9.29016 3.44941 11.0149 3.79629 12.4304L5.93378 8.36215C6.13066 7.98719 6.37441 7.79972 6.66504 7.78097C7.09629 7.75285 7.35879 8.02469 7.46191 8.59649C7.69629 9.88071 8.01504 10.9868 8.38066 11.9242C8.63378 9.44951 9.06504 7.65911 9.66504 6.56237C9.81503 6.29053 10.0307 6.14992 10.3119 6.13118C10.5369 6.11243 10.7432 6.17805 10.9307 6.32803C11.1182 6.47801 11.2119 6.65611 11.2307 6.88108C11.24 7.05919 11.2119 7.19979 11.1369 7.34977C10.7525 8.05281 10.4432 9.23391 10.19 10.8743C9.94629 12.4679 9.86191 13.7052 9.91816 14.5864C9.93691 14.8301 9.89941 15.0457 9.80566 15.2332C9.69316 15.4488 9.51504 15.5612 9.29004 15.58C9.03691 15.5987 8.77441 15.4863 8.52129 15.2144C7.61191 14.2864 6.89003 12.8991 6.36503 11.0618C5.72753 12.3085 5.25879 13.2459 4.95879 13.874C4.38691 14.9801 3.89941 15.5425 3.48691 15.5706C3.22441 15.5894 2.99941 15.3644 2.80254 14.8957C2.30566 13.6209 1.77129 11.1462 1.19004 7.49038C1.14316 7.23729 1.19941 7.01232 1.34004 6.84359ZM22.3025 8.37152C21.9557 7.75285 21.4307 7.38727 20.7463 7.23729C20.5588 7.19979 20.3807 7.18105 20.2213 7.18105C19.2838 7.18105 18.5244 7.66848 17.9244 8.64336C17.4182 9.46826 17.165 10.3869 17.165 11.3899C17.165 12.1398 17.3244 12.7866 17.6338 13.3209C17.9807 13.9396 18.5057 14.3052 19.19 14.4551C19.3775 14.4926 19.5557 14.5114 19.715 14.5114C20.6619 14.5114 21.4213 14.0239 22.0119 13.0491C22.5182 12.2148 22.7713 11.2962 22.7713 10.2838C22.7807 9.53388 22.6119 8.89646 22.3025 8.37152ZM21.0744 11.0712C20.9338 11.718 20.69 12.196 20.3338 12.5148C20.0525 12.7678 19.79 12.8803 19.5463 12.8241C19.3119 12.7772 19.115 12.571 18.9744 12.1867C18.8619 11.8867 18.7963 11.5774 18.7963 11.2962C18.7963 11.0524 18.815 10.8087 18.8619 10.5837C18.9463 10.1807 19.115 9.79634 19.3775 9.42139C19.6963 8.94332 20.0432 8.74647 20.39 8.81209C20.6244 8.85896 20.8213 9.06518 20.9619 9.44951C21.0744 9.74947 21.14 10.0588 21.14 10.34C21.14 10.6025 21.1213 10.8462 21.0744 11.0712ZM16.1994 8.37152C15.8525 7.75285 15.3182 7.38727 14.6432 7.23729C14.4557 7.19979 14.2775 7.18105 14.1182 7.18105C13.1807 7.18105 12.4213 7.66848 11.8213 8.64336C11.315 9.46826 11.0619 10.3869 11.0619 11.3899C11.0619 12.1398 11.2213 12.7866 11.5307 13.3209C11.8775 13.9396 12.4025 14.3052 13.0963 14.4551C13.2838 14.4926 13.4619 14.5114 13.6213 14.5114C14.5682 14.5114 15.3275 14.0239 15.9182 13.0491C16.4244 12.2148 16.6775 11.2962 16.6775 10.2838C16.6682 9.53388 16.5088 8.89646 16.1994 8.37152ZM14.9619 11.0712C14.8213 11.718 14.5775 12.196 14.2213 12.5148C13.94 12.7678 13.6775 12.8803 13.4338 12.8241C13.1994 12.7772 13.0025 12.571 12.8619 12.1867C12.7494 11.8867 12.6838 11.5774 12.6838 11.2962C12.6838 11.0524 12.7025 10.8087 12.7494 10.5837C12.8338 10.1807 13.0025 9.79634 13.265 9.42139C13.5838 8.94332 13.9307 8.74647 14.2775 8.81209C14.5119 8.85896 14.7088 9.06518 14.8494 9.44951C14.9619 9.74947 15.0275 10.0588 15.0275 10.34C15.0369 10.6025 15.0088 10.8462 14.9619 11.0712Z" fill="white"/>
</g>
<defs>
<clipPath id="clip0_3509_400">
<rect width="24" height="24" fill="white"/>
</clipPath>
</defs>
</svg>
