<svg width="126" height="111" viewBox="0 0 126 111" fill="none" xmlns="http://www.w3.org/2000/svg">
	<rect x="0.5" y="0.5" width="124.157" height="109.336" rx="4.5" stroke="#E4EBF0"/>
	<rect x="49.4" y="54.2" width="41.6" height="2" fill="#E4EBF0"/>
	<rect x="35.5" y="51.5" width="7" height="7" rx="0.5" stroke="#C8D0D7"/>
	<path d="M40.8445 53.0536C41.0024 53.1537 41.0475 53.3601 40.9452 53.5146L38.7382 56.8479C38.6801 56.9355 38.5836 56.9915 38.4772 56.9991C38.4689 56.9997 38.4604 57 38.4522 57C38.3546 57 38.2613 56.9591 38.1964 56.8868L37.0849 55.6506C36.9607 55.5123 36.9744 55.3018 37.1156 55.1801C37.2571 55.0584 37.4722 55.0721 37.5964 55.2102L38.4109 56.116L40.3733 53.1521C40.4758 52.9976 40.6868 52.9535 40.8445 53.0536Z" fill="#C8D0D7"/>
</svg>
