<svg width="126" height="111" viewBox="0 0 126 111" fill="none" xmlns="http://www.w3.org/2000/svg">
	<rect x="0.5" y="0.5" width="124.157" height="109.336" rx="4.5" stroke="#E4EBF0"/>
	<path d="M50.7097 43L55.4114 47.7855M74.2891 67L69.5879 62.2149M64.9554 64.0995C64.1601 64.253 63.3393 64.3333 62.5 64.3333C56.6344 64.3333 51.6692 60.4095 50 55C50.4544 53.5273 51.1531 52.1648 52.0477 50.9616M59.7205 52.1716C60.4317 51.4477 61.4142 51 62.4994 51C64.6698 51 66.4293 52.7909 66.4293 55C66.4293 56.1046 65.9895 57.1046 65.2783 57.8284M59.7205 52.1716L65.2783 57.8284M59.7205 52.1716L55.4114 47.7855M65.2783 57.8284L55.4114 47.7855M65.2783 57.8284L69.5879 62.2149M55.4114 47.7855C57.4547 46.4447 59.8881 45.6667 62.5 45.6667C68.3656 45.6667 73.3308 49.5906 75 55C74.074 58.001 72.1336 60.5447 69.5879 62.2149" stroke="#C8D0D7" stroke-width="1.8" stroke-linecap="round" stroke-linejoin="round"/>
</svg>
