<svg width="126" height="111" viewBox="0 0 126 111" fill="none" xmlns="http://www.w3.org/2000/svg">
	<rect x="0.5" y="0.5" width="124.157" height="109.336" rx="4.5" stroke="#E4EBF0"/>
	<rect x="36" y="55" width="68" height="4" fill="#E4EBF0"/>
	<g clip-path="url(#clip0_133_142)">
		<path d="M25 53C26.0609 53 27.0783 53.4214 27.8284 54.1716C28.5786 54.9217 29 55.9391 29 57C29 58.0609 28.5786 59.0783 27.8284 59.8284C27.0783 60.5786 26.0609 61 25 61C23.9391 61 22.9217 60.5786 22.1716 59.8284C21.4214 59.0783 21 58.0609 21 57C21 55.9391 21.4214 54.9217 22.1716 54.1716C22.9217 53.4214 23.9391 53 25 53V53ZM23.25 56.75C23.1837 56.75 23.1201 56.7763 23.0732 56.8232C23.0263 56.8701 23 56.9337 23 57C23 57.0663 23.0263 57.1299 23.0732 57.1768C23.1201 57.2237 23.1837 57.25 23.25 57.25H26.1465L25.073 58.323C25.0498 58.3462 25.0313 58.3738 25.0187 58.4042C25.0062 58.4346 24.9997 58.4671 24.9997 58.5C24.9997 58.5329 25.0062 58.5654 25.0187 58.5958C25.0313 58.6262 25.0498 58.6538 25.073 58.677C25.0962 58.7002 25.1238 58.7187 25.1542 58.7313C25.1846 58.7438 25.2171 58.7503 25.25 58.7503C25.2829 58.7503 25.3154 58.7438 25.3458 58.7313C25.3762 58.7187 25.4038 58.7002 25.427 58.677L26.927 57.177C26.9503 57.1538 26.9688 57.1262 26.9814 57.0958C26.994 57.0654 27.0004 57.0329 27.0004 57C27.0004 56.9671 26.994 56.9346 26.9814 56.9042C26.9688 56.8738 26.9503 56.8462 26.927 56.823L25.427 55.323C25.4038 55.2998 25.3762 55.2813 25.3458 55.2687C25.3154 55.2562 25.2829 55.2497 25.25 55.2497C25.2171 55.2497 25.1846 55.2562 25.1542 55.2687C25.1238 55.2813 25.0962 55.2998 25.073 55.323C25.0498 55.3462 25.0313 55.3738 25.0187 55.4042C25.0062 55.4346 24.9997 55.4671 24.9997 55.5C24.9997 55.5329 25.0062 55.5654 25.0187 55.5958C25.0313 55.6262 25.0498 55.6538 25.073 55.677L26.1465 56.75H23.25Z" fill="#C8D0D7"/>
	</g>
	<defs>
		<clipPath id="clip0_133_142">
			<rect width="8" height="8" fill="white" transform="translate(21 53)"/>
		</clipPath>
	</defs>
</svg>