<svg width="126" height="111" viewBox="0 0 126 111" fill="none" xmlns="http://www.w3.org/2000/svg">
	<rect x="0.5" y="0.5" width="124.157" height="109.336" rx="4.5" stroke="#E4EBF0"/>
	<rect x="14" y="40" width="35" height="29" rx="1" fill="#C8D0D7"/>
	<path d="M25.0606 47.0293C24.5146 47.0293 23.991 47.2462 23.605 47.6322C23.219 48.0183 23.0021 48.5419 23.0021 49.0878V59.3804C23.0021 59.9263 23.219 60.4499 23.605 60.8359C23.991 61.222 24.5146 61.4389 25.0606 61.4389H37.4116C37.9576 61.4389 38.4812 61.222 38.8672 60.8359C39.2533 60.4499 39.4702 59.9263 39.4702 59.3804V49.0878C39.4702 48.5419 39.2533 48.0183 38.8672 47.6322C38.4812 47.2462 37.9576 47.0293 37.4116 47.0293H25.0606ZM37.4116 48.0586C37.6846 48.0586 37.9464 48.167 38.1394 48.36C38.3325 48.553 38.4409 48.8148 38.4409 49.0878V55.778L34.5534 53.774C34.4569 53.7257 34.3476 53.7089 34.241 53.7261C34.1344 53.7432 34.036 53.7935 33.9595 53.8697L30.141 57.6883L27.4032 55.8644C27.3043 55.7986 27.1858 55.769 27.0676 55.7806C26.9494 55.7923 26.8389 55.8444 26.7547 55.9282L24.0313 58.3511V49.0878C24.0313 48.8148 24.1398 48.553 24.3328 48.36C24.5258 48.167 24.7876 48.0586 25.0606 48.0586H37.4116Z" fill="#E4EBF0"/>
	<rect x="54" y="43" width="34" height="4" fill="#E4EBF0"/>
	<rect x="54" y="64" width="45" height="2" fill="#E4EBF0"/>
	<rect x="54" y="59" width="58" height="2" fill="#E4EBF0"/>
	<rect x="54" y="54" width="58" height="2" fill="#E4EBF0"/>
	<circle r="3" transform="matrix(-1 0 0 1 109 45)" fill="#E4EBF0"/>
</svg>