<svg width="126" height="111" viewBox="0 0 126 111" fill="none" xmlns="http://www.w3.org/2000/svg">
	<rect x="0.5" y="0.5" width="124.157" height="109.336" rx="4.5" stroke="#E4EBF0"/>
	<path d="M55.1997 44C52.8732 44 51 45.8732 51 48.1997V62.8003C51 65.1267 52.8732 67 55.1997 67H63.1131V58.0084H60.7355V54.7712H63.1131V52.0054C63.1131 49.8325 64.5179 47.8374 67.7541 47.8374C69.0643 47.8374 70.0332 47.9632 70.0332 47.9632L69.957 50.9863C69.957 50.9863 68.9689 50.9769 67.8906 50.9769C66.7236 50.9769 66.5365 51.5146 66.5365 52.4072V54.7712H70.0497L69.8967 58.0084H66.5365V67H69.8003C72.1268 67 74 65.1268 74 62.8003V48.1997C74 45.8733 72.1268 44 69.8003 44L55.1997 44Z" fill="#C8D0D7"/>
</svg>
