<svg version="1.1" id="Layer_1" xmlns="http://www.w3.org/2000/svg" xmlns:xlink="http://www.w3.org/1999/xlink" x="0px" y="0px"
	 width="623.621px" height="850.394px" viewBox="676.702 185.676 623.621 850.394"
	 enable-background="new 676.702 185.676 623.621 850.394" xml:space="preserve">
<path d="M1265.656,187.676h-120.713c-14.521,0-26.309,11.787-26.309,26.309v789.273c0,14.523,11.787,26.311,26.309,26.311h120.713
	c14.523,0,26.311-11.787,26.311-26.311V213.985C1291.966,199.463,1280.179,187.676,1265.656,187.676z"/>
<path d="M1049.681,187.676H928.968c-0.006,0-0.012,0-0.02,0h-95.137c-0.006,0-0.012,0-0.02,0H713.081
	c-14.521,0-26.311,11.787-26.311,26.309v789.273c0,14.523,11.787,26.311,26.311,26.311h120.713c0.012,0,0.023,0,0.039,0h95.098
	c0.012,0,0.025,0,0.037,0h120.713c14.523,0,26.311-11.787,26.311-26.311V213.985C1075.99,199.463,1064.204,187.676,1049.681,187.676
	z"/>
</svg>
