<svg version="1.1" id="Layer_1" xmlns="http://www.w3.org/2000/svg" xmlns:xlink="http://www.w3.org/1999/xlink" x="0px" y="0px"
	 width="623.622px" height="850.394px" viewBox="283.464 -4.251 623.622 850.394"
	 enable-background="new 283.464 -4.251 623.622 850.394" xml:space="preserve">
<path d="M439.753-0.251H319.041c-14.522,0-26.311,11.787-26.311,26.309V815.33c0,14.522,11.787,26.311,26.311,26.311h120.712
	c14.521,0,26.309-11.787,26.309-26.311V26.058C466.061,11.536,454.274-0.251,439.753-0.251z"/>
<path d="M871.616-0.251H750.904c-0.007,0-0.013,0-0.02,0h-95.223c-0.008,0-0.014,0-0.021,0H534.929
	c-14.521,0-26.309,11.787-26.309,26.309V815.33c0,14.522,11.785,26.311,26.309,26.311h120.713c0.013,0,0.025-0.001,0.038-0.001
	h95.187c0.014,0,0.025,0.001,0.038,0.001h120.712c14.523,0,26.311-11.787,26.311-26.311V26.058
	C897.926,11.536,886.14-0.251,871.616-0.251z"/>
</svg>
