<?xml version="1.0" encoding="utf-8"?>
<!-- Generator: Adobe Illustrator 16.0.0, SVG Export Plug-In . SVG Version: 6.00 Build 0)  -->
<!DOCTYPE svg PUBLIC "-//W3C//DTD SVG 1.1//EN" "http://www.w3.org/Graphics/SVG/1.1/DTD/svg11.dtd">
<svg version="1.1" id="Capa_1" xmlns="http://www.w3.org/2000/svg" xmlns:xlink="http://www.w3.org/1999/xlink" x="0px" y="0px"
	 width="124.455px" height="37.916px" viewBox="2.779 4.416 124.455 37.916" enable-background="new 2.779 4.416 124.455 37.916"
	 xml:space="preserve">
<g>
	<g>
		<circle opacity="0.77" fill="#FF5A44" cx="15.418" cy="17.055" r="12.639"/>
		<circle opacity="0.6" fill="#F74234" cx="30.751" cy="17.055" r="12.638"/>
		<circle opacity="0.6" fill="#EF3022" cx="22.945" cy="29.693" r="12.639"/>
	</g>
	<g>
		<path fill="#415161" d="M53.226,15.843c1.239-1.717,3.017-2.576,5.331-2.576c2.315,0,4.275,0.875,5.885,2.625
			c1.607,1.75,2.412,3.983,2.412,6.7c0,2.716-0.805,4.946-2.412,6.683c-1.61,1.739-3.554,2.608-5.836,2.608s-4.076-0.955-5.38-2.868
			v11.313H47.65V13.463h5.575V15.843z M59.975,25.902c0.804-0.772,1.207-1.876,1.207-3.31s-0.403-2.543-1.207-3.326
			c-0.805-0.783-1.728-1.174-2.771-1.174c-1.043,0-1.967,0.387-2.771,1.158c-0.805,0.771-1.207,1.875-1.207,3.309
			s0.402,2.543,1.207,3.325c0.804,0.782,1.728,1.175,2.771,1.175C58.247,27.06,59.17,26.674,59.975,25.902z"/>
		<path fill="#415161" d="M75.983,13.463v3.39c1.304-2.391,3.042-3.586,5.216-3.586v5.674H79.83c-1.283,0-2.245,0.304-2.886,0.913
			c-0.641,0.608-0.961,1.673-0.961,3.194v8.608h-5.576V13.463H75.983z"/>
		<path fill="#415161" d="M89.318,11.41c-0.631,0.63-1.402,0.945-2.315,0.945s-1.686-0.315-2.314-0.945
			c-0.632-0.631-0.945-1.407-0.945-2.331c0-0.924,0.313-1.701,0.945-2.331c0.629-0.63,1.401-0.946,2.314-0.946
			s1.685,0.315,2.315,0.946c0.63,0.63,0.945,1.407,0.945,2.331C90.264,10.002,89.948,10.779,89.318,11.41z M84.231,31.656V13.463
			h5.576v18.193H84.231z"/>
		<path fill="#415161" d="M100.273,13.463v2.673c1.151-1.912,2.987-2.869,5.509-2.869c2.087,0,3.777,0.696,5.07,2.087
			c1.293,1.391,1.939,3.282,1.939,5.672v10.629h-5.542v-9.878c0-1.174-0.31-2.082-0.93-2.723c-0.619-0.64-1.473-0.962-2.56-0.962
			c-1.086,0-1.939,0.322-2.56,0.962c-0.619,0.641-0.928,1.549-0.928,2.723v9.878h-5.576V13.463H100.273z"/>
		<path fill="#415161" d="M125.246,26.929h1.988v4.728h-2.836c-2.044,0-3.625-0.451-4.744-1.354c-1.12-0.9-1.679-2.45-1.679-4.645
			v-7.564h-1.695v-4.629h1.695V9.03h5.575v4.434h3.651v4.629h-3.651v7.564C123.551,26.505,124.116,26.929,125.246,26.929z"/>
	</g>
</g>
</svg>
