<svg xmlns="http://www.w3.org/2000/svg" width="1133.859" height="1133.858" viewBox="-260.929 -261.113 1133.859 1133.858"><g fill="#FFF"><path d="M-109.884 501.572h564.889c81.701 0 148.168-66.464 148.168-148.172V1.879c0-81.703-66.467-148.173-148.168-148.173h-564.889c-81.705 0-148.177 66.47-148.177 148.173V353.4c.001 81.708 66.473 148.177 148.177 148.172zM-127.665 1.879c0-9.805 7.974-17.779 17.782-17.779h564.889c9.805 0 17.787 7.974 17.787 17.779V353.4c0 9.805-7.982 17.782-17.787 17.782h-564.889c-9.805 0-17.782-7.978-17.782-17.782V1.879z"/><path d="M721.964 625.678H105.556c-9.802 0-17.778-7.971-17.778-17.781H-42.615c0 81.701 66.469 148.171 148.168 148.171h616.408c81.702 0 148.174-66.47 148.174-148.171V204.86c0-81.702-66.475-148.171-148.174-148.171V187.09c9.808 0 17.778 7.971 17.778 17.781v403.031c-.002 9.806-7.976 17.776-17.775 17.776z"/></g></svg>