<svg class="mailpoet_tool_icon" version="1.1" id="Layer_1" xmlns="http://www.w3.org/2000/svg" xmlns:xlink="http://www.w3.org/1999/xlink" x="0px" y="0px"
	 viewBox="1.5 91.5 609 609" enable-background="new 1.5 91.5 609 609" xml:space="preserve">
<circle class="mailpoet_tool_icon_foreground" fill="#AA3333" cx="306" cy="396.5" r="269.5"/>
<path d="M306,91.5C137.829,91.5,1.5,227.829,1.5,396S137.829,700.5,306,700.5S610.5,564.171,610.5,396S474.171,91.5,306,91.5z
	 M134.688,453.103c-31.521,0-57.104-25.579-57.104-57.103c0-31.522,25.583-57.104,57.104-57.104s57.104,25.583,57.104,57.104
	C191.792,427.521,166.21,453.103,134.688,453.103z M306,453.103c-31.521,0-57.104-25.579-57.104-57.103
	c0-31.522,25.583-57.104,57.104-57.104c31.521,0,57.103,25.583,57.103,57.104C363.103,427.521,337.521,453.103,306,453.103z
	 M477.311,453.103c-31.521,0-57.104-25.579-57.104-57.103c0-31.522,25.582-57.104,57.104-57.104
	c31.522,0,57.104,25.583,57.104,57.104C534.415,427.521,508.832,453.103,477.311,453.103z"/>
</svg>
