<svg xmlns="http://www.w3.org/2000/svg" width="1133.859" height="1133.858" viewBox="28.345 -145.984 1133.859 1133.858"><path fill="#FFF" d="M1069.157 535.133c80.414-80.857 81.955-82.396 85.484-95.173 5.066-17.402 3.523-36.351-3.967-50.89-7.492-14.537-160.828-167.878-175.59-175.37-8.15-4.405-13.217-5.285-28.639-5.285-16.082 0-20.271.88-30.186 5.945-14.979 7.93-26.438 19.829-33.488 34.811-4.625 9.911-5.727 15.199-5.727 29.739 0 22.253 4.625 31.505 25.996 53.318l15.645 16.081H664.443V94.071l16.08 15.643c21.812 21.367 31.068 25.997 53.318 25.997 14.537 0 19.828-1.102 29.742-5.73 14.541-7.05 27.096-18.947 34.809-33.929 5.066-9.474 5.947-13.66 5.947-29.743s-.881-20.269-5.947-29.743c-4.184-7.929-29.52-34.806-88.125-92.97-78.211-77.771-82.838-81.957-94.076-85.262-12.557-3.745-30.4-4.407-39.872-1.542-3.086 1.1-9.474 3.745-14.321 6.387C549.441-130.428 395.44 24.893 388.61 37.671c-4.185 8.15-5.068 13.217-4.847 28.639 0 21.589 5.288 34.369 20.051 49.35 13.657 13.88 29.299 20.05 50.23 20.05 22.251 0 31.503-4.625 53.536-25.995l15.863-15.645v254.24H269.2l15.644-16.08c21.369-21.812 25.999-31.068 25.999-53.319 0-20.929-6.168-36.573-20.05-50.23-14.982-14.764-27.759-20.05-49.352-20.05-16.083-.218-20.271.662-29.743 5.727-14.979 7.931-168.317 161.708-175.148 175.811-6.83 13.438-8.154 33.268-3.306 49.788 3.524 12.782 5.065 14.322 85.481 95.179 58.163 58.383 85.041 83.94 92.972 88.124 9.476 5.064 13.66 5.946 29.743 5.946s20.272-.882 30.185-5.946c14.98-7.935 26.438-19.831 33.487-34.81 4.626-9.913 5.73-15.202 5.73-29.741 0-22.251-4.626-31.504-25.999-53.534L269.2 489.312h254.242V743.553l-15.863-15.644c-22.033-21.369-31.285-25.995-53.536-25.995-14.541 0-19.827 1.1-29.741 5.727-14.982 7.05-26.881 18.508-34.812 33.487-5.064 9.914-5.946 14.104-5.946 30.185 0 15.421.884 20.487 5.286 28.639 7.491 14.759 160.83 168.097 175.37 175.589 14.539 7.49 33.487 9.03 50.891 3.966 12.781-3.525 14.322-5.064 95.178-85.482 58.383-58.161 83.939-85.045 88.123-92.974 5.066-9.473 5.947-13.656 5.947-29.741 0-16.079-.881-20.271-5.947-30.183-7.934-14.98-19.83-26.438-34.809-33.489-9.914-4.624-15.203-5.727-29.74-5.727-22.256 0-31.508 4.626-53.32 25.997l-16.08 15.643v-254.24h254.244l-15.645 15.862c-21.369 22.027-25.996 31.283-25.996 53.532 0 14.537 1.102 19.829 5.727 29.741 7.051 14.981 18.51 26.879 33.488 34.813 9.914 5.061 14.104 5.944 30.186 5.944 16.078 0 20.268-.884 29.74-5.944 7.929-4.186 34.808-29.744 92.97-88.126z"/></svg>