<svg class="mailpoet_tool_icon" version="1.1" id="Layer_1" xmlns="http://www.w3.org/2000/svg" xmlns:xlink="http://www.w3.org/1999/xlink" x="0px" y="0px" viewBox="0 0 4 16" enable-background="new 0 0 4 16" xml:space="preserve">
    <path fill-rule="evenodd" clip-rule="evenodd" d="M2,0c1.104,0,2,0.896,2,2S3.104,4,2,4S0,3.104,0,2S0.896,0,2,0z"/>
    <path fill-rule="evenodd" clip-rule="evenodd" d="M2,6c1.104,0,2,0.896,2,2s-0.896,2-2,2S0,9.104,0,8S0.896,6,2,6z"/>
    <path fill-rule="evenodd" clip-rule="evenodd" d="M2,12c1.104,0,2,0.896,2,2s-0.896,2-2,2s-2-0.896-2-2S0.896,12,2,12z"/>
</svg>
