<svg xmlns="http://www.w3.org/2000/svg" width="1133.859" height="1133.858" viewBox="-260.929 -260.929 1133.859 1133.858"><path fill="#FFF" d="M864.783 402.658l-.006-196.49H721.211c-10.582-46.311-29.115-89.316-52.93-128.343L770.166-24.062 629.91-164.318 528.024-62.433c-38.375-23.812-81.377-41.677-126.357-52.265v-144.231H203.184v144.231c-45.642 11.246-89.316 29.112-127.688 53.592l-101.884-101.89-138.93 138.934L-63.433 77.825c-23.82 39.027-42.35 82.038-52.929 128.343h-143.567v196.49h144.228c10.587 44.986 28.448 87.99 52.268 126.365l-101.89 101.885 140.27 140.27L76.831 669.291c38.368 23.807 81.371 41.68 126.359 52.258v144.246h198.488V721.543c44.982-10.584 87.982-28.449 126.359-52.258l101.887 101.887 138.934-138.945-101.893-101.879c24.475-38.371 42.338-81.379 53.586-127.689h144.232zm-562.356 99.246c-109.824 0-198.479-88.656-198.479-198.48 0-109.824 88.655-198.479 198.479-198.479 109.825 0 198.487 88.655 198.487 198.479 0 109.824-88.66 198.48-198.487 198.48z"/></svg>