<svg xmlns="http://www.w3.org/2000/svg" width="1133.859" height="1133.858" viewBox="-261.114 -261.113 1133.859 1133.858"><path fill="#FFF" d="M809.12-70.972H577.275l-52.504-122.265c-15.008-35.872-60.031-65.185-99.781-65.185H184.904c-39.756 0-84.784 29.317-99.86 65.185L32.546-70.972h-231.838c-13.529 0-24.032 10.292-24.032 23.468V-.569c0 13.172 10.502 23.392 24.032 23.392h71.951V720.13c0 80.544 54.045 146.502 120.081 146.502h624.297c66.029 0 120.07-68.912 120.07-149.464V22.823h72.023c13.465 0 23.967-10.22 23.967-23.392l-.01-46.935c-.015-13.177-10.519-23.468-23.967-23.468zm-635.572-85.624c2.259-2.959 8.314-7.331 12.755-8.1h237.839c3.805.77 10.504 5.141 12.762 8.1l36.008 85.624H136.831l36.717-85.624zm-12.685 812.167c0 13.176-10.569 23.462-24.029 23.462H88.773c-13.456 0-23.957-10.206-23.957-23.462V140.018c0-13.176 10.501-23.471 23.957-23.471h48.061c13.532 0 24.029 10.295 24.029 23.471v515.553zm192.095 0c0 13.176-10.555 23.462-24.021 23.462h-48.06c-13.532 0-24.028-10.206-24.028-23.462V140.018c0-13.176 10.572-23.471 24.028-23.471h47.99c13.529 0 24.029 10.295 24.031 23.471h.061v515.553zm192.043 0c0 13.176-10.576 23.462-24.035 23.462h-48.057c-13.469 0-23.969-10.206-23.969-23.462V140.018c0-13.176 10.5-23.471 23.969-23.471h48.055c13.537 0 24.037 10.295 24.035 23.471v515.553h.002z"/></svg>