<svg version="1.1" id="Layer_1" xmlns="http://www.w3.org/2000/svg" xmlns:xlink="http://www.w3.org/1999/xlink" x="0px" y="0px"
	 viewBox="86.063 85.506 440.854 612" enable-background="new 86.063 85.506 440.854 612" xml:space="preserve">
<path d="M264.938,85.506h-159.75c-10.557,0-19.125,8.568-19.125,19.125v573.75c0,10.557,8.568,19.125,19.125,19.125h159.75
	c10.557,0,19.125-8.568,19.125-19.125v-573.75C284.062,94.074,275.494,85.506,264.938,85.506z"/>
<path d="M507.792,85.506h-160.75c-10.558,0-19.125,8.568-19.125,19.125v573.75c0,10.557,8.567,19.125,19.125,19.125h160.75
	c10.557,0,19.125-8.568,19.125-19.125v-573.75C526.917,94.074,518.349,85.506,507.792,85.506z"/>
</svg>
