<?xml version="1.0" encoding="utf-8"?>
<!-- Generator: Adobe Illustrator 16.0.0, SVG Export Plug-In . SVG Version: 6.00 Build 0)  -->
<!DOCTYPE svg PUBLIC "-//W3C//DTD SVG 1.1//EN" "http://www.w3.org/Graphics/SVG/1.1/DTD/svg11.dtd">
<svg version="1.1" id="Isolation_Mode" xmlns="http://www.w3.org/2000/svg" xmlns:xlink="http://www.w3.org/1999/xlink" x="0px"
	 y="0px" width="100px" height="56px" viewBox="0 0 100 56" enable-background="new 0 0 100 56" xml:space="preserve">
<path fill="#0073AA" d="M97.286,0c-1.499,0-2.714,1.2-2.714,2.683c0,11.211-4.895,23.281-13.095,32.286
	C72.279,45.069,59.701,50.634,46.06,50.634c-8.53,0-17.074-2.393-24.709-6.921c-4.842-2.88-9.193-6.499-12.889-10.726l12.753,0.416
	c1.498,0.049,2.752-1.112,2.801-2.594c0.049-1.48-1.125-2.72-2.623-2.769L3.747,27.465c-1.013-0.412-2.179-0.18-2.953,0.585
	c-0.775,0.768-1.007,1.919-0.587,2.92l0.581,17.438c0.034,1.483,1.276,2.657,2.775,2.624c1.497-0.033,2.687-1.261,2.653-2.742
	c0-0.02,0-0.038-0.002-0.058L5.878,38.171c3.733,3.944,8,7.357,12.679,10.146C27.035,53.344,36.545,56,46.06,56
	c15.199,0,29.213-6.192,39.453-17.44C94.584,28.596,100,15.186,100,2.683C100,1.2,98.786,0,97.286,0L97.286,0z M97.286,0"/>
</svg>
