<svg width="24" height="24" viewBox="0 0 24 24" fill="none" xmlns="http://www.w3.org/2000/svg">
<path d="M21.781 7.12811C22.333 9.07211 22.237 10.9921 21.757 12.5041C21.253 14.0401 20.245 15.1201 18.997 15.4801C18.805 15.5521 18.685 15.5521 18.517 15.5521C18.445 15.5761 18.373 15.5761 18.301 15.5761C18.229 15.6001 18.133 15.6001 18.037 15.6001H9.87697L12.541 22.2001C12.565 22.3681 12.469 22.5121 12.373 22.6081C12.277 22.7281 12.085 22.8001 11.965 22.8001H8.34097C8.22097 22.8001 8.02897 22.7281 7.93297 22.6081C7.83697 22.5121 7.74097 22.3681 7.76497 22.2001L6.56497 15.6001H5.10097L5.07697 15.5761C4.47697 15.6481 3.78097 15.3601 3.22897 14.8321C2.67697 14.3041 2.17297 13.5361 1.95697 12.5761C1.66897 11.6161 1.71697 10.7041 1.93297 9.93611C2.14897 9.19211 2.62897 8.64011 3.20497 8.37611L3.22897 8.35211L14.029 1.87211C14.149 1.80011 14.245 1.75211 14.317 1.68011C14.389 1.63211 14.485 1.58411 14.605 1.53611C14.797 1.44011 14.941 1.39211 15.205 1.32011C16.453 0.960113 17.893 1.44011 19.069 2.49611C20.245 3.55211 21.277 5.18411 21.781 7.12811ZM18.685 14.3041H18.661C19.141 14.1841 19.549 13.8961 19.909 13.4641C20.605 12.6241 20.941 11.3521 20.941 9.81611C20.941 9.04811 20.821 8.25611 20.605 7.44011C20.197 5.80811 19.381 4.44011 18.469 3.55211C17.557 2.66411 16.453 2.23211 15.517 2.49611C14.533 2.76011 13.837 3.64811 13.477 4.89611C13.093 6.14411 13.141 7.72811 13.549 9.36011C14.005 10.9921 14.749 12.3601 15.709 13.2481C16.645 14.1361 17.653 14.5681 18.685 14.3041ZM15.637 5.80811C15.901 5.76011 16.141 5.78411 16.381 5.85611C16.837 6.04811 17.293 6.43211 17.605 7.05611C17.917 7.68011 18.109 8.49611 18.109 9.19211C18.109 9.55211 18.061 9.86411 17.965 10.1521C17.749 10.7281 17.437 11.1601 16.933 11.2801C16.525 11.4001 15.973 11.2081 15.565 10.8001C15.157 10.3921 14.797 9.76811 14.629 9.00011C14.413 8.25611 14.485 7.51211 14.653 6.93611C14.821 6.36011 15.229 5.92811 15.637 5.80811Z" fill="black"/>
</svg>
