<svg width="24" height="24" viewBox="0 0 24 24" fill="none" xmlns="http://www.w3.org/2000/svg">
<path d="M3.59961 24H20.3996V0H3.59961V24ZM8.39961 3.6H5.99961V1.2H8.39961V3.6ZM13.1996 3.6H10.7996V1.2H13.1996V3.6ZM17.9996 3.6H15.5996V1.2H17.9996V3.6ZM8.39961 7.2H5.99961V4.8H8.39961V7.2ZM13.1996 7.2H10.7996V4.8H13.1996V7.2ZM17.9996 7.2H15.5996V4.8H17.9996V7.2ZM8.39961 10.8H5.99961V8.4H8.39961V10.8ZM13.1996 10.8H10.7996V8.4H13.1996V10.8ZM17.9996 10.8H15.5996V8.4H17.9996V10.8ZM8.39961 14.4H5.99961V12H8.39961V14.4ZM13.1996 14.4H10.7996V12H13.1996V14.4ZM17.9996 14.4H15.5996V12H17.9996V14.4ZM13.1996 22.8H5.99961V15.6H13.1996V22.8ZM17.9996 18H15.5996V15.6H17.9996V18ZM17.9996 21.6H15.5996V19.2H17.9996V21.6Z" fill="black"/>
</svg>
