<svg width="24" height="24" viewBox="0 0 24 24" fill="none" xmlns="http://www.w3.org/2000/svg">
<path d="M7.19922 15.5999H17.9992C18.6592 15.5999 19.1992 16.1399 19.1992 16.7999C19.1992 17.4599 18.6592 17.9999 17.9992 17.9999H5.99922C5.33922 17.9999 4.79922 17.4599 4.79922 16.7999V4.7999H2.39922C1.73922 4.7999 1.19922 4.2599 1.19922 3.5999C1.19922 2.9399 1.73922 2.3999 2.39922 2.3999H5.99922C6.65922 2.3999 7.19922 2.9399 7.19922 3.5999V5.9999H22.7992L17.9992 14.3999H7.19922V15.5999ZM6.59922 19.1999C7.59522 19.1999 8.39922 20.0039 8.39922 20.9999C8.39922 21.9959 7.59522 22.7999 6.59922 22.7999C5.60322 22.7999 4.79922 21.9959 4.79922 20.9999C4.79922 20.0039 5.60322 19.1999 6.59922 19.1999ZM17.3992 19.1999C18.3952 19.1999 19.1992 20.0039 19.1992 20.9999C19.1992 21.9959 18.3952 22.7999 17.3992 22.7999C16.4032 22.7999 15.5992 21.9959 15.5992 20.9999C15.5992 20.0039 16.4032 19.1999 17.3992 19.1999Z" fill="#1F2937"/>
</svg>
