<?xml version="1.0" encoding="utf-8"?>
<!-- Generator: Adobe Illustrator 16.0.0, SVG Export Plug-In . SVG Version: 6.00 Build 0)  -->
<!DOCTYPE svg PUBLIC "-//W3C//DTD SVG 1.1//EN" "http://www.w3.org/Graphics/SVG/1.1/DTD/svg11.dtd">
<svg version="1.1" id="Layer_1" xmlns="http://www.w3.org/2000/svg" xmlns:xlink="http://www.w3.org/1999/xlink" x="0px" y="0px"
	 width="200px" height="240px" viewBox="0 0 200 240" enable-background="new 0 0 200 240" xml:space="preserve">
<g>
	<g>
		<path fill="#FFFFFF" d="M196.201,0H3.8C1.7,0,0,1.7,0,3.8v232.5c0,2.1,1.7,3.799,3.8,3.799h192.401c2.1,0,3.799-1.699,3.799-3.799
			V3.8C200,1.7,198.301,0,196.201,0L196.201,0z"/>
	</g>
</g>
<g>
	<g>
		<g>
			<path fill="#FF4D4D" d="M170,222.599c-0.199,0-0.5-0.1-0.699-0.299L164,216.999c-0.9-0.799-1.4-1.9-1.4-3.199
				c0-2.301,1.9-4.201,4.201-4.201c1.299,0,2.4,0.5,3.199,1.5c0.801-0.898,2-1.5,3.201-1.5c2.299,0,4.199,1.9,4.199,4.201
				c0,1.199-0.5,2.4-1.5,3.199L170.6,222.3C170.5,222.499,170.301,222.599,170,222.599z M167.1,210.999c-1.699,0-3.1,1.4-3.1,3
				c0,0.9,0.4,1.701,1,2.301l5,4.9l0,0l4.9-4.9c0.699-0.6,1.1-1.4,1.1-2.301c0-1.699-1.4-3-3.1-3c-1.1,0-2,0.5-2.6,1.4l-0.301,0.6
				l-0.299-0.6C169.1,211.499,168.1,210.999,167.1,210.999z"/>
		</g>
	</g>
</g>
<g>
	<g>
		<g>
			<path fill="#DDE3E6" d="M106.712,217.599H14.421c-0.818,0-1.5-0.682-1.5-1.501c0-0.817,0.682-1.499,1.5-1.499h92.358
				c0.818,0,1.5,0.682,1.5,1.499C108.211,216.917,107.598,217.599,106.712,217.599z"/>
		</g>
	</g>
</g>
<g>
	<g>
		<path fill="#DDE3E6" d="M196.201,0.9c1.6,0,2.799,1.3,2.799,2.8v232.5c0,1.6-1.299,2.799-2.799,2.799H3.8
			c-1.6,0-2.8-1.299-2.8-2.799V3.8C1,2.2,2.3,1,3.8,1L196.201,0.9 M196.201,0H3.8C1.7,0,0,1.7,0,3.8v232.5
			c0,2.1,1.7,3.799,3.8,3.799h192.401c2.1,0,3.799-1.699,3.799-3.799V3.8C200,1.7,198.301,0,196.201,0L196.201,0z"/>
	</g>
</g>
<g>
	<rect x="0.899" y="191.399" fill="#DDE3E6" width="198.601" height="1.5"/>
</g>
<g>
	<path fill="#DDE3E6" d="M163.801,118.7H36.2c-1.9,0-3.4-1.5-3.4-3.4V38.7c0-1.9,1.5-3.4,3.4-3.4h127.501
		c1.898,0,3.398,1.5,3.398,3.4v76.6C167.1,117.2,165.6,118.7,163.801,118.7z M36.2,37.4c-0.801,0-1.4,0.6-1.4,1.4v76.602
		c0,0.699,0.6,1.398,1.4,1.398h127.501c0.799,0,1.398-0.6,1.398-1.398V38.7c0-0.7-0.6-1.4-1.398-1.4H36.2V37.4z"/>
</g>
<g>
	<rect x="33.899" y="172.999" fill="#DDE3E6" width="37.801" height="2.4"/>
</g>
<g>
	<path fill="#DDE3E6" d="M69.3,165.8H36.2c-1.9,0-3.4-1.5-3.4-3.4v-28.301c0-1.898,1.5-3.398,3.4-3.398h33.1
		c1.9,0,3.4,1.5,3.4,3.398v28.301C72.7,164.3,71.2,165.8,69.3,165.8z M36.2,132.8c-0.801,0-1.4,0.6-1.4,1.4v28.299
		c0,0.701,0.6,1.4,1.4,1.4h33.1c0.8,0,1.4-0.6,1.4-1.4V134.2c0-0.701-0.601-1.4-1.4-1.4H36.2z"/>
</g>
<g>
	<rect x="80.4" y="172.999" fill="#DDE3E6" width="37.801" height="2.4"/>
</g>
<g>
	<path fill="#DDE3E6" d="M115.801,165.8H82.7c-1.9,0-3.4-1.5-3.4-3.4v-28.301c0-1.898,1.5-3.398,3.4-3.398h33.101
		c1.9,0,3.4,1.5,3.4,3.398v28.301C119.201,164.3,117.6,165.8,115.801,165.8z M82.7,132.8c-0.8,0-1.4,0.6-1.4,1.4v28.299
		c0,0.701,0.601,1.4,1.4,1.4h33.101c0.799,0,1.4-0.6,1.4-1.4V134.2c0-0.701-0.602-1.4-1.4-1.4H82.7z"/>
</g>
<g>
	<rect x="126.701" y="172.999" fill="#DDE3E6" width="37.799" height="2.4"/>
</g>
<g>
	<path fill="#DDE3E6" d="M162.1,165.8H129c-1.9,0-3.4-1.5-3.4-3.4v-28.301c0-1.898,1.5-3.398,3.4-3.398h33.1
		c1.9,0,3.4,1.5,3.4,3.398v28.301C165.4,164.3,163.9,165.8,162.1,165.8z M129,132.8c-0.799,0-1.4,0.6-1.4,1.4v28.299
		c0,0.701,0.602,1.4,1.4,1.4h33.1c0.801,0,1.4-0.6,1.4-1.4V134.2c0-0.701-0.6-1.4-1.4-1.4H129z"/>
</g>
<g>
	<path fill="#DDE3E6" d="M107.967,65.958c0,2.469-1.98,4.48-4.414,4.48c-2.432,0-4.411-2.009-4.411-4.48s1.979-4.48,4.411-4.48
		C105.986,61.477,107.967,63.489,107.967,65.958L107.967,65.958z M97.314,65.958c0,3.476,2.801,6.308,6.239,6.308
		c3.441,0,6.238-2.831,6.238-6.308c0-3.479-2.797-6.308-6.238-6.308C100.111,59.65,97.314,62.481,97.314,65.958L97.314,65.958z"/>
	<path fill="#DDE3E6" d="M118.678,74.36l-14.094,13.848L87.908,67.983L65.561,96.492l1.697,1.312L87.95,71.406l21.511,26.089
		l1.664-1.357l-5.17-6.271L118.67,77.37c2.984,2.941,13.779,13.59,14.246,14.054l1.523-1.511
		c-0.539-0.535-15.012-14.807-15.012-14.807L118.678,74.36L118.678,74.36z"/>
</g>
<g>
	<g>
		<path fill="#DDE3E6" d="M40.214,17.787H11.842c-0.423,0-0.756-0.197-0.756-0.447V9.686c0-0.25,0.333-0.447,0.756-0.447h28.35
			c0.422,0,0.755,0.197,0.755,0.447v7.654C40.946,17.589,40.613,17.787,40.214,17.787z"/>
	</g>
	<g>
		<g>
			<g>
				<rect x="99.244" y="12.763" fill="#DDE3E6" width="89.67" height="1.5"/>
			</g>
		</g>
	</g>
</g>
</svg>
