<svg width="40" height="40" viewBox="0 0 40 40" fill="none" xmlns="http://www.w3.org/2000/svg">
<path fill-rule="evenodd" clip-rule="evenodd" d="M27.6721 9.13115H12.3279C10.5624 9.13115 9.13115 10.5624 9.13115 12.3279V27.6721C9.13115 29.4376 10.5624 30.8689 12.3279 30.8689H27.6721C29.4376 30.8689 30.8689 29.4376 30.8689 27.6721V12.3279C30.8689 10.5624 29.4376 9.13115 27.6721 9.13115ZM12.3279 7C9.38537 7 7 9.38537 7 12.3279V27.6721C7 30.6146 9.38537 33 12.3279 33H27.6721C30.6146 33 33 30.6146 33 27.6721V12.3279C33 9.38537 30.6146 7 27.6721 7H12.3279Z" fill="url(#paint0_linear_425_16)"/>
<path fill-rule="evenodd" clip-rule="evenodd" d="M22.7109 15.1798C22.6609 15.1351 22.6082 15.0923 22.5527 15.0515C22.0715 14.6972 21.4184 14.52 20.5935 14.52C20.0329 14.52 19.5597 14.5993 19.1737 14.758C18.7876 14.9113 18.4915 15.1255 18.2853 15.4005C18.0638 15.7036 17.6865 15.9493 17.3603 15.7634C17.1041 15.6175 16.8677 15.4376 16.6576 15.2275C16.2659 14.8358 15.9787 14.3521 15.8222 13.8206C15.7533 13.5865 15.8143 13.3307 15.9986 13.1707C16.4109 12.8129 16.8929 12.5118 17.4445 12.2673C18.3752 11.8549 19.4328 11.6487 20.6173 11.6487C21.8229 11.6487 22.8752 11.8549 23.7742 12.2673C24.6784 12.6798 25.3817 13.2535 25.8841 13.9886C26.0678 14.2575 26.2191 14.5419 26.3377 14.8419C26.6896 15.7316 25.8774 16.5427 24.9207 16.5427C24.1738 16.5427 23.576 15.9841 23.0112 15.4564C22.9102 15.3621 22.8104 15.2687 22.7109 15.1798ZM17.7934 16.9394C17.9352 16.884 18.087 16.9679 18.1663 17.0979C18.3038 17.3147 18.4915 17.5024 18.7295 17.6611C18.9674 17.8144 19.2424 17.9493 19.5544 18.0656C19.8664 18.1766 20.1995 18.2718 20.5538 18.3511L22.0133 18.7002C22.7219 18.8588 23.3723 19.0703 23.9646 19.3347C24.5568 19.5991 25.0697 19.9243 25.5033 20.3103C25.937 20.6964 26.2727 21.1511 26.5107 21.6746C26.754 22.1981 26.8782 22.7983 26.8835 23.4752C26.8782 24.4693 26.6244 25.3313 26.122 26.061C25.625 26.7854 24.9058 27.3486 23.9646 27.7505C23.0286 28.1471 21.8996 28.3454 20.5776 28.3454C19.2662 28.3454 18.124 28.1445 17.151 27.7426C16.1833 27.3407 15.4271 26.7458 14.8825 25.9579C14.6311 25.5882 14.4354 25.1778 14.2955 24.7266C14.0132 23.8165 14.8178 23.0151 15.7707 23.0151H15.8942C16.7178 23.0151 17.3296 23.7217 17.8252 24.3794C18.1055 24.739 18.4783 25.0113 18.9436 25.1964C19.4143 25.3762 19.9457 25.4661 20.5379 25.4661C21.1196 25.4661 21.6246 25.3815 22.053 25.2123C22.4866 25.0431 22.8224 24.8078 23.0603 24.5063C23.2983 24.2049 23.4172 23.8586 23.4172 23.4673C23.4172 23.1024 23.3088 22.7957 23.092 22.5471C22.8805 22.2986 22.5685 22.0871 22.1561 21.9126C21.7489 21.7381 21.2492 21.5794 20.6569 21.4367L18.8881 20.9925C17.7278 20.7102 16.7743 20.2933 16.0277 19.7415C15.8259 19.5924 15.7514 19.3298 15.8222 19.0891C15.9786 18.5577 16.2658 18.074 16.6575 17.6822C16.9815 17.3582 17.3685 17.1056 17.7934 16.9394ZM15.6917 14.6986L15.5362 14.1704C15.5295 14.1475 15.5156 14.1273 15.4965 14.113C15.4773 14.0987 15.4541 14.0909 15.4302 14.0909C15.4063 14.0909 15.3831 14.0987 15.364 14.113C15.3449 14.1273 15.3309 14.1475 15.3242 14.1704L15.169 14.6986C15.0647 15.0528 14.8732 15.3753 14.612 15.6364C14.3509 15.8975 14.0284 16.0889 13.6741 16.1932L13.1459 16.3486C13.0402 16.38 13.0402 16.5297 13.1459 16.5606L13.6741 16.716C14.0284 16.8203 14.3508 17.0118 14.6119 17.2729C14.873 17.534 15.0645 17.8564 15.1688 18.2106L15.3242 18.739C15.3554 18.8446 15.5051 18.8446 15.5362 18.739L15.6917 18.2109C15.7959 17.8566 15.9874 17.5341 16.2485 17.273C16.5096 17.0118 16.832 16.8203 17.1863 16.716L17.7147 16.5606C17.8203 16.5295 17.8203 16.3798 17.7147 16.3488L17.1865 16.1934C16.8322 16.0891 16.5097 15.8977 16.2486 15.6365C15.9874 15.3753 15.7959 15.0529 15.6917 14.6986ZM13.8075 17.8186L13.8541 17.9771C13.8854 18.0834 13.9428 18.1801 14.0212 18.2584C14.0995 18.3368 14.1963 18.3942 14.3026 18.4255L14.461 18.4721C14.4927 18.4814 14.4927 18.5263 14.461 18.5357L14.3025 18.5823C14.1962 18.6136 14.0995 18.671 14.0212 18.7494C13.9428 18.8277 13.8854 18.9245 13.8541 19.0308L13.8075 19.1892C13.7981 19.2209 13.7532 19.2209 13.7439 19.1892L13.6973 19.0307C13.666 18.9244 13.6085 18.8277 13.5302 18.7494C13.4519 18.671 13.3551 18.6136 13.2489 18.5823L13.0904 18.5357C13.0587 18.5264 13.0587 18.4815 13.0904 18.4721L13.2489 18.4254C13.3551 18.3942 13.4519 18.3367 13.5302 18.2584C13.6086 18.1801 13.666 18.0833 13.6973 17.9771L13.7439 17.8186C13.7459 17.8117 13.7501 17.8057 13.7558 17.8014C13.7615 17.7971 13.7685 17.7948 13.7757 17.7948C13.7829 17.7948 13.7898 17.7971 13.7956 17.8014C13.8013 17.8057 13.8055 17.8117 13.8075 17.8186ZM13.5038 13.5075L13.4312 13.261C13.4281 13.2503 13.4216 13.2409 13.4127 13.2342C13.4038 13.2275 13.3929 13.2239 13.3818 13.2239C13.3706 13.2239 13.3598 13.2275 13.3509 13.2342C13.3419 13.2409 13.3354 13.2503 13.3323 13.261L13.2599 13.5075C13.2112 13.6728 13.1218 13.8233 12.9999 13.9451C12.8781 14.067 12.7276 14.1563 12.5622 14.205L12.3158 14.2775C12.2664 14.2922 12.2664 14.362 12.3158 14.3764L12.5622 14.449C12.7276 14.4976 12.878 14.587 12.9999 14.7088C13.1217 14.8307 13.2111 14.9812 13.2598 15.1465L13.3323 15.393C13.3468 15.4423 13.4167 15.4423 13.4312 15.393L13.5038 15.1466C13.5524 14.9812 13.6418 14.8308 13.7636 14.7089C13.8855 14.587 14.036 14.4977 14.2013 14.449L14.4479 14.3764C14.4971 14.3619 14.4971 14.2921 14.4479 14.2776L14.2014 14.2051C14.036 14.1564 13.8855 14.0671 13.7637 13.9452C13.6418 13.8233 13.5524 13.6728 13.5038 13.5075Z" fill="url(#paint1_linear_425_16)"/>
<defs>
<linearGradient id="paint0_linear_425_16" x1="8.69322" y1="32.6948" x2="17.1596" y2="3.23891" gradientUnits="userSpaceOnUse">
<stop stop-color="#C639FF"/>
<stop offset="1" stop-color="#3662FF"/>
</linearGradient>
<linearGradient id="paint1_linear_425_16" x1="13.2299" y1="28.1494" x2="19.3033" y2="9.66634" gradientUnits="userSpaceOnUse">
<stop stop-color="#C639FF"/>
<stop offset="1" stop-color="#3662FF"/>
</linearGradient>
</defs>
</svg>