<?xml version="1.0" encoding="utf-8"?>
<!-- Generator: Adobe Illustrator 25.2.1, SVG Export Plug-In . SVG Version: 6.00 Build 0)  -->
<svg version="1.1" id="Layer_1" xmlns="http://www.w3.org/2000/svg" xmlns:xlink="http://www.w3.org/1999/xlink" x="0px" y="0px"
	 viewBox="0 0 100 100" style="enable-background:new 0 0 100 100;" xml:space="preserve">
<style type="text/css">
	.st0{fill:#FFFFFF;}
</style>
<path class="st0" d="M93,38.4c0,0.3,0,0.5-0.1,0.8l-5.8,23c-0.3,1.2-1.3,2-2.5,2l-34.5,0.2c0,0,0,0,0,0H15.6c-1.2,0-2.2-0.8-2.5-2
	L7.3,39.2c-0.1-0.3-0.1-0.5-0.1-0.8c-2.2-0.7-3.8-2.8-3.8-5.2c0-3,2.5-5.5,5.5-5.5s5.5,2.5,5.5,5.5c0,1.7-0.8,3.2-2,4.2l7.2,7.3
	c1.8,1.8,4.3,2.9,6.9,2.9c3.1,0,6-1.5,7.8-3.9L46.1,28c-1-1-1.6-2.4-1.6-3.9c0-3,2.5-5.5,5.5-5.5s5.5,2.5,5.5,5.5
	c0,1.5-0.6,2.8-1.5,3.8c0,0,0,0,0,0l11.8,15.7c1.8,2.5,4.8,3.9,7.8,3.9c2.6,0,5.1-1,6.9-2.9l7.2-7.2c-1.2-1-2.1-2.5-2.1-4.3
	c0-3,2.5-5.5,5.5-5.5s5.5,2.5,5.5,5.5C96.6,35.6,95.1,37.6,93,38.4z M86.6,72.5c0-1.4-1.2-2.6-2.6-2.6H16.3c-1.4,0-2.6,1.2-2.6,2.6
	v6.3c0,1.4,1.2,2.6,2.6,2.6H84c1.4,0,2.6-1.2,2.6-2.6V72.5z"/>
</svg>
