<?xml version="1.0" encoding="utf-8"?>
<!-- Generator: Adobe Illustrator 25.2.1, SVG Export Plug-In . SVG Version: 6.00 Build 0)  -->
<svg version="1.1" id="bold" xmlns="http://www.w3.org/2000/svg" xmlns:xlink="http://www.w3.org/1999/xlink" x="0px" y="0px"
	 viewBox="0 0 50 50" style="enable-background:new 0 0 50 50;" xml:space="preserve">
<style type="text/css">
	.st0{fill:#4224B8;}
</style>
<g>
	<path class="st0" d="M21.5,27.8H4.2c-1.5,0-2.8-1.2-2.8-2.8s1.2-2.8,2.8-2.8h41.5c1.5,0,2.8,1.2,2.8,2.8s-1.2,2.8-2.8,2.8H21.5"/>
	<path class="st0" d="M21.5,42.5H4.2c-1.5,0-2.8-1.2-2.8-2.8c0-1.5,1.2-2.8,2.8-2.8h41.5c1.5,0,2.8,1.2,2.8,2.8
		c0,1.5-1.2,2.8-2.8,2.8H21.5"/>
	<path class="st0" d="M45.8,13H4.2c-1.5,0-2.8-1.2-2.8-2.8s1.2-2.8,2.8-2.8h41.5c1.5,0,2.8,1.2,2.8,2.8S47.3,13,45.8,13z"/>
</g>
</svg>
