<svg width="400" height="400" viewBox="0 0 400 400" fill="none" xmlns="http://www.w3.org/2000/svg">
<g clip-path="url(#clip0_30641_151024)">
<mask id="mask0_30641_151024" style="mask-type:alpha" maskUnits="userSpaceOnUse" x="0" y="0" width="400" height="400">
<rect width="400" height="400" fill="url(#paint0_linear_30641_151024)"/>
</mask>
<g mask="url(#mask0_30641_151024)">
<path opacity="0.1" fill-rule="evenodd" clip-rule="evenodd" d="M449.654 138.045C447.501 136.132 445.228 134.301 442.836 132.552C422.095 117.386 393.946 109.802 358.389 109.802C334.229 109.802 313.829 113.198 297.191 119.989C280.552 126.553 267.788 135.722 258.9 147.493C249.351 160.47 233.089 170.986 219.027 163.031C207.99 156.785 197.797 149.081 188.744 140.091C171.86 123.322 159.48 102.614 152.738 79.8637C149.767 69.8409 152.396 58.8858 160.342 52.0385C178.112 36.7243 198.884 23.8343 222.659 13.3697C262.774 -4.28653 308.359 -13.1152 359.415 -13.1152C411.383 -13.1152 456.74 -4.28653 495.487 13.3697C534.462 31.0271 564.776 55.5874 586.43 87.053C594.35 98.5622 600.868 110.739 605.983 123.582C621.151 161.666 586.142 196.387 544.904 196.387C512.714 196.387 486.944 172.476 462.6 149.887C458.249 145.849 453.943 141.854 449.654 138.045ZM237.702 213.375C243.813 211.001 250.356 214.593 253.772 220.156C259.697 229.437 267.788 237.473 278.045 244.264C288.302 250.828 300.155 256.601 313.602 261.582C327.05 266.335 341.408 270.409 356.68 273.805L419.587 288.745C450.13 295.536 478.165 304.591 503.693 315.909C529.221 327.228 551.329 341.149 570.019 357.674C588.709 374.198 603.183 393.667 613.439 416.076C623.923 438.487 629.281 464.18 629.508 493.154C629.281 535.712 618.34 572.609 596.686 603.849C575.262 634.86 544.263 658.968 503.693 676.172C463.349 693.15 414.688 701.639 357.706 701.639C301.18 701.639 251.948 693.036 210.009 675.832C168.299 658.628 135.705 633.162 112.229 599.434C101.394 583.609 92.9606 566.04 86.9276 546.725C74.7589 507.767 109.441 473.461 150.512 473.461H155.837C191.336 473.461 217.705 503.708 239.07 531.864C251.15 547.257 267.219 558.914 287.276 566.836C307.562 574.534 330.469 578.382 355.996 578.382C381.069 578.382 402.835 574.76 421.297 567.516C439.987 560.272 454.46 550.199 464.718 537.297C474.974 524.394 480.102 509.566 480.102 492.815C480.102 477.195 475.429 464.067 466.085 453.427C456.967 442.788 443.521 433.734 425.741 426.264C408.191 418.793 386.652 412.002 361.124 405.89L284.883 386.875C234.871 374.793 193.773 356.943 161.593 333.325C152.893 326.941 149.683 315.702 152.738 305.396C159.477 282.648 171.856 261.941 188.739 245.172C202.705 231.299 219.387 220.487 237.702 213.375ZM147.107 117.451L140.406 94.8417C140.118 93.8597 139.516 92.9972 138.693 92.3839C137.869 91.7705 136.868 91.439 135.838 91.439C134.808 91.439 133.807 91.7705 132.983 92.3839C132.159 92.9972 131.557 93.8597 131.269 94.8417L124.579 117.451C120.083 132.616 111.829 146.419 100.572 157.597C89.3161 168.774 75.4162 176.969 60.1446 181.432L37.3786 188.086C32.82 189.429 32.82 195.837 37.3786 197.161L60.1446 203.814C75.4138 208.278 89.3114 216.475 100.567 227.652C111.822 238.829 120.074 252.631 124.569 267.796L131.269 290.414C132.611 294.932 139.065 294.932 140.406 290.414L147.107 267.805C151.6 252.639 159.852 238.835 171.108 227.656C182.362 216.477 196.261 208.279 211.531 203.814L234.307 197.161C238.856 195.827 238.856 189.419 234.307 188.095L211.541 181.442C196.268 176.978 182.368 168.781 171.111 157.601C159.854 146.423 151.601 132.618 147.107 117.451ZM65.8939 250.993L67.9042 257.775C69.2525 262.326 71.7284 266.467 75.1056 269.821C78.4817 273.174 82.6527 275.633 87.2335 276.972L94.0637 278.969C95.4284 279.367 95.4284 281.289 94.0637 281.689L87.2311 283.685C82.6504 285.024 78.4805 287.483 75.1033 290.838C71.7273 294.192 69.2513 298.333 67.9042 302.882L65.8939 309.665C65.4912 311.02 63.5557 311.02 63.153 309.665L61.1427 302.879C59.7944 298.331 57.3184 294.189 53.9412 290.836C50.5652 287.482 46.3954 285.024 41.8146 283.685L34.9855 281.689C33.6173 281.291 33.6173 279.369 34.9855 278.967L41.8146 276.97C46.3965 275.631 50.5664 273.173 53.9436 269.819C57.3208 266.466 59.7968 262.325 61.1451 257.775L63.153 250.993C63.2393 250.699 63.4191 250.44 63.6666 250.256C63.9141 250.071 64.2141 249.972 64.5234 249.972C64.8316 249.972 65.1328 250.071 65.3791 250.256C65.6266 250.44 65.8076 250.699 65.8939 250.993ZM52.8019 66.467L49.6757 55.9167C49.5403 55.4587 49.2601 55.0564 48.876 54.77C48.4908 54.4837 48.0238 54.3283 47.5429 54.3283C47.0631 54.3283 46.595 54.4837 46.2109 54.77C45.8269 55.0564 45.5455 55.4587 45.4113 55.9167L42.2886 66.467C40.1908 73.5451 36.3396 79.9854 31.0865 85.2026C25.8333 90.4187 19.3462 94.2423 12.2195 96.3258L1.59521 99.4306C-0.531737 100.057 -0.531737 103.048 1.59521 103.666L12.2195 106.771C19.3451 108.854 25.831 112.679 31.083 117.895C36.3361 123.111 40.1873 129.552 42.2851 136.628L45.4113 147.184C46.0382 149.292 49.0488 149.292 49.6757 147.184L52.8019 136.633C54.8985 129.556 58.7496 123.113 64.0028 117.896C69.2548 112.68 75.7407 108.854 82.8663 106.771L93.4952 103.666C95.6187 103.043 95.6187 100.053 93.4952 99.4352L82.871 96.3292C75.7442 94.247 69.2571 90.4222 64.004 85.205C58.7508 79.9877 54.8997 73.5451 52.8019 66.467Z" fill="url(#paint1_linear_30641_151024)"/>
</g>
</g>
<defs>
<linearGradient id="paint0_linear_30641_151024" x1="400" y1="200" x2="0" y2="200" gradientUnits="userSpaceOnUse">
<stop stop-color="#D9D9D9"/>
<stop offset="1" stop-color="#737373" stop-opacity="0"/>
</linearGradient>
<linearGradient id="paint1_linear_30641_151024" x1="40.9963" y1="693.25" x2="299.552" y2="-99.0267" gradientUnits="userSpaceOnUse">
<stop stop-color="#C639FF"/>
<stop offset="1" stop-color="#3662FF"/>
</linearGradient>
<clipPath id="clip0_30641_151024">
<rect width="400" height="400" fill="white"/>
</clipPath>
</defs>
</svg>
