<!-- <svg width="18" height="18" viewBox="0 0 18 18" fill="none" xmlns="http://www.w3.org/2000/svg">
<path d="M7.17766 12.2532L6.5 14.625L5.82234 12.2532C5.4664 11.0074 4.4926 10.0336 3.24682 9.67766L0.875 9L3.24683 8.32234C4.4926 7.9664 5.4664 6.9926 5.82234 5.74682L6.5 3.375L7.17766 5.74683C7.5336 6.9926 8.5074 7.9664 9.75318 8.32234L12.125 9L9.75317 9.67766C8.5074 10.0336 7.5336 11.0074 7.17766 12.2532Z" stroke="#D1DAE5" stroke-width="1.5" stroke-linecap="round" stroke-linejoin="round"/>
<path d="M14.2157 6.26211L14 7.125L13.7843 6.26212C13.5324 5.25444 12.7456 4.46764 11.7379 4.21572L10.875 4L11.7379 3.78428C12.7456 3.53236 13.5324 2.74556 13.7843 1.73789L14 0.875L14.2157 1.73788C14.4676 2.74556 15.2544 3.53236 16.2621 3.78428L17.125 4L16.2621 4.21572C15.2544 4.46764 14.4676 5.25444 14.2157 6.26211Z" stroke="#D1DAE5" stroke-width="1.5" stroke-linecap="round" stroke-linejoin="round"/>
<path d="M13.0785 16.1394L12.75 17.125L12.4215 16.1394C12.2348 15.5795 11.7955 15.1402 11.2356 14.9535L10.25 14.625L11.2356 14.2965C11.7955 14.1098 12.2348 13.6705 12.4215 13.1106L12.75 12.125L13.0785 13.1106C13.2652 13.6705 13.7045 14.1098 14.2644 14.2965L15.25 14.625L14.2644 14.9535C13.7045 15.1402 13.2652 15.5795 13.0785 16.1394Z" stroke="#D1DAE5" stroke-width="1.5" stroke-linecap="round" stroke-linejoin="round"/>
</svg> -->
<svg width="18" height="18" viewBox="-2 -2 20 20" fill="none" xmlns="http://www.w3.org/2000/svg">
<path d="M7.17766 12.2532L6.5 14.625L5.82234 12.2532C5.4664 11.0074 4.4926 10.0336 3.24682 9.67766L0.875 9L3.24683 8.32234C4.4926 7.9664 5.4664 6.9926 5.82234 5.74682L6.5 3.375L7.17766 5.74683C7.5336 6.9926 8.5074 7.9664 9.75318 8.32234L12.125 9L9.75317 9.67766C8.5074 10.0336 7.5336 11.0074 7.17766 12.2532Z" stroke="#D1DAE5" stroke-width="1.5" stroke-linecap="round" stroke-linejoin="round"/>
<path d="M14.2157 6.26211L14 7.125L13.7843 6.26212C13.5324 5.25444 12.7456 4.46764 11.7379 4.21572L10.875 4L11.7379 3.78428C12.7456 3.53236 13.5324 2.74556 13.7843 1.73789L14 0.875L14.2157 1.73788C14.4676 2.74556 15.2544 3.53236 16.2621 3.78428L17.125 4L16.2621 4.21572C15.2544 4.46764 14.4676 5.25444 14.2157 6.26211Z" stroke="#D1DAE5" stroke-width="1.5" stroke-linecap="round" stroke-linejoin="round"/>
<path d="M13.0785 16.1394L12.75 17.125L12.4215 16.1394C12.2348 15.5795 11.7955 15.1402 11.2356 14.9535L10.25 14.625L11.2356 14.2965C11.7955 14.1098 12.2348 13.6705 12.4215 13.1106L12.75 12.125L13.0785 13.1106C13.2652 13.6705 13.7045 14.1098 14.2644 14.2965L15.25 14.625L14.2644 14.9535C13.7045 15.1402 13.2652 15.5795 13.0785 16.1394Z" stroke="#D1DAE5" stroke-width="1.5" stroke-linecap="round" stroke-linejoin="round"/>
</svg>
